<?xml version="1.0" encoding="utf-8"?>
<!-- Generator: Adobe Illustrator 25.2.1, SVG Export Plug-In . SVG Version: 6.00 Build 0)  -->
<svg version="1.1" id="Sport" xmlns="http://www.w3.org/2000/svg" xmlns:xlink="http://www.w3.org/1999/xlink" x="0px" y="0px"
	 viewBox="0 0 2662.9 792" style="enable-background:new 0 0 2662.9 792;" xml:space="preserve">
<style type="text/css">
	.st0{fill:#FFFFFF;}
	.st1{fill:#8EC648;}
	.st2{fill:#58B150;}
	.st3{fill:#94C253;}
</style>
<circle class="st0" cx="393.9" cy="398" r="31.2"/>
<g>
	<path class="st1" d="M1297.5,376c-21.4-15.8-28.4-21.5-30.4-23.5c-5.1-5.1-8.7-9.8-10.5-13.9c-1.8-4.1-2.7-8.1-2.7-12.4
		c0-6.7,2.3-12.2,7.1-16.8c4.9-4.7,11.1-6.9,19-6.9c6.3,0,12,1.6,17.3,4.8c3.8,2.3,10.7,8,21.2,22l4.2,5.6l30.8-23.3l-4.1-5.6
		c-11.8-16.1-22.8-26.9-33.6-33.1c-10.9-6.2-22.8-9.4-35.4-9.4c-11.9,0-23,2.8-33.1,8.3c-10.2,5.6-18.3,13.3-24,23.1
		c-5.6,9.7-8.5,20.5-8.5,32.3c0,14.7,4.8,28.5,14.2,41.1c5.4,7.4,18.2,18.7,39,34.4c19.4,14.6,32.8,27.1,39.9,37.2
		c4.7,6.6,6.9,13.1,6.9,19.8c0,5.9-1.5,11.3-4.6,16.6c-3.1,5.3-7.5,9.4-13.5,12.5c-6.1,3.3-12.5,4.8-19.5,4.8
		c-16.1,0-30.9-12.2-43.9-36.2l-3.5-6.4l-32.6,19.5l3.2,5.9c10.6,19.3,22.5,33.4,35.3,41.8c13,8.6,27.7,12.9,43.7,12.9
		c20.8,0,38.8-7.2,53.4-21.4c14.6-14.2,22.1-31.3,22.1-50.7c0-13.5-4.3-26.9-12.8-40.1C1334,406.1,1319.3,392.1,1297.5,376z"/>
	<path class="st1" d="M1486.1,327.8c-15.6,0-30,3.4-42.8,10.2c-7.5,4-14.6,9.1-21,15.5v-21h-37v258h37v-85.5
		c6.9,6.2,14.3,11.3,22.2,15.2c12.8,6.4,27.1,9.6,42.3,9.6c27.1,0,50.6-10,69.7-29.6c19.1-19.6,28.8-43.8,28.8-71.8
		c0-27.5-9.8-51.4-29.1-70.9C1536.9,337.8,1513.3,327.8,1486.1,327.8z M1548,429c0,11.3-3,22.3-8.8,32.6
		c-5.8,10.3-13.7,18.5-23.4,24.2c-9.7,5.7-20.2,8.6-31.2,8.6c-11.3,0-22.2-2.9-32.4-8.6c-10.1-5.7-18-13.4-23.4-23.1
		c-5.4-9.7-8.2-20.9-8.2-33.1c0-18.9,6-34.3,18.4-46.9c12.3-12.6,27.1-18.7,45.2-18.7c11.5,0,22.2,2.9,31.9,8.5
		c9.7,5.6,17.5,13.6,23.2,23.9C1545.1,406.6,1548,417.6,1548,429z"/>
	<path class="st1" d="M1702.5,327.8c-29.6,0-54.4,10.9-73.8,32.3c-17.6,19.4-26.5,42.6-26.5,69.1c0,26.7,9.4,50.3,27.9,70.2
		c18.7,20.1,43,30.2,72.3,30.2c29.2,0,53.5-10.2,72.1-30.2c18.5-19.9,27.9-43.5,27.9-70.2c0-26.5-8.9-49.8-26.5-69.2
		C1756.7,338.7,1731.9,327.8,1702.5,327.8z M1702.4,364.3c17.2,0,31.6,6.2,44.2,19.1c12.6,12.9,18.7,28,18.7,46.3
		c0,11.6-2.9,22.6-8.5,32.7c-5.6,10-13.2,17.8-22.7,23.2c-9.5,5.4-20.2,8.2-31.6,8.2c-11.5,0-22.1-2.8-31.6-8.2
		c-9.5-5.4-17.1-13.2-22.7-23.2c-5.6-10-8.5-21-8.5-32.7c0-18.3,6.1-33.5,18.6-46.3C1670.6,370.6,1685.1,364.3,1702.4,364.3z"/>
	<path class="st1" d="M1896,327.8c-9.8,0-19.2,3-28.1,8.8c-3.9,2.5-7.6,5.6-11.3,9.3v-13.5H1819V525h37.5v-67.4
		c0-30.2,1.3-50.3,4-59.8c3.3-11.9,8.1-20.6,14.1-26c5.8-5.2,11.6-7.7,17.5-7.7c1.6,0,4.5,0.4,9.4,2.5l5.5,2.4l19-30.7l-6.4-3.6
		C1911.5,330.2,1903.5,327.8,1896,327.8z"/>
	<polygon class="st1" points="2002.7,332.4 2002.7,266.1 1965.7,266.1 1965.7,332.4 1934.3,332.4 1934.3,366.3 1965.7,366.3 
		1965.7,525 2002.7,525 2002.7,366.3 2039.1,366.3 2039.1,332.4 	"/>
</g>
<g>
	<path class="st0" d="M739.4,432.6H815c-4,17-12.7,30.8-26.5,42.1c-15.8,12.9-35.5,19.4-58.6,19.4c-19.2,0-37.1-4.4-53.1-13.2
		c-16-8.7-28.7-20.8-37.7-36c-9-15.2-13.6-31.4-13.6-48.2c0-16.4,4.4-32.2,13.1-46.9c8.7-14.7,21.2-26.6,37.1-35.2
		c16-8.7,33.1-13.1,50.8-13.1c14.2,0,29,3.3,44.1,9.7c15.1,6.5,29.3,16.1,42.1,28.7l4.8,4.7l29-27.5L841,312
		c-17.7-16.8-36.3-29.3-55-36.9c-18.8-7.7-39.2-11.6-60.4-11.6c-26.4,0-50.4,5.9-71.4,17.5c-21.1,11.7-37.9,28.1-49.9,48.8
		c-12.1,20.7-18.2,43.4-18.2,67.4c0,32.3,10.7,61.2,31.7,85.8c27.3,31.9,64.8,48.1,111.4,48.1c38.5,0,69.8-11.8,93-35
		c23.2-23.2,35.1-54.8,35.3-93.8l0-7H739.4V432.6z"/>
	<path class="st0" d="M973.9,327.8c-29.6,0-54.4,10.9-73.8,32.3c-17.6,19.4-26.5,42.6-26.5,69.1c0,26.7,9.4,50.3,27.9,70.2
		c18.7,20.1,43,30.2,72.3,30.2c29.2,0,53.5-10.2,72.1-30.2c18.5-19.9,27.9-43.5,27.9-70.2c0-26.5-8.9-49.8-26.5-69.2
		C1028.1,338.7,1003.3,327.8,973.9,327.8z M1028.1,462.4c-5.6,10-13.2,17.8-22.7,23.2c-9.5,5.4-20.2,8.2-31.6,8.2
		c-11.5,0-22.1-2.8-31.6-8.2c-9.5-5.4-17.1-13.2-22.7-23.2c-5.6-10-8.5-21-8.5-32.7c0-18.3,6.1-33.5,18.6-46.3
		c12.5-12.8,26.9-19.1,44.2-19.1c17.2,0,31.6,6.2,44.2,19.1c12.6,12.9,18.7,28,18.7,46.3C1036.6,441.4,1033.8,452.4,1028.1,462.4z"
		/>
	<polygon class="st0" points="1156.1,332.4 1156.1,266.1 1119.1,266.1 1119.1,332.4 1087.8,332.4 1087.8,366.3 1119.1,366.3 
		1119.1,525 1156.1,525 1156.1,366.3 1192.6,366.3 1192.6,332.4 	"/>
</g>
<g>
	<path class="st2" d="M393.9,248c-20.2,0-39.6,4-57.2,11.3l-67.9-52.3l-30.5,39.6L292,288l40.4,31.1c15.3-12,34.2-19.6,54.8-20.9
		c2.2-0.1,4.4-0.2,6.6-0.2c48.7,0,89.2,34.8,98.2,80.9c1.2,6.2,1.8,12.6,1.8,19.1c0,13.9-2.9,27.2-8,39.2l40.4,31.1
		c8.2-15.5,13.9-32.5,16.3-50.6c0.9-6.5,1.3-13.1,1.3-19.8C543.9,315.3,476.6,248,393.9,248z"/>
</g>
<path class="st3" d="M393.9,548c20.2,0,39.6-4,57.2-11.3l67.9,52.3l30.5-39.6L495.8,508l-40.4-31.1c-15.3,12-34.2,19.6-54.8,20.9
	c-2.2,0.1-4.4,0.2-6.6,0.2c-48.7,0-89.2-34.8-98.2-80.9c-1.2-6.2-1.8-12.6-1.8-19.1c0-13.9,2.9-27.2,8-39.2l-40.4-31.1
	c-8.2,15.5-13.9,32.5-16.3,50.6c-0.9,6.5-1.3,13.1-1.3,19.8C243.9,480.7,311.1,548,393.9,548z"/>
</svg>
