<?xml version="1.0" encoding="UTF-8" standalone="no"?>
<!DOCTYPE svg PUBLIC "-//W3C//DTD SVG 1.1//EN" "http://www.w3.org/Graphics/SVG/1.1/DTD/svg11.dtd">
<svg xmlns="http://www.w3.org/2000/svg" version="1.1" viewBox="0.00 0.00 1536.00 1024.00">
<path fill="#ffffff" fill-opacity="0.996" d="
  M 724.98 410.16
  Q 717.52 405.22 713.52 401.74
  Q 707.90 396.85 701.55 388.67
  C 699.46 385.99 698.33 383.49 696.61 381.04
  Q 694.95 378.69 693.00 375.20
  Q 685.99 362.71 679.45 345.06
  Q 677.94 341.01 676.18 333.77
  Q 675.40 330.60 671.20 315.80
  Q 669.97 311.48 666.92 291.55
  C 665.68 283.46 665.24 274.62 664.07 265.26
  Q 663.72 262.42 664.46 260.62
  A 0.40 0.40 0.0 0 0 664.19 260.08
  Q 663.23 259.84 663.18 259.87
  A 0.78 0.77 72.6 0 0 662.82 260.56
  Q 664.00 282.98 664.33 286.48
  Q 665.18 295.47 668.08 311.85
  Q 669.54 320.14 672.40 329.53
  Q 676.93 344.40 677.85 346.90
  Q 679.66 351.79 687.13 368.21
  C 691.29 377.35 698.80 387.28 704.11 394.21
  A 9.65 9.61 2.9 0 0 705.19 395.40
  Q 708.82 398.69 712.02 402.74
  Q 701.63 402.20 697.77 401.48
  C 676.61 397.52 656.69 387.70 641.86 371.97
  Q 624.30 353.35 617.29 327.47
  Q 617.27 327.41 615.18 319.05
  C 611.97 306.26 610.88 292.49 610.94 279.50
  Q 610.95 277.48 611.60 276.58
  A 1.27 1.26 12.4 0 1 612.42 276.06
  Q 615.52 275.53 618.00 275.50
  Q 638.18 275.29 654.87 275.36
  A 0.53 0.53 0.0 0 0 655.40 274.81
  Q 654.86 260.53 655.28 257.30
  Q 655.74 253.74 659.43 253.44
  Q 661.77 253.25 677.26 253.26
  Q 770.84 253.31 850.63 253.32
  A 1.47 1.47 0.0 0 1 852.09 254.93
  C 851.89 257.03 851.11 258.33 849.26 260.20
  Q 845.90 263.61 836.46 271.79
  Q 831.83 275.80 823.71 283.40
  Q 796.80 308.57 764.65 337.52
  A 1.91 1.91 0.0 0 1 762.20 337.61
  L 728.83 311.68
  A 0.52 0.52 0.0 0 0 728.16 311.71
  L 703.58 334.84
  A 0.62 0.62 0.0 0 0 703.65 335.79
  L 766.80 380.62
  A 1.03 1.03 0.0 0 0 768.21 380.40
  Q 791.23 349.94 803.25 334.04
  Q 810.27 324.76 817.07 315.79
  Q 841.91 283.05 853.83 268.06
  Q 861.78 258.05 863.76 255.77
  C 865.43 253.84 866.91 253.34 869.74 253.33
  Q 895.36 253.23 920.06 253.26
  A 0.90 0.89 85.0 0 1 920.94 254.01
  Q 921.46 256.98 919.42 259.17
  Q 914.76 264.17 909.99 269.24
  Q 907.53 271.85 895.48 285.81
  C 893.95 287.57 892.06 288.98 890.59 290.59
  Q 887.60 293.88 880.53 301.78
  Q 879.82 302.58 877.95 304.09
  A 1.98 1.39 -8.5 0 0 877.75 304.28
  L 861.00 323.00
  A 0.21 0.21 0.0 0 0 861.00 323.28
  L 861.19 323.48
  A 0.11 0.11 0.0 0 0 861.35 323.48
  L 872.37 312.19
  A 0.79 0.75 -75.8 0 1 872.70 311.98
  L 874.63 311.38
  A 0.38 0.38 0.0 0 1 875.12 311.84
  Q 872.39 322.45 872.13 323.43
  Q 864.28 353.28 847.16 379.25
  C 842.64 386.10 837.05 392.36 831.64 398.63
  Q 829.17 401.48 821.99 407.45
  Q 807.66 419.33 789.38 422.92
  Q 759.12 428.86 732.34 414.90
  Q 728.41 412.85 724.98 410.16
  Z
  M 909.7097 259.9174
  A 0.25 0.25 0.0 0 0 909.4584 259.6687
  L 870.7590 259.8713
  A 0.25 0.25 0.0 0 0 870.5103 260.1226
  A 0.25 0.25 0.0 0 0 870.7616 260.3713
  L 909.4610 260.1687
  A 0.25 0.25 0.0 0 0 909.7097 259.9174
  Z
  M 841.44 260.04
  A 0.26 0.26 0.0 0 0 841.18 259.78
  L 665.78 259.78
  A 0.26 0.26 0.0 0 0 665.52 260.04
  A 0.26 0.26 0.0 0 0 665.78 260.30
  L 841.18 260.30
  A 0.26 0.26 0.0 0 0 841.44 260.04
  Z
  M 842.89 259.82
  Q 842.67 259.76 842.37 259.83
  A 0.27 0.26 49.6 0 0 842.33 260.33
  Q 842.61 260.44 842.87 260.39
  A 0.29 0.29 0.0 0 0 842.89 259.82
  Z
  M 654.31 280.99
  L 620.30 281.13
  A 0.85 0.82 -75.3 0 0 619.57 281.57
  Q 619.01 282.62 619.23 283.80
  A 0.20 0.20 0.0 0 0 619.61 283.83
  C 620.36 281.70 623.54 281.54 625.25 281.58
  Q 628.23 281.66 654.18 281.53
  A 0.20 0.20 0.0 0 0 654.38 281.33
  L 654.38 281.06
  A 0.07 0.07 0.0 0 0 654.31 280.99
  Z
  M 672.34 382.32
  A 0.09 0.09 0.0 0 0 672.30 382.20
  Q 655.44 374.42 644.44 361.04
  Q 632.86 346.97 627.19 328.31
  Q 624.54 319.55 622.59 308.48
  Q 620.66 297.54 620.25 288.26
  Q 620.23 287.84 619.63 285.14
  A 0.11 0.11 0.0 0 0 619.41 285.17
  C 619.62 310.73 625.90 337.44 641.00 358.31
  Q 644.60 363.29 650.85 368.99
  Q 660.25 377.56 672.12 382.41
  A 0.17 0.17 0.0 0 0 672.33 382.33
  L 672.34 382.32
  Z
  M 674.03 364.14
  Q 665.61 344.31 662.54 331.49
  Q 658.41 314.22 656.70 301.45
  A 0.66 0.65 -4.0 0 0 656.05 300.89
  L 639.05 300.89
  A 0.41 0.41 0.0 0 0 638.65 301.38
  Q 640.25 309.28 641.91 316.38
  Q 645.83 333.08 654.71 347.02
  C 659.18 354.02 666.29 361.34 673.73 364.43
  A 0.23 0.22 0.7 0 0 674.03 364.14
  Z"
/>
<path fill="#ffffff" fill-opacity="0.996" d="
  M 832.91 401.56
  Q 839.25 395.78 845.11 387.61
  Q 850.09 380.67 855.18 371.99
  A 6.90 6.88 -87.3 0 1 858.23 369.21
  C 860.80 368.01 863.56 366.83 866.04 364.97
  C 886.20 349.81 893.72 324.34 896.75 300.39
  A 0.47 0.46 -86.7 0 0 896.29 299.87
  L 886.54 299.87
  A 0.44 0.44 0.0 0 1 886.25 299.10
  Q 889.69 296.18 892.05 293.33
  Q 894.85 289.97 897.74 287.44
  Q 908.08 278.34 910.44 276.70
  Q 913.54 274.55 919.36 274.57
  A 1.71 1.70 -27.3 0 1 920.34 274.88
  Q 921.54 275.75 921.57 277.49
  Q 922.03 305.01 914.45 330.72
  Q 908.70 350.21 897.30 365.57
  Q 891.92 372.82 882.32 381.05
  Q 869.83 391.75 854.23 397.21
  Q 849.35 398.92 840.08 401.31
  Q 835.87 402.39 833.06 402.04
  A 0.28 0.27 -62.6 0 1 832.91 401.56
  Z"
/>
<path fill="#ffffff" fill-opacity="0.996" d="
  M 896.16 287.80
  L 895.81 287.33
  A 0.03 0.03 0.0 0 1 895.81 287.29
  Q 899.96 281.77 904.64 279.00
  A 0.32 0.32 0.0 0 1 905.02 279.50
  L 896.20 287.81
  A 0.03 0.02 -27.1 0 1 896.16 287.80
  Z"
/>
<path fill="#ffffff" fill-opacity="0.996" d="
  M 894.22 289.42
  Q 894.18 289.19 894.66 288.91
  A 0.25 0.25 0.0 0 1 895.03 289.07
  Q 895.08 289.36 894.56 289.60
  A 0.25 0.24 -16.2 0 1 894.22 289.42
  Z"
/>
<ellipse fill="#ffffff" fill-opacity="0.996" cx="0.00" cy="0.00" transform="translate(892.56,290.91) rotate(-45.8)" rx="1.19" ry="0.43"/>
<path fill="#ffffff" fill-opacity="0.996" d="
  M 889.49 293.75
  Q 889.84 292.93 890.60 292.70
  A 0.36 0.36 0.0 0 1 890.95 293.30
  Q 890.29 293.94 889.49 293.75
  Z"
/>
<path fill="#ffffff" fill-opacity="0.996" d="
  M 889.49 293.75
  Q 889.46 293.99 889.34 294.16
  Q 889.25 294.28 889.11 294.28
  Q 888.96 294.29 888.89 294.17
  A 0.04 0.04 0.0 0 1 888.89 294.13
  Q 889.12 293.84 889.49 293.75
  Z"
/>
<path fill="#ffffff" fill-opacity="0.996" d="
  M 839.33 391.12
  C 840.37 389.85 843.23 386.28 845.08 385.60
  A 0.24 0.24 0.0 0 1 845.37 385.95
  Q 845.27 386.12 840.43 392.02
  C 839.39 393.28 836.53 396.85 834.68 397.52
  A 0.24 0.24 0.0 0 1 834.39 397.18
  Q 834.49 397.00 839.33 391.12
  Z"
/>
<path fill="#ffffff" fill-opacity="0.996" d="
  M 797.95 428.26
  C 799.43 441.71 802.43 454.05 809.37 464.37
  C 817.75 476.82 829.39 476.04 843.09 476.14
  A 3.01 2.99 78.4 0 1 845.83 477.96
  Q 846.59 479.72 846.63 482.25
  Q 846.82 495.11 846.51 500.90
  A 2.33 2.32 -88.4 0 1 844.19 503.10
  L 692.53 503.10
  A 2.93 2.93 0.0 0 1 689.79 501.21
  Q 688.97 499.05 688.88 495.26
  Q 688.73 488.89 689.03 480.04
  Q 689.14 477.04 692.35 476.60
  C 698.20 475.81 706.47 476.68 711.75 475.15
  C 722.51 472.03 729.80 464.74 734.06 454.13
  Q 738.82 442.27 739.08 428.82
  A 1.66 1.66 0.0 0 1 740.99 427.20
  Q 741.07 427.21 756.92 429.14
  Q 764.14 430.02 769.61 429.88
  Q 780.14 429.62 782.32 429.38
  Q 783.03 429.30 796.81 427.37
  A 1.01 1.01 0.0 0 1 797.95 428.26
  Z
  M 722.55 479.67
  Q 724.27 478.32 727.61 475.85
  Q 740.15 466.58 744.42 450.94
  Q 746.36 443.81 747.52 429.83
  A 0.18 0.17 -88.4 0 0 747.35 429.64
  L 746.99 429.64
  A 0.27 0.27 0.0 0 0 746.72 429.89
  Q 745.47 441.55 743.93 448.02
  Q 738.82 469.45 719.44 480.07
  A 4.28 4.19 26.6 0 1 717.92 480.56
  Q 708.32 481.69 697.57 481.38
  A 1.55 1.55 0.0 0 0 695.98 482.86
  C 695.74 488.20 695.26 494.04 696.70 498.02
  A 0.17 0.17 0.0 0 0 696.96 498.10
  L 697.25 497.89
  A 0.22 0.22 0.0 0 0 697.33 497.63
  Q 696.63 495.43 696.62 494.44
  Q 696.59 488.13 696.68 484.10
  A 1.71 1.71 0.0 0 1 698.29 482.44
  L 721.51 481.20
  A 0.71 0.60 -35.5 0 1 721.74 481.22
  C 724.70 481.92 727.86 481.13 731.29 481.12
  Q 761.71 481.06 792.25 481.12
  Q 814.39 481.17 831.25 481.76
  Q 841.04 482.11 842.84 482.12
  A 0.03 0.02 0.0 0 0 842.87 482.10
  L 842.87 481.80
  A 0.16 0.16 0.0 0 0 842.72 481.64
  Q 837.29 481.10 832.34 481.15
  C 825.93 481.21 819.16 480.38 813.00 480.11
  Q 800.40 479.57 731.81 479.68
  C 728.68 479.68 725.71 480.75 722.69 480.21
  A 0.31 0.30 30.7 0 1 722.55 479.67
  Z"
/>
<ellipse fill="#ffffff" fill-opacity="0.996" cx="0.00" cy="0.00" transform="translate(968.31,551.18) rotate(-17.3)" rx="8.71" ry="7.71"/>
<path fill="#ffffff" fill-opacity="0.996" d="
  M 368.65 609.31
  A 0.58 0.58 0.0 0 1 368.07 608.68
  L 372.63 556.63
  A 0.32 0.31 2.5 0 0 372.31 556.29
  L 352.28 556.29
  A 0.70 0.69 -87.4 0 1 351.59 555.53
  L 352.45 545.71
  A 1.40 1.39 2.5 0 1 353.84 544.44
  L 410.91 544.44
  A 0.82 0.81 -87.7 0 1 411.72 545.32
  L 410.88 554.90
  A 1.65 1.65 0.0 0 1 409.24 556.41
  L 388.12 556.41
  A 0.19 0.18 1.6 0 0 387.93 556.58
  L 383.38 608.62
  A 0.76 0.75 -87.5 0 1 382.63 609.31
  L 368.65 609.31
  Z"
/>
<path fill="#ffffff" fill-opacity="0.996" d="
  M 859.56 609.35
  L 846.72 609.35
  A 0.91 0.91 0.0 0 1 845.82 608.35
  L 851.96 545.31
  A 0.91 0.91 0.0 0 1 852.87 544.49
  L 865.71 544.49
  A 0.91 0.91 0.0 0 1 866.61 545.49
  L 860.47 608.53
  A 0.91 0.91 0.0 0 1 859.56 609.35
  Z"
/>
<path fill="#ffffff" fill-opacity="0.996" d="
  M 1044.35 568.15
  A 0.28 0.28 0.0 0 0 1044.83 568.36
  Q 1050.01 562.98 1057.05 562.30
  Q 1064.53 561.57 1069.21 564.83
  C 1073.72 567.97 1074.12 574.34 1073.38 580.21
  Q 1071.57 594.37 1071.01 608.52
  A 0.82 0.81 1.1 0 1 1070.19 609.30
  L 1056.73 609.30
  A 0.58 0.57 -87.3 0 1 1056.16 608.67
  Q 1057.37 596.86 1058.78 580.80
  Q 1059.23 575.66 1053.70 574.59
  C 1047.19 573.31 1043.46 579.39 1042.72 585.05
  Q 1041.25 596.16 1040.59 608.52
  A 0.87 0.87 0.0 0 1 1039.72 609.34
  L 1026.75 609.34
  A 0.95 0.95 0.0 0 1 1025.80 608.31
  L 1031.31 545.33
  A 0.91 0.91 0.0 0 1 1032.22 544.50
  L 1045.69 544.50
  A 0.67 0.67 0.0 0 1 1046.36 545.23
  L 1044.35 568.15
  Z"
/>
<path fill="#ffffff" fill-opacity="0.996" d="
  M 845.33 562.96
  A 0.95 0.95 0.0 0 1 846.28 563.99
  L 845.59 571.81
  A 0.81 0.80 -88.8 0 1 844.83 572.55
  L 834.78 573.09
  A 0.64 0.63 -90.0 0 0 834.18 573.70
  Q 833.97 578.17 833.16 584.91
  C 832.81 587.82 832.86 591.88 832.90 595.43
  A 2.61 2.50 36.3 0 0 833.05 596.29
  C 834.06 599.11 838.33 599.29 840.65 597.97
  A 0.88 0.88 0.0 0 1 841.96 598.69
  L 842.41 607.08
  A 1.38 1.36 80.9 0 1 841.41 608.48
  Q 834.35 610.40 828.25 609.79
  C 817.79 608.74 817.39 600.52 818.13 592.03
  Q 819.31 578.49 819.93 573.00
  A 0.62 0.60 2.0 0 0 819.29 572.33
  L 815.04 572.56
  A 1.12 1.12 0.0 0 1 813.87 571.33
  L 814.54 564.43
  A 1.60 1.60 0.0 0 1 816.27 562.99
  L 819.85 563.30
  A 0.92 0.92 0.0 0 0 820.85 562.46
  L 821.95 549.90
  A 0.93 0.93 0.0 0 1 822.88 549.05
  L 835.76 549.05
  A 0.82 0.81 -87.4 0 1 836.57 549.94
  L 835.48 562.39
  A 0.53 0.52 2.5 0 0 836.01 562.96
  L 845.33 562.96
  Z"
/>
<path fill="#ffffff" fill-opacity="0.996" d="
  M 1106.44 599.99
  Q 1107.39 604.16 1106.35 607.24
  A 2.34 2.33 0.5 0 1 1104.86 608.70
  Q 1098.14 610.87 1090.41 609.48
  C 1083.25 608.19 1081.10 601.25 1081.73 594.74
  Q 1082.78 583.64 1083.69 573.18
  A 0.64 0.63 0.8 0 0 1083.02 572.50
  L 1078.84 572.72
  A 1.26 1.26 0.0 0 1 1077.52 571.34
  L 1078.23 564.12
  A 1.50 1.49 5.4 0 1 1079.86 562.78
  L 1084.05 563.19
  A 0.78 0.77 -84.1 0 0 1084.90 562.49
  L 1086.14 549.70
  A 0.80 0.80 0.0 0 1 1086.94 548.98
  L 1099.82 548.98
  A 1.00 0.99 -87.4 0 1 1100.81 550.07
  L 1099.59 562.53
  A 0.38 0.37 2.7 0 0 1099.97 562.94
  L 1109.52 562.94
  A 1.28 1.28 0.0 0 1 1110.79 564.35
  L 1110.10 571.45
  A 1.47 1.47 0.0 0 1 1108.64 572.78
  L 1098.88 572.78
  A 0.68 0.68 0.0 0 0 1098.20 573.39
  Q 1097.02 584.50 1096.67 593.26
  C 1096.46 598.56 1099.83 599.13 1104.12 598.43
  A 2.04 2.04 0.0 0 1 1106.44 599.99
  Z"
/>
<path fill="#ffffff" fill-opacity="0.996" d="
  M 415.50 563.02
  C 427.29 560.56 440.30 563.12 445.32 574.83
  Q 448.02 581.11 446.43 588.85
  C 444.20 599.65 436.41 607.03 425.88 609.23
  C 414.09 611.68 401.09 609.12 396.06 597.42
  Q 393.36 591.13 394.95 583.40
  C 397.18 572.60 404.97 565.22 415.50 563.02
  Z
  M 425.4159 573.6900
  A 13.55 11.41 -69.0 0 0 409.9078 582.2510
  A 13.55 11.41 -69.0 0 0 415.7041 598.9900
  A 13.55 11.41 -69.0 0 0 431.2122 590.4290
  A 13.55 11.41 -69.0 0 0 425.4159 573.6900
  Z"
/>
<path fill="#ffffff" fill-opacity="0.996" d="
  M 550.56 609.30
  L 537.61 609.30
  A 0.94 0.93 -87.2 0 1 536.68 608.27
  L 541.01 563.78
  A 0.55 0.54 -87.1 0 1 541.55 563.29
  L 553.64 563.29
  A 0.57 0.57 0.0 0 1 554.21 563.86
  L 554.21 568.66
  A 0.55 0.55 0.0 0 0 555.22 568.97
  C 560.64 560.78 578.84 559.10 583.99 569.25
  Q 586.01 573.24 585.65 577.68
  Q 584.81 587.82 582.77 608.77
  A 0.56 0.55 -87.1 0 1 582.22 609.27
  L 569.37 609.27
  A 0.97 0.97 0.0 0 1 568.40 608.23
  Q 569.75 591.92 570.55 584.56
  C 571.15 579.04 570.97 575.67 565.63 574.43
  Q 563.49 573.94 560.59 575.19
  C 553.58 578.21 553.21 585.56 552.59 592.81
  Q 552.33 595.92 551.37 608.55
  A 0.81 0.81 0.0 0 1 550.56 609.30
  Z"
/>
<path fill="#ffffff" fill-opacity="0.996" d="
  M 616.62 605.09
  Q 606.84 612.76 595.50 608.91
  C 590.59 607.25 588.22 604.14 587.81 599.05
  C 587.03 589.22 594.04 584.42 602.69 582.48
  Q 609.24 581.01 616.06 581.16
  A 2.88 2.88 0.0 0 0 618.88 577.46
  L 618.83 577.28
  A 5.49 5.49 0.0 0 0 613.36 573.35
  Q 603.50 573.72 596.29 577.54
  A 1.02 1.02 0.0 0 1 594.90 577.07
  L 591.54 569.86
  A 1.26 1.25 59.1 0 1 591.92 568.32
  Q 596.97 564.58 604.01 563.26
  C 609.97 562.14 617.94 561.18 623.83 563.45
  Q 631.54 566.42 632.87 573.68
  Q 633.30 575.98 632.51 584.91
  Q 631.78 593.33 631.45 596.19
  C 630.99 600.15 631.04 603.24 630.87 608.56
  A 0.84 0.84 0.0 0 1 630.02 609.37
  L 618.22 609.23
  A 0.74 0.64 49.3 0 1 618.02 609.20
  Q 616.40 608.71 617.10 605.39
  A 0.30 0.30 0.0 0 0 616.62 605.09
  Z
  M 617.27 589.77
  Q 610.60 589.25 605.19 591.22
  Q 600.44 592.94 602.08 597.99
  A 1.81 1.80 -82.9 0 0 602.80 598.92
  C 607.64 602.02 614.07 600.79 616.79 595.38
  A 2.90 2.79 -28.0 0 0 617.07 594.52
  L 617.74 590.38
  A 0.53 0.52 -82.9 0 0 617.27 589.77
  Z"
/>
<path fill="#ffffff" fill-opacity="0.996" d="
  M 518.39 569.54
  C 522.59 563.11 529.42 561.34 536.47 562.37
  A 1.23 1.22 -81.2 0 1 537.50 563.78
  L 535.77 574.45
  A 1.18 1.18 0.0 0 1 534.36 575.42
  C 530.84 574.69 524.37 574.89 521.79 578.04
  C 519.40 580.96 518.24 583.89 517.81 587.59
  Q 516.63 597.72 515.94 608.40
  A 1.01 1.01 0.0 0 1 514.93 609.35
  L 501.98 609.35
  A 0.41 0.41 0.0 0 1 501.57 608.90
  L 505.47 564.25
  A 1.07 1.05 -87.3 0 1 506.52 563.28
  L 517.30 563.28
  A 1.23 1.23 0.0 0 1 518.51 564.71
  L 517.77 569.29
  A 0.34 0.34 0.0 0 0 518.39 569.54
  Z"
/>
<path fill="#ffffff" fill-opacity="0.996" d="
  M 653.60 569.73
  C 654.19 569.47 655.29 567.00 656.62 566.05
  Q 666.11 559.23 676.83 564.35
  Q 678.44 565.12 680.95 568.36
  A 0.63 0.62 -34.0 0 0 681.75 568.51
  C 683.29 567.58 684.93 565.84 686.55 564.97
  Q 694.18 560.89 702.32 562.73
  C 715.29 565.66 711.98 579.49 711.05 589.00
  Q 709.97 600.01 709.82 608.42
  A 0.89 0.89 0.0 0 1 708.93 609.29
  L 695.11 609.29
  A 0.80 0.80 0.0 0 1 694.31 608.42
  Q 695.95 590.37 696.71 584.68
  C 697.43 579.20 696.57 573.89 690.02 574.37
  A 3.60 3.58 -59.2 0 0 688.85 574.67
  Q 683.14 577.19 682.29 582.61
  Q 680.54 593.80 679.90 608.09
  A 1.26 1.25 1.2 0 1 678.64 609.29
  L 666.36 609.29
  A 0.87 0.87 0.0 0 1 665.49 608.36
  Q 666.21 597.49 667.73 585.25
  C 668.29 580.73 668.45 573.46 661.37 574.52
  C 655.75 575.37 653.42 580.20 652.80 585.36
  Q 651.41 596.69 650.70 607.96
  A 1.47 1.46 -88.1 0 1 649.24 609.33
  L 636.69 609.33
  A 0.56 0.56 0.0 0 1 636.13 608.72
  L 640.06 563.88
  A 0.58 0.58 0.0 0 1 640.64 563.34
  L 652.40 563.34
  A 0.96 0.96 0.0 0 1 653.36 564.35
  L 653.11 569.40
  A 0.35 0.34 -10.6 0 0 653.60 569.73
  Z"
/>
<path fill="#ffffff" fill-opacity="0.996" d="
  M 759.23 604.19
  Q 752.31 608.73 744.75 609.68
  C 739.78 610.30 732.00 610.37 727.18 608.40
  C 714.61 603.27 712.42 589.77 717.03 578.01
  C 721.27 567.18 730.25 563.02 741.27 562.17
  Q 749.56 561.53 755.58 566.10
  C 761.06 570.25 763.18 577.16 761.32 583.57
  C 760.69 585.76 757.97 587.25 755.63 587.62
  Q 743.63 589.51 730.24 589.12
  A 1.07 1.07 0.0 0 0 729.16 590.41
  C 730.70 597.53 737.95 600.06 744.73 598.91
  Q 748.75 598.23 755.17 595.26
  A 0.21 0.19 -24.7 0 1 755.44 595.35
  L 759.35 603.73
  A 0.37 0.35 60.7 0 1 759.23 604.19
  Z
  M 730.74 580.61
  L 745.80 580.61
  A 2.29 2.28 -5.8 0 0 748.04 577.87
  L 747.77 576.50
  A 4.35 4.34 -88.4 0 0 744.19 572.71
  Q 734.70 571.09 730.32 579.94
  A 0.47 0.46 13.1 0 0 730.74 580.61
  Z"
/>
<path fill="#ffffff" fill-opacity="0.996" d="
  M 780.06 569.54
  A 0.29 0.29 0.0 0 0 780.57 569.73
  L 783.54 566.41
  A 4.50 4.50 0.0 0 1 784.62 565.52
  Q 793.32 560.34 802.32 563.26
  Q 811.76 566.32 810.89 577.30
  Q 809.73 592.09 808.15 608.37
  A 1.03 1.02 -87.2 0 1 807.13 609.30
  L 795.11 609.30
  A 1.24 1.24 0.0 0 1 793.87 607.98
  Q 794.16 603.33 796.08 584.27
  Q 796.60 579.04 795.06 576.42
  A 2.35 2.32 -89.6 0 0 794.29 575.63
  C 788.20 571.75 782.09 576.57 780.27 582.56
  Q 779.60 584.77 779.26 587.76
  Q 777.88 600.01 777.18 607.75
  A 1.70 1.69 2.6 0 1 775.49 609.29
  L 763.54 609.29
  A 0.90 0.90 0.0 0 1 762.65 608.30
  L 766.92 564.45
  A 1.24 1.23 2.8 0 1 768.15 563.34
  L 779.52 563.34
  A 0.54 0.54 0.0 0 1 780.06 563.88
  L 780.06 569.54
  Z"
/>
<path fill="#ffffff" fill-opacity="0.996" d="
  M 884.01 568.58
  A 0.35 0.35 0.0 0 0 884.62 568.82
  Q 891.58 561.21 902.24 562.30
  Q 911.78 563.28 913.86 571.69
  Q 914.40 573.91 914.21 577.72
  Q 913.92 583.42 913.87 583.78
  Q 912.18 596.79 911.92 608.73
  A 0.56 0.56 0.0 0 1 911.36 609.28
  L 897.85 609.28
  A 0.67 0.66 -88.0 0 1 897.19 608.56
  Q 898.01 597.13 899.59 584.27
  C 900.19 579.43 900.09 573.92 893.46 574.10
  C 887.10 574.26 884.10 580.30 883.42 585.94
  Q 882.04 597.30 881.42 608.17
  A 1.19 1.19 0.0 0 1 880.23 609.30
  L 867.47 609.30
  A 0.63 0.63 0.0 0 1 866.84 608.61
  L 871.19 564.00
  A 0.78 0.78 0.0 0 1 871.97 563.30
  L 883.03 563.30
  A 0.98 0.98 0.0 0 1 884.01 564.28
  L 884.01 568.58
  Z"
/>
<path fill="#ffffff" fill-opacity="0.996" d="
  M 952.34 574.96
  A 0.97 0.97 0.0 0 1 950.95 575.42
  Q 943.90 571.18 934.92 573.45
  Q 932.61 574.04 932.56 576.25
  A 2.96 2.34 9.2 0 0 934.81 578.71
  C 943.52 580.95 956.14 584.46 953.79 596.53
  C 952.40 603.67 947.05 607.62 939.97 609.23
  C 932.73 610.88 922.62 610.75 916.67 605.46
  A 0.33 0.32 25.2 0 1 916.56 605.16
  L 917.95 596.58
  A 0.86 0.86 0.0 0 1 919.18 595.95
  Q 925.28 598.95 932.03 599.50
  C 934.69 599.72 936.57 599.16 938.54 597.78
  Q 939.74 596.96 939.87 595.99
  A 2.58 2.48 15.7 0 0 938.30 593.31
  Q 937.77 593.09 927.15 589.15
  Q 919.83 586.43 918.58 579.61
  C 917.01 571.05 923.85 564.89 931.79 563.03
  Q 940.92 560.90 949.74 563.83
  C 953.82 565.18 955.84 565.80 954.18 570.40
  Q 953.74 571.60 952.34 574.96
  Z"
/>
<path fill="#ffffff" fill-opacity="0.996" d="
  M 1006.63 603.39
  A 0.22 0.22 0.0 0 0 1006.23 603.25
  Q 1000.20 610.85 990.29 609.43
  Q 978.71 607.77 976.22 596.26
  Q 975.25 591.75 976.35 584.05
  Q 977.63 575.06 984.98 568.05
  Q 992.16 561.21 1002.50 562.51
  Q 1007.68 563.16 1010.28 567.30
  A 0.44 0.44 0.0 0 0 1011.09 567.02
  Q 1010.91 565.24 1011.44 563.89
  A 0.88 0.86 -78.9 0 1 1012.24 563.34
  L 1023.76 563.34
  A 0.88 0.88 0.0 0 1 1024.64 564.19
  Q 1024.71 566.18 1024.28 571.00
  Q 1022.49 591.35 1020.77 605.38
  Q 1019.24 617.77 1009.01 623.50
  C 1000.25 628.39 985.23 627.91 976.18 623.68
  A 0.88 0.88 0.0 0 1 975.69 622.75
  L 977.16 613.67
  A 1.03 1.03 0.0 0 1 978.61 612.91
  Q 986.09 616.42 994.49 616.33
  Q 1002.06 616.25 1005.19 609.47
  Q 1006.59 606.42 1006.63 603.39
  Z
  M 1007.80 576.17
  C 1006.51 574.14 1003.24 573.10 1000.73 573.49
  C 992.02 574.84 989.91 584.37 991.04 592.01
  C 991.87 597.56 996.50 600.18 1001.79 597.82
  Q 1004.85 596.46 1005.89 594.35
  C 1008.06 589.97 1010.71 580.72 1007.80 576.17
  Z"
/>
<path fill="#ffffff" fill-opacity="0.996" d="
  M 1145.40 575.48
  A 0.72 0.71 -67.5 0 1 1144.37 575.91
  Q 1136.15 571.37 1127.61 573.78
  A 1.67 1.66 -78.9 0 0 1126.77 574.35
  C 1125.11 576.48 1126.72 578.32 1129.09 578.80
  Q 1132.99 579.60 1139.64 582.36
  Q 1147.07 585.45 1147.74 592.23
  C 1148.67 601.54 1141.39 608.06 1132.79 609.48
  Q 1121.81 611.30 1111.55 607.45
  A 2.67 2.65 -75.3 0 1 1109.86 604.54
  L 1111.16 596.56
  A 1.08 1.08 0.0 0 1 1112.65 595.74
  Q 1117.12 597.66 1121.71 599.04
  Q 1126.48 600.47 1131.26 598.78
  A 2.12 1.95 -74.0 0 0 1131.98 598.34
  Q 1133.35 597.08 1133.38 596.02
  A 3.26 2.99 -81.8 0 0 1131.21 592.84
  Q 1125.49 591.22 1120.06 588.76
  C 1107.04 582.86 1111.60 567.46 1122.93 563.67
  C 1129.64 561.42 1136.41 561.97 1143.51 563.90
  Q 1146.11 564.61 1147.68 565.73
  A 0.80 0.80 0.0 0 1 1147.99 566.62
  L 1145.40 575.48
  Z"
/>
<path fill="#ffffff" fill-opacity="0.996" d="
  M 481.51 603.78
  A 0.63 0.63 0.0 0 0 480.41 603.30
  Q 475.89 608.41 469.53 609.75
  Q 467.12 610.25 461.11 609.81
  Q 453.41 609.25 450.52 601.03
  Q 449.97 599.46 450.48 593.25
  Q 451.31 583.19 453.00 564.73
  A 1.58 1.57 2.6 0 1 454.57 563.30
  L 466.48 563.30
  A 1.34 1.34 0.0 0 1 467.81 564.79
  Q 465.78 582.72 465.23 588.75
  C 464.87 592.74 464.79 596.27 468.95 598.42
  A 2.51 2.44 57.9 0 0 470.09 598.70
  Q 476.27 598.72 479.58 594.44
  Q 481.72 591.67 482.39 584.54
  Q 483.58 571.85 484.21 564.56
  A 1.43 1.42 -87.6 0 1 485.63 563.25
  L 497.90 563.25
  A 1.02 1.02 0.0 0 1 498.91 564.37
  L 494.60 608.67
  A 0.73 0.73 0.0 0 1 493.87 609.33
  L 481.85 609.33
  A 0.80 0.79 -87.1 0 1 481.06 608.45
  L 481.51 603.78
  Z"
/>
<path fill="#ffffff" fill-opacity="0.996" d="
  M 960.41 563.32
  L 973.07 563.32
  A 0.80 0.80 0.0 0 1 973.86 564.19
  L 969.97 608.57
  A 0.80 0.80 0.0 0 1 969.18 609.30
  L 956.52 609.30
  A 0.80 0.80 0.0 0 1 955.73 608.43
  L 959.62 564.05
  A 0.80 0.80 0.0 0 1 960.41 563.32
  Z"
/>
<path fill="#ffffff" fill-opacity="0.996" d="
  M 748.9797 674.2259
  A 12.05 10.17 -0.4 0 1 737.0010 684.4798
  A 12.05 10.17 -0.4 0 1 724.8803 674.3941
  A 12.05 10.17 -0.4 0 1 736.8590 664.1402
  A 12.05 10.17 -0.4 0 1 748.9797 674.2259
  Z
  M 731.1846 674.0192
  A 5.75 5.29 -177.7 0 0 736.7177 679.5357
  A 5.75 5.29 -177.7 0 0 742.6754 674.4808
  A 5.75 5.29 -177.7 0 0 737.1423 668.9643
  A 5.75 5.29 -177.7 0 0 731.1846 674.0192
  Z"
/>
<path fill="#ffffff" fill-opacity="0.996" d="
  M 882.6691 674.1346
  A 11.90 10.14 -0.7 0 1 870.8939 684.4192
  A 11.90 10.14 -0.7 0 1 858.8709 674.4254
  A 11.90 10.14 -0.7 0 1 870.6461 664.1408
  A 11.90 10.14 -0.7 0 1 882.6691 674.1346
  Z
  M 876.4500 674.3199
  A 5.77 5.25 -0.2 0 0 870.6617 669.0900
  A 5.77 5.25 -0.2 0 0 864.9100 674.3601
  A 5.77 5.25 -0.2 0 0 870.6983 679.5900
  A 5.77 5.25 -0.2 0 0 876.4500 674.3199
  Z"
/>
<path fill="#ffffff" fill-opacity="0.996" d="
  M 583.2093 674.1136
  A 12.07 10.14 -0.6 0 1 571.2462 684.3794
  A 12.07 10.14 -0.6 0 1 559.0707 674.3664
  A 12.07 10.14 -0.6 0 1 571.0338 664.1006
  A 12.07 10.14 -0.6 0 1 583.2093 674.1136
  Z
  M 565.4148 673.8560
  A 5.79 5.29 -175.9 0 0 570.8118 679.5465
  A 5.79 5.29 -175.9 0 0 576.9652 674.6840
  A 5.79 5.29 -175.9 0 0 571.5682 668.9935
  A 5.79 5.29 -175.9 0 0 565.4148 673.8560
  Z"
/>
<path fill="#ffffff" fill-opacity="0.996" d="
  M 678.55 678.26
  Q 678.98 678.55 682.18 679.35
  Q 686.05 680.32 689.01 678.87
  A 0.66 0.65 -47.9 0 0 688.95 677.67
  Q 686.75 676.85 682.40 675.78
  C 677.57 674.60 675.02 670.31 679.13 666.40
  C 682.13 663.55 688.04 664.29 692.56 665.27
  A 1.98 1.98 0.0 0 1 694.12 667.40
  L 693.97 668.88
  A 1.37 1.37 0.0 0 1 692.16 670.04
  Q 688.00 668.60 683.89 669.40
  A 0.95 0.95 0.0 0 0 683.88 671.27
  Q 686.24 671.76 691.50 673.22
  C 697.72 674.95 695.96 682.38 690.79 683.60
  Q 684.51 685.08 677.96 682.89
  A 1.49 1.48 14.5 0 1 676.97 681.22
  L 677.40 678.75
  A 0.75 0.74 -68.0 0 1 678.55 678.26
  Z"
/>
<path fill="#ffffff" fill-opacity="0.996" d="
  M 802.10 681.22
  L 802.52 678.75
  A 0.75 0.75 0.0 0 1 803.66 678.25
  Q 804.10 678.53 807.30 679.31
  Q 811.18 680.25 814.13 678.78
  A 0.66 0.66 0.0 0 0 814.06 677.58
  Q 811.86 676.78 807.50 675.74
  C 802.66 674.59 800.07 670.32 804.16 666.38
  C 807.14 663.51 813.06 664.20 817.59 665.15
  A 1.98 1.98 0.0 0 1 819.16 667.27
  L 819.02 668.75
  A 1.37 1.37 0.0 0 1 817.22 669.93
  Q 813.05 668.52 808.94 669.35
  A 0.95 0.95 0.0 0 0 808.95 671.22
  Q 811.31 671.69 816.58 673.11
  C 822.82 674.80 821.11 682.24 815.95 683.50
  Q 809.68 685.03 803.11 682.88
  A 1.49 1.48 14.1 0 1 802.10 681.22
  Z"
/>
<path fill="#ffffff" fill-opacity="0.996" d="
  M 502.05 665.44
  A 0.69 0.69 0.0 0 1 502.73 664.74
  L 512.30 664.64
  A 10.76 9.16 -0.6 0 1 523.15 673.69
  L 523.16 674.59
  A 10.76 9.16 -0.6 0 1 512.50 683.86
  L 502.93 683.96
  A 0.69 0.69 0.0 0 1 502.23 683.28
  L 502.05 665.44
  Z
  M 507.99 669.80
  L 508.07 678.80
  A 0.64 0.64 0.0 0 0 508.72 679.43
  L 510.93 679.41
  A 6.12 4.96 -0.5 0 0 517.01 674.40
  L 517.01 674.04
  A 6.12 4.96 -0.5 0 0 510.85 669.13
  L 508.63 669.15
  A 0.64 0.64 0.0 0 0 507.99 669.80
  Z"
/>
<path fill="#ffffff" fill-opacity="0.996" d="
  M 647.66 672.02
  Q 649.41 672.02 651.28 672.03
  A 0.63 0.62 -0.0 0 0 651.91 671.41
  L 651.91 665.33
  A 0.74 0.74 0.0 0 1 652.65 664.59
  L 657.29 664.59
  A 0.55 0.55 0.0 0 1 657.83 665.15
  Q 657.77 668.24 657.77 674.19
  Q 657.77 680.15 657.84 683.24
  A 0.55 0.55 0.0 0 1 657.29 683.80
  L 652.65 683.80
  A 0.74 0.74 0.0 0 1 651.91 683.06
  L 651.91 676.98
  A 0.63 0.62 0.0 0 0 651.28 676.36
  Q 649.42 676.37 647.66 676.37
  Q 645.91 676.37 644.05 676.36
  A 0.63 0.62 -0.0 0 0 643.42 676.98
  L 643.42 683.06
  A 0.74 0.74 0.0 0 1 642.68 683.80
  L 638.04 683.80
  A 0.55 0.55 0.0 0 1 637.49 683.24
  Q 637.56 680.15 637.56 674.20
  Q 637.56 668.25 637.49 665.15
  A 0.55 0.55 0.0 0 1 638.04 664.60
  L 642.68 664.59
  A 0.74 0.74 0.0 0 1 643.42 665.33
  L 643.42 671.41
  A 0.63 0.62 0.0 0 0 644.05 672.03
  Q 645.91 672.02 647.66 672.02
  Z"
/>
<path fill="#ffffff" fill-opacity="0.996" d="
  M 707.24 679.32
  L 707.45 683.21
  A 0.74 0.74 0.0 0 1 706.71 683.99
  L 702.40 683.99
  A 0.79 0.79 0.0 0 1 701.61 683.20
  L 701.61 665.40
  A 0.63 0.63 0.0 0 1 702.22 664.77
  Q 706.18 664.64 713.48 664.75
  C 716.21 664.79 719.73 666.96 720.14 669.86
  C 721.34 678.41 714.49 678.40 707.79 678.71
  A 0.58 0.57 87.5 0 0 707.24 679.32
  Z
  M 706.94 669.80
  L 706.98 673.64
  A 0.71 0.71 0.0 0 0 707.70 674.34
  L 710.74 674.31
  A 3.49 2.29 -0.6 0 0 714.20 671.98
  L 714.20 671.30
  A 3.49 2.29 -0.6 0 0 710.68 669.05
  L 707.64 669.08
  A 0.71 0.71 0.0 0 0 706.94 669.80
  Z"
/>
<path fill="#ffffff" fill-opacity="0.996" d="
  M 898.28 679.57
  C 901.01 679.58 902.32 677.96 902.37 675.25
  Q 902.48 670.15 902.41 665.33
  A 0.59 0.59 0.0 0 1 903.00 664.73
  L 908.10 664.73
  A 0.64 0.64 0.0 0 1 908.74 665.39
  Q 908.61 670.87 908.60 675.24
  C 908.58 681.98 904.26 684.31 898.26 684.28
  C 892.26 684.26 887.96 681.90 888.00 675.15
  Q 888.02 670.79 887.94 665.31
  A 0.64 0.64 0.0 0 1 888.58 664.65
  L 893.68 664.69
  A 0.59 0.59 0.0 0 1 894.27 665.30
  Q 894.16 670.12 894.22 675.22
  C 894.26 677.92 895.55 679.56 898.28 679.57
  Z"
/>
<path fill="#ffffff" fill-opacity="0.996" d="
  M 1099.88 681.77
  L 1100.14 678.75
  A 0.75 0.75 0.0 0 1 1101.20 678.13
  Q 1106.07 680.31 1110.50 679.44
  Q 1111.27 679.29 1111.62 679.00
  A 0.89 0.89 0.0 0 0 1111.27 677.47
  Q 1107.02 676.35 1104.48 675.56
  C 1099.41 674.00 1098.18 669.30 1102.55 666.00
  C 1105.75 663.58 1112.94 664.52 1116.37 665.60
  A 0.82 0.82 0.0 0 1 1116.91 666.61
  L 1115.97 669.79
  A 0.66 0.66 0.0 0 1 1115.12 670.23
  C 1112.41 669.26 1108.57 668.28 1106.01 669.98
  A 0.75 0.74 -56.0 0 0 1106.27 671.33
  C 1110.42 672.18 1117.09 673.02 1117.85 676.90
  Q 1118.53 680.34 1115.73 682.43
  C 1112.01 685.20 1104.70 684.23 1100.63 682.91
  A 1.09 1.09 0.0 0 1 1099.88 681.77
  Z"
/>
<path fill="#ffffff" fill-opacity="0.996" d="
  M 372.31 677.58
  Q 372.38 677.58 372.44 677.56
  A 0.31 0.31 0.0 0 0 372.62 677.38
  L 377.36 665.14
  A 0.45 0.45 0.0 0 1 377.78 664.85
  L 383.74 664.85
  A 0.15 0.14 -78.8 0 1 383.87 665.05
  L 376.05 683.15
  A 1.36 1.35 -81.6 0 1 374.97 683.95
  Q 374.83 683.97 372.25 683.95
  Q 369.67 683.92 369.53 683.90
  A 1.36 1.35 82.8 0 1 368.47 683.07
  L 361.01 664.82
  A 0.15 0.14 80.0 0 1 361.15 664.62
  L 367.10 664.74
  A 0.45 0.45 0.0 0 1 367.52 665.04
  L 372.01 677.37
  A 0.31 0.31 0.0 0 0 372.19 677.56
  Q 372.25 677.58 372.31 677.58
  Z"
/>
<path fill="#ffffff" fill-opacity="0.996" d="
  M 393.94 679.49
  L 403.76 679.49
  A 0.64 0.64 0.0 0 1 404.40 680.13
  L 404.40 683.25
  A 0.64 0.64 0.0 0 1 403.76 683.89
  L 388.01 683.89
  A 0.64 0.64 0.0 0 1 387.37 683.25
  L 387.37 665.39
  A 0.64 0.64 0.0 0 1 388.01 664.75
  L 403.28 664.75
  A 0.64 0.64 0.0 0 1 403.92 665.39
  L 403.92 668.60
  A 0.64 0.64 0.0 0 1 403.28 669.24
  L 393.98 669.24
  A 0.64 0.64 0.0 0 0 393.34 669.88
  L 393.34 671.42
  A 0.64 0.64 0.0 0 0 393.98 672.06
  L 401.70 672.06
  A 0.64 0.64 0.0 0 1 402.34 672.70
  L 402.34 675.69
  A 0.64 0.64 0.0 0 1 401.70 676.33
  L 393.94 676.33
  A 0.64 0.64 0.0 0 0 393.30 676.97
  L 393.30 678.85
  A 0.64 0.64 0.0 0 0 393.94 679.49
  Z"
/>
<path fill="#ffffff" fill-opacity="0.996" d="
  M 410.39 664.81
  Q 419.82 664.52 422.90 665.07
  C 429.01 666.16 430.44 674.49 424.81 676.90
  A 0.61 0.61 0.0 0 0 424.56 677.82
  L 428.60 683.27
  A 0.52 0.51 -15.9 0 1 428.14 684.09
  L 422.85 683.63
  A 1.57 1.55 74.1 0 1 421.73 683.00
  L 418.14 678.16
  A 1.28 1.28 0.0 0 0 415.83 678.92
  L 415.83 683.30
  A 0.62 0.62 0.0 0 1 415.21 683.92
  L 410.58 683.92
  A 0.73 0.73 0.0 0 1 409.85 683.19
  L 409.85 665.37
  A 0.56 0.56 0.0 0 1 410.39 664.81
  Z
  M 415.72 669.79
  L 415.72 673.39
  A 0.67 0.67 0.0 0 0 416.39 674.06
  L 419.62 674.06
  A 2.48 2.22 -0.0 0 0 422.10 671.84
  L 422.10 671.34
  A 2.48 2.22 0.0 0 0 419.62 669.12
  L 416.39 669.12
  A 0.67 0.67 0.0 0 0 415.72 669.79
  Z"
/>
<rect fill="#ffffff" fill-opacity="0.996" x="433.96" y="664.72" width="6.06" height="19.20" rx="0.40"/>
<path fill="#ffffff" fill-opacity="0.996" d="
  M 447.46 664.78
  L 461.92 664.78
  A 0.55 0.55 0.0 0 1 462.47 665.33
  L 462.47 669.15
  A 0.55 0.55 0.0 0 1 461.87 669.70
  L 453.64 668.97
  A 0.55 0.55 0.0 0 0 453.04 669.52
  L 453.04 671.99
  A 0.55 0.55 0.0 0 0 453.59 672.54
  L 460.99 672.54
  A 0.55 0.55 0.0 0 1 461.54 673.09
  L 461.54 676.45
  A 0.55 0.55 0.0 0 1 460.99 677.00
  L 453.56 677.00
  A 0.55 0.55 0.0 0 0 453.01 677.55
  L 453.01 683.35
  A 0.55 0.55 0.0 0 1 452.46 683.90
  L 447.46 683.90
  A 0.55 0.55 0.0 0 1 446.91 683.35
  L 446.91 665.33
  A 0.55 0.55 0.0 0 1 447.46 664.78
  Z"
/>
<rect fill="#ffffff" fill-opacity="0.996" x="467.41" y="664.75" width="6.02" height="19.16" rx="0.43"/>
<path fill="#ffffff" fill-opacity="0.996" d="
  M 494.92 674.28
  Q 494.93 675.72 494.93 675.78
  A 0.60 0.59 -0.8 0 1 494.33 676.39
  L 486.90 676.46
  A 0.82 0.81 -0.4 0 0 486.09 677.27
  L 486.09 678.63
  A 0.69 0.69 0.0 0 0 486.78 679.32
  L 495.62 679.32
  A 0.71 0.71 0.0 0 1 496.33 680.03
  L 496.33 683.30
  A 0.58 0.57 -90.0 0 1 495.76 683.88
  L 480.78 683.88
  A 0.60 0.59 -89.9 0 1 480.19 683.28
  Q 480.23 678.65 480.20 674.38
  Q 480.16 670.12 480.06 665.49
  A 0.60 0.59 89.1 0 1 480.64 664.88
  L 495.62 664.66
  A 0.58 0.57 89.2 0 1 496.20 665.23
  L 496.25 668.50
  A 0.71 0.71 0.0 0 1 495.55 669.22
  L 486.71 669.35
  A 0.69 0.69 0.0 0 0 486.03 670.05
  L 486.05 671.41
  A 0.82 0.81 -0.5 0 0 486.87 672.21
  L 494.30 672.17
  A 0.60 0.59 -0.0 0 1 494.91 672.77
  Q 494.91 672.83 494.92 674.28
  Z"
/>
<path fill="#ffffff" fill-opacity="0.996" d="
  M 549.15 676.79
  L 549.49 683.23
  A 0.63 0.63 0.0 0 1 548.87 683.89
  L 543.67 683.89
  A 0.63 0.63 0.0 0 1 543.04 683.26
  L 543.04 676.50
  A 0.63 0.63 0.0 0 0 542.92 676.12
  L 535.26 665.81
  A 0.63 0.63 0.0 0 1 535.76 664.80
  L 540.93 664.80
  A 0.63 0.63 0.0 0 1 541.44 665.05
  L 545.77 670.89
  A 0.63 0.63 0.0 0 0 546.79 670.88
  L 550.96 665.02
  A 0.63 0.63 0.0 0 1 551.48 664.75
  L 556.31 664.75
  A 0.63 0.63 0.0 0 1 556.82 665.74
  L 549.27 676.39
  A 0.63 0.63 0.0 0 0 549.15 676.79
  Z"
/>
<path fill="#ffffff" fill-opacity="0.996" d="
  M 598.95 684.18
  C 593.01 684.18 588.74 681.86 588.75 675.18
  Q 588.76 670.85 588.66 665.43
  A 0.63 0.63 0.0 0 1 589.29 664.77
  L 594.34 664.80
  A 0.58 0.58 0.0 0 1 594.93 665.39
  Q 594.84 670.17 594.92 675.22
  C 594.96 677.90 596.25 679.52 598.95 679.52
  C 601.66 679.52 602.95 677.90 602.99 675.22
  Q 603.08 670.17 602.99 665.39
  A 0.58 0.58 0.0 0 1 603.57 664.80
  L 608.62 664.78
  A 0.63 0.63 0.0 0 1 609.26 665.43
  Q 609.15 670.86 609.16 675.18
  C 609.17 681.86 604.90 684.18 598.95 684.18
  Z"
/>
<path fill="#ffffff" fill-opacity="0.996" d="
  M 623.60 664.68
  Q 627.79 664.70 632.13 664.74
  A 1.07 1.07 0.0 0 1 633.18 665.91
  L 632.93 668.78
  A 0.80 0.80 0.0 0 1 632.06 669.51
  L 627.15 669.08
  A 0.64 0.64 0.0 0 0 626.45 669.72
  L 626.45 683.17
  A 0.73 0.72 -0.8 0 1 625.75 683.89
  Q 624.55 683.92 623.52 683.92
  Q 622.48 683.91 621.29 683.87
  A 0.73 0.72 1.3 0 1 620.59 683.15
  L 620.70 669.70
  A 0.64 0.64 0.0 0 0 620.00 669.05
  L 615.09 669.44
  A 0.80 0.80 0.0 0 1 614.23 668.70
  L 614.00 665.83
  A 1.07 1.07 0.0 0 1 615.06 664.67
  Q 619.40 664.66 623.60 664.68
  Z"
/>
<path fill="#ffffff" fill-opacity="0.996" d="
  M 770.54 677.98
  L 774.98 682.70
  A 0.67 0.67 0.0 0 1 774.49 683.83
  L 769.24 683.83
  A 2.27 2.26 77.5 0 1 767.19 682.52
  L 765.44 678.78
  A 1.49 1.47 77.4 0 0 764.10 677.92
  L 761.65 677.92
  A 0.55 0.54 0.0 0 0 761.10 678.46
  L 761.10 683.19
  A 0.70 0.70 0.0 0 1 760.40 683.89
  L 755.88 683.89
  A 0.80 0.80 0.0 0 1 755.08 683.09
  L 755.08 665.25
  A 0.46 0.46 0.0 0 1 755.52 664.79
  Q 758.04 664.66 765.07 664.68
  C 770.35 664.70 774.69 666.51 774.12 672.32
  Q 773.86 674.92 770.71 676.77
  A 0.78 0.78 0.0 0 0 770.54 677.98
  Z
  M 761.11 669.15
  L 761.07 673.65
  A 0.28 0.28 0.0 0 0 761.35 673.93
  L 763.69 673.95
  A 4.20 2.34 0.5 0 0 767.91 671.65
  L 767.91 671.27
  A 4.20 2.34 0.5 0 0 763.73 668.89
  L 761.39 668.87
  A 0.28 0.28 0.0 0 0 761.11 669.15
  Z"
/>
<path fill="#ffffff" fill-opacity="0.996" d="
  M 788.76 664.76
  Q 793.34 664.76 797.74 664.89
  A 0.70 0.70 0.0 0 1 798.42 665.59
  L 798.42 668.76
  A 0.57 0.56 -0.0 0 1 797.85 669.32
  L 792.37 669.32
  A 0.50 0.50 0.0 0 0 791.87 669.82
  L 791.87 683.20
  A 0.71 0.71 0.0 0 1 791.17 683.91
  Q 790.78 683.91 788.55 683.89
  Q 786.31 683.86 785.92 683.85
  A 0.71 0.71 0.0 0 1 785.24 683.13
  L 785.53 669.75
  A 0.50 0.50 0.0 0 0 785.04 669.24
  L 779.56 669.12
  A 0.57 0.56 1.3 0 1 779.00 668.55
  L 779.07 665.38
  A 0.70 0.70 0.0 0 1 779.77 664.70
  Q 784.17 664.66 788.76 664.76
  Z"
/>
<path fill="#ffffff" fill-opacity="0.996" d="
  M 836.95 668.61
  L 836.95 665.32
  A 0.57 0.57 0.0 0 1 837.52 664.75
  L 855.95 664.75
  A 0.57 0.57 0.0 0 1 856.52 665.32
  L 856.52 668.73
  A 0.57 0.57 0.0 0 1 855.95 669.30
  L 849.84 669.30
  A 0.57 0.57 0.0 0 0 849.27 669.87
  L 849.27 683.31
  A 0.57 0.57 0.0 0 1 848.70 683.88
  L 843.68 683.88
  A 0.57 0.57 0.0 0 1 843.11 683.31
  L 843.11 669.75
  A 0.57 0.57 0.0 0 0 842.54 669.18
  L 837.52 669.18
  A 0.57 0.57 0.0 0 1 836.95 668.61
  Z"
/>
<path fill="#ffffff" fill-opacity="0.996" d="
  M 931.68 676.79
  A 0.79 0.79 0.0 0 0 931.51 678.00
  L 935.96 682.75
  A 0.67 0.67 0.0 0 1 935.46 683.88
  L 930.19 683.87
  A 2.28 2.27 77.6 0 1 928.14 682.55
  L 926.39 678.79
  A 1.49 1.48 77.5 0 0 925.04 677.93
  L 922.59 677.93
  A 0.55 0.54 0.1 0 0 922.03 678.47
  L 922.02 683.21
  A 0.70 0.70 0.0 0 1 921.32 683.92
  L 916.78 683.91
  A 0.80 0.80 0.0 0 1 915.98 683.10
  L 916.01 665.20
  A 0.46 0.46 0.0 0 1 916.45 664.74
  Q 918.98 664.61 926.04 664.64
  C 931.34 664.67 935.69 666.49 935.11 672.32
  Q 934.85 674.93 931.68 676.79
  Z
  M 921.91 669.43
  L 921.87 673.53
  A 0.41 0.41 0.0 0 0 922.28 673.94
  L 925.04 673.97
  A 3.51 1.87 0.5 0 0 928.56 672.13
  L 928.58 670.95
  A 3.51 1.87 0.5 0 0 925.08 669.05
  L 922.32 669.02
  A 0.41 0.41 0.0 0 0 921.91 669.43
  Z"
/>
<path fill="#ffffff" fill-opacity="0.996" d="
  M 954.00 672.49
  Q 955.32 673.84 956.48 675.12
  A 0.21 0.21 0.0 0 0 956.85 674.98
  L 956.94 665.44
  A 0.60 0.59 0.6 0 1 957.54 664.86
  L 962.14 664.91
  A 0.57 0.57 0.0 0 1 962.70 665.48
  L 962.52 683.36
  A 0.60 0.60 0.0 0 1 961.96 683.95
  Q 958.84 684.12 957.34 683.72
  A 1.83 1.79 75.6 0 1 956.46 683.19
  Q 953.17 679.56 949.99 676.27
  Q 948.69 674.91 947.53 673.62
  A 0.21 0.21 0.0 0 0 947.16 673.77
  L 947.07 683.30
  A 0.60 0.59 0.6 0 1 946.47 683.88
  L 941.87 683.84
  A 0.57 0.57 0.0 0 1 941.31 683.27
  L 941.49 665.39
  A 0.60 0.60 0.0 0 1 942.05 664.80
  Q 945.17 664.62 946.67 665.02
  A 1.83 1.79 75.6 0 1 947.55 665.55
  Q 950.84 669.19 954.00 672.49
  Z"
/>
<path fill="#ffffff" fill-opacity="0.996" d="
  M 978.76 664.65
  Q 980.26 664.66 981.49 664.80
  A 1.12 1.10 -8.9 0 1 982.37 665.43
  L 990.68 683.24
  A 0.54 0.53 -11.9 0 1 990.18 684.00
  L 985.00 683.90
  A 1.39 1.36 68.2 0 1 984.03 683.47
  Q 983.66 683.08 983.20 681.40
  A 1.60 1.59 -9.0 0 0 981.59 680.24
  Q 979.50 680.33 978.70 680.33
  Q 977.89 680.32 975.81 680.21
  A 1.60 1.59 9.5 0 0 974.19 681.36
  Q 973.71 683.04 973.34 683.43
  A 1.39 1.36 -67.7 0 1 972.37 683.85
  L 967.19 683.90
  A 0.54 0.53 12.4 0 1 966.69 683.14
  L 975.15 665.40
  A 1.12 1.10 9.3 0 1 976.04 664.77
  Q 977.27 664.65 978.76 664.65
  Z
  M 980.76 675.39
  Q 979.35 673.26 979.00 670.75
  A 0.39 0.39 0.0 0 0 978.26 670.65
  L 976.01 675.87
  A 0.31 0.31 0.0 0 0 976.31 676.31
  L 980.41 676.09
  A 0.45 0.45 0.0 0 0 980.76 675.39
  Z"
/>
<path fill="#ffffff" fill-opacity="0.996" d="
  M 1007.46 674.23
  Q 1007.59 674.23 1007.75 674.00
  Q 1012.00 667.91 1013.29 665.34
  A 1.09 1.08 -76.7 0 1 1014.26 664.74
  L 1019.27 664.74
  A 0.66 0.66 0.0 0 1 1019.93 665.40
  L 1019.93 683.33
  A 0.66 0.66 0.0 0 1 1019.27 683.99
  L 1014.68 683.99
  A 0.53 0.53 0.0 0 1 1014.15 683.46
  L 1014.15 673.40
  A 0.14 0.14 0.0 0 0 1013.89 673.33
  Q 1011.25 677.59 1008.76 681.24
  Q 1008.40 681.76 1007.44 681.76
  Q 1006.48 681.76 1006.13 681.23
  Q 1003.66 677.57 1001.04 673.29
  A 0.14 0.14 0.0 0 0 1000.78 673.36
  L 1000.72 683.42
  A 0.53 0.53 0.0 0 1 1000.19 683.95
  L 995.60 683.92
  A 0.66 0.66 0.0 0 1 994.95 683.26
  L 995.05 665.33
  A 0.66 0.66 0.0 0 1 995.72 664.67
  L 1000.73 664.70
  A 1.09 1.08 77.0 0 1 1001.69 665.31
  Q 1002.97 667.88 1007.18 673.99
  Q 1007.34 674.23 1007.46 674.23
  Z"
/>
<path fill="#ffffff" fill-opacity="0.996" d="
  M 1033.96 676.25
  A 0.68 0.68 0.0 0 0 1033.26 676.94
  L 1033.29 678.62
  A 1.03 1.03 0.0 0 0 1034.34 679.63
  L 1043.48 679.40
  A 0.79 0.79 0.0 0 1 1044.29 680.15
  L 1044.48 683.21
  A 0.68 0.67 -1.7 0 1 1043.80 683.93
  L 1028.32 683.88
  A 0.96 0.96 0.0 0 1 1027.37 682.92
  L 1027.40 665.28
  A 0.60 0.59 0.2 0 1 1028.00 664.69
  L 1043.33 664.83
  A 0.68 0.68 0.0 0 1 1044.00 665.51
  L 1043.96 668.65
  A 0.78 0.78 0.0 0 1 1043.15 669.42
  L 1034.36 669.10
  A 0.97 0.96 3.0 0 0 1033.35 669.99
  L 1033.26 671.13
  A 0.87 0.86 -87.6 0 0 1034.12 672.07
  L 1041.54 672.08
  A 0.87 0.87 0.0 0 1 1042.40 672.95
  L 1042.39 675.33
  A 1.11 1.11 0.0 0 1 1041.25 676.44
  L 1033.96 676.25
  Z"
/>
<path fill="#ffffff" fill-opacity="0.996" d="
  M 1062.63 672.36
  Q 1063.96 673.73 1065.14 675.01
  A 0.22 0.21 -66.6 0 0 1065.51 674.86
  L 1065.51 665.25
  A 0.60 0.59 0.0 0 1 1066.11 664.66
  L 1070.74 664.66
  A 0.57 0.57 0.0 0 1 1071.31 665.23
  L 1071.31 683.25
  A 0.60 0.60 0.0 0 1 1070.75 683.85
  Q 1067.61 684.06 1066.09 683.67
  A 1.84 1.81 75.0 0 1 1065.20 683.14
  Q 1061.85 679.52 1058.64 676.22
  Q 1057.29 674.87 1056.11 673.59
  A 0.22 0.21 -66.6 0 0 1055.74 673.74
  L 1055.74 683.35
  A 0.60 0.59 -0.0 0 1 1055.14 683.94
  L 1050.51 683.94
  A 0.57 0.57 0.0 0 1 1049.94 683.37
  L 1049.94 665.35
  A 0.60 0.60 0.0 0 1 1050.50 664.75
  Q 1053.64 664.54 1055.16 664.93
  A 1.84 1.81 75.0 0 1 1056.05 665.46
  Q 1059.39 669.09 1062.63 672.36
  Z"
/>
<path fill="#ffffff" fill-opacity="0.996" d="
  M 1086.23 664.73
  Q 1091.04 664.87 1095.08 664.74
  A 1.04 1.04 0.0 0 1 1096.15 665.78
  L 1096.15 668.35
  A 0.95 0.94 -0.0 0 1 1095.20 669.29
  L 1089.69 669.29
  A 0.54 0.54 0.0 0 0 1089.15 669.83
  L 1089.15 683.23
  A 0.69 0.69 0.0 0 1 1088.43 683.92
  Q 1087.17 683.85 1086.06 683.84
  Q 1084.94 683.83 1083.68 683.87
  A 0.69 0.69 0.0 0 1 1082.97 683.17
  L 1083.22 669.77
  A 0.54 0.54 0.0 0 0 1082.69 669.22
  L 1077.18 669.12
  A 0.95 0.94 1.1 0 1 1076.25 668.16
  L 1076.30 665.59
  A 1.04 1.04 0.0 0 1 1077.39 664.58
  Q 1081.43 664.78 1086.23 664.73
  Z"
/>
</svg>
