<?xml version="1.0" encoding="UTF-8" standalone="no"?>
<!DOCTYPE svg PUBLIC "-//W3C//DTD SVG 1.1//EN" "http://www.w3.org/Graphics/SVG/1.1/DTD/svg11.dtd">
<svg xmlns="http://www.w3.org/2000/svg" version="1.1" viewBox="0.00 0.00 1536.00 1024.00">
<g stroke-width="2.00" fill="none" stroke-linecap="butt">
<path stroke="#808bbb" vector-effect="non-scaling-stroke" d="
  M 857.46 226.05
  L 854.46 230.12"
/>
<path stroke="#012286" vector-effect="non-scaling-stroke" d="
  M 854.46 230.12
  Q 853.60 228.89 852.31 229.60"
/>
<path stroke="#808bbb" vector-effect="non-scaling-stroke" d="
  M 852.31 229.60
  C 846.64 229.57 840.50 229.13 835.41 229.12
  Q 760.49 228.94 684.50 229.13
  Q 673.14 229.15 661.64 230.08
  A 0.77 0.76 2.4 0 0 660.95 230.71
  Q 660.29 234.55 660.30 238.50
  Q 660.45 285.09 676.83 327.61
  Q 681.53 339.79 688.00 351.12"
/>
<path stroke="#2e64b3" vector-effect="non-scaling-stroke" d="
  M 688.00 351.12
  Q 703.51 379.86 730.90 394.10
  Q 741.13 399.41 755.80 401.64
  Q 759.75 402.24 772.53 401.58"
/>
<path stroke="#0132a2" vector-effect="non-scaling-stroke" d="
  M 772.53 401.58
  Q 797.18 400.89 816.96 384.92
  Q 825.39 378.12 830.28 372.77
  Q 835.51 367.05 844.05 355.49
  Q 848.86 348.99 853.53 339.87
  Q 860.72 325.80 861.76 323.51
  Q 867.95 309.90 871.44 294.82
  A 0.38 0.38 0.0 0 0 870.80 294.46
  L 868.65 296.54
  A 0.43 0.42 14.5 0 1 868.46 296.65
  L 861.90 298.73
  A 0.47 0.46 11.3 0 1 861.40 297.99
  C 867.17 291.28 871.51 287.08 876.07 281.20
  C 880.68 275.24 887.59 268.04 893.23 260.88
  Q 902.99 248.50 912.37 236.66
  Q 913.72 234.96 915.34 232.45"
/>
<path stroke="#2e64b3" vector-effect="non-scaling-stroke" d="
  M 915.34 232.45
  Q 916.41 232.15 917.33 230.78
  A 0.31 0.31 0.0 0 0 917.07 230.30
  L 871.05 231.00"
/>
<path stroke="#0132a2" vector-effect="non-scaling-stroke" d="
  M 871.05 231.00
  Q 865.68 231.55 866.01 229.07"
/>
<path stroke="#808bbb" vector-effect="non-scaling-stroke" d="
  M 866.01 229.07
  L 867.31 225.77"
/>
<path stroke="#8096cb" stroke-opacity="0.996" vector-effect="non-scaling-stroke" d="
  M 852.31 229.60
  Q 852.50 230.97 849.49 232.14"
/>
<path stroke="#84b0ed" vector-effect="non-scaling-stroke" d="
  M 849.49 232.14
  Q 845.03 232.88 843.25 232.88
  Q 770.13 233.09 722.62 233.12
  C 713.37 233.13 695.93 234.01 683.80 233.95
  Q 674.62 233.90 666.86 234.21
  A 0.84 0.84 0.0 0 0 666.06 235.06
  L 666.32 253.77"
/>
<path stroke="#aed8f8" stroke-opacity="0.996" vector-effect="non-scaling-stroke" d="
  M 688.86 342.32
  Q 685.24 340.07 683.60 336.04
  A 0.27 0.26 -19.9 0 0 683.27 335.89
  L 683.24 335.90
  A 0.26 0.25 -20.3 0 0 683.09 336.22
  Q 684.88 341.65 687.28 346.86
  Q 687.78 347.95 688.00 351.12"
/>
<path stroke="#2e7fdf" stroke-opacity="0.996" vector-effect="non-scaling-stroke" d="
  M 871.05 231.00
  L 869.90 231.32
  A 1.28 1.28 0.0 0 0 870.20 233.84
  Q 887.38 234.47 905.00 233.87
  Q 909.92 233.70 915.34 232.45"
/>
<path stroke="#2e7fdf" stroke-opacity="0.996" vector-effect="non-scaling-stroke" d="
  M 772.53 401.58
  Q 768.16 400.00 762.98 400.56
  A 4.94 4.79 -41.1 0 1 761.46 400.48
  C 757.54 399.62 753.83 399.83 750.07 398.76
  C 739.65 395.82 730.95 392.03 722.21 385.13
  Q 700.42 367.93 688.86 342.32"
/>
<path stroke="#80a6e6" stroke-opacity="0.996" vector-effect="non-scaling-stroke" d="
  M 688.86 342.32
  C 683.96 332.72 680.94 324.28 677.49 313.98
  C 671.01 294.58 667.58 274.19 666.32 253.77"
/>
<path stroke="#0558d4" vector-effect="non-scaling-stroke" d="
  M 666.32 253.77
  Q 666.84 253.90 667.21 253.80"
/>
<path stroke="#1265db" vector-effect="non-scaling-stroke" d="
  M 667.21 253.80
  Q 668.29 268.02 671.02 282.03"
/>
<path stroke="#0558d4" vector-effect="non-scaling-stroke" d="
  M 671.02 282.03
  Q 673.20 296.28 677.69 309.89
  A 0.59 0.58 -12.9 0 0 678.33 310.29
  Q 688.57 308.98 699.02 306.17
  A 7.23 7.14 -74.2 0 0 702.12 304.41
  Q 712.48 294.50 724.59 284.58
  Q 725.28 284.02 725.99 284.50
  Q 726.17 284.61 726.02 284.93"
/>
<path stroke="#80a6e6" stroke-opacity="0.996" vector-effect="non-scaling-stroke" d="
  M 866.01 229.07
  L 768.56 360.79
  A 1.01 1.01 0.0 0 1 767.13 360.99
  L 699.89 309.14
  A 0.74 0.73 -46.8 0 1 699.86 308.01
  L 726.02 284.93"
/>
<path stroke="#84b0ed" vector-effect="non-scaling-stroke" d="
  M 726.02 284.93
  Q 726.94 285.17 727.32 285.44"
/>
<path stroke="#8096cb" stroke-opacity="0.996" vector-effect="non-scaling-stroke" d="
  M 727.32 285.44
  L 760.40 311.67
  A 0.66 0.65 43.5 0 0 761.24 311.65
  L 854.46 230.12"
/>
<path stroke="#0548b9" vector-effect="non-scaling-stroke" d="
  M 727.32 285.44
  Q 732.21 286.79 735.66 290.80
  Q 735.68 290.82 735.69 290.83
  L 759.18 309.87
  A 2.09 2.08 -45.9 0 0 761.87 309.82
  C 768.31 304.19 774.81 298.02 781.24 292.58
  Q 787.81 287.02 806.15 270.90
  Q 817.87 260.59 831.96 248.16
  Q 840.14 240.95 845.24 236.23
  Q 846.65 234.92 847.28 233.91
  A 1.26 1.26 0.0 0 1 847.99 233.36
  Q 849.09 233.03 849.49 232.14"
/>
<path stroke="#176fe2" vector-effect="non-scaling-stroke" d="
  M 671.02 282.03
  Q 685.92 280.75 700.21 276.59
  C 713.54 272.70 728.02 267.25 739.95 259.33
  C 745.28 255.79 756.39 246.55 748.29 239.56
  Q 744.95 236.67 740.44 234.74
  A 1.86 1.85 56.5 0 0 739.71 234.59
  L 668.79 234.99
  A 1.73 1.72 89.7 0 0 667.08 236.73
  L 667.21 253.80"
/>
<path stroke="#012286" vector-effect="non-scaling-stroke" d="
  M 978.72 534.84
  L 980.88 531.24
  A 1.23 1.10 86.8 0 1 981.04 531.04
  Q 982.48 529.68 983.01 528.20"
/>
<path stroke="#012286" vector-effect="non-scaling-stroke" d="
  M 864.81 595.97
  Q 864.13 595.82 863.45 596.01"
/>
<path stroke="#012286" vector-effect="non-scaling-stroke" d="
  M 362.96 538.14
  Q 362.62 537.88 362.29 538.10"
/>
<path stroke="#012286" vector-effect="non-scaling-stroke" d="
  M 1098.23 578.46
  Q 1097.96 578.58 1097.99 579.19"
/>
<path stroke="#012286" vector-effect="non-scaling-stroke" d="
  M 1097.00 585.89
  Q 1095.98 589.43 1096.79 592.19"
/>
<path stroke="#012286" vector-effect="non-scaling-stroke" d="
  M 1087.71 596.11
  Q 1087.19 595.86 1086.54 596.03"
/>
<path stroke="#012286" vector-effect="non-scaling-stroke" d="
  M 835.81 535.88
  Q 835.73 533.74 834.47 533.20"
/>
<path stroke="#012286" vector-effect="non-scaling-stroke" d="
  M 835.89 536.29
  Q 835.75 536.62 835.82 536.97"
/>
<path stroke="#012286" vector-effect="non-scaling-stroke" d="
  M 833.79 556.07
  Q 833.37 555.59 833.03 556.22"
/>
<path stroke="#012286" vector-effect="non-scaling-stroke" d="
  M 809.65 553.53
  Q 809.89 553.11 809.72 552.54"
/>
<path stroke="#012286" vector-effect="non-scaling-stroke" d="
  M 1114.10 543.21
  Q 1114.25 542.73 1114.17 542.23"
/>
<path stroke="#012286" vector-effect="non-scaling-stroke" d="
  M 513.89 549.01
  Q 509.08 546.59 502.93 548.82
  A 2.76 2.69 10.9 0 0 501.91 549.49
  Q 500.01 551.48 498.66 550.81"
/>
<path stroke="#012286" vector-effect="non-scaling-stroke" d="
  M 495.12 549.51
  L 495.04 550.21"
/>
<path stroke="#012286" vector-effect="non-scaling-stroke" d="
  M 511.50 559.34
  Q 509.51 558.02 506.90 558.91"
/>
<path stroke="#012286" vector-effect="non-scaling-stroke" d="
  M 481.21 549.75
  Q 481.01 549.62 481.22 549.03"
/>
<path stroke="#012286" vector-effect="non-scaling-stroke" d="
  M 663.86 591.19
  Q 663.33 592.51 663.83 593.81"
/>
<path stroke="#012286" vector-effect="non-scaling-stroke" d="
  M 625.05 596.04
  Q 623.50 595.66 621.96 596.04"
/>
<path stroke="#012286" vector-effect="non-scaling-stroke" d="
  M 768.02 547.45
  Q 768.64 547.75 769.50 547.46"
/>
<path stroke="#012286" vector-effect="non-scaling-stroke" d="
  M 975.04 573.94
  L 975.08 573.22"
/>
<path stroke="#012286" vector-effect="non-scaling-stroke" d="
  M 975.98 565.70
  L 976.12 565.03"
/>
<path stroke="#2e64b3" vector-effect="non-scaling-stroke" d="
  M 642.69 346.01
  Q 644.81 348.44 649.29 352.18
  Q 669.25 368.87 692.76 373.62
  C 694.12 373.90 694.90 374.69 696.00 374.92
  A 0.27 0.27 0.0 0 0 696.28 374.51
  Q 694.80 372.34 693.15 371.41"
/>
<path stroke="#063da9" vector-effect="non-scaling-stroke" d="
  M 693.15 371.41
  C 690.87 366.89 687.26 362.40 685.52 358.86
  C 684.16 356.10 681.41 349.91 678.96 348.51
  Q 673.33 345.30 667.74 342.01
  C 660.46 337.73 654.09 329.20 648.98 322.02"
/>
<path stroke="#134ab0" vector-effect="non-scaling-stroke" d="
  M 648.98 322.02
  Q 635.63 300.79 634.97 275.51
  Q 634.94 274.38 635.04 273.79
  A 1.44 1.44 0.0 0 1 636.21 272.63
  Q 646.73 270.85 655.21 270.83
  A 0.87 0.86 87.8 0 0 656.07 269.90
  L 654.76 250.98"
/>
<path stroke="#808bbb" vector-effect="non-scaling-stroke" d="
  M 654.76 250.98
  L 654.80 248.52
  A 0.70 0.69 88.5 0 0 654.06 247.81
  L 614.41 250.05
  A 2.27 2.27 0.0 0 0 612.26 252.36
  Q 612.53 267.76 614.51 281.49
  Q 617.73 303.72 626.93 323.05
  Q 632.15 334.04 642.69 346.01"
/>
<path stroke="#91bdf3" vector-effect="non-scaling-stroke" d="
  M 654.76 250.98
  L 649.97 251.16"
/>
<path stroke="#84b0ed" vector-effect="non-scaling-stroke" d="
  M 649.97 251.16
  L 617.69 254.08
  A 0.69 0.68 89.1 0 0 617.07 254.73
  Q 616.36 273.28 620.59 293.72
  Q 626.67 323.09 645.67 344.53"
/>
<path stroke="#aed8f8" stroke-opacity="0.996" vector-effect="non-scaling-stroke" d="
  M 645.67 344.53
  Q 644.55 345.57 642.69 346.01"
/>
<path stroke="#3389e5" vector-effect="non-scaling-stroke" d="
  M 693.15 371.41
  Q 670.45 365.18 652.59 350.97
  C 650.20 349.06 648.03 346.73 645.67 344.53"
/>
<path stroke="#176fe2" vector-effect="non-scaling-stroke" d="
  M 648.98 322.02
  L 631.43 319.58
  A 1.44 1.43 -7.0 0 1 630.28 318.69
  Q 626.18 308.61 623.52 299.04
  Q 621.75 292.68 619.36 278.00
  C 618.87 275.00 619.09 271.96 618.55 268.87
  C 617.81 264.61 618.20 259.92 618.28 255.71
  A 0.59 0.58 -2.2 0 1 618.81 255.14
  Q 629.73 254.08 640.19 253.64
  Q 645.80 253.41 648.78 252.90
  Q 650.50 252.61 649.97 251.16"
/>
<path stroke="#2e64b3" vector-effect="non-scaling-stroke" d="
  M 902.04 271.68
  Q 901.43 272.55 901.39 273.34
  C 900.72 289.46 896.74 305.51 888.74 319.57
  Q 884.08 327.77 881.57 331.31
  Q 876.47 338.53 867.82 343.79"
/>
<path stroke="#0132a2" vector-effect="non-scaling-stroke" d="
  M 867.82 343.79
  Q 863.61 346.45 859.13 348.54
  C 856.14 349.94 854.38 351.48 852.73 354.00
  Q 846.29 363.78 840.37 370.78
  C 839.20 372.17 837.93 372.83 836.96 373.76
  A 0.42 0.42 0.0 0 0 837.33 374.47
  Q 842.54 373.47 850.20 371.39
  Q 870.56 365.87 886.14 351.88
  Q 894.45 344.41 899.23 338.25
  C 908.81 325.87 915.18 311.66 918.77 294.97
  Q 922.38 278.17 923.54 253.27
  Q 923.62 251.50 923.88 249.79
  A 0.79 0.79 0.0 0 0 922.90 248.90
  Q 917.41 250.37 910.69 250.09
  A 3.37 3.35 -75.0 0 0 907.55 251.91
  L 905.72 255.45
  A 3.48 3.24 81.5 0 1 905.35 255.99
  L 892.69 270.66
  A 0.37 0.37 0.0 0 0 893.12 271.24
  Q 896.42 269.70 899.74 270.14
  Q 901.63 270.38 902.04 271.68"
/>
<path stroke="#2e7fdf" stroke-opacity="0.996" vector-effect="non-scaling-stroke" d="
  M 867.82 343.79
  Q 867.50 344.26 867.54 344.45
  A 0.80 0.75 -20.6 0 0 868.65 344.91
  Q 870.39 344.09 873.63 342.63
  Q 876.22 341.46 880.35 337.10
  Q 883.04 334.27 888.45 327.47
  Q 897.79 315.73 901.63 301.68
  Q 905.46 287.68 906.00 272.96
  A 0.75 0.74 -84.8 0 0 905.37 272.20
  L 902.04 271.68"
/>
<path stroke="#063da9" vector-effect="non-scaling-stroke" d="
  M 691.96 478.78
  L 711.03 478.86"
/>
<path stroke="#0132a2" vector-effect="non-scaling-stroke" d="
  M 711.03 478.86
  L 847.43 478.32
  A 1.19 1.18 0.8 0 0 848.61 477.18
  C 848.79 471.98 849.11 465.86 848.15 460.45
  Q 847.77 458.33 847.52 456.36"
/>
<path stroke="#2e64b3" vector-effect="non-scaling-stroke" d="
  M 847.52 456.36
  L 833.50 455.16"
/>
<path stroke="#0132a2" vector-effect="non-scaling-stroke" d="
  M 833.50 455.16
  Q 811.68 451.81 801.20 432.88
  Q 794.65 421.04 793.28 408.31
  A 0.58 0.58 0.0 0 0 792.59 407.80
  C 786.35 409.08 781.05 410.60 774.92 411.14
  Q 760.51 412.40 746.20 408.48"
/>
<path stroke="#808bbb" vector-effect="non-scaling-stroke" d="
  M 746.20 408.48
  L 745.92 406.79
  A 1.52 1.48 -83.5 0 0 745.05 405.67
  L 741.70 404.23
  A 0.61 0.61 0.0 0 0 740.85 404.79
  C 740.82 418.30 736.09 433.48 726.96 443.48
  C 717.51 453.85 704.28 455.80 690.62 456.14
  A 2.17 2.17 0.0 0 0 688.50 458.31
  L 688.50 477.10
  A 0.77 0.76 -81.2 0 0 689.03 477.83
  L 691.96 478.78"
/>
<path stroke="#80a6e6" stroke-opacity="0.996" vector-effect="non-scaling-stroke" d="
  M 746.20 408.48
  C 744.77 426.29 737.07 443.82 721.09 453.30
  A 0.46 0.46 0.0 0 0 721.30 454.15
  C 744.56 455.35 767.11 455.16 789.95 455.10"
/>
<path stroke="#aed8f8" stroke-opacity="0.996" vector-effect="non-scaling-stroke" d="
  M 789.95 455.10
  L 792.21 458.93"
/>
<path stroke="#80a6e6" stroke-opacity="0.996" vector-effect="non-scaling-stroke" d="
  M 792.21 458.93
  Q 745.05 458.89 723.62 459.13
  Q 715.03 459.22 698.55 460.05"
/>
<path stroke="#84b0ed" vector-effect="non-scaling-stroke" d="
  M 698.55 460.05
  L 692.84 460.22
  A 0.74 0.74 0.0 0 0 692.13 460.95
  L 691.96 478.78"
/>
<path stroke="#0558d4" vector-effect="non-scaling-stroke" d="
  M 711.03 478.86
  C 717.47 478.63 722.40 476.87 727.64 472.71
  Q 733.73 467.86 739.98 463.46
  A 0.76 0.76 0.0 0 0 739.71 462.10
  Q 733.72 460.67 726.92 460.74
  C 719.46 460.81 715.54 460.66 709.03 461.15
  Q 703.53 461.56 697.52 461.30
  A 0.38 0.37 -77.9 0 1 697.19 460.78
  Q 697.43 460.18 698.55 460.05"
/>
<path stroke="#2e7fdf" stroke-opacity="0.996" vector-effect="non-scaling-stroke" d="
  M 847.52 456.36
  Q 844.86 458.80 840.01 458.84
  Q 816.10 459.01 792.21 458.93"
/>
<path stroke="#2e7fdf" stroke-opacity="0.996" vector-effect="non-scaling-stroke" d="
  M 833.50 455.16
  L 789.95 455.10"
/>
<path stroke="#012286" vector-effect="non-scaling-stroke" d="
  M 365.59 571.37
  C 364.27 582.39 367.67 591.90 379.00 594.47
  Q 389.28 596.81 399.49 594.14
  C 412.93 590.62 417.45 574.67 415.35 562.36
  C 413.93 554.00 405.58 549.06 397.85 548.36
  C 389.32 547.59 381.91 548.44 375.46 553.14
  Q 367.02 559.30 365.59 571.37"
/>
<path stroke="#012286" vector-effect="non-scaling-stroke" d="
  M 730.02 566.90
  L 732.49 566.86"
/>
<path stroke="#808bbb" vector-effect="non-scaling-stroke" d="
  M 569.08 659.00
  A 5.96 5.96 0.0 0 0 563.12 653.04
  A 5.96 5.96 0.0 0 0 557.16 659.00
  A 5.96 5.96 0.0 0 0 563.12 664.96
  A 5.96 5.96 0.0 0 0 569.08 659.00"
/>
<path stroke="#808bbb" vector-effect="non-scaling-stroke" d="
  M 742.73 659.20
  A 5.89 5.89 0.0 0 0 736.84 653.31
  A 5.89 5.89 0.0 0 0 730.95 659.20
  A 5.89 5.89 0.0 0 0 736.84 665.09
  A 5.89 5.89 0.0 0 0 742.73 659.20"
/>
<path stroke="#808bbb" vector-effect="non-scaling-stroke" d="
  M 876.0429 653.7777
  A 5.93 5.74 -64.5 0 0 868.3092 656.6589
  A 5.93 5.74 -64.5 0 0 870.9371 664.4823
  A 5.93 5.74 -64.5 0 0 878.6708 661.6011
  A 5.93 5.74 -64.5 0 0 876.0429 653.7777"
/>
<path stroke="#808bbb" vector-effect="non-scaling-stroke" d="
  M 388.48 654.47
  L 388.48 659.37
  A 1.36 1.36 0.0 0 0 389.85 660.72
  L 392.73 660.72
  A 3.94 3.76 -0.1 0 0 396.66 656.95
  L 396.66 656.85
  A 3.94 3.76 -0.1 0 0 392.71 653.10
  L 389.83 653.10
  A 1.36 1.36 0.0 0 0 388.48 654.47"
/>
<path stroke="#808bbb" vector-effect="non-scaling-stroke" d="
  M 705.88 654.12
  L 705.78 659.18
  A 0.72 0.72 0.0 0 0 706.48 659.92
  L 709.88 659.99
  A 4.08 3.05 1.2 0 0 714.02 657.03
  L 714.03 656.63
  A 4.08 3.05 1.2 0 0 710.02 653.49
  L 706.62 653.42
  A 0.72 0.72 0.0 0 0 705.88 654.12"
/>
<path stroke="#808bbb" vector-effect="non-scaling-stroke" d="
  M 761.11 653.51
  L 761.01 659.57
  A 0.32 0.32 0.0 0 0 761.33 659.89
  L 765.03 659.95
  A 3.82 3.21 0.9 0 0 768.90 656.80
  L 768.90 656.52
  A 3.82 3.21 0.9 0 0 765.13 653.25
  L 761.43 653.19
  A 0.32 0.32 0.0 0 0 761.11 653.51"
/>
<path stroke="#808bbb" vector-effect="non-scaling-stroke" d="
  M 931.42 654.40
  L 925.07 653.56
  A 0.29 0.29 0.0 0 0 924.75 653.81
  L 924.38 656.65
  A 3.55 2.53 -82.5 0 0 926.42 660.50
  L 928.32 660.75
  A 3.55 2.53 -82.5 0 0 931.30 657.56
  L 931.67 654.72
  A 0.29 0.29 0.0 0 0 931.42 654.40"
/>
<path stroke="#808bbb" vector-effect="non-scaling-stroke" d="
  M 984.47 661.43
  A 0.33 0.33 0.0 0 0 984.82 661.01
  L 982.79 654.61
  A 0.39 0.39 0.0 0 0 982.06 654.57
  L 979.65 660.15
  A 0.54 0.54 0.0 0 0 980.08 660.90
  L 984.47 661.43"
/>
</g>
<path fill="#011777" d="
  M 857.46 226.05
  L 854.46 230.12
  Q 853.60 228.89 852.31 229.60
  C 846.64 229.57 840.50 229.13 835.41 229.12
  Q 760.49 228.94 684.50 229.13
  Q 673.14 229.15 661.64 230.08
  A 0.77 0.76 2.4 0 0 660.95 230.71
  Q 660.29 234.55 660.30 238.50
  Q 660.45 285.09 676.83 327.61
  Q 681.53 339.79 688.00 351.12
  Q 703.51 379.86 730.90 394.10
  Q 741.13 399.41 755.80 401.64
  Q 759.75 402.24 772.53 401.58
  Q 797.18 400.89 816.96 384.92
  Q 825.39 378.12 830.28 372.77
  Q 835.51 367.05 844.05 355.49
  Q 848.86 348.99 853.53 339.87
  Q 860.72 325.80 861.76 323.51
  Q 867.95 309.90 871.44 294.82
  A 0.38 0.38 0.0 0 0 870.80 294.46
  L 868.65 296.54
  A 0.43 0.42 14.5 0 1 868.46 296.65
  L 861.90 298.73
  A 0.47 0.46 11.3 0 1 861.40 297.99
  C 867.17 291.28 871.51 287.08 876.07 281.20
  C 880.68 275.24 887.59 268.04 893.23 260.88
  Q 902.99 248.50 912.37 236.66
  Q 913.72 234.96 915.34 232.45
  Q 916.41 232.15 917.33 230.78
  A 0.31 0.31 0.0 0 0 917.07 230.30
  L 871.05 231.00
  Q 865.68 231.55 866.01 229.07
  L 867.31 225.77
  L 925.44 226.10
  A 0.83 0.83 0.0 0 1 926.08 227.46
  L 911.45 245.51
  A 0.30 0.30 0.0 0 0 911.68 246.00
  L 925.88 246.00
  A 1.14 1.13 -1.0 0 1 927.02 247.09
  Q 927.83 269.31 923.49 291.77
  Q 921.03 304.49 915.08 319.08
  Q 903.78 346.76 879.15 363.69
  Q 874.20 367.08 867.61 370.30
  Q 859.34 374.32 855.40 375.58
  C 847.13 378.23 840.07 380.33 832.45 381.03
  A 5.34 5.30 -69.9 0 0 829.16 382.57
  Q 816.52 395.16 800.53 401.06
  A 2.63 2.62 -10.9 0 0 798.81 403.59
  Q 799.20 420.76 808.89 435.11
  Q 814.31 443.12 823.27 446.93
  Q 834.63 451.76 846.75 451.23
  Q 849.66 451.11 850.70 451.88
  Q 852.16 452.96 852.35 455.50
  Q 853.20 467.11 852.71 480.44
  A 1.58 1.58 0.0 0 1 851.13 481.97
  Q 850.21 481.97 687.99 482.02
  Q 683.70 482.02 683.65 478.28
  Q 683.49 465.23 684.33 454.19
  A 2.57 2.56 -89.2 0 1 686.76 451.82
  Q 695.74 451.37 702.23 450.72
  Q 706.26 450.31 712.94 447.39
  C 722.82 443.07 729.30 434.28 732.36 424.03
  Q 735.45 413.68 735.37 402.64
  A 1.21 1.20 -78.7 0 0 734.65 401.55
  Q 718.48 394.65 705.88 382.68
  Q 704.55 381.41 701.91 380.42
  A 3.40 3.31 58.3 0 0 701.15 380.23
  Q 680.94 377.37 665.79 368.69
  C 661.14 366.03 655.17 362.30 650.87 358.86
  C 638.33 348.83 627.17 335.23 621.14 320.25
  Q 617.86 312.12 615.32 303.59
  Q 612.28 293.42 611.05 281.99
  Q 609.16 264.36 609.04 259.49
  C 608.92 255.09 608.53 250.09 610.87 246.98
  A 2.23 2.20 11.3 0 1 612.10 246.17
  C 613.61 245.80 615.61 245.28 617.35 245.23
  Q 632.61 244.76 647.50 243.95
  Q 651.25 243.75 654.66 244.03
  A 0.35 0.34 -86.9 0 0 655.03 243.69
  Q 655.23 238.13 656.18 230.46
  Q 656.44 228.37 658.32 226.37
  A 1.79 1.72 -75.3 0 1 659.16 225.86
  Q 661.66 225.15 664.50 225.14
  Q 750.77 224.88 840.00 225.22
  Q 844.46 225.23 845.26 225.19
  Q 851.19 224.89 857.46 226.05
  Z
  M 642.69 346.01
  Q 644.81 348.44 649.29 352.18
  Q 669.25 368.87 692.76 373.62
  C 694.12 373.90 694.90 374.69 696.00 374.92
  A 0.27 0.27 0.0 0 0 696.28 374.51
  Q 694.80 372.34 693.15 371.41
  C 690.87 366.89 687.26 362.40 685.52 358.86
  C 684.16 356.10 681.41 349.91 678.96 348.51
  Q 673.33 345.30 667.74 342.01
  C 660.46 337.73 654.09 329.20 648.98 322.02
  Q 635.63 300.79 634.97 275.51
  Q 634.94 274.38 635.04 273.79
  A 1.44 1.44 0.0 0 1 636.21 272.63
  Q 646.73 270.85 655.21 270.83
  A 0.87 0.86 87.8 0 0 656.07 269.90
  L 654.76 250.98
  L 654.80 248.52
  A 0.70 0.69 88.5 0 0 654.06 247.81
  L 614.41 250.05
  A 2.27 2.27 0.0 0 0 612.26 252.36
  Q 612.53 267.76 614.51 281.49
  Q 617.73 303.72 626.93 323.05
  Q 632.15 334.04 642.69 346.01
  Z
  M 902.04 271.68
  Q 901.43 272.55 901.39 273.34
  C 900.72 289.46 896.74 305.51 888.74 319.57
  Q 884.08 327.77 881.57 331.31
  Q 876.47 338.53 867.82 343.79
  Q 863.61 346.45 859.13 348.54
  C 856.14 349.94 854.38 351.48 852.73 354.00
  Q 846.29 363.78 840.37 370.78
  C 839.20 372.17 837.93 372.83 836.96 373.76
  A 0.42 0.42 0.0 0 0 837.33 374.47
  Q 842.54 373.47 850.20 371.39
  Q 870.56 365.87 886.14 351.88
  Q 894.45 344.41 899.23 338.25
  C 908.81 325.87 915.18 311.66 918.77 294.97
  Q 922.38 278.17 923.54 253.27
  Q 923.62 251.50 923.88 249.79
  A 0.79 0.79 0.0 0 0 922.90 248.90
  Q 917.41 250.37 910.69 250.09
  A 3.37 3.35 -75.0 0 0 907.55 251.91
  L 905.72 255.45
  A 3.48 3.24 81.5 0 1 905.35 255.99
  L 892.69 270.66
  A 0.37 0.37 0.0 0 0 893.12 271.24
  Q 896.42 269.70 899.74 270.14
  Q 901.63 270.38 902.04 271.68
  Z
  M 676.08 340.72
  Q 669.30 325.12 664.28 308.42
  Q 661.78 300.10 660.33 292.43
  Q 658.48 282.67 657.45 276.12
  A 1.38 1.38 0.0 0 0 655.95 274.97
  L 640.45 276.56
  A 0.91 0.90 83.8 0 0 639.64 277.57
  C 641.83 296.54 647.24 314.01 659.72 328.61
  C 664.36 334.05 669.41 337.80 675.42 341.30
  A 0.46 0.46 0.0 0 0 676.08 340.72
  Z
  M 860.82 341.50
  Q 867.94 338.54 873.70 332.16
  Q 879.07 326.20 881.41 322.91
  Q 884.95 317.95 887.96 311.19
  Q 895.38 294.59 896.17 275.93
  A 0.63 0.62 89.6 0 0 895.52 275.28
  C 891.28 275.47 883.13 277.35 881.21 281.56
  A 4.07 3.78 66.1 0 0 880.96 282.29
  Q 875.91 303.98 871.42 316.45
  Q 866.79 329.29 860.33 340.96
  A 0.39 0.38 3.0 0 0 860.82 341.50
  Z
  M 691.96 478.78
  L 711.03 478.86
  L 847.43 478.32
  A 1.19 1.18 0.8 0 0 848.61 477.18
  C 848.79 471.98 849.11 465.86 848.15 460.45
  Q 847.77 458.33 847.52 456.36
  L 833.50 455.16
  Q 811.68 451.81 801.20 432.88
  Q 794.65 421.04 793.28 408.31
  A 0.58 0.58 0.0 0 0 792.59 407.80
  C 786.35 409.08 781.05 410.60 774.92 411.14
  Q 760.51 412.40 746.20 408.48
  L 745.92 406.79
  A 1.52 1.48 -83.5 0 0 745.05 405.67
  L 741.70 404.23
  A 0.61 0.61 0.0 0 0 740.85 404.79
  C 740.82 418.30 736.09 433.48 726.96 443.48
  C 717.51 453.85 704.28 455.80 690.62 456.14
  A 2.17 2.17 0.0 0 0 688.50 458.31
  L 688.50 477.10
  A 0.77 0.76 -81.2 0 0 689.03 477.83
  L 691.96 478.78
  Z"
/>
<path fill="#ffffff" fill-opacity="0.996" d="
  M 867.31 225.77
  L 866.01 229.07
  L 768.56 360.79
  A 1.01 1.01 0.0 0 1 767.13 360.99
  L 699.89 309.14
  A 0.74 0.73 -46.8 0 1 699.86 308.01
  L 726.02 284.93
  Q 726.94 285.17 727.32 285.44
  L 760.40 311.67
  A 0.66 0.65 43.5 0 0 761.24 311.65
  L 854.46 230.12
  L 857.46 226.05
  L 867.31 225.77
  Z"
/>
<path fill="#004dcd" fill-opacity="0.996" d="
  M 866.01 229.07
  Q 865.68 231.55 871.05 231.00
  L 869.90 231.32
  A 1.28 1.28 0.0 0 0 870.20 233.84
  Q 887.38 234.47 905.00 233.87
  Q 909.92 233.70 915.34 232.45
  Q 913.72 234.96 912.37 236.66
  Q 902.99 248.50 893.23 260.88
  C 887.59 268.04 880.68 275.24 876.07 281.20
  C 871.51 287.08 867.17 291.28 861.40 297.99
  A 0.47 0.46 11.3 0 0 861.90 298.73
  L 868.46 296.65
  A 0.43 0.42 14.5 0 0 868.65 296.54
  L 870.80 294.46
  A 0.38 0.38 0.0 0 1 871.44 294.82
  Q 867.95 309.90 861.76 323.51
  Q 860.72 325.80 853.53 339.87
  Q 848.86 348.99 844.05 355.49
  Q 835.51 367.05 830.28 372.77
  Q 825.39 378.12 816.96 384.92
  Q 797.18 400.89 772.53 401.58
  Q 768.16 400.00 762.98 400.56
  A 4.94 4.79 -41.1 0 1 761.46 400.48
  C 757.54 399.62 753.83 399.83 750.07 398.76
  C 739.65 395.82 730.95 392.03 722.21 385.13
  Q 700.42 367.93 688.86 342.32
  C 683.96 332.72 680.94 324.28 677.49 313.98
  C 671.01 294.58 667.58 274.19 666.32 253.77
  Q 666.84 253.90 667.21 253.80
  Q 668.29 268.02 671.02 282.03
  Q 673.20 296.28 677.69 309.89
  A 0.59 0.58 -12.9 0 0 678.33 310.29
  Q 688.57 308.98 699.02 306.17
  A 7.23 7.14 -74.2 0 0 702.12 304.41
  Q 712.48 294.50 724.59 284.58
  Q 725.28 284.02 725.99 284.50
  Q 726.17 284.61 726.02 284.93
  L 699.86 308.01
  A 0.74 0.73 -46.8 0 0 699.89 309.14
  L 767.13 360.99
  A 1.01 1.01 0.0 0 0 768.56 360.79
  L 866.01 229.07
  Z"
/>
<path fill="#ffffff" fill-opacity="0.996" d="
  M 852.31 229.60
  Q 852.50 230.97 849.49 232.14
  Q 845.03 232.88 843.25 232.88
  Q 770.13 233.09 722.62 233.12
  C 713.37 233.13 695.93 234.01 683.80 233.95
  Q 674.62 233.90 666.86 234.21
  A 0.84 0.84 0.0 0 0 666.06 235.06
  L 666.32 253.77
  C 667.58 274.19 671.01 294.58 677.49 313.98
  C 680.94 324.28 683.96 332.72 688.86 342.32
  Q 685.24 340.07 683.60 336.04
  A 0.27 0.26 -19.9 0 0 683.27 335.89
  L 683.24 335.90
  A 0.26 0.25 -20.3 0 0 683.09 336.22
  Q 684.88 341.65 687.28 346.86
  Q 687.78 347.95 688.00 351.12
  Q 681.53 339.79 676.83 327.61
  Q 660.45 285.09 660.30 238.50
  Q 660.29 234.55 660.95 230.71
  A 0.77 0.76 2.4 0 1 661.64 230.08
  Q 673.14 229.15 684.50 229.13
  Q 760.49 228.94 835.41 229.12
  C 840.50 229.13 846.64 229.57 852.31 229.60
  Z"
/>
<path fill="#002d96" fill-opacity="0.996" d="
  M 854.46 230.12
  L 761.24 311.65
  A 0.66 0.65 43.5 0 1 760.40 311.67
  L 727.32 285.44
  Q 732.21 286.79 735.66 290.80
  Q 735.68 290.82 735.69 290.83
  L 759.18 309.87
  A 2.09 2.08 -45.9 0 0 761.87 309.82
  C 768.31 304.19 774.81 298.02 781.24 292.58
  Q 787.81 287.02 806.15 270.90
  Q 817.87 260.59 831.96 248.16
  Q 840.14 240.95 845.24 236.23
  Q 846.65 234.92 847.28 233.91
  A 1.26 1.26 0.0 0 1 847.99 233.36
  Q 849.09 233.03 849.49 232.14
  Q 852.50 230.97 852.31 229.60
  Q 853.60 228.89 854.46 230.12
  Z"
/>
<path fill="#5cb1f0" fill-opacity="0.996" d="
  M 915.34 232.45
  Q 909.92 233.70 905.00 233.87
  Q 887.38 234.47 870.20 233.84
  A 1.28 1.28 0.0 0 1 869.90 231.32
  L 871.05 231.00
  L 917.07 230.30
  A 0.31 0.31 0.0 0 1 917.33 230.78
  Q 916.41 232.15 915.34 232.45
  Z"
/>
<path fill="#0a62db" d="
  M 849.49 232.14
  Q 849.09 233.03 847.99 233.36
  A 1.26 1.26 0.0 0 0 847.28 233.91
  Q 846.65 234.92 845.24 236.23
  Q 840.14 240.95 831.96 248.16
  Q 817.87 260.59 806.15 270.90
  Q 787.81 287.02 781.24 292.58
  C 774.81 298.02 768.31 304.19 761.87 309.82
  A 2.09 2.08 -45.9 0 1 759.18 309.87
  L 735.69 290.83
  Q 735.68 290.82 735.66 290.80
  Q 732.21 286.79 727.32 285.44
  Q 726.94 285.17 726.02 284.93
  Q 726.17 284.61 725.99 284.50
  Q 725.28 284.02 724.59 284.58
  Q 712.48 294.50 702.12 304.41
  A 7.23 7.14 -74.2 0 1 699.02 306.17
  Q 688.57 308.98 678.33 310.29
  A 0.59 0.58 -12.9 0 1 677.69 309.89
  Q 673.20 296.28 671.02 282.03
  Q 685.92 280.75 700.21 276.59
  C 713.54 272.70 728.02 267.25 739.95 259.33
  C 745.28 255.79 756.39 246.55 748.29 239.56
  Q 744.95 236.67 740.44 234.74
  A 1.86 1.85 56.5 0 0 739.71 234.59
  L 668.79 234.99
  A 1.73 1.72 89.7 0 0 667.08 236.73
  L 667.21 253.80
  Q 666.84 253.90 666.32 253.77
  L 666.06 235.06
  A 0.84 0.84 0.0 0 1 666.86 234.21
  Q 674.62 233.90 683.80 233.95
  C 695.93 234.01 713.37 233.13 722.62 233.12
  Q 770.13 233.09 843.25 232.88
  Q 845.03 232.88 849.49 232.14
  Z"
/>
<path fill="#247ce8" d="
  M 671.02 282.03
  Q 668.29 268.02 667.21 253.80
  L 667.08 236.73
  A 1.73 1.72 89.7 0 1 668.79 234.99
  L 739.71 234.59
  A 1.86 1.85 56.5 0 1 740.44 234.74
  Q 744.95 236.67 748.29 239.56
  C 756.39 246.55 745.28 255.79 739.95 259.33
  C 728.02 267.25 713.54 272.70 700.21 276.59
  Q 685.92 280.75 671.02 282.03
  Z"
/>
<path fill="#ffffff" fill-opacity="0.996" d="
  M 654.76 250.98
  L 649.97 251.16
  L 617.69 254.08
  A 0.69 0.68 89.1 0 0 617.07 254.73
  Q 616.36 273.28 620.59 293.72
  Q 626.67 323.09 645.67 344.53
  Q 644.55 345.57 642.69 346.01
  Q 632.15 334.04 626.93 323.05
  Q 617.73 303.72 614.51 281.49
  Q 612.53 267.76 612.26 252.36
  A 2.27 2.27 0.0 0 1 614.41 250.05
  L 654.06 247.81
  A 0.70 0.69 88.5 0 1 654.80 248.52
  L 654.76 250.98
  Z"
/>
<path fill="#004dcd" fill-opacity="0.996" d="
  M 867.82 343.79
  Q 867.50 344.26 867.54 344.45
  A 0.80 0.75 -20.6 0 0 868.65 344.91
  Q 870.39 344.09 873.63 342.63
  Q 876.22 341.46 880.35 337.10
  Q 883.04 334.27 888.45 327.47
  Q 897.79 315.73 901.63 301.68
  Q 905.46 287.68 906.00 272.96
  A 0.75 0.74 -84.8 0 0 905.37 272.20
  L 902.04 271.68
  Q 901.63 270.38 899.74 270.14
  Q 896.42 269.70 893.12 271.24
  A 0.37 0.37 0.0 0 1 892.69 270.66
  L 905.35 255.99
  A 3.48 3.24 81.5 0 0 905.72 255.45
  L 907.55 251.91
  A 3.37 3.35 -75.0 0 1 910.69 250.09
  Q 917.41 250.37 922.90 248.90
  A 0.79 0.79 0.0 0 1 923.88 249.79
  Q 923.62 251.50 923.54 253.27
  Q 922.38 278.17 918.77 294.97
  C 915.18 311.66 908.81 325.87 899.23 338.25
  Q 894.45 344.41 886.14 351.88
  Q 870.56 365.87 850.20 371.39
  Q 842.54 373.47 837.33 374.47
  A 0.42 0.42 0.0 0 1 836.96 373.76
  C 837.93 372.83 839.20 372.17 840.37 370.78
  Q 846.29 363.78 852.73 354.00
  C 854.38 351.48 856.14 349.94 859.13 348.54
  Q 863.61 346.45 867.82 343.79
  Z"
/>
<path fill="#247ce8" d="
  M 654.76 250.98
  L 656.07 269.90
  A 0.87 0.86 87.8 0 1 655.21 270.83
  Q 646.73 270.85 636.21 272.63
  A 1.44 1.44 0.0 0 0 635.04 273.79
  Q 634.94 274.38 634.97 275.51
  Q 635.63 300.79 648.98 322.02
  L 631.43 319.58
  A 1.44 1.43 -7.0 0 1 630.28 318.69
  Q 626.18 308.61 623.52 299.04
  Q 621.75 292.68 619.36 278.00
  C 618.87 275.00 619.09 271.96 618.55 268.87
  C 617.81 264.61 618.20 259.92 618.28 255.71
  A 0.59 0.58 -2.2 0 1 618.81 255.14
  Q 629.73 254.08 640.19 253.64
  Q 645.80 253.41 648.78 252.90
  Q 650.50 252.61 649.97 251.16
  L 654.76 250.98
  Z"
/>
<path fill="#0a62db" d="
  M 649.97 251.16
  Q 650.50 252.61 648.78 252.90
  Q 645.80 253.41 640.19 253.64
  Q 629.73 254.08 618.81 255.14
  A 0.59 0.58 -2.2 0 0 618.28 255.71
  C 618.20 259.92 617.81 264.61 618.55 268.87
  C 619.09 271.96 618.87 275.00 619.36 278.00
  Q 621.75 292.68 623.52 299.04
  Q 626.18 308.61 630.28 318.69
  A 1.44 1.43 -7.0 0 0 631.43 319.58
  L 648.98 322.02
  C 654.09 329.20 660.46 337.73 667.74 342.01
  Q 673.33 345.30 678.96 348.51
  C 681.41 349.91 684.16 356.10 685.52 358.86
  C 687.26 362.40 690.87 366.89 693.15 371.41
  Q 670.45 365.18 652.59 350.97
  C 650.20 349.06 648.03 346.73 645.67 344.53
  Q 626.67 323.09 620.59 293.72
  Q 616.36 273.28 617.07 254.73
  A 0.69 0.68 89.1 0 1 617.69 254.08
  L 649.97 251.16
  Z"
/>
<path fill="#5cb1f0" fill-opacity="0.996" d="
  M 902.04 271.68
  L 905.37 272.20
  A 0.75 0.74 -84.8 0 1 906.00 272.96
  Q 905.46 287.68 901.63 301.68
  Q 897.79 315.73 888.45 327.47
  Q 883.04 334.27 880.35 337.10
  Q 876.22 341.46 873.63 342.63
  Q 870.39 344.09 868.65 344.91
  A 0.80 0.75 -20.6 0 1 867.54 344.45
  Q 867.50 344.26 867.82 343.79
  Q 876.47 338.53 881.57 331.31
  Q 884.08 327.77 888.74 319.57
  C 896.74 305.51 900.72 289.46 901.39 273.34
  Q 901.43 272.55 902.04 271.68
  Z"
/>
<path fill="#5cb1f0" fill-opacity="0.996" d="
  M 688.86 342.32
  Q 700.42 367.93 722.21 385.13
  C 730.95 392.03 739.65 395.82 750.07 398.76
  C 753.83 399.83 757.54 399.62 761.46 400.48
  A 4.94 4.79 -41.1 0 0 762.98 400.56
  Q 768.16 400.00 772.53 401.58
  Q 759.75 402.24 755.80 401.64
  Q 741.13 399.41 730.90 394.10
  Q 703.51 379.86 688.00 351.12
  Q 687.78 347.95 687.28 346.86
  Q 684.88 341.65 683.09 336.22
  A 0.26 0.25 -20.3 0 1 683.24 335.90
  L 683.27 335.89
  A 0.27 0.26 -19.9 0 1 683.60 336.04
  Q 685.24 340.07 688.86 342.32
  Z"
/>
<path fill="#5cb1f0" fill-opacity="0.996" d="
  M 693.15 371.41
  Q 694.80 372.34 696.28 374.51
  A 0.27 0.27 0.0 0 1 696.00 374.92
  C 694.90 374.69 694.12 373.90 692.76 373.62
  Q 669.25 368.87 649.29 352.18
  Q 644.81 348.44 642.69 346.01
  Q 644.55 345.57 645.67 344.53
  C 648.03 346.73 650.20 349.06 652.59 350.97
  Q 670.45 365.18 693.15 371.41
  Z"
/>
<path fill="#ffffff" fill-opacity="0.996" d="
  M 746.20 408.48
  C 744.77 426.29 737.07 443.82 721.09 453.30
  A 0.46 0.46 0.0 0 0 721.30 454.15
  C 744.56 455.35 767.11 455.16 789.95 455.10
  L 792.21 458.93
  Q 745.05 458.89 723.62 459.13
  Q 715.03 459.22 698.55 460.05
  L 692.84 460.22
  A 0.74 0.74 0.0 0 0 692.13 460.95
  L 691.96 478.78
  L 689.03 477.83
  A 0.77 0.76 -81.2 0 1 688.50 477.10
  L 688.50 458.31
  A 2.17 2.17 0.0 0 1 690.62 456.14
  C 704.28 455.80 717.51 453.85 726.96 443.48
  C 736.09 433.48 740.82 418.30 740.85 404.79
  A 0.61 0.61 0.0 0 1 741.70 404.23
  L 745.05 405.67
  A 1.52 1.48 -83.5 0 1 745.92 406.79
  L 746.20 408.48
  Z"
/>
<path fill="#004dcd" fill-opacity="0.996" d="
  M 833.50 455.16
  L 789.95 455.10
  C 767.11 455.16 744.56 455.35 721.30 454.15
  A 0.46 0.46 0.0 0 1 721.09 453.30
  C 737.07 443.82 744.77 426.29 746.20 408.48
  Q 760.51 412.40 774.92 411.14
  C 781.05 410.60 786.35 409.08 792.59 407.80
  A 0.58 0.58 0.0 0 1 793.28 408.31
  Q 794.65 421.04 801.20 432.88
  Q 811.68 451.81 833.50 455.16
  Z"
/>
<path fill="#5cb1f0" fill-opacity="0.996" d="
  M 833.50 455.16
  L 847.52 456.36
  Q 844.86 458.80 840.01 458.84
  Q 816.10 459.01 792.21 458.93
  L 789.95 455.10
  L 833.50 455.16
  Z"
/>
<path fill="#004dcd" fill-opacity="0.996" d="
  M 711.03 478.86
  C 717.47 478.63 722.40 476.87 727.64 472.71
  Q 733.73 467.86 739.98 463.46
  A 0.76 0.76 0.0 0 0 739.71 462.10
  Q 733.72 460.67 726.92 460.74
  C 719.46 460.81 715.54 460.66 709.03 461.15
  Q 703.53 461.56 697.52 461.30
  A 0.38 0.37 -77.9 0 1 697.19 460.78
  Q 697.43 460.18 698.55 460.05
  Q 715.03 459.22 723.62 459.13
  Q 745.05 458.89 792.21 458.93
  Q 816.10 459.01 840.01 458.84
  Q 844.86 458.80 847.52 456.36
  Q 847.77 458.33 848.15 460.45
  C 849.11 465.86 848.79 471.98 848.61 477.18
  A 1.19 1.18 0.8 0 1 847.43 478.32
  L 711.03 478.86
  Z"
/>
<path fill="#0a62db" d="
  M 698.55 460.05
  Q 697.43 460.18 697.19 460.78
  A 0.38 0.37 -77.9 0 0 697.52 461.30
  Q 703.53 461.56 709.03 461.15
  C 715.54 460.66 719.46 460.81 726.92 460.74
  Q 733.72 460.67 739.71 462.10
  A 0.76 0.76 0.0 0 1 739.98 463.46
  Q 733.73 467.86 727.64 472.71
  C 722.40 476.87 717.47 478.63 711.03 478.86
  L 691.96 478.78
  L 692.13 460.95
  A 0.74 0.74 0.0 0 1 692.84 460.22
  L 698.55 460.05
  Z"
/>
<path fill="#002d96" fill-opacity="0.996" d="
  M 978.72 534.84
  L 980.88 531.24
  A 1.23 1.10 86.8 0 1 981.04 531.04
  Q 982.48 529.68 983.01 528.20
  A 9.08 7.59 -9.7 0 1 992.37 527.67
  A 9.09 7.60 -9.6 0 1 995.55 530.20
  A 9.08 7.60 -9.4 0 1 994.58 539.10
  A 9.06 7.59 -9.6 0 1 990.05 541.70
  A 9.08 7.60 -9.3 0 1 982.17 540.72
  A 9.07 7.58 -9.4 0 1 978.72 534.84
  Z"
/>
<path fill="#002d96" fill-opacity="0.996" d="
  M 864.81 595.97
  Q 864.13 595.82 863.45 596.01
  L 850.40 595.87
  A 0.44 0.44 0.0 0 1 849.97 595.38
  L 858.17 528.36
  A 0.81 0.80 3.6 0 1 858.97 527.66
  L 873.27 527.66
  A 0.74 0.74 0.0 0 1 874.00 528.49
  L 865.80 595.54
  A 0.48 0.45 85.3 0 1 865.50 595.92
  Q 865.17 596.04 864.81 595.97
  Z"
/>
<path fill="#002d96" fill-opacity="0.996" d="
  M 362.96 538.14
  Q 362.62 537.88 362.29 538.10
  Q 360.65 537.95 359.13 538.33
  A 1.03 1.02 -3.7 0 0 358.35 539.21
  L 351.45 595.57
  A 0.52 0.51 -86.9 0 1 350.94 596.03
  L 335.96 596.03
  A 0.68 0.68 0.0 0 1 335.29 595.27
  L 342.21 538.69
  A 0.47 0.47 0.0 0 0 341.74 538.16
  L 321.21 538.16
  A 0.70 0.70 0.0 0 1 320.51 537.38
  L 321.60 528.48
  A 0.76 0.75 3.4 0 1 322.35 527.82
  L 379.58 527.82
  A 1.09 1.09 0.0 0 1 380.66 529.04
  L 379.61 537.62
  A 0.65 0.64 -86.5 0 1 378.97 538.19
  L 362.96 538.14
  Z"
/>
<path fill="#002d96" fill-opacity="0.996" d="
  M 1098.23 578.46
  Q 1097.96 578.58 1097.99 579.19
  Q 1098.16 583.69 1097.00 585.89
  Q 1095.98 589.43 1096.79 592.19
  Q 1097.01 594.09 1096.26 595.54
  A 0.87 0.84 12.5 0 1 1095.51 596.00
  L 1087.71 596.11
  Q 1087.19 595.86 1086.54 596.03
  L 1082.01 596.01
  A 1.16 1.15 7.9 0 1 1080.90 594.55
  Q 1081.82 591.23 1081.98 588.42
  Q 1082.22 584.14 1082.51 582.36
  Q 1084.01 573.29 1084.22 564.74
  Q 1084.36 559.04 1080.18 558.08
  Q 1076.83 557.31 1073.73 559.18
  C 1070.41 561.18 1068.76 563.64 1067.90 567.33
  Q 1067.28 569.98 1067.17 570.82
  Q 1065.50 583.82 1064.34 595.40
  A 0.73 0.73 0.0 0 1 1063.61 596.06
  L 1050.28 596.06
  A 1.21 1.20 3.2 0 1 1049.08 594.73
  L 1056.27 529.07
  A 1.57 1.57 0.0 0 1 1057.83 527.67
  L 1071.30 527.67
  A 0.57 0.57 0.0 0 1 1071.87 528.31
  L 1069.21 552.69
  A 0.27 0.26 -18.7 0 0 1069.66 552.91
  Q 1077.60 545.09 1089.10 546.73
  Q 1093.48 547.36 1095.34 548.99
  C 1099.71 552.79 1100.22 557.83 1099.95 563.50
  Q 1099.71 568.48 1098.23 578.46
  Z"
/>
<path fill="#011777" d="
  M 983.01 528.20
  Q 982.48 529.68 981.04 531.04
  A 1.23 1.10 86.8 0 0 980.88 531.24
  L 978.72 534.84
  A 9.07 7.56 -9.8 0 1 983.01 528.20
  Z"
/>
<path fill="#011777" d="
  M 835.81 535.88
  Q 835.73 533.74 834.47 533.20
  Q 836.59 532.12 835.81 535.88
  Z"
/>
<path fill="#002d96" fill-opacity="0.996" d="
  M 1114.10 543.21
  Q 1114.25 542.73 1114.17 542.23
  L 1115.02 535.20
  A 0.99 0.99 0.0 0 1 1115.90 534.34
  L 1129.47 532.95
  A 1.02 1.02 0.0 0 1 1130.59 534.09
  L 1129.03 546.91
  A 0.62 0.61 -88.0 0 0 1129.67 547.60
  L 1141.05 546.96
  A 1.26 1.25 -88.3 0 1 1142.37 548.37
  L 1141.55 555.10
  A 1.20 1.19 3.5 0 1 1140.36 556.14
  L 1128.96 556.14
  A 0.89 0.88 3.3 0 0 1128.08 556.92
  Q 1126.42 571.05 1125.34 581.03
  C 1124.63 587.58 1131.25 587.66 1135.53 586.13
  A 0.96 0.96 0.0 0 1 1136.81 586.97
  L 1137.22 594.35
  A 1.63 1.63 0.0 0 1 1136.16 595.97
  C 1131.56 597.68 1126.53 597.51 1121.49 597.19
  Q 1112.12 596.60 1110.06 589.30
  Q 1109.19 586.22 1109.89 579.65
  Q 1110.62 572.71 1111.00 569.99
  Q 1112.60 558.62 1112.77 556.54
  A 0.53 0.53 0.0 0 0 1112.21 555.97
  L 1106.26 556.31
  A 1.42 1.42 0.0 0 1 1104.76 554.89
  L 1104.76 549.07
  A 1.50 1.50 0.0 0 1 1106.18 547.57
  L 1113.02 547.19
  A 1.10 1.09 88.9 0 0 1114.05 546.11
  L 1114.10 543.21
  Z"
/>
<path fill="#002d96" fill-opacity="0.996" d="
  M 834.47 533.20
  Q 835.73 533.74 835.81 535.88
  Q 835.94 535.55 835.89 536.29
  Q 835.75 536.62 835.82 536.97
  L 834.32 546.66
  A 0.58 0.57 4.3 0 0 834.89 547.32
  L 848.42 547.32
  A 0.25 0.25 0.0 0 1 848.66 547.62
  L 846.99 555.57
  A 0.32 0.31 4.6 0 1 846.69 555.82
  L 833.79 556.07
  Q 833.37 555.59 833.03 556.22
  L 832.90 559.42
  A 3.19 2.74 -40.7 0 1 832.79 560.14
  C 831.85 563.61 832.02 567.09 831.51 570.59
  Q 830.70 576.07 830.26 579.99
  C 829.62 585.69 833.39 587.64 838.32 586.92
  Q 841.28 586.49 841.47 586.51
  A 0.54 0.53 5.6 0 1 841.97 587.11
  Q 841.61 590.04 841.81 593.00
  Q 842.02 596.08 838.96 596.72
  Q 834.51 597.65 829.69 597.43
  C 824.16 597.17 817.41 596.75 815.34 590.45
  Q 814.61 588.23 814.25 584.82
  A 3.18 3.12 -44.5 0 1 814.26 584.26
  L 817.66 556.46
  A 0.40 0.40 0.0 0 0 817.26 556.02
  L 810.10 556.02
  A 0.67 0.66 84.1 0 1 809.45 555.49
  Q 809.28 554.65 809.65 553.53
  Q 809.89 553.11 809.72 552.54
  L 810.19 548.03
  A 0.81 0.80 -86.8 0 1 810.99 547.31
  L 817.99 547.31
  A 0.68 0.67 3.3 0 0 818.66 546.72
  L 820.08 535.10
  A 1.00 1.00 0.0 0 1 821.00 534.22
  L 834.47 533.20
  Z"
/>
<path fill="#011777" d="
  M 835.89 536.29
  L 835.82 536.97
  Q 835.75 536.62 835.89 536.29
  Z"
/>
<path fill="#011777" d="
  M 362.96 538.14
  L 362.29 538.10
  Q 362.62 537.88 362.96 538.14
  Z"
/>
<path fill="#011777" d="
  M 1114.17 542.23
  Q 1114.25 542.73 1114.10 543.21
  L 1114.17 542.23
  Z"
/>
<path fill="#011777" d="
  M 393.99 597.20
  C 382.19 598.70 367.81 596.11 364.37 582.74
  Q 361.66 572.22 366.16 562.13
  C 370.13 553.24 377.46 548.00 387.15 546.77
  C 398.95 545.28 413.34 547.87 416.78 561.24
  Q 419.48 571.76 414.99 581.84
  C 411.02 590.73 403.69 595.97 393.99 597.20
  Z
  M 365.59 571.37
  C 364.27 582.39 367.67 591.90 379.00 594.47
  Q 389.28 596.81 399.49 594.14
  C 412.93 590.62 417.45 574.67 415.35 562.36
  C 413.93 554.00 405.58 549.06 397.85 548.36
  C 389.32 547.59 381.91 548.44 375.46 553.14
  Q 367.02 559.30 365.59 571.37
  Z"
/>
<path fill="#011777" d="
  M 513.89 549.01
  Q 509.08 546.59 502.93 548.82
  A 2.76 2.69 10.9 0 0 501.91 549.49
  Q 500.01 551.48 498.66 550.81
  Q 503.39 545.82 512.09 546.34
  Q 513.67 546.44 514.21 547.92
  Q 514.39 548.40 513.89 549.01
  Z"
/>
<path fill="#002d96" fill-opacity="0.996" d="
  M 532.05 553.74
  A 0.40 0.39 73.7 0 0 532.72 554.11
  Q 540.80 545.61 552.12 546.47
  C 566.36 547.56 564.90 560.58 563.79 570.81
  Q 563.12 576.95 560.75 595.69
  A 0.41 0.40 3.1 0 1 560.34 596.05
  L 546.21 596.05
  A 0.59 0.59 0.0 0 1 545.62 595.40
  Q 546.85 583.74 548.88 566.78
  C 549.40 562.49 548.56 557.98 543.18 557.87
  C 535.00 557.70 532.05 564.01 531.20 571.14
  Q 529.41 586.32 529.10 588.07
  Q 529.04 588.41 528.70 595.34
  A 0.72 0.72 0.0 0 1 527.98 596.02
  L 513.86 596.02
  A 0.76 0.75 -86.9 0 1 513.11 595.18
  Q 517.22 559.32 517.44 558.04
  Q 517.89 555.34 518.07 548.70
  A 1.42 1.42 0.0 0 1 519.49 547.32
  L 531.13 547.32
  A 0.92 0.92 0.0 0 1 532.01 547.97
  Q 532.83 550.67 532.05 553.74
  Z"
/>
<path fill="#002d96" fill-opacity="0.996" d="
  M 663.86 591.19
  Q 663.33 592.51 663.83 593.81
  Q 664.11 596.06 661.89 596.05
  Q 655.50 596.02 648.75 596.11
  A 0.66 0.65 3.1 0 1 648.09 595.38
  Q 651.12 568.86 651.61 565.05
  Q 651.98 562.23 650.55 559.38
  A 1.61 1.61 0.0 0 0 649.83 558.66
  C 644.09 555.70 638.32 560.87 637.14 566.33
  C 635.93 571.92 635.52 576.62 634.17 587.63
  C 633.85 590.25 633.93 592.74 633.83 595.18
  A 0.92 0.91 1.3 0 1 632.91 596.05
  L 625.05 596.04
  Q 623.50 595.66 621.96 596.04
  Q 620.21 596.20 618.45 595.78
  A 0.63 0.63 0.0 0 1 617.97 595.10
  L 623.71 548.20
  A 0.92 0.92 0.0 0 1 624.62 547.39
  L 636.58 547.39
  A 0.80 0.80 0.0 0 1 637.37 548.28
  L 636.67 553.99
  A 0.46 0.46 0.0 0 0 637.48 554.33
  Q 645.82 543.74 659.24 547.52
  Q 662.82 548.53 664.89 551.49
  A 2.21 2.12 17.2 0 1 665.15 551.96
  Q 665.74 553.33 666.25 553.89
  A 0.53 0.53 0.0 0 0 667.04 553.88
  Q 673.15 546.85 682.28 546.43
  Q 693.32 545.93 696.25 554.39
  Q 697.63 558.38 696.85 566.68
  Q 696.30 572.48 695.52 579.02
  Q 694.11 590.97 693.81 595.66
  A 0.43 0.43 0.0 0 1 693.38 596.07
  L 678.64 596.07
  A 0.58 0.58 0.0 0 1 678.06 595.52
  C 677.97 592.98 678.67 591.29 678.91 589.08
  Q 680.36 575.69 681.64 565.90
  C 682.06 562.70 681.33 560.53 679.09 558.58
  A 2.14 2.12 70.9 0 0 678.13 558.11
  C 673.21 557.15 668.89 560.71 667.40 565.16
  Q 666.74 567.10 666.43 569.53
  Q 665.05 580.36 663.86 591.19
  Z"
/>
<path fill="#002d96" fill-opacity="0.996" d="
  M 749.82 574.67
  A 0.56 0.55 4.2 0 1 749.27 575.14
  L 717.38 575.14
  A 0.63 0.62 -86.9 0 0 716.76 575.70
  C 715.85 584.92 723.50 588.77 731.53 587.56
  Q 737.97 586.58 742.78 584.00
  A 0.74 0.73 -25.5 0 1 743.81 584.36
  L 746.73 591.35
  A 1.02 1.02 0.0 0 1 746.29 592.64
  Q 738.85 596.81 730.31 597.28
  C 719.31 597.89 706.36 596.35 702.65 583.85
  Q 700.03 575.02 702.58 566.05
  Q 706.73 551.43 720.85 547.42
  Q 727.47 545.55 734.36 546.72
  C 749.01 549.22 751.95 561.88 749.82 574.67
  Z
  M 730.02 566.90
  L 732.49 566.86
  L 736.26 566.81
  A 0.61 0.61 0.0 0 0 736.86 566.22
  C 737.05 561.36 735.35 556.21 729.60 555.90
  Q 719.83 555.37 717.50 565.93
  A 0.85 0.84 -84.0 0 0 718.33 566.96
  L 730.02 566.90
  Z"
/>
<path fill="#002d96" fill-opacity="0.996" d="
  M 768.02 547.45
  Q 768.64 547.75 769.50 547.46
  L 771.33 547.37
  A 0.66 0.65 88.8 0 1 772.01 548.03
  L 772.01 554.03
  A 0.19 0.19 0.0 0 0 772.33 554.16
  Q 780.49 545.48 792.47 546.55
  Q 802.28 547.43 804.16 555.85
  C 804.96 559.41 804.05 563.42 804.00 567.22
  Q 803.97 570.16 803.71 571.77
  Q 803.40 573.71 800.75 595.72
  A 0.37 0.37 0.0 0 1 800.38 596.04
  L 786.36 596.04
  A 0.74 0.73 -87.2 0 1 785.63 595.23
  Q 786.51 586.96 788.94 566.01
  Q 789.27 563.11 788.08 560.60
  A 2.67 2.63 8.2 0 0 787.41 559.72
  C 782.39 555.36 775.30 559.10 772.70 564.35
  Q 772.03 565.69 771.94 566.69
  C 771.84 567.85 771.34 568.78 771.19 569.90
  Q 769.36 583.57 768.32 595.30
  A 0.79 0.79 0.0 0 1 767.53 596.02
  L 753.89 596.02
  A 1.10 1.10 0.0 0 1 752.80 594.78
  C 754.29 583.40 755.41 571.96 756.75 560.51
  Q 757.15 557.07 757.65 548.21
  A 0.76 0.76 0.0 0 1 758.41 547.49
  L 768.02 547.45
  Z"
/>
<path fill="#002d96" fill-opacity="0.996" d="
  M 598.13 591.16
  A 0.66 0.65 -23.2 0 0 596.97 590.70
  Q 591.89 596.78 584.26 597.36
  C 580.75 597.63 576.07 597.46 573.18 595.85
  Q 566.74 592.27 567.17 584.10
  C 567.67 574.66 574.24 569.78 583.37 567.81
  Q 590.73 566.23 598.79 565.82
  A 1.09 1.08 -87.8 0 0 599.82 564.86
  Q 600.67 557.77 593.71 557.14
  Q 584.97 556.35 576.79 561.07
  A 0.69 0.69 0.0 0 1 575.75 560.55
  Q 575.31 556.52 573.46 553.16
  A 1.11 1.10 60.4 0 1 573.86 551.68
  Q 580.13 547.92 586.79 547.18
  C 592.70 546.52 597.12 546.21 602.36 547.33
  C 608.48 548.63 613.24 553.35 614.00 559.50
  C 614.97 567.43 612.63 577.56 612.06 582.99
  Q 611.31 590.13 611.88 595.55
  A 0.54 0.53 87.1 0 1 611.35 596.14
  L 600.11 596.14
  A 1.31 1.30 75.8 0 1 598.96 595.45
  Q 597.96 593.65 598.13 591.16
  Z
  M 597.95 574.21
  C 591.87 574.98 588.26 575.33 583.67 578.20
  A 2.38 2.35 0.4 0 0 582.96 578.89
  Q 581.92 580.44 581.72 582.53
  C 581.29 587.19 585.06 588.61 589.10 588.00
  C 594.82 587.13 597.64 583.29 598.19 577.61
  Q 598.30 576.39 598.79 575.36
  A 0.81 0.81 0.0 0 0 597.95 574.21
  Z"
/>
<path fill="#002d96" fill-opacity="0.996" d="
  M 894.00 554.02
  A 0.35 0.34 63.6 0 0 894.62 554.23
  C 899.44 547.88 906.04 546.08 913.74 546.59
  Q 924.12 547.28 925.92 557.51
  C 926.74 562.17 926.18 569.61 925.22 575.38
  Q 923.78 584.04 923.92 585.41
  Q 923.98 586.05 923.64 588.37
  Q 923.18 591.46 923.41 594.45
  A 1.46 1.46 0.0 0 1 921.95 596.02
  L 907.86 596.02
  A 0.48 0.48 0.0 0 1 907.38 595.48
  Q 909.83 575.16 910.57 567.00
  C 910.86 563.82 910.59 560.02 907.30 558.67
  C 900.06 555.71 894.51 562.59 893.49 569.03
  Q 891.35 582.62 890.65 595.59
  A 0.52 0.52 0.0 0 1 890.13 596.08
  L 875.81 596.08
  A 0.98 0.98 0.0 0 1 874.84 594.98
  L 880.59 547.93
  A 0.55 0.54 -86.4 0 1 881.13 547.45
  L 893.49 547.45
  A 0.51 0.51 0.0 0 1 894.00 547.96
  L 894.00 554.02
  Z"
/>
<path fill="#002d96" fill-opacity="0.996" d="
  M 970.39 550.93
  A 0.50 0.49 35.9 0 1 970.51 551.65
  Q 969.02 553.56 968.68 555.50
  A 1.15 1.14 81.0 0 1 968.11 556.29
  Q 966.94 556.93 966.89 558.45
  A 0.78 0.78 0.0 0 1 965.74 559.11
  C 960.63 556.28 950.84 554.28 947.12 560.52
  A 0.95 0.95 0.0 0 0 947.13 561.50
  Q 948.79 564.19 951.80 565.23
  Q 956.60 566.90 961.43 569.26
  Q 969.91 573.41 968.85 583.09
  C 968.12 589.76 964.33 593.42 958.46 595.82
  Q 956.20 596.75 953.67 597.00
  Q 944.49 597.91 938.27 596.91
  Q 935.15 596.40 928.94 593.54
  A 2.06 2.06 0.0 0 1 927.86 591.02
  L 929.70 585.58
  A 1.29 1.29 0.0 0 1 931.52 584.85
  Q 931.61 584.89 936.24 586.55
  Q 943.55 589.17 950.26 587.54
  Q 954.77 586.45 954.19 582.45
  C 953.89 580.39 951.25 579.05 949.68 578.55
  C 940.71 575.68 931.18 572.63 932.16 561.16
  Q 932.34 559.06 935.00 553.95
  A 2.97 2.94 82.3 0 1 935.59 553.17
  Q 940.34 548.61 945.94 547.44
  Q 952.16 546.13 957.77 546.56
  Q 964.38 547.07 970.39 550.93
  Z"
/>
<path fill="#002d96" fill-opacity="0.996" d="
  M 1027.76 590.69
  A 0.33 0.33 0.0 0 0 1027.25 590.30
  Q 1026.48 590.94 1026.14 591.84
  A 1.93 1.91 -9.0 0 1 1025.51 592.70
  Q 1021.29 596.04 1019.21 596.69
  Q 1015.10 597.98 1009.80 597.50
  C 1002.16 596.82 996.70 592.44 995.37 584.93
  Q 993.61 575.08 997.08 565.33
  Q 1002.39 550.45 1017.45 547.26
  Q 1024.38 545.79 1034.84 547.66
  A 8.28 8.22 47.1 0 0 1037.09 547.75
  Q 1041.64 547.30 1046.44 547.93
  A 0.60 0.58 3.0 0 1 1046.95 548.48
  Q 1047.16 552.21 1046.69 554.88
  Q 1046.03 558.58 1046.15 558.74
  Q 1046.18 558.79 1044.47 573.75
  Q 1043.67 580.75 1042.79 590.49
  Q 1042.42 594.58 1041.40 598.44
  Q 1039.13 606.99 1032.79 611.75
  Q 1027.07 616.05 1017.72 617.26
  Q 1009.44 618.33 1000.56 616.62
  Q 996.49 615.84 992.53 613.85
  A 0.74 0.73 -64.9 0 1 992.19 612.90
  L 995.72 604.73
  A 0.60 0.58 25.6 0 1 996.54 604.45
  C 1003.71 608.28 1015.98 609.76 1022.35 603.70
  Q 1026.78 599.49 1027.10 592.61
  A 2.41 2.28 59.3 0 1 1027.28 591.81
  L 1027.76 590.69
  Z
  M 1031.42 557.55
  C 1022.05 554.71 1015.27 558.83 1012.16 567.60
  C 1010.31 572.81 1009.02 578.47 1011.67 583.68
  C 1013.72 587.71 1019.43 588.00 1022.83 586.11
  Q 1028.18 583.12 1029.08 576.76
  Q 1030.38 567.56 1030.79 565.61
  C 1031.21 563.65 1030.99 560.69 1031.91 558.62
  A 0.79 0.78 20.5 0 0 1031.42 557.55
  Z"
/>
<path fill="#002d96" fill-opacity="0.996" d="
  M 1143.92 584.54
  Q 1150.12 588.56 1159.46 588.10
  C 1165.58 587.79 1170.40 581.68 1162.03 578.73
  Q 1156.19 576.67 1152.01 574.76
  C 1144.31 571.24 1141.95 563.40 1145.92 555.97
  Q 1149.28 549.68 1157.14 547.39
  Q 1159.33 546.76 1166.99 546.52
  Q 1173.20 546.33 1180.69 549.37
  A 2.96 2.95 22.8 0 1 1182.29 553.28
  L 1180.13 558.28
  A 1.65 1.64 -61.5 0 1 1177.71 559.00
  C 1174.54 556.90 1158.98 553.51 1158.81 561.55
  A 1.55 1.51 -69.0 0 0 1159.31 562.71
  Q 1161.43 564.62 1162.21 564.87
  Q 1170.90 567.67 1175.92 570.79
  Q 1181.53 574.27 1181.28 581.25
  C 1180.88 592.08 1172.34 596.85 1162.61 597.32
  C 1155.44 597.67 1147.85 597.58 1141.80 593.90
  A 2.06 2.06 0.0 0 1 1140.85 591.73
  L 1142.22 585.24
  A 1.12 1.11 22.4 0 1 1143.92 584.54
  Z"
/>
<path fill="#002d96" fill-opacity="0.996" d="
  M 454.12 588.70
  A 0.21 0.21 0.0 0 0 453.75 588.57
  Q 444.35 600.47 429.01 596.50
  Q 427.92 596.22 425.88 594.76
  C 421.75 591.79 420.55 584.99 421.04 580.24
  Q 421.59 575.05 423.30 561.92
  C 423.96 556.90 423.98 552.75 425.08 547.82
  A 0.58 0.58 0.0 0 1 425.65 547.36
  L 438.80 547.36
  A 1.17 1.17 0.0 0 1 439.94 548.78
  Q 439.18 552.19 439.01 555.57
  Q 438.85 558.58 438.32 562.40
  Q 436.67 574.45 436.46 578.98
  Q 436.11 586.69 443.97 585.95
  Q 450.64 585.32 453.66 579.49
  C 454.78 577.34 455.71 571.84 455.98 568.39
  C 456.29 564.44 456.88 562.35 456.95 559.19
  Q 457.06 554.36 458.14 548.19
  A 0.95 0.94 5.1 0 1 459.07 547.42
  L 472.61 547.42
  A 0.99 0.98 3.1 0 1 473.59 548.51
  L 468.45 595.47
  A 0.63 0.62 -86.9 0 1 467.83 596.03
  L 455.43 596.03
  A 1.32 1.31 -90.0 0 1 454.12 594.71
  L 454.12 588.70
  Z"
/>
<path fill="#002d96" fill-opacity="0.996" d="
  M 495.12 549.51
  L 495.04 550.21
  L 494.82 554.58
  A 0.36 0.36 0.0 0 0 495.50 554.78
  Q 496.85 552.40 498.66 550.81
  Q 500.01 551.48 501.91 549.49
  A 2.76 2.69 10.9 0 1 502.93 548.82
  Q 509.08 546.59 513.89 549.01
  L 511.86 558.73
  A 0.89 0.87 -21.2 0 1 511.71 559.06
  Q 511.61 559.19 511.50 559.34
  Q 509.51 558.02 506.90 558.91
  Q 502.33 559.66 501.25 560.20
  Q 496.52 562.56 495.20 567.45
  C 493.65 573.24 493.43 581.56 492.30 588.59
  Q 491.77 591.84 491.89 595.32
  A 0.69 0.69 0.0 0 1 491.20 596.03
  L 476.56 596.03
  A 0.42 0.40 -86.8 0 1 476.16 595.57
  L 481.21 549.75
  Q 481.01 549.62 481.22 549.03
  Q 481.18 548.39 481.35 547.79
  A 0.49 0.48 -80.8 0 1 481.81 547.45
  L 494.66 547.45
  A 0.17 0.17 0.0 0 1 494.78 547.50
  Q 495.43 548.16 495.12 549.51
  Z"
/>
<path fill="#011777" d="
  M 769.50 547.46
  Q 768.64 547.75 768.02 547.45
  Q 768.67 547.22 769.50 547.46
  Z"
/>
<path fill="#002d96" fill-opacity="0.996" d="
  M 975.04 573.94
  L 975.08 573.22
  L 975.98 565.70
  L 976.12 565.03
  L 977.70 548.06
  A 0.74 0.74 0.0 0 1 978.44 547.39
  L 992.01 547.39
  A 0.95 0.95 0.0 0 1 992.95 548.44
  L 987.79 595.53
  A 0.56 0.55 -87.1 0 1 987.24 596.03
  L 973.43 596.03
  A 0.74 0.74 0.0 0 1 972.69 595.21
  L 975.04 573.94
  Z"
/>
<path fill="#002d96" fill-opacity="0.996" d="
  M 379.00 594.47
  C 367.67 591.90 364.27 582.39 365.59 571.37
  Q 367.02 559.30 375.46 553.14
  C 381.91 548.44 389.32 547.59 397.85 548.36
  C 405.58 549.06 413.93 554.00 415.35 562.36
  C 417.45 574.67 412.93 590.62 399.49 594.14
  Q 389.28 596.81 379.00 594.47
  Z
  M 379.79 570.28
  C 378.61 575.96 378.68 584.68 384.96 587.08
  Q 388.58 588.46 392.67 587.13
  C 398.65 585.18 400.34 579.55 401.48 574.02
  C 402.68 568.34 402.61 559.62 396.33 557.22
  Q 392.71 555.84 388.62 557.17
  C 382.64 559.12 380.95 564.75 379.79 570.28
  Z"
/>
<path fill="#011777" d="
  M 481.22 549.03
  Q 481.01 549.62 481.21 549.75
  Q 480.97 549.58 481.22 549.03
  Z"
/>
<path fill="#011777" d="
  M 495.12 549.51
  Q 495.18 549.87 495.04 550.21
  L 495.12 549.51
  Z"
/>
<path fill="#011777" d="
  M 809.72 552.54
  Q 809.89 553.11 809.65 553.53
  Q 809.55 553.01 809.72 552.54
  Z"
/>
<path fill="#011777" d="
  M 833.79 556.07
  Q 833.66 555.79 833.03 556.22
  Q 833.37 555.59 833.79 556.07
  Z"
/>
<path fill="#011777" d="
  M 511.50 559.34
  L 506.90 558.91
  Q 509.51 558.02 511.50 559.34
  Z"
/>
<path fill="#011777" d="
  M 976.12 565.03
  L 975.98 565.70
  Q 976.22 565.38 976.12 565.03
  Z"
/>
<path fill="#011777" d="
  M 732.49 566.86
  L 730.02 566.90
  L 732.49 566.86
  Z"
/>
<path fill="#011777" d="
  M 975.08 573.22
  L 975.04 573.94
  Q 975.24 573.52 975.08 573.22
  Z"
/>
<path fill="#011777" d="
  M 1098.23 578.46
  Q 1098.14 579.03 1097.99 579.19
  Q 1097.96 578.58 1098.23 578.46
  Z"
/>
<path fill="#011777" d="
  M 1097.00 585.89
  L 1096.79 592.19
  Q 1095.98 589.43 1097.00 585.89
  Z"
/>
<path fill="#011777" d="
  M 663.86 591.19
  L 663.83 593.81
  Q 663.33 592.51 663.86 591.19
  Z"
/>
<path fill="#011777" d="
  M 625.05 596.04
  Q 623.53 596.32 621.96 596.04
  Q 623.50 595.66 625.05 596.04
  Z"
/>
<path fill="#011777" d="
  M 864.81 595.97
  Q 864.48 596.41 863.45 596.01
  Q 864.13 595.82 864.81 595.97
  Z"
/>
<path fill="#011777" d="
  M 1087.71 596.11
  Q 1087.07 596.22 1086.54 596.03
  Q 1087.19 595.86 1087.71 596.11
  Z"
/>
<path fill="#011777" d="
  M 574.1002 658.5622
  A 11.17 10.40 -2.4 0 1 563.3755 669.4209
  A 11.17 10.40 -2.4 0 1 551.7798 659.4978
  A 11.17 10.40 -2.4 0 1 562.5045 648.6391
  A 11.17 10.40 -2.4 0 1 574.1002 658.5622
  Z
  M 569.08 659.00
  A 5.96 5.96 0.0 0 0 563.12 653.04
  A 5.96 5.96 0.0 0 0 557.16 659.00
  A 5.96 5.96 0.0 0 0 563.12 664.96
  A 5.96 5.96 0.0 0 0 569.08 659.00
  Z"
/>
<path fill="#011777" d="
  M 747.6585 658.5719
  A 11.20 10.38 -2.6 0 1 736.9409 669.4493
  A 11.20 10.38 -2.6 0 1 725.2815 659.5881
  A 11.20 10.38 -2.6 0 1 735.9991 648.7107
  A 11.20 10.38 -2.6 0 1 747.6585 658.5719
  Z
  M 742.73 659.20
  A 5.89 5.89 0.0 0 0 736.84 653.31
  A 5.89 5.89 0.0 0 0 730.95 659.20
  A 5.89 5.89 0.0 0 0 736.84 665.09
  A 5.89 5.89 0.0 0 0 742.73 659.20
  Z"
/>
<path fill="#011777" d="
  M 847.80 649.04
  Q 852.50 649.10 856.61 649.02
  A 0.88 0.87 89.3 0 1 857.50 649.90
  L 857.50 652.12
  A 0.91 0.91 0.0 0 1 856.59 653.03
  L 850.73 653.03
  A 0.46 0.46 0.0 0 0 850.27 653.49
  L 850.27 668.41
  A 0.67 0.67 0.0 0 1 849.66 669.08
  Q 849.29 669.11 847.75 669.11
  Q 846.20 669.10 845.84 669.07
  A 0.67 0.67 0.0 0 1 845.23 668.40
  L 845.31 653.48
  A 0.46 0.46 0.0 0 0 844.85 653.01
  L 838.99 652.98
  A 0.91 0.91 0.0 0 1 838.08 652.07
  L 838.10 649.85
  A 0.88 0.87 -89.0 0 1 839.00 648.98
  Q 843.10 649.08 847.80 649.04
  Z"
/>
<path fill="#011777" d="
  M 884.6367 657.1748
  A 11.18 10.38 -9.5 0 1 875.3232 669.2576
  A 11.18 10.38 -9.5 0 1 862.5833 660.8652
  A 11.18 10.38 -9.5 0 1 871.8968 648.7824
  A 11.18 10.38 -9.5 0 1 884.6367 657.1748
  Z
  M 876.0429 653.7777
  A 5.93 5.74 -64.5 0 0 868.3092 656.6589
  A 5.93 5.74 -64.5 0 0 870.9371 664.4823
  A 5.93 5.74 -64.5 0 0 878.6708 661.6011
  A 5.93 5.74 -64.5 0 0 876.0429 653.7777
  Z"
/>
<path fill="#011777" d="
  M 1076.04 649.36
  L 1076.04 668.72
  A 0.33 0.33 0.0 0 1 1075.71 669.05
  L 1071.93 669.05
  A 0.33 0.33 0.0 0 1 1071.67 668.93
  L 1061.65 656.76
  A 0.33 0.33 0.0 0 0 1061.07 656.97
  L 1061.07 668.59
  A 0.33 0.33 0.0 0 1 1060.76 668.92
  L 1056.57 669.16
  A 0.33 0.33 0.0 0 1 1056.22 668.83
  L 1056.22 648.97
  A 0.33 0.33 0.0 0 1 1056.59 648.65
  L 1061.27 649.22
  A 0.33 0.33 0.0 0 1 1061.48 649.34
  L 1070.99 660.88
  A 0.33 0.33 0.0 0 0 1071.57 660.65
  L 1070.93 649.38
  A 0.33 0.33 0.0 0 1 1071.26 649.03
  L 1075.71 649.03
  A 0.33 0.33 0.0 0 1 1076.04 649.36
  Z"
/>
<path fill="#011777" d="
  M 1106.98 665.92
  L 1107.58 664.58
  A 1.42 1.42 0.0 0 1 1109.50 663.89
  C 1111.87 665.05 1116.38 666.29 1118.46 664.40
  A 1.19 1.19 0.0 0 0 1117.94 662.37
  C 1114.67 661.58 1108.64 660.53 1107.41 656.87
  C 1106.00 652.68 1109.48 649.28 1113.50 648.86
  C 1116.65 648.53 1119.77 648.88 1123.00 650.32
  A 1.14 1.13 -66.0 0 1 1123.57 651.81
  L 1122.44 654.29
  A 0.85 0.85 0.0 0 1 1121.22 654.66
  C 1119.20 653.38 1113.83 651.44 1112.40 654.13
  A 2.00 1.47 20.7 0 0 1113.87 656.40
  Q 1119.57 658.10 1121.99 659.39
  C 1124.90 660.97 1124.51 665.08 1122.49 667.35
  C 1119.62 670.56 1110.90 669.28 1107.74 667.89
  A 1.49 1.49 0.0 0 1 1106.98 665.92
  Z"
/>
<path fill="#011777" d="
  M 342.31 663.24
  Q 342.37 663.24 342.43 663.22
  A 0.25 0.06 -68.7 0 0 342.55 663.05
  L 347.77 649.91
  A 1.40 1.40 0.0 0 1 349.07 649.03
  L 352.52 649.03
  A 0.68 0.68 0.0 0 1 353.15 649.98
  L 345.19 668.41
  A 1.13 1.13 0.0 0 1 344.25 669.09
  Q 344.05 669.10 342.30 669.10
  Q 340.54 669.09 340.34 669.08
  A 1.13 1.13 0.0 0 1 339.41 668.40
  L 331.53 649.93
  A 0.68 0.68 0.0 0 1 332.17 648.98
  L 335.62 649.00
  A 1.40 1.40 0.0 0 1 336.92 649.88
  L 342.07 663.05
  A 0.25 0.06 68.9 0 0 342.19 663.22
  Q 342.25 663.24 342.31 663.24
  Z"
/>
<path fill="#011777" d="
  M 375.30 665.70
  L 375.18 668.41
  A 0.71 0.71 0.0 0 1 374.47 669.08
  L 359.47 669.02
  A 0.47 0.47 0.0 0 1 359.01 668.55
  L 359.05 649.58
  A 0.51 0.51 0.0 0 1 359.55 649.07
  L 374.28 648.98
  A 0.90 0.90 0.0 0 1 375.19 649.96
  L 374.99 652.05
  A 1.11 1.11 0.0 0 1 373.86 653.06
  L 364.65 652.88
  A 0.76 0.76 0.0 0 0 363.88 653.62
  L 363.80 656.85
  A 0.79 0.79 0.0 0 0 364.59 657.66
  L 372.25 657.65
  A 1.08 1.07 0.9 0 1 373.33 658.76
  L 373.27 660.22
  A 1.29 1.29 0.0 0 1 371.93 661.48
  L 364.75 661.15
  A 0.89 0.88 1.8 0 0 363.83 662.00
  L 363.77 664.20
  A 0.80 0.80 0.0 0 0 364.57 665.02
  L 374.58 664.96
  A 0.71 0.71 0.0 0 1 375.30 665.70
  Z"
/>
<path fill="#011777" d="
  M 401.56 669.10
  L 397.44 669.10
  A 2.02 2.00 -17.8 0 1 395.81 668.27
  C 393.83 665.52 392.31 662.69 389.32 663.24
  A 0.92 0.91 84.7 0 0 388.58 664.14
  L 388.58 668.03
  A 1.08 1.08 0.0 0 1 387.50 669.11
  L 384.03 669.11
  A 0.80 0.80 0.0 0 1 383.23 668.31
  L 383.23 649.53
  A 0.55 0.54 89.5 0 1 383.76 648.98
  Q 392.91 648.68 396.58 649.38
  Q 397.82 649.62 400.04 651.57
  A 2.23 2.16 -79.5 0 1 400.66 652.50
  Q 402.08 656.65 400.70 659.44
  Q 399.18 662.52 398.72 663.91
  A 0.96 0.95 -56.1 0 0 398.89 664.81
  L 401.87 668.43
  A 0.41 0.41 0.0 0 1 401.56 669.10
  Z
  M 388.48 654.47
  L 388.48 659.37
  A 1.36 1.36 0.0 0 0 389.85 660.72
  L 392.73 660.72
  A 3.94 3.76 -0.1 0 0 396.66 656.95
  L 396.66 656.85
  A 3.94 3.76 -0.1 0 0 392.71 653.10
  L 389.83 653.10
  A 1.36 1.36 0.0 0 0 388.48 654.47
  Z"
/>
<rect fill="#011777" x="-2.56" y="-10.06" transform="translate(412.51,659.04) rotate(0.2)" width="5.12" height="20.12" rx="0.30"/>
<path fill="#011777" d="
  M 428.79 653.66
  L 429.01 657.54
  A 0.54 0.54 0.0 0 0 429.55 658.05
  L 437.70 658.05
  A 0.54 0.54 0.0 0 1 438.24 658.66
  L 437.89 661.51
  A 0.54 0.54 0.0 0 1 437.35 661.98
  L 429.40 661.98
  A 0.54 0.54 0.0 0 0 428.86 662.55
  L 429.19 668.38
  A 0.54 0.54 0.0 0 1 428.68 668.95
  L 424.66 669.18
  A 0.54 0.54 0.0 0 1 424.09 668.64
  L 424.09 649.57
  A 0.54 0.54 0.0 0 1 424.63 649.03
  L 438.44 649.03
  A 0.54 0.54 0.0 0 1 438.98 649.54
  L 439.15 652.52
  A 0.54 0.54 0.0 0 1 438.61 653.09
  L 429.33 653.09
  A 0.54 0.54 0.0 0 0 428.79 653.66
  Z"
/>
<rect fill="#011777" x="-2.54" y="-10.01" transform="translate(449.42,659.04) rotate(-0.2)" width="5.08" height="20.02" rx="0.38"/>
<path fill="#011777" d="
  M 461.68 668.36
  L 461.68 649.80
  A 0.79 0.79 0.0 0 1 462.47 649.01
  L 477.14 649.01
  A 0.79 0.79 0.0 0 1 477.92 649.90
  L 477.63 652.28
  A 0.79 0.79 0.0 0 1 476.84 652.97
  L 467.29 652.97
  A 0.79 0.79 0.0 0 0 466.50 653.76
  L 466.50 656.90
  A 0.79 0.79 0.0 0 0 467.29 657.69
  L 475.17 657.69
  A 0.79 0.79 0.0 0 1 475.96 658.48
  L 475.96 660.57
  A 0.79 0.79 0.0 0 1 475.17 661.36
  L 467.30 661.36
  A 0.79 0.79 0.0 0 0 466.51 662.15
  L 466.51 664.26
  A 0.79 0.79 0.0 0 0 467.30 665.05
  L 477.23 665.05
  A 0.79 0.79 0.0 0 1 478.02 665.84
  L 478.02 668.36
  A 0.79 0.79 0.0 0 1 477.23 669.15
  L 462.47 669.15
  A 0.79 0.79 0.0 0 1 461.68 668.36
  Z"
/>
<path fill="#011777" d="
  M 486.02 649.51
  A 0.46 0.46 0.0 0 1 486.48 649.05
  L 496.29 649.00
  A 10.59 9.55 -0.3 0 1 506.93 658.50
  L 506.93 659.42
  A 10.59 9.55 -0.3 0 1 496.39 669.02
  L 486.58 669.07
  A 0.46 0.46 0.0 0 1 486.12 668.61
  L 486.02 649.51
  Z
  M 491.07 653.35
  L 490.93 664.73
  A 0.38 0.38 0.0 0 0 491.31 665.12
  L 494.82 665.16
  A 6.85 5.95 0.7 0 0 501.74 659.30
  L 501.74 659.06
  A 6.85 5.95 0.7 0 0 494.96 653.02
  L 491.45 652.98
  A 0.38 0.38 0.0 0 0 491.07 653.35
  Z"
/>
<path fill="#011777" d="
  M 542.79 649.19
  L 547.32 648.93
  A 0.59 0.58 -76.9 0 1 547.86 649.80
  C 545.52 653.99 541.39 658.05 539.86 661.16
  Q 538.66 663.59 539.39 668.25
  A 0.61 0.61 0.0 0 1 538.81 668.96
  L 534.84 669.19
  A 0.67 0.66 86.6 0 1 534.14 668.56
  L 533.80 662.44
  A 2.33 2.33 0.0 0 0 533.38 661.24
  L 529.96 656.32
  A 1.49 1.10 -81.4 0 1 529.87 656.15
  Q 528.30 652.74 526.00 650.02
  A 0.49 0.49 0.0 0 1 526.35 649.22
  L 530.70 648.97
  A 1.15 1.14 -16.4 0 1 531.76 649.54
  L 536.57 657.88
  A 0.39 0.39 0.0 0 0 537.24 657.88
  L 541.95 649.71
  A 1.04 1.03 -76.5 0 1 542.79 649.19
  Z"
/>
<path fill="#011777" d="
  M 591.27 665.25
  C 593.84 665.26 595.90 663.99 596.03 661.25
  Q 596.23 656.91 596.01 649.67
  A 0.63 0.63 0.0 0 1 596.64 649.02
  L 600.55 649.02
  A 0.62 0.62 0.0 0 1 601.17 649.65
  Q 601.04 660.18 601.04 660.49
  Q 600.97 666.50 595.75 668.76
  Q 594.65 669.24 591.26 669.23
  Q 587.88 669.23 586.78 668.75
  Q 581.57 666.48 581.51 660.47
  Q 581.51 660.16 581.41 649.63
  A 0.62 0.62 0.0 0 1 582.03 649.00
  L 585.94 649.01
  A 0.63 0.63 0.0 0 1 586.57 649.66
  Q 586.33 656.90 586.52 661.24
  C 586.64 663.98 588.70 665.25 591.27 665.25
  Z"
/>
<path fill="#011777" d="
  M 616.73 669.10
  Q 615.19 669.09 614.83 669.05
  A 0.67 0.67 0.0 0 1 614.22 668.37
  L 614.41 653.46
  A 0.46 0.46 0.0 0 0 613.95 652.99
  L 608.10 652.92
  A 0.91 0.91 0.0 0 1 607.20 652.00
  L 607.22 649.78
  A 0.88 0.87 -88.6 0 1 608.13 648.91
  Q 612.23 649.04 616.93 649.04
  Q 621.63 649.14 625.74 649.08
  A 0.88 0.87 89.7 0 1 626.62 649.97
  L 626.61 652.19
  A 0.91 0.91 0.0 0 1 625.69 653.09
  L 619.83 653.05
  A 0.46 0.46 0.0 0 0 619.37 653.51
  L 619.26 668.42
  A 0.67 0.67 0.0 0 1 618.64 669.09
  Q 618.28 669.12 616.73 669.10
  Z"
/>
<path fill="#011777" d="
  M 643.48 657.09
  Q 646.77 657.08 647.59 657.09
  A 0.55 0.55 0.0 0 0 648.15 656.53
  L 648.15 649.61
  A 0.58 0.58 0.0 0 1 648.73 649.03
  L 652.53 649.03
  A 0.70 0.69 89.9 0 1 653.22 649.73
  Q 653.23 656.83 653.23 659.09
  Q 653.24 661.35 653.26 668.45
  A 0.70 0.69 89.9 0 1 652.57 669.15
  L 648.77 669.16
  A 0.58 0.58 0.0 0 1 648.18 668.58
  L 648.16 661.66
  A 0.55 0.55 0.0 0 0 647.60 661.11
  Q 646.78 661.12 643.48 661.13
  Q 640.19 661.13 639.37 661.13
  A 0.55 0.55 0.0 0 0 638.81 661.68
  L 638.81 668.60
  A 0.58 0.58 0.0 0 1 638.23 669.18
  L 634.43 669.18
  A 0.70 0.69 89.9 0 1 633.74 668.48
  Q 633.73 661.38 633.73 659.12
  Q 633.72 656.87 633.70 649.76
  A 0.70 0.69 89.9 0 1 634.39 649.07
  L 638.19 649.05
  A 0.58 0.58 0.0 0 1 638.78 649.63
  L 638.80 656.55
  A 0.55 0.55 0.0 0 0 639.36 657.10
  Q 640.18 657.09 643.48 657.09
  Z"
/>
<path fill="#011777" d="
  M 676.25 666.16
  L 676.83 664.82
  A 1.42 1.41 -65.7 0 1 678.73 664.10
  C 681.12 665.21 685.64 666.38 687.68 664.46
  A 1.19 1.18 -60.2 0 0 687.13 662.44
  C 683.85 661.70 677.82 660.76 676.53 657.13
  C 675.05 652.97 678.47 649.52 682.47 649.03
  C 685.61 648.65 688.73 648.95 691.98 650.33
  A 1.13 1.12 -67.0 0 1 692.57 651.81
  L 691.49 654.30
  A 0.85 0.84 -62.5 0 1 690.27 654.69
  C 688.24 653.45 682.85 651.60 681.46 654.31
  A 1.99 1.46 19.7 0 0 682.97 656.55
  Q 688.69 658.15 691.12 659.40
  C 694.05 660.93 693.73 665.03 691.75 667.33
  C 688.94 670.58 680.22 669.45 677.04 668.12
  A 1.49 1.49 0.0 0 1 676.25 666.16
  Z"
/>
<path fill="#011777" d="
  M 706.01 668.61
  A 0.57 0.57 0.0 0 1 705.44 669.18
  L 701.51 669.18
  A 0.68 0.68 0.0 0 1 700.83 668.50
  L 700.83 649.63
  A 0.62 0.61 -0.5 0 1 701.44 649.02
  Q 711.37 648.91 713.23 649.26
  Q 716.26 649.84 718.28 652.83
  Q 719.95 655.30 718.54 658.89
  C 716.60 663.80 711.66 663.19 706.58 663.07
  A 0.55 0.55 0.0 0 0 706.01 663.62
  L 706.01 668.61
  Z
  M 705.88 654.12
  L 705.78 659.18
  A 0.72 0.72 0.0 0 0 706.48 659.92
  L 709.88 659.99
  A 4.08 3.05 1.2 0 0 714.02 657.03
  L 714.03 656.63
  A 4.08 3.05 1.2 0 0 710.02 653.49
  L 706.62 653.42
  A 0.72 0.72 0.0 0 0 705.88 654.12
  Z"
/>
<path fill="#011777" d="
  M 769.92 662.78
  L 774.23 668.03
  A 0.66 0.66 0.0 0 1 773.72 669.11
  L 769.53 669.11
  A 2.29 2.26 75.5 0 1 767.54 667.92
  Q 766.17 665.39 764.80 663.90
  Q 763.97 663.00 761.52 662.97
  A 0.61 0.60 -89.5 0 0 760.91 663.58
  L 760.91 668.66
  A 0.37 0.36 0.0 0 1 760.54 669.02
  L 755.91 669.02
  A 0.24 0.24 0.0 0 1 755.67 668.78
  L 755.67 649.68
  A 0.69 0.69 0.0 0 1 756.35 648.99
  Q 766.44 648.90 768.16 649.11
  Q 773.14 649.74 774.55 654.85
  A 2.99 2.96 -48.3 0 1 774.62 656.19
  Q 773.97 660.22 770.10 661.97
  A 0.52 0.52 0.0 0 0 769.92 662.78
  Z
  M 761.11 653.51
  L 761.01 659.57
  A 0.32 0.32 0.0 0 0 761.33 659.89
  L 765.03 659.95
  A 3.82 3.21 0.9 0 0 768.90 656.80
  L 768.90 656.52
  A 3.82 3.21 0.9 0 0 765.13 653.25
  L 761.43 653.19
  A 0.32 0.32 0.0 0 0 761.11 653.51
  Z"
/>
<path fill="#011777" d="
  M 789.48 669.04
  Q 787.95 669.03 787.58 669.00
  A 0.67 0.67 0.0 0 1 786.97 668.33
  L 787.03 653.47
  A 0.46 0.46 0.0 0 0 786.58 653.01
  L 780.74 652.99
  A 0.91 0.91 0.0 0 1 779.84 652.08
  L 779.84 649.86
  A 0.87 0.87 0.0 0 1 780.74 648.99
  Q 784.83 649.09 789.51 649.05
  Q 794.19 649.10 798.28 649.02
  A 0.87 0.87 0.0 0 1 799.17 649.89
  L 799.18 652.10
  A 0.91 0.91 0.0 0 1 798.27 653.01
  L 792.43 653.02
  A 0.46 0.46 0.0 0 0 791.98 653.47
  L 792.00 668.34
  A 0.67 0.67 0.0 0 1 791.39 669.01
  Q 791.02 669.04 789.48 669.04
  Z"
/>
<path fill="#011777" d="
  M 804.97 666.16
  L 805.54 664.82
  A 1.41 1.41 0.0 0 1 807.42 664.09
  C 809.81 665.17 814.32 666.30 816.34 664.37
  A 1.18 1.18 0.0 0 0 815.77 662.36
  C 812.50 661.65 806.49 660.77 805.17 657.17
  C 803.66 653.04 807.03 649.57 811.01 649.05
  C 814.14 648.64 817.24 648.91 820.49 650.26
  A 1.13 1.12 -67.5 0 1 821.09 651.73
  L 820.04 654.22
  A 0.85 0.84 -63.0 0 1 818.83 654.61
  C 816.80 653.40 811.41 651.60 810.05 654.32
  A 1.98 1.46 19.2 0 0 811.58 656.53
  Q 817.29 658.07 819.72 659.30
  C 822.65 660.79 822.37 664.88 820.42 667.19
  C 817.65 670.45 808.96 669.40 805.78 668.10
  A 1.49 1.48 -67.5 0 1 804.97 666.16
  Z"
/>
<path fill="#011777" d="
  M 901.48 665.53
  C 904.41 665.54 906.09 663.48 906.05 660.49
  Q 906.02 658.25 905.96 649.41
  A 0.39 0.39 0.0 0 1 906.35 649.02
  L 910.58 649.02
  A 0.41 0.41 0.0 0 1 910.99 649.41
  Q 911.39 657.58 910.77 663.47
  Q 910.58 665.33 908.01 667.46
  Q 905.66 669.41 901.48 669.41
  Q 897.29 669.40 894.95 667.45
  Q 892.38 665.31 892.20 663.45
  Q 891.59 657.56 892.01 649.39
  A 0.41 0.41 0.0 0 1 892.42 649.00
  L 896.65 649.01
  A 0.39 0.39 0.0 0 1 897.04 649.40
  Q 896.96 658.24 896.92 660.48
  C 896.88 663.47 898.55 665.53 901.48 665.53
  Z"
/>
<path fill="#011777" d="
  M 933.46 662.64
  L 937.34 668.37
  A 0.44 0.44 0.0 0 1 936.98 669.06
  L 933.51 669.06
  A 2.87 2.86 70.0 0 1 931.31 668.03
  Q 929.38 665.72 928.93 664.99
  C 927.87 663.26 926.59 662.81 924.98 663.24
  A 0.93 0.92 82.8 0 0 924.29 664.14
  L 924.29 668.34
  A 0.74 0.74 0.0 0 1 923.55 669.08
  L 919.75 669.08
  A 0.56 0.56 0.0 0 1 919.19 668.52
  L 919.19 649.60
  A 0.52 0.52 0.0 0 1 919.70 649.08
  Q 929.11 648.90 931.21 649.26
  Q 937.18 650.28 937.09 656.02
  Q 937.03 660.26 933.74 661.67
  A 0.66 0.65 61.4 0 0 933.46 662.64
  Z
  M 931.42 654.40
  L 925.07 653.56
  A 0.29 0.29 0.0 0 0 924.75 653.81
  L 924.38 656.65
  A 3.55 2.53 -82.5 0 0 926.42 660.50
  L 928.32 660.75
  A 3.55 2.53 -82.5 0 0 931.30 657.56
  L 931.67 654.72
  A 0.29 0.29 0.0 0 0 931.42 654.40
  Z"
/>
<path fill="#011777" d="
  M 953.24 660.51
  Q 951.84 658.92 950.71 657.42
  A 0.44 0.44 0.0 0 0 949.92 657.69
  L 949.92 668.42
  A 0.63 0.63 0.0 0 1 949.29 669.05
  L 945.53 669.05
  A 0.61 0.60 90.0 0 1 944.93 668.44
  L 944.93 649.61
  A 0.61 0.60 90.0 0 1 945.53 649.00
  L 948.96 649.00
  A 1.22 1.22 0.0 0 1 949.85 649.38
  C 952.51 652.25 954.34 654.93 956.65 657.55
  Q 958.05 659.13 959.18 660.63
  A 0.44 0.44 0.0 0 0 959.97 660.37
  L 959.97 649.64
  A 0.63 0.63 0.0 0 1 960.60 649.01
  L 964.36 649.01
  A 0.61 0.60 -90.0 0 1 964.96 649.62
  L 964.96 668.45
  A 0.61 0.60 -90.0 0 1 964.36 669.06
  L 960.93 669.06
  A 1.22 1.22 0.0 0 1 960.04 668.67
  C 957.38 665.81 955.55 663.12 953.24 660.51
  Z"
/>
<path fill="#011777" d="
  M 982.51 649.04
  Q 983.88 649.06 984.61 649.11
  A 0.74 0.72 -8.8 0 1 985.23 649.55
  L 993.23 668.70
  A 0.59 0.59 0.0 0 1 992.62 669.51
  L 988.30 668.98
  A 1.00 0.99 -0.7 0 1 987.43 668.14
  Q 987.16 666.38 986.14 664.77
  A 1.11 1.10 75.0 0 0 985.25 664.25
  Q 985.09 664.25 982.33 664.21
  Q 979.57 664.18 979.40 664.18
  A 1.11 1.10 -73.6 0 0 978.50 664.68
  Q 977.44 666.26 977.13 668.01
  A 1.00 0.99 2.1 0 1 976.24 668.83
  L 971.91 669.26
  A 0.59 0.59 0.0 0 1 971.32 668.43
  L 979.78 649.48
  A 0.74 0.72 10.2 0 1 980.42 649.06
  Q 981.15 649.02 982.51 649.04
  Z
  M 984.47 661.43
  A 0.33 0.33 0.0 0 0 984.82 661.01
  L 982.79 654.61
  A 0.39 0.39 0.0 0 0 982.06 654.57
  L 979.65 660.15
  A 0.54 0.54 0.0 0 0 980.08 660.90
  L 984.47 661.43
  Z"
/>
<path fill="#011777" d="
  M 1004.01 657.64
  L 1004.01 668.23
  A 1.02 1.01 -0.0 0 1 1002.99 669.24
  L 1000.59 669.24
  A 0.94 0.94 0.0 0 1 999.65 668.30
  L 999.65 649.53
  A 0.52 0.52 0.0 0 1 1000.17 649.01
  L 1004.49 649.01
  A 1.08 1.06 75.0 0 1 1005.42 649.56
  Q 1008.37 654.78 1009.69 658.29
  Q 1010.42 660.23 1011.41 661.11
  A 0.30 0.30 0.0 0 0 1011.91 660.90
  Q 1011.96 659.79 1012.32 659.10
  Q 1014.72 654.46 1016.96 649.60
  A 1.00 0.99 -77.3 0 1 1017.86 649.02
  L 1021.59 649.02
  A 0.56 0.56 0.0 0 1 1022.15 649.55
  L 1023.20 668.14
  A 0.85 0.85 0.0 0 1 1022.35 669.04
  L 1019.00 669.04
  A 0.94 0.94 0.0 0 1 1018.06 668.10
  L 1018.06 657.69
  A 0.36 0.35 57.0 0 0 1017.38 657.54
  L 1012.92 667.87
  A 2.19 2.19 0.0 0 1 1008.89 667.84
  L 1004.58 657.52
  A 0.30 0.30 0.0 0 0 1004.01 657.64
  Z"
/>
<path fill="#011777" d="
  M 1048.45 669.10
  L 1032.36 669.10
  A 0.46 0.46 0.0 0 1 1031.90 668.64
  L 1031.90 649.48
  A 0.46 0.46 0.0 0 1 1032.36 649.02
  L 1047.22 649.02
  A 0.46 0.46 0.0 0 1 1047.68 649.48
  L 1047.68 652.57
  A 0.46 0.46 0.0 0 1 1047.22 653.03
  L 1036.94 653.03
  A 0.46 0.46 0.0 0 0 1036.48 653.54
  L 1036.87 657.25
  A 0.46 0.46 0.0 0 0 1037.32 657.66
  L 1046.51 657.66
  A 0.46 0.46 0.0 0 1 1046.97 658.12
  L 1046.97 660.90
  A 0.46 0.46 0.0 0 1 1046.51 661.36
  L 1037.28 661.36
  A 0.46 0.46 0.0 0 0 1036.82 661.82
  L 1036.82 664.57
  A 0.46 0.46 0.0 0 0 1037.28 665.03
  L 1048.45 665.03
  A 0.46 0.46 0.0 0 1 1048.91 665.49
  L 1048.91 668.64
  A 0.46 0.46 0.0 0 1 1048.45 669.10
  Z"
/>
<path fill="#011777" d="
  M 1092.61 669.05
  Q 1091.06 669.05 1090.70 669.02
  A 0.67 0.67 0.0 0 1 1090.09 668.34
  L 1090.12 653.45
  A 0.46 0.46 0.0 0 0 1089.67 652.99
  L 1083.81 652.97
  A 0.91 0.91 0.0 0 1 1082.91 652.06
  L 1082.91 649.84
  A 0.88 0.87 -89.2 0 1 1083.81 648.97
  Q 1087.91 649.06 1092.60 649.01
  Q 1097.29 649.06 1101.39 648.97
  A 0.88 0.87 89.1 0 1 1102.29 649.84
  L 1102.30 652.06
  A 0.91 0.91 0.0 0 1 1101.39 652.97
  L 1095.54 652.98
  A 0.46 0.46 0.0 0 0 1095.08 653.45
  L 1095.12 668.34
  A 0.67 0.67 0.0 0 1 1094.51 669.02
  Q 1094.15 669.05 1092.61 669.05
  Z"
/>
<circle fill="#ffffff" fill-opacity="0.996" cx="563.12" cy="659.00" r="5.96"/>
<path fill="#ffffff" fill-opacity="0.996" d="
  M 761.11 653.51
  A 0.32 0.32 0.0 0 1 761.43 653.19
  L 765.13 653.25
  A 3.82 3.21 0.9 0 1 768.90 656.52
  L 768.90 656.80
  A 3.82 3.21 0.9 0 1 765.03 659.95
  L 761.33 659.89
  A 0.32 0.32 0.0 0 1 761.01 659.57
  L 761.11 653.51
  Z"
/>
<path fill="#ffffff" fill-opacity="0.996" d="
  M 388.48 654.47
  A 1.36 1.36 0.0 0 1 389.83 653.10
  L 392.71 653.10
  A 3.94 3.76 -0.1 0 1 396.66 656.85
  L 396.66 656.95
  A 3.94 3.76 -0.1 0 1 392.73 660.72
  L 389.85 660.72
  A 1.36 1.36 0.0 0 1 388.48 659.37
  L 388.48 654.47
  Z"
/>
<circle fill="#ffffff" fill-opacity="0.996" cx="736.84" cy="659.20" r="5.89"/>
<ellipse fill="#ffffff" fill-opacity="0.996" cx="0.00" cy="0.00" transform="translate(873.49,659.13) rotate(-64.5)" rx="5.93" ry="5.74"/>
<path fill="#ffffff" fill-opacity="0.996" d="
  M 705.88 654.12
  A 0.72 0.72 0.0 0 1 706.62 653.42
  L 710.02 653.49
  A 4.08 3.05 1.2 0 1 714.03 656.63
  L 714.02 657.03
  A 4.08 3.05 1.2 0 1 709.88 659.99
  L 706.48 659.92
  A 0.72 0.72 0.0 0 1 705.78 659.18
  L 705.88 654.12
  Z"
/>
<path fill="#ffffff" fill-opacity="0.996" d="
  M 931.42 654.40
  A 0.29 0.29 0.0 0 1 931.67 654.72
  L 931.30 657.56
  A 3.55 2.53 -82.5 0 1 928.32 660.75
  L 926.42 660.50
  A 3.55 2.53 -82.5 0 1 924.38 656.65
  L 924.75 653.81
  A 0.29 0.29 0.0 0 1 925.07 653.56
  L 931.42 654.40
  Z"
/>
<path fill="#ffffff" fill-opacity="0.996" d="
  M 984.47 661.43
  L 980.08 660.90
  A 0.54 0.54 0.0 0 1 979.65 660.15
  L 982.06 654.57
  A 0.39 0.39 0.0 0 1 982.79 654.61
  L 984.82 661.01
  A 0.33 0.33 0.0 0 1 984.47 661.43
  Z"
/>
</svg>
