<?xml version="1.0" encoding="UTF-8" standalone="no"?>
<!DOCTYPE svg PUBLIC "-//W3C//DTD SVG 1.1//EN" "http://www.w3.org/Graphics/SVG/1.1/DTD/svg11.dtd">
<svg xmlns="http://www.w3.org/2000/svg" version="1.1" viewBox="0.00 0.00 1024.00 1536.00">
<path stroke="#2b632d" stroke-width="2.00" fill="none" stroke-linecap="butt" vector-effect="non-scaling-stroke" d="
  M 561.81 396.75
  C 479.70 396.76 393.43 396.74 325.92 396.71
  Q 314.65 396.70 309.73 398.17
  Q 298.28 401.60 290.60 411.91
  Q 287.00 416.75 284.99 424.31
  Q 283.80 428.80 283.74 437.89
  Q 283.71 443.28 283.71 452.00
  C 283.71 761.68 283.48 967.74 283.82 1087.55
  Q 283.86 1101.22 285.14 1105.81
  Q 287.56 1114.45 294.06 1121.76
  C 298.77 1127.06 303.59 1129.14 310.17 1131.10
  Q 313.35 1132.05 320.48 1131.94
  Q 330.56 1131.78 345.75 1131.74
  Q 397.27 1131.63 682.85 1131.71
  C 686.84 1131.71 696.17 1131.78 700.42 1131.94
  C 717.06 1132.56 729.57 1122.08 734.61 1107.05
  Q 736.05 1102.75 735.88 1093.81
  Q 735.86 1092.28 735.87 452.18
  C 735.87 446.68 736.33 439.43 736.05 433.49
  Q 735.07 412.37 717.80 401.63
  Q 714.93 399.84 710.38 398.58
  Q 704.06 396.82 702.50 396.80
  Q 697.22 396.74 561.81 396.75"
/>
<path fill="#113812" fill-opacity="0.996" d="
  M 304.42 399.24
  Q 307.87 397.50 312.86 396.63
  Q 316.20 396.05 321.70 396.05
  Q 371.37 396.09 702.75 396.07
  Q 704.45 396.07 711.14 397.95
  Q 715.80 399.26 718.97 401.40
  Q 731.72 409.99 735.60 424.08
  Q 736.90 428.80 736.90 438.07
  Q 736.93 649.38 736.92 1098.25
  Q 736.92 1105.75 732.96 1113.58
  Q 726.25 1126.86 711.99 1131.54
  C 708.85 1132.57 705.21 1132.92 701.28 1132.92
  Q 326.02 1132.89 320.45 1132.96
  Q 313.49 1133.04 308.67 1131.69
  C 296.66 1128.32 287.77 1118.17 284.49 1106.58
  Q 283.05 1101.48 283.06 1090.75
  Q 283.09 941.30 283.05 440.25
  Q 283.05 427.96 284.47 422.89
  Q 288.93 407.05 304.42 399.24
  Z
  M 561.81 396.75
  C 479.70 396.76 393.43 396.74 325.92 396.71
  Q 314.65 396.70 309.73 398.17
  Q 298.28 401.60 290.60 411.91
  Q 287.00 416.75 284.99 424.31
  Q 283.80 428.80 283.74 437.89
  Q 283.71 443.28 283.71 452.00
  C 283.71 761.68 283.48 967.74 283.82 1087.55
  Q 283.86 1101.22 285.14 1105.81
  Q 287.56 1114.45 294.06 1121.76
  C 298.77 1127.06 303.59 1129.14 310.17 1131.10
  Q 313.35 1132.05 320.48 1131.94
  Q 330.56 1131.78 345.75 1131.74
  Q 397.27 1131.63 682.85 1131.71
  C 686.84 1131.71 696.17 1131.78 700.42 1131.94
  C 717.06 1132.56 729.57 1122.08 734.61 1107.05
  Q 736.05 1102.75 735.88 1093.81
  Q 735.86 1092.28 735.87 452.18
  C 735.87 446.68 736.33 439.43 736.05 433.49
  Q 735.07 412.37 717.80 401.63
  Q 714.93 399.84 710.38 398.58
  Q 704.06 396.82 702.50 396.80
  Q 697.22 396.74 561.81 396.75
  Z"
/>
<path fill="#448d47" d="
  M 561.81 396.75
  Q 697.22 396.74 702.50 396.80
  Q 704.06 396.82 710.38 398.58
  Q 714.93 399.84 717.80 401.63
  Q 735.07 412.37 736.05 433.49
  C 736.33 439.43 735.87 446.68 735.87 452.18
  Q 735.86 1092.28 735.88 1093.81
  Q 736.05 1102.75 734.61 1107.05
  C 729.57 1122.08 717.06 1132.56 700.42 1131.94
  C 696.17 1131.78 686.84 1131.71 682.85 1131.71
  Q 397.27 1131.63 345.75 1131.74
  Q 330.56 1131.78 320.48 1131.94
  Q 313.35 1132.05 310.17 1131.10
  C 303.59 1129.14 298.77 1127.06 294.06 1121.76
  Q 287.56 1114.45 285.14 1105.81
  Q 283.86 1101.22 283.82 1087.55
  C 283.48 967.74 283.71 761.68 283.71 452.00
  Q 283.71 443.28 283.74 437.89
  Q 283.80 428.80 284.99 424.31
  Q 287.00 416.75 290.60 411.91
  Q 298.28 401.60 309.73 398.17
  Q 314.65 396.70 325.92 396.71
  C 393.43 396.74 479.70 396.76 561.81 396.75
  Z"
/>
</svg>
