<?xml version="1.0" encoding="UTF-8" standalone="no"?>
<!DOCTYPE svg PUBLIC "-//W3C//DTD SVG 1.1//EN" "http://www.w3.org/Graphics/SVG/1.1/DTD/svg11.dtd">
<svg xmlns="http://www.w3.org/2000/svg" version="1.1" viewBox="0.00 0.00 1024.00 1536.00">
<path fill="#ffd900" d="
  M 284.20 432.65
  C 289.29 414.69 302.26 403.94 320.36 400.85
  Q 324.58 400.12 331.70 400.12
  Q 580.92 400.09 689.75 400.14
  Q 696.06 400.14 702.25 401.52
  Q 726.72 406.96 735.35 429.38
  Q 738.58 437.78 738.57 450.00
  Q 738.49 780.65 738.59 1091.25
  Q 738.59 1094.73 737.20 1100.95
  C 733.46 1117.76 721.40 1129.27 704.41 1132.58
  Q 700.57 1133.33 692.19 1133.33
  Q 467.27 1133.28 333.50 1133.37
  Q 318.12 1133.38 312.29 1131.80
  C 296.64 1127.57 286.74 1114.99 283.37 1098.96
  Q 282.52 1094.92 282.52 1083.00
  Q 282.55 520.88 282.46 454.50
  C 282.45 447.18 282.26 439.51 284.20 432.65
  Z"
/>
</svg>
