<?xml version="1.0" encoding="UTF-8" standalone="no"?>
<!DOCTYPE svg PUBLIC "-//W3C//DTD SVG 1.1//EN" "http://www.w3.org/Graphics/SVG/1.1/DTD/svg11.dtd">
<svg xmlns="http://www.w3.org/2000/svg" version="1.1" viewBox="0.00 0.00 1536.00 1024.00">
<g stroke-width="2.00" fill="none" stroke-linecap="butt">
<path stroke="#8ec0f1" vector-effect="non-scaling-stroke" d="
  M 958.83 316.79
  C 958.55 320.53 955.54 322.96 952.49 324.98
  C 947.37 328.36 940.72 325.69 940.71 319.00
  Q 940.69 310.02 940.75 301.04"
/>
<path stroke="#8ed4f8" vector-effect="non-scaling-stroke" d="
  M 940.75 301.04
  Q 941.02 273.92 940.71 266.56
  Q 940.65 265.14 938.42 263.79
  A 1.44 1.42 60.7 0 0 937.66 263.57
  L 891.66 263.57
  A 1.30 1.28 24.3 0 0 890.82 263.88
  Q 888.89 265.51 888.89 266.61
  Q 889.10 309.94 889.07 353.30"
/>
<path stroke="#8ec0f1" vector-effect="non-scaling-stroke" d="
  M 889.07 353.30
  C 889.89 360.92 883.07 366.04 876.02 363.71
  Q 870.82 361.99 870.85 357.28
  Q 871.02 334.49 870.98 311.71"
/>
<path stroke="#8ed4f8" vector-effect="non-scaling-stroke" d="
  M 870.98 311.71
  Q 871.18 302.86 870.74 300.29
  C 870.39 298.22 868.72 297.00 866.48 296.99
  Q 841.43 296.87 820.37 297.13
  A 2.57 2.57 0.0 0 0 817.84 299.70
  L 817.83 314.54"
/>
<path stroke="#8ec0f1" vector-effect="non-scaling-stroke" d="
  M 817.83 314.54
  Q 817.80 351.51 817.87 388.48
  C 817.88 392.54 818.14 395.86 813.98 396.70
  Q 811.37 397.24 809.75 396.02
  Q 807.37 394.23 801.10 389.96
  Q 792.58 384.16 783.42 380.70"
/>
<path stroke="#8ed4f8" vector-effect="non-scaling-stroke" d="
  M 783.42 380.70
  Q 770.64 376.26 758.25 375.82
  C 730.34 374.82 706.05 389.31 692.36 413.36
  Q 689.23 418.87 687.32 424.98"
/>
<path stroke="#8ec0f1" vector-effect="non-scaling-stroke" d="
  M 687.32 424.98
  Q 680.41 446.67 686.51 468.80
  C 694.31 497.09 716.71 517.53 745.74 522.43"
/>
<path stroke="#8babe0" vector-effect="non-scaling-stroke" d="
  M 745.74 522.43
  Q 765.13 525.23 783.62 518.38"
/>
<path stroke="#8699ca" vector-effect="non-scaling-stroke" d="
  M 783.62 518.38
  C 798.38 512.95 808.33 503.98 819.38 492.33
  C 823.50 487.99 826.13 482.54 828.74 477.51
  Q 830.19 474.71 837.04 466.77"
/>
<path stroke="#8babe0" vector-effect="non-scaling-stroke" d="
  M 837.04 466.77
  Q 862.42 437.48 895.98 418.79"
/>
<path stroke="#8ec0f1" vector-effect="non-scaling-stroke" d="
  M 895.98 418.79
  Q 906.03 412.84 916.77 408.80
  C 921.55 407.00 928.65 414.22 931.02 417.70
  A 2.23 2.23 0.0 0 1 930.58 420.68
  Q 929.30 421.72 928.49 422.03
  Q 920.74 425.01 913.40 428.14
  C 907.14 430.82 900.47 434.89 894.20 438.58"
/>
<path stroke="#8ed4f8" vector-effect="non-scaling-stroke" d="
  M 894.20 438.58
  Q 873.65 451.45 856.73 468.98
  Q 849.32 476.65 845.62 482.91
  Q 841.49 489.89 845.25 498.55"
/>
<path stroke="#8ec0f1" vector-effect="non-scaling-stroke" d="
  M 845.25 498.55
  Q 846.37 502.28 848.70 505.54"
/>
<path stroke="#8babe0" vector-effect="non-scaling-stroke" d="
  M 848.70 505.54
  Q 852.53 512.19 858.16 516.96"
/>
<path stroke="#8699ca" vector-effect="non-scaling-stroke" d="
  M 858.16 516.96
  Q 863.39 521.40 870.17 525.09"
/>
<path stroke="#858e9c" vector-effect="non-scaling-stroke" d="
  M 870.17 525.09
  L 850.04 531.09
  A 2.85 2.59 33.7 0 1 849.38 531.19
  C 839.74 531.33 834.22 526.27 830.00 518.44
  Q 828.00 514.73 827.32 510.74
  A 0.39 0.39 0.0 0 0 826.65 510.54
  C 814.82 523.33 799.90 533.45 782.96 537.94
  C 749.01 546.94 712.10 538.27 688.67 511.34
  Q 677.02 497.95 670.88 481.14
  C 663.27 460.34 662.69 438.98 669.78 417.99
  C 678.59 391.93 701.44 369.58 727.75 361.56
  C 750.69 354.56 775.66 356.67 797.25 366.67
  A 0.46 0.46 0.0 0 0 797.91 366.25
  L 797.91 340.62
  A 0.71 0.70 -90.0 0 0 797.21 339.91
  Q 766.13 339.83 537.75 339.89
  C 531.36 339.89 525.39 342.72 523.63 349.32
  A 4.41 4.12 -39.7 0 0 523.48 350.51
  Q 523.56 381.97 523.31 415.11
  Q 523.28 419.58 524.51 421.20
  Q 526.39 423.69 529.70 424.86
  C 534.30 426.48 544.24 427.57 549.77 433.24
  C 554.20 437.78 554.36 445.82 551.26 451.46
  C 549.56 454.55 545.34 457.25 542.35 458.60
  Q 532.88 462.88 527.55 466.26
  Q 525.74 467.41 523.83 470.09
  A 1.37 1.29 63.9 0 0 523.59 470.86
  L 523.43 527.32
  A 0.74 0.66 41.7 0 0 523.46 527.58
  Q 524.74 532.57 528.78 534.86
  Q 531.08 536.16 538.14 536.17
  Q 602.04 536.28 621.10 536.10
  Q 637.27 535.94 645.22 537.45
  Q 663.88 540.98 679.97 551.33
  C 685.81 555.08 695.65 562.01 704.70 565.96
  Q 712.74 569.47 716.45 570.78
  C 740.15 579.12 767.14 578.72 791.21 571.94
  C 800.16 569.42 809.39 564.96 818.09 559.31
  Q 825.79 554.30 827.60 553.33
  Q 833.05 550.40 840.88 548.65
  Q 882.99 539.25 922.24 519.93
  C 930.52 515.85 940.35 509.86 947.82 505.30
  Q 955.45 500.65 968.15 491.13
  Q 985.73 477.95 1002.92 457.19
  Q 1005.28 454.34 1007.72 447.34
  Q 1009.27 442.87 1009.25 436.52
  Q 1009.21 425.17 1009.17 413.46
  A 0.61 0.61 0.0 0 0 1008.56 412.85
  L 967.67 412.85
  A 0.31 0.31 0.0 0 0 967.49 413.42
  Q 975.76 418.95 982.16 424.15
  C 986.68 427.82 992.28 434.64 991.51 440.53
  Q 990.38 449.16 984.57 455.06
  Q 979.25 460.46 973.68 465.53"
/>
<path stroke="#8699ca" vector-effect="non-scaling-stroke" d="
  M 973.68 465.53
  C 976.89 446.91 964.88 435.80 953.68 423.39"
/>
<path stroke="#8babe0" vector-effect="non-scaling-stroke" d="
  M 953.68 423.39
  L 943.25 412.70"
/>
<path stroke="#8ec0f1" vector-effect="non-scaling-stroke" d="
  M 943.25 412.70
  Q 939.84 409.33 936.89 405.44
  C 934.58 402.39 934.57 400.08 937.28 397.65
  C 939.94 395.25 944.43 395.44 947.76 395.45
  Q 984.84 395.60 1004.48 395.48
  Q 1006.93 395.47 1009.35 392.30
  A 1.79 1.78 64.1 0 0 1009.72 391.21
  L 1009.81 279.27"
/>
<path stroke="#8ed4f8" vector-effect="non-scaling-stroke" d="
  M 1009.81 279.27
  L 1009.88 231.67
  A 2.34 2.26 34.6 0 0 1009.70 230.78
  Q 1008.53 228.06 1005.86 228.07
  Q 971.62 228.09 961.93 228.07
  A 2.23 2.09 31.4 0 0 961.06 228.25
  Q 958.77 229.24 958.80 232.25
  Q 959.07 258.11 958.83 316.79"
/>
<path stroke="#1d95e9" vector-effect="non-scaling-stroke" d="
  M 1009.81 279.27
  C 997.90 284.08 989.98 289.99 977.68 298.98
  Q 971.45 303.54 959.46 310.29
  A 0.90 0.87 -14.4 0 0 959.00 311.04
  L 958.83 316.79"
/>
<path stroke="#1a6cd2" vector-effect="non-scaling-stroke" d="
  M 943.25 412.70
  L 933.76 444.29"
/>
<path stroke="#8ec0f1" vector-effect="non-scaling-stroke" d="
  M 933.76 444.29
  L 929.70 440.92
  A 1.28 1.22 65.4 0 0 928.95 440.62
  C 924.33 440.36 920.80 444.16 923.90 448.65
  Q 926.71 452.72 927.95 454.02
  A 1.46 1.46 0.0 0 1 927.76 456.22
  L 922.21 460.23
  A 1.61 1.60 -36.7 0 1 919.99 459.91
  C 916.91 455.90 911.60 448.81 906.50 454.46
  C 905.18 455.92 905.54 457.84 906.53 459.27
  Q 909.89 464.11 911.27 466.18
  A 1.30 1.29 -33.6 0 1 910.90 467.98
  L 905.23 471.72
  A 1.37 1.36 54.0 0 1 903.41 471.43
  Q 903.26 471.23 899.37 466.88
  C 896.85 464.05 894.07 462.50 890.82 465.01
  Q 887.43 467.63 889.84 471.25
  Q 891.99 474.49 894.17 477.39
  A 1.29 1.28 -36.4 0 1 893.89 479.20
  L 887.74 483.65
  A 1.25 1.24 -34.4 0 1 885.97 483.32
  C 883.70 479.81 880.98 475.25 876.43 474.63"
/>
<path stroke="#1d95e9" vector-effect="non-scaling-stroke" d="
  M 876.43 474.63
  Q 889.46 458.51 894.20 438.58"
/>
<path stroke="#1a6cd2" vector-effect="non-scaling-stroke" d="
  M 895.98 418.79
  Q 880.47 416.44 864.75 418.78"
/>
<path stroke="#8ec0f1" vector-effect="non-scaling-stroke" d="
  M 864.75 418.78
  Q 867.18 416.48 869.70 414.44
  Q 894.89 394.10 922.99 371.46
  Q 928.79 366.79 935.70 361.42
  Q 955.63 345.93 970.97 333.47
  Q 974.48 330.61 975.31 327.94
  C 976.95 322.60 971.96 319.17 966.87 319.59
  Q 964.97 319.75 961.41 322.55
  Q 956.44 326.44 941.28 336.07
  Q 929.03 343.86 915.43 353.12
  Q 906.61 359.12 897.89 365.24
  Q 891.20 369.92 883.47 374.99
  Q 876.19 379.77 869.00 384.69
  Q 855.96 393.59 841.71 403.58
  C 818.39 419.92 797.57 433.91 775.22 449.94
  A 1.55 1.53 -43.7 0 1 773.38 449.91
  Q 755.19 435.78 741.02 423.85
  Q 736.81 420.30 734.24 419.88
  Q 730.06 419.20 725.93 420.93
  C 722.62 422.32 713.12 427.73 711.88 430.87
  Q 709.32 437.33 713.65 441.10
  Q 738.20 462.46 762.66 483.66"
/>
<path stroke="#1a6cd2" vector-effect="non-scaling-stroke" d="
  M 762.66 483.66
  Q 755.81 503.72 745.74 522.43"
/>
<path stroke="#1d95e9" vector-effect="non-scaling-stroke" d="
  M 687.32 424.98
  Q 700.14 419.47 707.31 415.00
  Q 723.58 404.86 729.69 401.44
  Q 754.89 387.35 783.42 380.70"
/>
<path stroke="#1d95e9" vector-effect="non-scaling-stroke" d="
  M 817.83 314.54
  L 817.88 372.45
  A 0.29 0.28 -17.8 0 0 818.33 372.68
  Q 832.46 362.40 845.47 351.96
  C 855.20 344.16 864.27 335.05 870.50 323.95
  A 2.02 1.96 61.0 0 0 870.75 323.02
  L 870.98 311.71"
/>
<path stroke="#8ed4f8" vector-effect="non-scaling-stroke" d="
  M 876.43 474.63
  Q 873.34 475.31 872.14 478.02
  A 1.64 1.59 51.8 0 0 872.04 478.98
  Q 872.57 481.76 874.21 484.30"
/>
<path stroke="#1d95e9" vector-effect="non-scaling-stroke" d="
  M 874.21 484.30
  L 845.25 498.55"
/>
<path stroke="#1d95e9" vector-effect="non-scaling-stroke" d="
  M 940.75 301.04
  Q 935.72 304.21 930.60 307.17
  Q 921.39 312.50 907.39 320.28
  Q 898.72 325.10 889.54 335.04
  A 1.13 1.12 66.9 0 0 889.25 335.77
  L 889.07 353.30"
/>
<path stroke="#1245ab" vector-effect="non-scaling-stroke" d="
  M 837.04 466.77
  Q 825.82 473.87 814.52 480.89
  C 799.46 490.24 789.47 501.59 783.62 518.38"
/>
<path stroke="#1245ab" vector-effect="non-scaling-stroke" d="
  M 953.68 423.39
  Q 952.82 435.35 946.79 445.39"
/>
<path stroke="#8babe0" vector-effect="non-scaling-stroke" d="
  M 946.79 445.39
  C 943.73 445.50 940.91 447.41 938.46 449.04
  A 0.63 0.63 0.0 0 1 937.63 448.92
  L 933.76 444.29"
/>
<path stroke="#8babe0" vector-effect="non-scaling-stroke" d="
  M 907.48 494.26
  L 902.42 488.46
  A 2.27 2.26 51.9 0 0 899.42 488.09
  L 894.53 491.50
  A 2.03 2.03 0.0 0 0 893.97 494.24
  L 896.44 498.21"
/>
<path stroke="#8babe0" vector-effect="non-scaling-stroke" d="
  M 880.99 500.02
  C 876.57 503.08 871.45 502.06 870.19 496.39"
/>
<path stroke="#8ec0f1" vector-effect="non-scaling-stroke" d="
  M 870.19 496.39
  C 871.64 493.38 874.57 491.59 877.08 489.60
  A 0.76 0.76 0.0 0 0 877.23 488.56
  L 874.21 484.30"
/>
<path stroke="#8babe0" vector-effect="non-scaling-stroke" d="
  M 864.75 418.78
  Q 856.06 425.64 847.54 432.78
  C 840.57 438.63 832.51 444.64 826.18 450.42
  C 821.38 454.81 814.90 459.40 808.84 464.45
  Q 795.04 475.94 781.18 486.96
  Q 775.86 491.19 769.36 488.91
  A 2.99 2.79 72.0 0 1 768.51 488.44
  L 762.66 483.66"
/>
<path stroke="#1a6cd2" vector-effect="non-scaling-stroke" d="
  M 870.19 496.39
  C 863.07 499.65 856.17 503.18 848.70 505.54"
/>
<path stroke="#1245ab" vector-effect="non-scaling-stroke" d="
  M 858.16 516.96
  Q 871.35 510.57 880.99 500.02"
/>
<path stroke="#8699ca" vector-effect="non-scaling-stroke" d="
  M 880.99 500.02
  L 883.39 498.70
  A 1.59 1.58 55.0 0 1 885.34 499.05
  Q 887.45 501.49 888.80 503.45
  C 890.78 506.32 893.14 508.32 896.51 506.35
  C 900.14 504.23 898.02 500.78 896.44 498.21"
/>
<path stroke="#1245ab" vector-effect="non-scaling-stroke" d="
  M 896.44 498.21
  Q 902.69 497.57 907.48 494.26"
/>
<path stroke="#8699ca" vector-effect="non-scaling-stroke" d="
  M 907.48 494.26
  Q 911.48 498.02 914.96 494.50
  Q 916.90 492.55 916.27 490.26
  A 1.61 1.47 22.6 0 0 916.02 489.72
  L 910.90 482.37
  A 1.04 1.04 0.0 0 1 911.04 481.01
  Q 914.08 478.13 918.28 476.23
  A 1.11 1.10 54.5 0 1 919.49 476.44
  Q 921.45 478.29 922.92 480.39
  C 925.18 483.61 927.82 485.50 931.07 483.06
  Q 934.70 480.34 932.32 476.25
  Q 929.70 471.76 928.81 471.11
  A 1.43 1.42 -46.3 0 1 928.76 468.84
  L 933.84 464.81
  A 2.11 2.10 -38.9 0 1 936.77 465.12
  L 941.99 471.47
  A 0.80 0.75 83.7 0 0 942.20 471.65
  Q 946.52 474.03 949.18 470.50
  Q 950.69 468.49 949.91 466.84
  Q 948.10 463.03 944.69 458.95
  A 1.26 1.25 49.2 0 1 944.81 457.22
  L 950.55 452.04
  A 2.61 2.61 0.0 0 0 951.30 449.32
  Q 950.26 445.95 946.79 445.39"
/>
<path stroke="#0b2867" vector-effect="non-scaling-stroke" d="
  M 870.17 525.09
  Q 880.49 523.61 890.90 518.91
  C 894.27 517.38 897.66 516.84 901.14 515.32
  Q 912.50 510.39 915.50 508.76
  Q 929.77 501.01 932.52 499.61
  C 938.32 496.64 942.47 493.22 948.23 489.48
  Q 954.47 485.43 959.34 480.98
  Q 967.10 473.90 973.68 465.53"
/>
<path stroke="#858e9c" vector-effect="non-scaling-stroke" d="
  M 491.87 667.77
  C 491.77 694.36 513.61 708.91 538.04 710.05
  Q 542.05 710.24 544.09 710.25
  Q 546.12 710.26 550.13 710.10
  C 574.57 709.14 596.52 694.75 596.62 668.16
  C 596.72 641.58 574.88 627.03 550.44 625.88
  Q 546.43 625.69 544.40 625.69
  Q 542.37 625.68 538.36 625.84
  C 513.91 626.80 491.97 641.18 491.87 667.77"
/>
<path stroke="#858e9c" vector-effect="non-scaling-stroke" d="
  M 399.60 627.24
  A 0.33 0.33 0.0 0 0 399.27 627.57
  L 399.27 642.96
  A 0.33 0.33 0.0 0 0 399.60 643.29
  L 430.68 643.29
  A 0.33 0.33 0.0 0 1 431.01 643.62
  L 431.01 707.99
  A 0.33 0.33 0.0 0 0 431.34 708.32
  L 454.14 708.32
  A 0.33 0.33 0.0 0 0 454.47 707.99
  L 454.47 643.68
  A 0.33 0.33 0.0 0 1 454.80 643.35
  L 486.39 643.35
  A 0.33 0.33 0.0 0 0 486.72 643.02
  L 486.72 627.57
  A 0.33 0.33 0.0 0 0 486.39 627.24
  L 399.60 627.24"
/>
<path stroke="#858e9c" vector-effect="non-scaling-stroke" d="
  M 987.04 680.37
  A 0.39 0.39 0.0 0 1 987.12 680.14
  L 1025.57 627.93
  A 0.39 0.39 0.0 0 0 1025.26 627.31
  L 1000.89 627.31
  A 0.39 0.39 0.0 0 0 1000.57 627.48
  L 976.06 662.23
  A 0.39 0.39 0.0 0 1 975.42 662.22
  L 951.12 627.39
  A 0.39 0.39 0.0 0 0 950.80 627.22
  L 925.32 627.22
  A 0.39 0.39 0.0 0 0 925.01 627.84
  L 962.90 680.24
  A 0.39 0.39 0.0 0 1 962.97 680.47
  L 962.97 707.95
  A 0.39 0.39 0.0 0 0 963.36 708.34
  L 986.65 708.34
  A 0.39 0.39 0.0 0 0 987.04 707.95
  L 987.04 680.37"
/>
<path stroke="#858e9c" vector-effect="non-scaling-stroke" d="
  M 1133.15 708.04
  L 1095.82 666.68
  A 0.66 0.66 0.0 0 1 1095.82 665.80
  L 1130.83 627.81
  A 0.31 0.31 0.0 0 0 1130.60 627.29
  L 1103.62 627.29
  A 1.09 1.07 20.4 0 0 1102.81 627.65
  L 1081.20 652.03
  A 0.64 0.64 0.0 0 1 1080.25 652.04
  L 1058.25 627.64
  A 1.01 0.99 68.5 0 0 1057.51 627.31
  L 1030.30 627.31
  A 0.27 0.26 68.7 0 0 1030.11 627.76
  L 1065.41 666.89
  A 0.41 0.41 0.0 0 1 1065.41 667.45
  L 1028.24 707.79
  A 0.31 0.31 0.0 0 0 1028.47 708.31
  L 1056.27 708.31
  A 1.07 1.03 20.1 0 0 1057.06 707.96
  L 1080.36 681.67
  A 0.51 0.51 0.0 0 1 1081.13 681.67
  L 1103.94 707.97
  A 1.07 1.07 0.0 0 0 1104.75 708.34
  L 1133.01 708.34
  A 0.18 0.18 0.0 0 0 1133.15 708.04"
/>
<path stroke="#858e9c" vector-effect="non-scaling-stroke" d="
  M 655.07 710.18
  C 661.70 710.19 667.23 709.77 673.38 708.41
  C 687.65 705.28 699.45 695.17 699.96 679.71
  Q 700.33 668.16 700.14 627.99
  A 0.68 0.68 0.0 0 0 699.46 627.31
  L 677.27 627.31
  A 0.55 0.55 0.0 0 0 676.72 627.85
  Q 676.55 642.55 676.70 670.50
  C 676.75 679.61 676.09 687.74 666.95 691.67
  Q 662.05 693.77 655.08 693.77
  Q 648.12 693.76 643.22 691.65
  C 634.08 687.71 633.43 679.58 633.49 670.47
  Q 633.68 642.52 633.52 627.82
  A 0.55 0.55 0.0 0 0 632.97 627.28
  L 610.78 627.26
  A 0.68 0.68 0.0 0 0 610.10 627.94
  Q 609.86 668.11 610.22 679.66
  C 610.71 695.12 622.50 705.24 636.76 708.39
  C 642.92 709.75 648.45 710.18 655.07 710.18"
/>
<path stroke="#858e9c" vector-effect="non-scaling-stroke" d="
  M 807.44 707.95
  L 784.30 682.30
  A 0.26 0.26 0.0 0 1 784.47 681.86
  C 794.01 680.90 803.19 672.26 804.59 662.84
  Q 805.54 656.48 805.23 653.02
  C 803.58 634.27 784.18 627.87 768.36 627.39
  Q 761.33 627.17 718.60 627.35
  A 0.56 0.56 0.0 0 0 718.04 627.91
  L 718.04 707.66
  A 0.69 0.68 0.0 0 0 718.73 708.34
  L 741.10 708.34
  A 0.35 0.35 0.0 0 0 741.45 707.99
  L 741.45 684.96
  A 0.36 0.35 -0.0 0 1 741.81 684.61
  L 761.53 684.61
  A 0.83 0.82 76.6 0 1 762.27 685.07
  Q 763.20 686.95 764.50 688.51
  Q 766.00 690.29 780.60 707.89
  A 1.27 1.23 69.6 0 0 781.56 708.35
  L 807.26 708.35
  A 0.24 0.24 0.0 0 0 807.44 707.95"
/>
<path stroke="#858e9c" vector-effect="non-scaling-stroke" d="
  M 861.55 674.95
  Q 874.35 687.73 893.66 707.52
  A 2.25 2.25 0.0 0 0 895.27 708.20
  L 914.99 708.20
  A 0.28 0.28 0.0 0 0 915.27 707.92
  L 915.27 627.57
  A 0.34 0.33 -90.0 0 0 914.94 627.23
  L 892.09 627.23
  A 0.31 0.31 0.0 0 0 891.78 627.54
  L 891.78 675.66
  A 0.38 0.38 0.0 0 1 891.13 675.93
  Q 883.13 668.00 875.62 660.50
  Q 862.82 647.72 843.52 627.94
  A 2.25 2.25 0.0 0 0 841.90 627.26
  L 822.18 627.26
  A 0.28 0.28 0.0 0 0 821.90 627.54
  L 821.90 707.89
  A 0.34 0.33 90.0 0 0 822.23 708.23
  L 845.08 708.23
  A 0.31 0.31 0.0 0 0 845.39 707.92
  L 845.39 659.80
  A 0.38 0.38 0.0 0 1 846.04 659.52
  Q 854.05 667.46 861.55 674.95"
/>
<path stroke="#858e9c" vector-effect="non-scaling-stroke" d="
  M 663.21 364.63
  Q 661.97 361.58 658.46 361.05
  Q 651.94 360.06 645.83 360.73
  C 634.02 362.03 622.44 364.79 612.73 371.19
  C 610.63 372.58 605.35 376.33 609.48 378.13
  Q 616.38 381.15 623.82 383.42
  Q 626.30 384.18 627.50 383.75
  Q 637.77 380.05 648.26 377.99
  C 652.72 377.11 656.92 375.81 659.46 371.73
  Q 660.30 370.39 663.13 365.67
  A 1.17 1.17 0.0 0 0 663.21 364.63"
/>
<path stroke="#858e9c" vector-effect="non-scaling-stroke" d="
  M 574.24 376.99
  Q 570.31 377.85 570.32 382.46
  Q 570.38 411.70 570.29 495.48
  Q 570.28 498.57 573.46 500.07
  A 2.28 2.25 -31.3 0 0 574.39 500.29
  Q 589.98 500.41 600.82 500.10
  Q 604.48 500.00 604.89 496.68
  C 605.31 493.31 601.38 490.60 598.54 488.02
  Q 595.46 485.22 590.66 478.65
  Q 584.01 469.55 582.23 457.36
  Q 581.44 451.95 581.58 436.72
  C 581.59 434.62 582.12 432.75 582.51 431.07
  A 2.98 2.87 -21.0 0 1 583.05 429.92
  Q 585.97 426.06 588.18 420.04
  A 3.76 3.73 -45.4 0 0 588.17 417.43
  C 586.53 413.10 584.06 408.94 584.79 405.27
  C 586.06 398.96 588.20 394.66 591.82 387.66
  Q 593.90 383.63 593.83 381.94
  Q 593.71 378.82 590.59 377.19
  A 1.34 1.23 -28.9 0 0 589.98 377.04
  L 574.42 376.97
  A 0.87 0.78 -48.2 0 0 574.24 376.99"
/>
<path stroke="#858e9c" vector-effect="non-scaling-stroke" d="
  M 667.18 394.50
  C 670.80 389.36 664.73 385.41 661.06 383.20
  C 659.44 382.23 657.67 381.95 656.06 382.36
  Q 648.89 384.17 635.03 388.06
  C 631.33 389.10 628.59 390.66 627.69 394.21
  Q 626.39 399.30 623.71 410.75
  A 3.84 3.81 -52.1 0 0 624.02 413.33
  Q 625.02 415.30 626.71 416.96
  Q 634.95 424.99 637.82 427.90
  Q 640.15 430.26 643.39 431.05
  A 1.74 1.64 43.4 0 0 644.16 431.05
  L 650.81 429.34
  A 3.63 3.62 -0.3 0 0 653.43 426.70
  C 656.44 414.72 660.30 404.29 667.18 394.50"
/>
<path stroke="#858e9c" vector-effect="non-scaling-stroke" d="
  M 595.54 424.28
  Q 593.61 426.63 592.08 430.09
  Q 589.04 436.96 586.80 443.28
  Q 586.00 445.52 586.31 447.78
  Q 587.88 459.37 596.66 468.94
  A 4.49 4.40 -12.6 0 0 598.71 470.21
  C 600.69 470.78 602.86 470.91 605.65 471.64
  Q 608.54 472.39 617.49 474.77
  Q 619.58 475.33 621.10 474.35
  Q 625.38 471.59 632.11 465.89
  Q 635.13 463.33 636.85 459.99
  A 1.62 1.60 -32.8 0 0 637.02 459.23
  L 636.50 438.69
  A 4.71 4.71 0.0 0 0 635.06 435.42
  Q 625.92 426.66 622.82 423.74
  Q 620.43 421.50 617.68 419.90
  A 2.89 2.86 -35.6 0 0 615.67 419.58
  L 596.88 423.46
  A 2.33 2.31 13.3 0 0 595.54 424.28"
/>
<path stroke="#858e9c" vector-effect="non-scaling-stroke" d="
  M 626.01 483.06
  C 626.35 487.81 629.64 492.79 627.35 497.74
  A 1.48 1.48 0.0 0 0 628.00 499.67
  C 639.15 505.57 649.79 508.86 662.47 506.51
  Q 665.73 505.91 666.18 502.26
  A 1.48 1.47 33.7 0 0 665.99 501.34
  Q 657.11 486.13 654.32 473.76
  Q 653.48 470.03 652.57 469.47
  A 6.06 5.69 68.6 0 0 651.33 468.88
  L 644.84 466.68
  A 3.36 3.34 36.2 0 0 641.79 467.14
  C 637.44 470.30 634.71 473.45 630.54 476.74
  Q 628.25 478.54 626.64 480.82
  A 3.44 3.41 -29.5 0 0 626.01 483.06"
/>
<path stroke="#858e9c" vector-effect="non-scaling-stroke" d="
  M 516.06 668.57
  Q 516.17 673.46 516.97 676.02
  C 520.91 688.72 532.53 693.94 544.99 693.65
  C 557.46 693.35 568.81 687.58 572.15 674.71
  Q 572.82 672.11 572.70 667.23
  Q 572.59 662.34 571.79 659.77
  C 567.85 647.08 556.23 641.85 543.77 642.15
  C 531.30 642.45 519.95 648.22 516.61 661.09
  Q 515.94 663.68 516.06 668.57"
/>
<path stroke="#858e9c" vector-effect="non-scaling-stroke" d="
  M 741.54 643.80
  L 741.54 668.50
  A 0.40 0.40 0.0 0 0 741.94 668.90
  L 767.20 668.90
  A 14.08 11.65 -0.0 0 0 781.28 657.25
  L 781.28 655.05
  A 14.08 11.65 0.0 0 0 767.20 643.40
  L 741.94 643.40
  A 0.40 0.40 0.0 0 0 741.54 643.80"
/>
</g>
<path fill="#ffffff" d="
  M 1536.00 0.00
  L 1536.00 1024.00
  L 0.00 1024.00
  L 0.00 0.00
  L 1536.00 0.00
  Z
  M 958.83 316.79
  C 958.55 320.53 955.54 322.96 952.49 324.98
  C 947.37 328.36 940.72 325.69 940.71 319.00
  Q 940.69 310.02 940.75 301.04
  Q 941.02 273.92 940.71 266.56
  Q 940.65 265.14 938.42 263.79
  A 1.44 1.42 60.7 0 0 937.66 263.57
  L 891.66 263.57
  A 1.30 1.28 24.3 0 0 890.82 263.88
  Q 888.89 265.51 888.89 266.61
  Q 889.10 309.94 889.07 353.30
  C 889.89 360.92 883.07 366.04 876.02 363.71
  Q 870.82 361.99 870.85 357.28
  Q 871.02 334.49 870.98 311.71
  Q 871.18 302.86 870.74 300.29
  C 870.39 298.22 868.72 297.00 866.48 296.99
  Q 841.43 296.87 820.37 297.13
  A 2.57 2.57 0.0 0 0 817.84 299.70
  L 817.83 314.54
  Q 817.80 351.51 817.87 388.48
  C 817.88 392.54 818.14 395.86 813.98 396.70
  Q 811.37 397.24 809.75 396.02
  Q 807.37 394.23 801.10 389.96
  Q 792.58 384.16 783.42 380.70
  Q 770.64 376.26 758.25 375.82
  C 730.34 374.82 706.05 389.31 692.36 413.36
  Q 689.23 418.87 687.32 424.98
  Q 680.41 446.67 686.51 468.80
  C 694.31 497.09 716.71 517.53 745.74 522.43
  Q 765.13 525.23 783.62 518.38
  C 798.38 512.95 808.33 503.98 819.38 492.33
  C 823.50 487.99 826.13 482.54 828.74 477.51
  Q 830.19 474.71 837.04 466.77
  Q 862.42 437.48 895.98 418.79
  Q 906.03 412.84 916.77 408.80
  C 921.55 407.00 928.65 414.22 931.02 417.70
  A 2.23 2.23 0.0 0 1 930.58 420.68
  Q 929.30 421.72 928.49 422.03
  Q 920.74 425.01 913.40 428.14
  C 907.14 430.82 900.47 434.89 894.20 438.58
  Q 873.65 451.45 856.73 468.98
  Q 849.32 476.65 845.62 482.91
  Q 841.49 489.89 845.25 498.55
  Q 846.37 502.28 848.70 505.54
  Q 852.53 512.19 858.16 516.96
  Q 863.39 521.40 870.17 525.09
  L 850.04 531.09
  A 2.85 2.59 33.7 0 1 849.38 531.19
  C 839.74 531.33 834.22 526.27 830.00 518.44
  Q 828.00 514.73 827.32 510.74
  A 0.39 0.39 0.0 0 0 826.65 510.54
  C 814.82 523.33 799.90 533.45 782.96 537.94
  C 749.01 546.94 712.10 538.27 688.67 511.34
  Q 677.02 497.95 670.88 481.14
  C 663.27 460.34 662.69 438.98 669.78 417.99
  C 678.59 391.93 701.44 369.58 727.75 361.56
  C 750.69 354.56 775.66 356.67 797.25 366.67
  A 0.46 0.46 0.0 0 0 797.91 366.25
  L 797.91 340.62
  A 0.71 0.70 -90.0 0 0 797.21 339.91
  Q 766.13 339.83 537.75 339.89
  C 531.36 339.89 525.39 342.72 523.63 349.32
  A 4.41 4.12 -39.7 0 0 523.48 350.51
  Q 523.56 381.97 523.31 415.11
  Q 523.28 419.58 524.51 421.20
  Q 526.39 423.69 529.70 424.86
  C 534.30 426.48 544.24 427.57 549.77 433.24
  C 554.20 437.78 554.36 445.82 551.26 451.46
  C 549.56 454.55 545.34 457.25 542.35 458.60
  Q 532.88 462.88 527.55 466.26
  Q 525.74 467.41 523.83 470.09
  A 1.37 1.29 63.9 0 0 523.59 470.86
  L 523.43 527.32
  A 0.74 0.66 41.7 0 0 523.46 527.58
  Q 524.74 532.57 528.78 534.86
  Q 531.08 536.16 538.14 536.17
  Q 602.04 536.28 621.10 536.10
  Q 637.27 535.94 645.22 537.45
  Q 663.88 540.98 679.97 551.33
  C 685.81 555.08 695.65 562.01 704.70 565.96
  Q 712.74 569.47 716.45 570.78
  C 740.15 579.12 767.14 578.72 791.21 571.94
  C 800.16 569.42 809.39 564.96 818.09 559.31
  Q 825.79 554.30 827.60 553.33
  Q 833.05 550.40 840.88 548.65
  Q 882.99 539.25 922.24 519.93
  C 930.52 515.85 940.35 509.86 947.82 505.30
  Q 955.45 500.65 968.15 491.13
  Q 985.73 477.95 1002.92 457.19
  Q 1005.28 454.34 1007.72 447.34
  Q 1009.27 442.87 1009.25 436.52
  Q 1009.21 425.17 1009.17 413.46
  A 0.61 0.61 0.0 0 0 1008.56 412.85
  L 967.67 412.85
  A 0.31 0.31 0.0 0 0 967.49 413.42
  Q 975.76 418.95 982.16 424.15
  C 986.68 427.82 992.28 434.64 991.51 440.53
  Q 990.38 449.16 984.57 455.06
  Q 979.25 460.46 973.68 465.53
  C 976.89 446.91 964.88 435.80 953.68 423.39
  L 943.25 412.70
  Q 939.84 409.33 936.89 405.44
  C 934.58 402.39 934.57 400.08 937.28 397.65
  C 939.94 395.25 944.43 395.44 947.76 395.45
  Q 984.84 395.60 1004.48 395.48
  Q 1006.93 395.47 1009.35 392.30
  A 1.79 1.78 64.1 0 0 1009.72 391.21
  L 1009.81 279.27
  L 1009.88 231.67
  A 2.34 2.26 34.6 0 0 1009.70 230.78
  Q 1008.53 228.06 1005.86 228.07
  Q 971.62 228.09 961.93 228.07
  A 2.23 2.09 31.4 0 0 961.06 228.25
  Q 958.77 229.24 958.80 232.25
  Q 959.07 258.11 958.83 316.79
  Z
  M 491.87 667.77
  C 491.77 694.36 513.61 708.91 538.04 710.05
  Q 542.05 710.24 544.09 710.25
  Q 546.12 710.26 550.13 710.10
  C 574.57 709.14 596.52 694.75 596.62 668.16
  C 596.72 641.58 574.88 627.03 550.44 625.88
  Q 546.43 625.69 544.40 625.69
  Q 542.37 625.68 538.36 625.84
  C 513.91 626.80 491.97 641.18 491.87 667.77
  Z
  M 399.60 627.24
  A 0.33 0.33 0.0 0 0 399.27 627.57
  L 399.27 642.96
  A 0.33 0.33 0.0 0 0 399.60 643.29
  L 430.68 643.29
  A 0.33 0.33 0.0 0 1 431.01 643.62
  L 431.01 707.99
  A 0.33 0.33 0.0 0 0 431.34 708.32
  L 454.14 708.32
  A 0.33 0.33 0.0 0 0 454.47 707.99
  L 454.47 643.68
  A 0.33 0.33 0.0 0 1 454.80 643.35
  L 486.39 643.35
  A 0.33 0.33 0.0 0 0 486.72 643.02
  L 486.72 627.57
  A 0.33 0.33 0.0 0 0 486.39 627.24
  L 399.60 627.24
  Z
  M 987.04 680.37
  A 0.39 0.39 0.0 0 1 987.12 680.14
  L 1025.57 627.93
  A 0.39 0.39 0.0 0 0 1025.26 627.31
  L 1000.89 627.31
  A 0.39 0.39 0.0 0 0 1000.57 627.48
  L 976.06 662.23
  A 0.39 0.39 0.0 0 1 975.42 662.22
  L 951.12 627.39
  A 0.39 0.39 0.0 0 0 950.80 627.22
  L 925.32 627.22
  A 0.39 0.39 0.0 0 0 925.01 627.84
  L 962.90 680.24
  A 0.39 0.39 0.0 0 1 962.97 680.47
  L 962.97 707.95
  A 0.39 0.39 0.0 0 0 963.36 708.34
  L 986.65 708.34
  A 0.39 0.39 0.0 0 0 987.04 707.95
  L 987.04 680.37
  Z
  M 1133.15 708.04
  L 1095.82 666.68
  A 0.66 0.66 0.0 0 1 1095.82 665.80
  L 1130.83 627.81
  A 0.31 0.31 0.0 0 0 1130.60 627.29
  L 1103.62 627.29
  A 1.09 1.07 20.4 0 0 1102.81 627.65
  L 1081.20 652.03
  A 0.64 0.64 0.0 0 1 1080.25 652.04
  L 1058.25 627.64
  A 1.01 0.99 68.5 0 0 1057.51 627.31
  L 1030.30 627.31
  A 0.27 0.26 68.7 0 0 1030.11 627.76
  L 1065.41 666.89
  A 0.41 0.41 0.0 0 1 1065.41 667.45
  L 1028.24 707.79
  A 0.31 0.31 0.0 0 0 1028.47 708.31
  L 1056.27 708.31
  A 1.07 1.03 20.1 0 0 1057.06 707.96
  L 1080.36 681.67
  A 0.51 0.51 0.0 0 1 1081.13 681.67
  L 1103.94 707.97
  A 1.07 1.07 0.0 0 0 1104.75 708.34
  L 1133.01 708.34
  A 0.18 0.18 0.0 0 0 1133.15 708.04
  Z
  M 655.07 710.18
  C 661.70 710.19 667.23 709.77 673.38 708.41
  C 687.65 705.28 699.45 695.17 699.96 679.71
  Q 700.33 668.16 700.14 627.99
  A 0.68 0.68 0.0 0 0 699.46 627.31
  L 677.27 627.31
  A 0.55 0.55 0.0 0 0 676.72 627.85
  Q 676.55 642.55 676.70 670.50
  C 676.75 679.61 676.09 687.74 666.95 691.67
  Q 662.05 693.77 655.08 693.77
  Q 648.12 693.76 643.22 691.65
  C 634.08 687.71 633.43 679.58 633.49 670.47
  Q 633.68 642.52 633.52 627.82
  A 0.55 0.55 0.0 0 0 632.97 627.28
  L 610.78 627.26
  A 0.68 0.68 0.0 0 0 610.10 627.94
  Q 609.86 668.11 610.22 679.66
  C 610.71 695.12 622.50 705.24 636.76 708.39
  C 642.92 709.75 648.45 710.18 655.07 710.18
  Z
  M 807.44 707.95
  L 784.30 682.30
  A 0.26 0.26 0.0 0 1 784.47 681.86
  C 794.01 680.90 803.19 672.26 804.59 662.84
  Q 805.54 656.48 805.23 653.02
  C 803.58 634.27 784.18 627.87 768.36 627.39
  Q 761.33 627.17 718.60 627.35
  A 0.56 0.56 0.0 0 0 718.04 627.91
  L 718.04 707.66
  A 0.69 0.68 0.0 0 0 718.73 708.34
  L 741.10 708.34
  A 0.35 0.35 0.0 0 0 741.45 707.99
  L 741.45 684.96
  A 0.36 0.35 -0.0 0 1 741.81 684.61
  L 761.53 684.61
  A 0.83 0.82 76.6 0 1 762.27 685.07
  Q 763.20 686.95 764.50 688.51
  Q 766.00 690.29 780.60 707.89
  A 1.27 1.23 69.6 0 0 781.56 708.35
  L 807.26 708.35
  A 0.24 0.24 0.0 0 0 807.44 707.95
  Z
  M 861.55 674.95
  Q 874.35 687.73 893.66 707.52
  A 2.25 2.25 0.0 0 0 895.27 708.20
  L 914.99 708.20
  A 0.28 0.28 0.0 0 0 915.27 707.92
  L 915.27 627.57
  A 0.34 0.33 -90.0 0 0 914.94 627.23
  L 892.09 627.23
  A 0.31 0.31 0.0 0 0 891.78 627.54
  L 891.78 675.66
  A 0.38 0.38 0.0 0 1 891.13 675.93
  Q 883.13 668.00 875.62 660.50
  Q 862.82 647.72 843.52 627.94
  A 2.25 2.25 0.0 0 0 841.90 627.26
  L 822.18 627.26
  A 0.28 0.28 0.0 0 0 821.90 627.54
  L 821.90 707.89
  A 0.34 0.33 90.0 0 0 822.23 708.23
  L 845.08 708.23
  A 0.31 0.31 0.0 0 0 845.39 707.92
  L 845.39 659.80
  A 0.38 0.38 0.0 0 1 846.04 659.52
  Q 854.05 667.46 861.55 674.95
  Z"
/>
<path fill="#1da9f0" d="
  M 1009.81 279.27
  C 997.90 284.08 989.98 289.99 977.68 298.98
  Q 971.45 303.54 959.46 310.29
  A 0.90 0.87 -14.4 0 0 959.00 311.04
  L 958.83 316.79
  Q 959.07 258.11 958.80 232.25
  Q 958.77 229.24 961.06 228.25
  A 2.23 2.09 31.4 0 1 961.93 228.07
  Q 971.62 228.09 1005.86 228.07
  Q 1008.53 228.06 1009.70 230.78
  A 2.34 2.26 34.6 0 1 1009.88 231.67
  L 1009.81 279.27
  Z"
/>
<path fill="#1da9f0" d="
  M 940.75 301.04
  Q 935.72 304.21 930.60 307.17
  Q 921.39 312.50 907.39 320.28
  Q 898.72 325.10 889.54 335.04
  A 1.13 1.12 66.9 0 0 889.25 335.77
  L 889.07 353.30
  Q 889.10 309.94 888.89 266.61
  Q 888.89 265.51 890.82 263.88
  A 1.30 1.28 24.3 0 1 891.66 263.57
  L 937.66 263.57
  A 1.44 1.42 60.7 0 1 938.42 263.79
  Q 940.65 265.14 940.71 266.56
  Q 941.02 273.92 940.75 301.04
  Z"
/>
<path fill="#1d81e2" d="
  M 1009.81 279.27
  L 1009.72 391.21
  A 1.79 1.78 64.1 0 1 1009.35 392.30
  Q 1006.93 395.47 1004.48 395.48
  Q 984.84 395.60 947.76 395.45
  C 944.43 395.44 939.94 395.25 937.28 397.65
  C 934.57 400.08 934.58 402.39 936.89 405.44
  Q 939.84 409.33 943.25 412.70
  L 933.76 444.29
  L 929.70 440.92
  A 1.28 1.22 65.4 0 0 928.95 440.62
  C 924.33 440.36 920.80 444.16 923.90 448.65
  Q 926.71 452.72 927.95 454.02
  A 1.46 1.46 0.0 0 1 927.76 456.22
  L 922.21 460.23
  A 1.61 1.60 -36.7 0 1 919.99 459.91
  C 916.91 455.90 911.60 448.81 906.50 454.46
  C 905.18 455.92 905.54 457.84 906.53 459.27
  Q 909.89 464.11 911.27 466.18
  A 1.30 1.29 -33.6 0 1 910.90 467.98
  L 905.23 471.72
  A 1.37 1.36 54.0 0 1 903.41 471.43
  Q 903.26 471.23 899.37 466.88
  C 896.85 464.05 894.07 462.50 890.82 465.01
  Q 887.43 467.63 889.84 471.25
  Q 891.99 474.49 894.17 477.39
  A 1.29 1.28 -36.4 0 1 893.89 479.20
  L 887.74 483.65
  A 1.25 1.24 -34.4 0 1 885.97 483.32
  C 883.70 479.81 880.98 475.25 876.43 474.63
  Q 889.46 458.51 894.20 438.58
  C 900.47 434.89 907.14 430.82 913.40 428.14
  Q 920.74 425.01 928.49 422.03
  Q 929.30 421.72 930.58 420.68
  A 2.23 2.23 0.0 0 0 931.02 417.70
  C 928.65 414.22 921.55 407.00 916.77 408.80
  Q 906.03 412.84 895.98 418.79
  Q 880.47 416.44 864.75 418.78
  Q 867.18 416.48 869.70 414.44
  Q 894.89 394.10 922.99 371.46
  Q 928.79 366.79 935.70 361.42
  Q 955.63 345.93 970.97 333.47
  Q 974.48 330.61 975.31 327.94
  C 976.95 322.60 971.96 319.17 966.87 319.59
  Q 964.97 319.75 961.41 322.55
  Q 956.44 326.44 941.28 336.07
  Q 929.03 343.86 915.43 353.12
  Q 906.61 359.12 897.89 365.24
  Q 891.20 369.92 883.47 374.99
  Q 876.19 379.77 869.00 384.69
  Q 855.96 393.59 841.71 403.58
  C 818.39 419.92 797.57 433.91 775.22 449.94
  A 1.55 1.53 -43.7 0 1 773.38 449.91
  Q 755.19 435.78 741.02 423.85
  Q 736.81 420.30 734.24 419.88
  Q 730.06 419.20 725.93 420.93
  C 722.62 422.32 713.12 427.73 711.88 430.87
  Q 709.32 437.33 713.65 441.10
  Q 738.20 462.46 762.66 483.66
  Q 755.81 503.72 745.74 522.43
  C 716.71 517.53 694.31 497.09 686.51 468.80
  Q 680.41 446.67 687.32 424.98
  Q 700.14 419.47 707.31 415.00
  Q 723.58 404.86 729.69 401.44
  Q 754.89 387.35 783.42 380.70
  Q 792.58 384.16 801.10 389.96
  Q 807.37 394.23 809.75 396.02
  Q 811.37 397.24 813.98 396.70
  C 818.14 395.86 817.88 392.54 817.87 388.48
  Q 817.80 351.51 817.83 314.54
  L 817.88 372.45
  A 0.29 0.28 -17.8 0 0 818.33 372.68
  Q 832.46 362.40 845.47 351.96
  C 855.20 344.16 864.27 335.05 870.50 323.95
  A 2.02 1.96 61.0 0 0 870.75 323.02
  L 870.98 311.71
  Q 871.02 334.49 870.85 357.28
  Q 870.82 361.99 876.02 363.71
  C 883.07 366.04 889.89 360.92 889.07 353.30
  L 889.25 335.77
  A 1.13 1.12 66.9 0 1 889.54 335.04
  Q 898.72 325.10 907.39 320.28
  Q 921.39 312.50 930.60 307.17
  Q 935.72 304.21 940.75 301.04
  Q 940.69 310.02 940.71 319.00
  C 940.72 325.69 947.37 328.36 952.49 324.98
  C 955.54 322.96 958.55 320.53 958.83 316.79
  L 959.00 311.04
  A 0.90 0.87 -14.4 0 1 959.46 310.29
  Q 971.45 303.54 977.68 298.98
  C 989.98 289.99 997.90 284.08 1009.81 279.27
  Z"
/>
<path fill="#1da9f0" d="
  M 870.98 311.71
  L 870.75 323.02
  A 2.02 1.96 61.0 0 1 870.50 323.95
  C 864.27 335.05 855.20 344.16 845.47 351.96
  Q 832.46 362.40 818.33 372.68
  A 0.29 0.28 -17.8 0 1 817.88 372.45
  L 817.83 314.54
  L 817.84 299.70
  A 2.57 2.57 0.0 0 1 820.37 297.13
  Q 841.43 296.87 866.48 296.99
  C 868.72 297.00 870.39 298.22 870.74 300.29
  Q 871.18 302.86 870.98 311.71
  Z"
/>
<path fill="#ffffff" d="
  M 864.75 418.78
  Q 856.06 425.64 847.54 432.78
  C 840.57 438.63 832.51 444.64 826.18 450.42
  C 821.38 454.81 814.90 459.40 808.84 464.45
  Q 795.04 475.94 781.18 486.96
  Q 775.86 491.19 769.36 488.91
  A 2.99 2.79 72.0 0 1 768.51 488.44
  L 762.66 483.66
  Q 738.20 462.46 713.65 441.10
  Q 709.32 437.33 711.88 430.87
  C 713.12 427.73 722.62 422.32 725.93 420.93
  Q 730.06 419.20 734.24 419.88
  Q 736.81 420.30 741.02 423.85
  Q 755.19 435.78 773.38 449.91
  A 1.55 1.53 -43.7 0 0 775.22 449.94
  C 797.57 433.91 818.39 419.92 841.71 403.58
  Q 855.96 393.59 869.00 384.69
  Q 876.19 379.77 883.47 374.99
  Q 891.20 369.92 897.89 365.24
  Q 906.61 359.12 915.43 353.12
  Q 929.03 343.86 941.28 336.07
  Q 956.44 326.44 961.41 322.55
  Q 964.97 319.75 966.87 319.59
  C 971.96 319.17 976.95 322.60 975.31 327.94
  Q 974.48 330.61 970.97 333.47
  Q 955.63 345.93 935.70 361.42
  Q 928.79 366.79 922.99 371.46
  Q 894.89 394.10 869.70 414.44
  Q 867.18 416.48 864.75 418.78
  Z"
/>
<path fill="#0a1c38" d="
  M 870.17 525.09
  Q 880.49 523.61 890.90 518.91
  C 894.27 517.38 897.66 516.84 901.14 515.32
  Q 912.50 510.39 915.50 508.76
  Q 929.77 501.01 932.52 499.61
  C 938.32 496.64 942.47 493.22 948.23 489.48
  Q 954.47 485.43 959.34 480.98
  Q 967.10 473.90 973.68 465.53
  Q 979.25 460.46 984.57 455.06
  Q 990.38 449.16 991.51 440.53
  C 992.28 434.64 986.68 427.82 982.16 424.15
  Q 975.76 418.95 967.49 413.42
  A 0.31 0.31 0.0 0 1 967.67 412.85
  L 1008.56 412.85
  A 0.61 0.61 0.0 0 1 1009.17 413.46
  Q 1009.21 425.17 1009.25 436.52
  Q 1009.27 442.87 1007.72 447.34
  Q 1005.28 454.34 1002.92 457.19
  Q 985.73 477.95 968.15 491.13
  Q 955.45 500.65 947.82 505.30
  C 940.35 509.86 930.52 515.85 922.24 519.93
  Q 882.99 539.25 840.88 548.65
  Q 833.05 550.40 827.60 553.33
  Q 825.79 554.30 818.09 559.31
  C 809.39 564.96 800.16 569.42 791.21 571.94
  C 767.14 578.72 740.15 579.12 716.45 570.78
  Q 712.74 569.47 704.70 565.96
  C 695.65 562.01 685.81 555.08 679.97 551.33
  Q 663.88 540.98 645.22 537.45
  Q 637.27 535.94 621.10 536.10
  Q 602.04 536.28 538.14 536.17
  Q 531.08 536.16 528.78 534.86
  Q 524.74 532.57 523.46 527.58
  A 0.74 0.66 41.7 0 1 523.43 527.32
  L 523.59 470.86
  A 1.37 1.29 63.9 0 1 523.83 470.09
  Q 525.74 467.41 527.55 466.26
  Q 532.88 462.88 542.35 458.60
  C 545.34 457.25 549.56 454.55 551.26 451.46
  C 554.36 445.82 554.20 437.78 549.77 433.24
  C 544.24 427.57 534.30 426.48 529.70 424.86
  Q 526.39 423.69 524.51 421.20
  Q 523.28 419.58 523.31 415.11
  Q 523.56 381.97 523.48 350.51
  A 4.41 4.12 -39.7 0 1 523.63 349.32
  C 525.39 342.72 531.36 339.89 537.75 339.89
  Q 766.13 339.83 797.21 339.91
  A 0.71 0.70 90.0 0 1 797.91 340.62
  L 797.91 366.25
  A 0.46 0.46 0.0 0 1 797.25 366.67
  C 775.66 356.67 750.69 354.56 727.75 361.56
  C 701.44 369.58 678.59 391.93 669.78 417.99
  C 662.69 438.98 663.27 460.34 670.88 481.14
  Q 677.02 497.95 688.67 511.34
  C 712.10 538.27 749.01 546.94 782.96 537.94
  C 799.90 533.45 814.82 523.33 826.65 510.54
  A 0.39 0.39 0.0 0 1 827.32 510.74
  Q 828.00 514.73 830.00 518.44
  C 834.22 526.27 839.74 531.33 849.38 531.19
  A 2.85 2.59 33.7 0 0 850.04 531.09
  L 870.17 525.09
  Z
  M 663.21 364.63
  Q 661.97 361.58 658.46 361.05
  Q 651.94 360.06 645.83 360.73
  C 634.02 362.03 622.44 364.79 612.73 371.19
  C 610.63 372.58 605.35 376.33 609.48 378.13
  Q 616.38 381.15 623.82 383.42
  Q 626.30 384.18 627.50 383.75
  Q 637.77 380.05 648.26 377.99
  C 652.72 377.11 656.92 375.81 659.46 371.73
  Q 660.30 370.39 663.13 365.67
  A 1.17 1.17 0.0 0 0 663.21 364.63
  Z
  M 574.24 376.99
  Q 570.31 377.85 570.32 382.46
  Q 570.38 411.70 570.29 495.48
  Q 570.28 498.57 573.46 500.07
  A 2.28 2.25 -31.3 0 0 574.39 500.29
  Q 589.98 500.41 600.82 500.10
  Q 604.48 500.00 604.89 496.68
  C 605.31 493.31 601.38 490.60 598.54 488.02
  Q 595.46 485.22 590.66 478.65
  Q 584.01 469.55 582.23 457.36
  Q 581.44 451.95 581.58 436.72
  C 581.59 434.62 582.12 432.75 582.51 431.07
  A 2.98 2.87 -21.0 0 1 583.05 429.92
  Q 585.97 426.06 588.18 420.04
  A 3.76 3.73 -45.4 0 0 588.17 417.43
  C 586.53 413.10 584.06 408.94 584.79 405.27
  C 586.06 398.96 588.20 394.66 591.82 387.66
  Q 593.90 383.63 593.83 381.94
  Q 593.71 378.82 590.59 377.19
  A 1.34 1.23 -28.9 0 0 589.98 377.04
  L 574.42 376.97
  A 0.87 0.78 -48.2 0 0 574.24 376.99
  Z
  M 667.18 394.50
  C 670.80 389.36 664.73 385.41 661.06 383.20
  C 659.44 382.23 657.67 381.95 656.06 382.36
  Q 648.89 384.17 635.03 388.06
  C 631.33 389.10 628.59 390.66 627.69 394.21
  Q 626.39 399.30 623.71 410.75
  A 3.84 3.81 -52.1 0 0 624.02 413.33
  Q 625.02 415.30 626.71 416.96
  Q 634.95 424.99 637.82 427.90
  Q 640.15 430.26 643.39 431.05
  A 1.74 1.64 43.4 0 0 644.16 431.05
  L 650.81 429.34
  A 3.63 3.62 -0.3 0 0 653.43 426.70
  C 656.44 414.72 660.30 404.29 667.18 394.50
  Z
  M 595.54 424.28
  Q 593.61 426.63 592.08 430.09
  Q 589.04 436.96 586.80 443.28
  Q 586.00 445.52 586.31 447.78
  Q 587.88 459.37 596.66 468.94
  A 4.49 4.40 -12.6 0 0 598.71 470.21
  C 600.69 470.78 602.86 470.91 605.65 471.64
  Q 608.54 472.39 617.49 474.77
  Q 619.58 475.33 621.10 474.35
  Q 625.38 471.59 632.11 465.89
  Q 635.13 463.33 636.85 459.99
  A 1.62 1.60 -32.8 0 0 637.02 459.23
  L 636.50 438.69
  A 4.71 4.71 0.0 0 0 635.06 435.42
  Q 625.92 426.66 622.82 423.74
  Q 620.43 421.50 617.68 419.90
  A 2.89 2.86 -35.6 0 0 615.67 419.58
  L 596.88 423.46
  A 2.33 2.31 13.3 0 0 595.54 424.28
  Z
  M 626.01 483.06
  C 626.35 487.81 629.64 492.79 627.35 497.74
  A 1.48 1.48 0.0 0 0 628.00 499.67
  C 639.15 505.57 649.79 508.86 662.47 506.51
  Q 665.73 505.91 666.18 502.26
  A 1.48 1.47 33.7 0 0 665.99 501.34
  Q 657.11 486.13 654.32 473.76
  Q 653.48 470.03 652.57 469.47
  A 6.06 5.69 68.6 0 0 651.33 468.88
  L 644.84 466.68
  A 3.36 3.34 36.2 0 0 641.79 467.14
  C 637.44 470.30 634.71 473.45 630.54 476.74
  Q 628.25 478.54 626.64 480.82
  A 3.44 3.41 -29.5 0 0 626.01 483.06
  Z"
/>
<path fill="#ffffff" d="
  M 663.13 365.67
  Q 660.30 370.39 659.46 371.73
  C 656.92 375.81 652.72 377.11 648.26 377.99
  Q 637.77 380.05 627.50 383.75
  Q 626.30 384.18 623.82 383.42
  Q 616.38 381.15 609.48 378.13
  C 605.35 376.33 610.63 372.58 612.73 371.19
  C 622.44 364.79 634.02 362.03 645.83 360.73
  Q 651.94 360.06 658.46 361.05
  Q 661.97 361.58 663.21 364.63
  A 1.17 1.17 0.0 0 1 663.13 365.67
  Z"
/>
<path fill="#1da9f0" d="
  M 783.42 380.70
  Q 754.89 387.35 729.69 401.44
  Q 723.58 404.86 707.31 415.00
  Q 700.14 419.47 687.32 424.98
  Q 689.23 418.87 692.36 413.36
  C 706.05 389.31 730.34 374.82 758.25 375.82
  Q 770.64 376.26 783.42 380.70
  Z"
/>
<path fill="#ffffff" d="
  M 574.42 376.97
  L 589.98 377.04
  A 1.34 1.23 -28.9 0 1 590.59 377.19
  Q 593.71 378.82 593.83 381.94
  Q 593.90 383.63 591.82 387.66
  C 588.20 394.66 586.06 398.96 584.79 405.27
  C 584.06 408.94 586.53 413.10 588.17 417.43
  A 3.76 3.73 -45.4 0 1 588.18 420.04
  Q 585.97 426.06 583.05 429.92
  A 2.98 2.87 -21.0 0 0 582.51 431.07
  C 582.12 432.75 581.59 434.62 581.58 436.72
  Q 581.44 451.95 582.23 457.36
  Q 584.01 469.55 590.66 478.65
  Q 595.46 485.22 598.54 488.02
  C 601.38 490.60 605.31 493.31 604.89 496.68
  Q 604.48 500.00 600.82 500.10
  Q 589.98 500.41 574.39 500.29
  A 2.28 2.25 -31.3 0 1 573.46 500.07
  Q 570.28 498.57 570.29 495.48
  Q 570.38 411.70 570.32 382.46
  Q 570.31 377.85 574.24 376.99
  A 0.87 0.78 -48.2 0 1 574.42 376.97
  Z"
/>
<path fill="#ffffff" d="
  M 661.06 383.20
  C 664.73 385.41 670.80 389.36 667.18 394.50
  C 660.30 404.29 656.44 414.72 653.43 426.70
  A 3.63 3.62 -0.3 0 1 650.81 429.34
  L 644.16 431.05
  A 1.74 1.64 43.4 0 1 643.39 431.05
  Q 640.15 430.26 637.82 427.90
  Q 634.95 424.99 626.71 416.96
  Q 625.02 415.30 624.02 413.33
  A 3.84 3.81 -52.1 0 1 623.71 410.75
  Q 626.39 399.30 627.69 394.21
  C 628.59 390.66 631.33 389.10 635.03 388.06
  Q 648.89 384.17 656.06 382.36
  C 657.67 381.95 659.44 382.23 661.06 383.20
  Z"
/>
<path fill="#1756c1" d="
  M 953.68 423.39
  Q 952.82 435.35 946.79 445.39
  C 943.73 445.50 940.91 447.41 938.46 449.04
  A 0.63 0.63 0.0 0 1 937.63 448.92
  L 933.76 444.29
  L 943.25 412.70
  L 953.68 423.39
  Z"
/>
<path fill="#1756c1" d="
  M 895.98 418.79
  Q 862.42 437.48 837.04 466.77
  Q 825.82 473.87 814.52 480.89
  C 799.46 490.24 789.47 501.59 783.62 518.38
  Q 765.13 525.23 745.74 522.43
  Q 755.81 503.72 762.66 483.66
  L 768.51 488.44
  A 2.99 2.79 72.0 0 0 769.36 488.91
  Q 775.86 491.19 781.18 486.96
  Q 795.04 475.94 808.84 464.45
  C 814.90 459.40 821.38 454.81 826.18 450.42
  C 832.51 444.64 840.57 438.63 847.54 432.78
  Q 856.06 425.64 864.75 418.78
  Q 880.47 416.44 895.98 418.79
  Z"
/>
<path fill="#ffffff" d="
  M 595.54 424.28
  A 2.33 2.31 13.3 0 1 596.88 423.46
  L 615.67 419.58
  A 2.89 2.86 -35.6 0 1 617.68 419.90
  Q 620.43 421.50 622.82 423.74
  Q 625.92 426.66 635.06 435.42
  A 4.71 4.71 0.0 0 1 636.50 438.69
  L 637.02 459.23
  A 1.62 1.60 -32.8 0 1 636.85 459.99
  Q 635.13 463.33 632.11 465.89
  Q 625.38 471.59 621.10 474.35
  Q 619.58 475.33 617.49 474.77
  Q 608.54 472.39 605.65 471.64
  C 602.86 470.91 600.69 470.78 598.71 470.21
  A 4.49 4.40 -12.6 0 1 596.66 468.94
  Q 587.88 459.37 586.31 447.78
  Q 586.00 445.52 586.80 443.28
  Q 589.04 436.96 592.08 430.09
  Q 593.61 426.63 595.54 424.28
  Z"
/>
<path fill="#0c3395" d="
  M 953.68 423.39
  C 964.88 435.80 976.89 446.91 973.68 465.53
  Q 967.10 473.90 959.34 480.98
  Q 954.47 485.43 948.23 489.48
  C 942.47 493.22 938.32 496.64 932.52 499.61
  Q 929.77 501.01 915.50 508.76
  Q 912.50 510.39 901.14 515.32
  C 897.66 516.84 894.27 517.38 890.90 518.91
  Q 880.49 523.61 870.17 525.09
  Q 863.39 521.40 858.16 516.96
  Q 871.35 510.57 880.99 500.02
  L 883.39 498.70
  A 1.59 1.58 55.0 0 1 885.34 499.05
  Q 887.45 501.49 888.80 503.45
  C 890.78 506.32 893.14 508.32 896.51 506.35
  C 900.14 504.23 898.02 500.78 896.44 498.21
  Q 902.69 497.57 907.48 494.26
  Q 911.48 498.02 914.96 494.50
  Q 916.90 492.55 916.27 490.26
  A 1.61 1.47 22.6 0 0 916.02 489.72
  L 910.90 482.37
  A 1.04 1.04 0.0 0 1 911.04 481.01
  Q 914.08 478.13 918.28 476.23
  A 1.11 1.10 54.5 0 1 919.49 476.44
  Q 921.45 478.29 922.92 480.39
  C 925.18 483.61 927.82 485.50 931.07 483.06
  Q 934.70 480.34 932.32 476.25
  Q 929.70 471.76 928.81 471.11
  A 1.43 1.42 -46.3 0 1 928.76 468.84
  L 933.84 464.81
  A 2.11 2.10 -38.9 0 1 936.77 465.12
  L 941.99 471.47
  A 0.80 0.75 83.7 0 0 942.20 471.65
  Q 946.52 474.03 949.18 470.50
  Q 950.69 468.49 949.91 466.84
  Q 948.10 463.03 944.69 458.95
  A 1.26 1.25 49.2 0 1 944.81 457.22
  L 950.55 452.04
  A 2.61 2.61 0.0 0 0 951.30 449.32
  Q 950.26 445.95 946.79 445.39
  Q 952.82 435.35 953.68 423.39
  Z"
/>
<path fill="#1da9f0" d="
  M 894.20 438.58
  Q 889.46 458.51 876.43 474.63
  Q 873.34 475.31 872.14 478.02
  A 1.64 1.59 51.8 0 0 872.04 478.98
  Q 872.57 481.76 874.21 484.30
  L 845.25 498.55
  Q 841.49 489.89 845.62 482.91
  Q 849.32 476.65 856.73 468.98
  Q 873.65 451.45 894.20 438.58
  Z"
/>
<path fill="#ffffff" d="
  M 933.76 444.29
  L 937.63 448.92
  A 0.63 0.63 0.0 0 0 938.46 449.04
  C 940.91 447.41 943.73 445.50 946.79 445.39
  Q 950.26 445.95 951.30 449.32
  A 2.61 2.61 0.0 0 1 950.55 452.04
  L 944.81 457.22
  A 1.26 1.25 49.2 0 0 944.69 458.95
  Q 948.10 463.03 949.91 466.84
  Q 950.69 468.49 949.18 470.50
  Q 946.52 474.03 942.20 471.65
  A 0.80 0.75 83.7 0 1 941.99 471.47
  L 936.77 465.12
  A 2.11 2.10 -38.9 0 0 933.84 464.81
  L 928.76 468.84
  A 1.43 1.42 -46.3 0 0 928.81 471.11
  Q 929.70 471.76 932.32 476.25
  Q 934.70 480.34 931.07 483.06
  C 927.82 485.50 925.18 483.61 922.92 480.39
  Q 921.45 478.29 919.49 476.44
  A 1.11 1.10 54.5 0 0 918.28 476.23
  Q 914.08 478.13 911.04 481.01
  A 1.04 1.04 0.0 0 0 910.90 482.37
  L 916.02 489.72
  A 1.61 1.47 22.6 0 1 916.27 490.26
  Q 916.90 492.55 914.96 494.50
  Q 911.48 498.02 907.48 494.26
  L 902.42 488.46
  A 2.27 2.26 51.9 0 0 899.42 488.09
  L 894.53 491.50
  A 2.03 2.03 0.0 0 0 893.97 494.24
  L 896.44 498.21
  C 898.02 500.78 900.14 504.23 896.51 506.35
  C 893.14 508.32 890.78 506.32 888.80 503.45
  Q 887.45 501.49 885.34 499.05
  A 1.59 1.58 55.0 0 0 883.39 498.70
  L 880.99 500.02
  C 876.57 503.08 871.45 502.06 870.19 496.39
  C 871.64 493.38 874.57 491.59 877.08 489.60
  A 0.76 0.76 0.0 0 0 877.23 488.56
  L 874.21 484.30
  Q 872.57 481.76 872.04 478.98
  A 1.64 1.59 51.8 0 1 872.14 478.02
  Q 873.34 475.31 876.43 474.63
  C 880.98 475.25 883.70 479.81 885.97 483.32
  A 1.25 1.24 -34.4 0 0 887.74 483.65
  L 893.89 479.20
  A 1.29 1.28 -36.4 0 0 894.17 477.39
  Q 891.99 474.49 889.84 471.25
  Q 887.43 467.63 890.82 465.01
  C 894.07 462.50 896.85 464.05 899.37 466.88
  Q 903.26 471.23 903.41 471.43
  A 1.37 1.36 54.0 0 0 905.23 471.72
  L 910.90 467.98
  A 1.30 1.29 -33.6 0 0 911.27 466.18
  Q 909.89 464.11 906.53 459.27
  C 905.54 457.84 905.18 455.92 906.50 454.46
  C 911.60 448.81 916.91 455.90 919.99 459.91
  A 1.61 1.60 -36.7 0 0 922.21 460.23
  L 927.76 456.22
  A 1.46 1.46 0.0 0 0 927.95 454.02
  Q 926.71 452.72 923.90 448.65
  C 920.80 444.16 924.33 440.36 928.95 440.62
  A 1.28 1.22 65.4 0 1 929.70 440.92
  L 933.76 444.29
  Z"
/>
<path fill="#0c3395" d="
  M 837.04 466.77
  Q 830.19 474.71 828.74 477.51
  C 826.13 482.54 823.50 487.99 819.38 492.33
  C 808.33 503.98 798.38 512.95 783.62 518.38
  C 789.47 501.59 799.46 490.24 814.52 480.89
  Q 825.82 473.87 837.04 466.77
  Z"
/>
<path fill="#ffffff" d="
  M 626.01 483.06
  A 3.44 3.41 -29.5 0 1 626.64 480.82
  Q 628.25 478.54 630.54 476.74
  C 634.71 473.45 637.44 470.30 641.79 467.14
  A 3.36 3.34 36.2 0 1 644.84 466.68
  L 651.33 468.88
  A 6.06 5.69 68.6 0 1 652.57 469.47
  Q 653.48 470.03 654.32 473.76
  Q 657.11 486.13 665.99 501.34
  A 1.48 1.47 33.7 0 1 666.18 502.26
  Q 665.73 505.91 662.47 506.51
  C 649.79 508.86 639.15 505.57 628.00 499.67
  A 1.48 1.48 0.0 0 1 627.35 497.74
  C 629.64 492.79 626.35 487.81 626.01 483.06
  Z"
/>
<path fill="#1d81e2" d="
  M 874.21 484.30
  L 877.23 488.56
  A 0.76 0.76 0.0 0 1 877.08 489.60
  C 874.57 491.59 871.64 493.38 870.19 496.39
  C 863.07 499.65 856.17 503.18 848.70 505.54
  Q 846.37 502.28 845.25 498.55
  L 874.21 484.30
  Z"
/>
<path fill="#1756c1" d="
  M 907.48 494.26
  Q 902.69 497.57 896.44 498.21
  L 893.97 494.24
  A 2.03 2.03 0.0 0 1 894.53 491.50
  L 899.42 488.09
  A 2.27 2.26 51.9 0 1 902.42 488.46
  L 907.48 494.26
  Z"
/>
<path fill="#1756c1" d="
  M 870.19 496.39
  C 871.45 502.06 876.57 503.08 880.99 500.02
  Q 871.35 510.57 858.16 516.96
  Q 852.53 512.19 848.70 505.54
  C 856.17 503.18 863.07 499.65 870.19 496.39
  Z"
/>
<path fill="#0a1c38" d="
  M 544.40 625.69
  Q 546.43 625.69 550.44 625.88
  C 574.88 627.03 596.72 641.58 596.62 668.16
  C 596.52 694.75 574.57 709.14 550.13 710.10
  Q 546.12 710.26 544.09 710.25
  Q 542.05 710.24 538.04 710.05
  C 513.61 708.91 491.77 694.36 491.87 667.77
  C 491.97 641.18 513.91 626.80 538.36 625.84
  Q 542.37 625.68 544.40 625.69
  Z
  M 516.06 668.57
  Q 516.17 673.46 516.97 676.02
  C 520.91 688.72 532.53 693.94 544.99 693.65
  C 557.46 693.35 568.81 687.58 572.15 674.71
  Q 572.82 672.11 572.70 667.23
  Q 572.59 662.34 571.79 659.77
  C 567.85 647.08 556.23 641.85 543.77 642.15
  C 531.30 642.45 519.95 648.22 516.61 661.09
  Q 515.94 663.68 516.06 668.57
  Z"
/>
<path fill="#0a1c38" d="
  M 399.60 627.24
  L 486.39 627.24
  A 0.33 0.33 0.0 0 1 486.72 627.57
  L 486.72 643.02
  A 0.33 0.33 0.0 0 1 486.39 643.35
  L 454.80 643.35
  A 0.33 0.33 0.0 0 0 454.47 643.68
  L 454.47 707.99
  A 0.33 0.33 0.0 0 1 454.14 708.32
  L 431.34 708.32
  A 0.33 0.33 0.0 0 1 431.01 707.99
  L 431.01 643.62
  A 0.33 0.33 0.0 0 0 430.68 643.29
  L 399.60 643.29
  A 0.33 0.33 0.0 0 1 399.27 642.96
  L 399.27 627.57
  A 0.33 0.33 0.0 0 1 399.60 627.24
  Z"
/>
<path fill="#0a1c38" d="
  M 987.04 680.37
  L 987.04 707.95
  A 0.39 0.39 0.0 0 1 986.65 708.34
  L 963.36 708.34
  A 0.39 0.39 0.0 0 1 962.97 707.95
  L 962.97 680.47
  A 0.39 0.39 0.0 0 0 962.90 680.24
  L 925.01 627.84
  A 0.39 0.39 0.0 0 1 925.32 627.22
  L 950.80 627.22
  A 0.39 0.39 0.0 0 1 951.12 627.39
  L 975.42 662.22
  A 0.39 0.39 0.0 0 0 976.06 662.23
  L 1000.57 627.48
  A 0.39 0.39 0.0 0 1 1000.89 627.31
  L 1025.26 627.31
  A 0.39 0.39 0.0 0 1 1025.57 627.93
  L 987.12 680.14
  A 0.39 0.39 0.0 0 0 987.04 680.37
  Z"
/>
<path fill="#0a1c38" d="
  M 1133.15 708.04
  A 0.18 0.18 0.0 0 1 1133.01 708.34
  L 1104.75 708.34
  A 1.07 1.07 0.0 0 1 1103.94 707.97
  L 1081.13 681.67
  A 0.51 0.51 0.0 0 0 1080.36 681.67
  L 1057.06 707.96
  A 1.07 1.03 20.1 0 1 1056.27 708.31
  L 1028.47 708.31
  A 0.31 0.31 0.0 0 1 1028.24 707.79
  L 1065.41 667.45
  A 0.41 0.41 0.0 0 0 1065.41 666.89
  L 1030.11 627.76
  A 0.27 0.26 68.7 0 1 1030.30 627.31
  L 1057.51 627.31
  A 1.01 0.99 68.5 0 1 1058.25 627.64
  L 1080.25 652.04
  A 0.64 0.64 0.0 0 0 1081.20 652.03
  L 1102.81 627.65
  A 1.09 1.07 20.4 0 1 1103.62 627.29
  L 1130.60 627.29
  A 0.31 0.31 0.0 0 1 1130.83 627.81
  L 1095.82 665.80
  A 0.66 0.66 0.0 0 0 1095.82 666.68
  L 1133.15 708.04
  Z"
/>
<path fill="#0a1c38" d="
  M 655.08 693.77
  Q 662.05 693.77 666.95 691.67
  C 676.09 687.74 676.75 679.61 676.70 670.50
  Q 676.55 642.55 676.72 627.85
  A 0.55 0.55 0.0 0 1 677.27 627.31
  L 699.46 627.31
  A 0.68 0.68 0.0 0 1 700.14 627.99
  Q 700.33 668.16 699.96 679.71
  C 699.45 695.17 687.65 705.28 673.38 708.41
  C 667.23 709.77 661.70 710.19 655.07 710.18
  C 648.45 710.18 642.92 709.75 636.76 708.39
  C 622.50 705.24 610.71 695.12 610.22 679.66
  Q 609.86 668.11 610.10 627.94
  A 0.68 0.68 0.0 0 1 610.78 627.26
  L 632.97 627.28
  A 0.55 0.55 0.0 0 1 633.52 627.82
  Q 633.68 642.52 633.49 670.47
  C 633.43 679.58 634.08 687.71 643.22 691.65
  Q 648.12 693.76 655.08 693.77
  Z"
/>
<path fill="#0a1c38" d="
  M 807.44 707.95
  A 0.24 0.24 0.0 0 1 807.26 708.35
  L 781.56 708.35
  A 1.27 1.23 69.6 0 1 780.60 707.89
  Q 766.00 690.29 764.50 688.51
  Q 763.20 686.95 762.27 685.07
  A 0.83 0.82 76.6 0 0 761.53 684.61
  L 741.81 684.61
  A 0.36 0.35 0.0 0 0 741.45 684.96
  L 741.45 707.99
  A 0.35 0.35 0.0 0 1 741.10 708.34
  L 718.73 708.34
  A 0.69 0.68 0.0 0 1 718.04 707.66
  L 718.04 627.91
  A 0.56 0.56 0.0 0 1 718.60 627.35
  Q 761.33 627.17 768.36 627.39
  C 784.18 627.87 803.58 634.27 805.23 653.02
  Q 805.54 656.48 804.59 662.84
  C 803.19 672.26 794.01 680.90 784.47 681.86
  A 0.26 0.26 0.0 0 0 784.30 682.30
  L 807.44 707.95
  Z
  M 741.54 643.80
  L 741.54 668.50
  A 0.40 0.40 0.0 0 0 741.94 668.90
  L 767.20 668.90
  A 14.08 11.65 -0.0 0 0 781.28 657.25
  L 781.28 655.05
  A 14.08 11.65 0.0 0 0 767.20 643.40
  L 741.94 643.40
  A 0.40 0.40 0.0 0 0 741.54 643.80
  Z"
/>
<path fill="#0a1c38" d="
  M 861.55 674.95
  Q 854.05 667.46 846.04 659.52
  A 0.38 0.38 0.0 0 0 845.39 659.80
  L 845.39 707.92
  A 0.31 0.31 0.0 0 1 845.08 708.23
  L 822.23 708.23
  A 0.34 0.33 90.0 0 1 821.90 707.89
  L 821.90 627.54
  A 0.28 0.28 0.0 0 1 822.18 627.26
  L 841.90 627.26
  A 2.25 2.25 0.0 0 1 843.52 627.94
  Q 862.82 647.72 875.62 660.50
  Q 883.13 668.00 891.13 675.93
  A 0.38 0.38 0.0 0 0 891.78 675.66
  L 891.78 627.54
  A 0.31 0.31 0.0 0 1 892.09 627.23
  L 914.94 627.23
  A 0.34 0.33 -90.0 0 1 915.27 627.57
  L 915.27 707.92
  A 0.28 0.28 0.0 0 1 914.99 708.20
  L 895.27 708.20
  A 2.25 2.25 0.0 0 1 893.66 707.52
  Q 874.35 687.73 861.55 674.95
  Z"
/>
<path fill="#ffffff" d="
  M 543.77 642.15
  C 556.23 641.85 567.85 647.08 571.79 659.77
  Q 572.59 662.34 572.70 667.23
  Q 572.82 672.11 572.15 674.71
  C 568.81 687.58 557.46 693.35 544.99 693.65
  C 532.53 693.94 520.91 688.72 516.97 676.02
  Q 516.17 673.46 516.06 668.57
  Q 515.94 663.68 516.61 661.09
  C 519.95 648.22 531.30 642.45 543.77 642.15
  Z"
/>
<path fill="#ffffff" d="
  M 741.54 643.80
  A 0.40 0.40 0.0 0 1 741.94 643.40
  L 767.20 643.40
  A 14.08 11.65 0.0 0 1 781.28 655.05
  L 781.28 657.25
  A 14.08 11.65 -0.0 0 1 767.20 668.90
  L 741.94 668.90
  A 0.40 0.40 0.0 0 1 741.54 668.50
  L 741.54 643.80
  Z"
/>
</svg>
