<?xml version="1.0" encoding="UTF-8" standalone="no"?>
<!DOCTYPE svg PUBLIC "-//W3C//DTD SVG 1.1//EN" "http://www.w3.org/Graphics/SVG/1.1/DTD/svg11.dtd">
<svg xmlns="http://www.w3.org/2000/svg" version="1.1" viewBox="0.00 0.00 1536.00 1024.00">
<g stroke-width="2.00" fill="none" stroke-linecap="butt">
<path stroke="#91b6dc" vector-effect="non-scaling-stroke" d="
  M 1076.22 255.72
  A 0.30 0.30 0.0 0 0 1075.95 255.28
  Q 1018.01 255.42 973.90 255.24
  Q 963.37 255.20 959.63 255.92
  C 949.70 257.81 939.94 262.49 932.23 269.15
  Q 928.98 271.97 921.67 281.68
  C 911.91 294.68 901.43 307.95 890.53 321.55
  Q 813.48 417.63 797.53 437.50
  Q 792.38 443.93 787.05 450.21
  Q 780.91 457.46 776.57 462.90
  Q 770.41 470.64 764.57 477.81
  Q 761.48 481.62 760.30 483.06
  Q 720.66 531.42 693.52 564.79
  Q 686.76 573.10 684.84 575.38
  A 0.92 0.91 -51.0 0 1 683.58 575.52
  Q 677.02 570.48 665.95 562.44
  C 653.98 553.74 641.35 545.49 630.52 537.09
  C 623.82 531.89 616.14 526.85 609.00 521.51
  Q 603.10 517.10 595.49 512.08
  Q 591.72 509.59 582.20 502.33
  Q 575.90 497.53 565.75 494.58
  Q 559.50 492.76 548.63 493.10
  Q 548.39 493.10 450.30 493.12
  A 0.53 0.53 0.0 0 0 449.93 494.03
  Q 578.46 620.99 581.87 624.38
  Q 589.05 631.52 589.36 631.86
  C 594.94 637.97 600.28 642.76 606.88 649.41
  Q 623.26 665.92 638.29 680.58
  Q 641.34 683.56 645.76 686.25
  Q 660.65 695.32 677.11 695.11
  Q 685.46 695.01 691.34 693.70
  C 699.68 691.85 707.55 687.55 714.47 682.56
  Q 717.97 680.04 722.57 674.47
  Q 723.46 673.39 871.43 497.94
  C 897.06 467.55 922.03 438.27 946.02 410.04
  Q 948.11 407.59 956.10 398.08
  Q 989.78 358.02 989.88 357.90
  Q 1001.97 343.30 1008.59 335.62
  C 1031.74 308.71 1058.51 276.34 1072.68 259.77
  C 1074.10 258.12 1075.54 257.06 1076.22 255.72"
/>
<path stroke="#91b6dc" vector-effect="non-scaling-stroke" d="
  M 720.12 496.47
  Q 720.24 496.35 721.66 494.64
  Q 756.94 452.07 771.55 433.75
  C 776.13 428.00 779.82 423.99 784.04 418.42
  C 791.91 408.00 801.91 396.57 809.13 387.15
  A 3.36 3.31 75.5 0 0 809.57 386.39
  Q 810.48 384.21 810.56 380.77
  C 810.66 376.43 811.12 374.23 809.17 371.03
  Q 805.48 364.97 798.05 365.03
  Q 793.59 365.07 735.03 365.04
  Q 729.99 365.04 727.60 365.90
  C 722.53 367.73 719.19 371.95 719.18 377.75
  Q 719.08 406.84 719.18 496.10
  A 0.54 0.54 0.0 0 0 720.12 496.47"
/>
<path stroke="#91b6dc" vector-effect="non-scaling-stroke" d="
  M 981.95 405.96
  Q 981.10 406.24 980.55 406.81
  Q 980.03 407.35 936.08 458.59
  Q 920.61 476.62 918.33 479.34
  Q 905.18 495.04 891.91 510.21
  A 4.83 4.76 65.9 0 0 890.73 513.37
  Q 890.88 652.01 890.67 677.94
  Q 890.62 684.19 891.67 686.46
  Q 893.49 690.37 897.56 692.71
  Q 900.15 694.20 907.74 694.16
  Q 930.89 694.06 964.00 694.27
  C 971.89 694.31 979.11 694.40 982.49 686.03
  C 984.01 682.28 983.57 678.57 983.56 673.00
  Q 983.37 528.08 983.47 407.06
  A 1.16 1.16 0.0 0 0 981.95 405.96"
/>
<path stroke="#91b6dc" vector-effect="non-scaling-stroke" d="
  M 677.93 542.98
  A 1.56 1.56 0.0 0 0 679.72 542.53
  Q 689.93 530.45 697.63 520.11
  Q 698.51 518.93 698.52 516.26
  Q 698.53 457.15 698.53 457.05
  Q 698.82 450.44 697.14 447.19
  Q 694.03 441.20 687.62 439.48
  A 5.75 5.66 51.8 0 0 686.20 439.30
  Q 652.98 439.44 623.92 439.27
  Q 617.50 439.23 614.80 440.44
  C 608.09 443.41 606.57 448.15 606.70 455.56
  Q 606.80 461.90 606.69 490.25
  A 3.48 3.36 -54.0 0 0 606.84 491.32
  Q 607.61 494.01 609.22 495.14
  C 625.60 506.63 636.23 513.73 648.98 522.96
  C 657.33 529.00 665.94 534.45 675.09 541.30
  Q 676.67 542.48 677.93 542.98"
/>
<path stroke="#91b6dc" vector-effect="non-scaling-stroke" d="
  M 869.92 539.51
  A 1.56 1.56 0.0 0 0 867.27 539.00
  Q 853.88 554.53 852.15 556.64
  Q 841.49 569.65 829.11 583.86
  Q 825.22 588.33 796.85 622.10
  Q 785.67 635.40 780.25 641.25
  Q 778.05 643.63 778.06 644.96
  Q 778.12 652.03 777.94 677.02
  C 777.89 684.18 778.44 689.25 784.52 692.68
  Q 787.59 694.42 796.00 694.18
  Q 801.61 694.02 850.77 694.25
  Q 860.28 694.29 863.50 692.61
  Q 870.08 689.16 870.05 680.48
  Q 869.79 607.88 870.07 540.19
  A 1.10 1.04 37.2 0 0 870.00 539.76
  L 869.92 539.51"
/>
</g>
<path fill="#fdfefe" d="
  M 1536.00 0.00
  L 1536.00 1024.00
  L 0.00 1024.00
  L 0.00 0.00
  L 1536.00 0.00
  Z
  M 1076.22 255.72
  A 0.30 0.30 0.0 0 0 1075.95 255.28
  Q 1018.01 255.42 973.90 255.24
  Q 963.37 255.20 959.63 255.92
  C 949.70 257.81 939.94 262.49 932.23 269.15
  Q 928.98 271.97 921.67 281.68
  C 911.91 294.68 901.43 307.95 890.53 321.55
  Q 813.48 417.63 797.53 437.50
  Q 792.38 443.93 787.05 450.21
  Q 780.91 457.46 776.57 462.90
  Q 770.41 470.64 764.57 477.81
  Q 761.48 481.62 760.30 483.06
  Q 720.66 531.42 693.52 564.79
  Q 686.76 573.10 684.84 575.38
  A 0.92 0.91 -51.0 0 1 683.58 575.52
  Q 677.02 570.48 665.95 562.44
  C 653.98 553.74 641.35 545.49 630.52 537.09
  C 623.82 531.89 616.14 526.85 609.00 521.51
  Q 603.10 517.10 595.49 512.08
  Q 591.72 509.59 582.20 502.33
  Q 575.90 497.53 565.75 494.58
  Q 559.50 492.76 548.63 493.10
  Q 548.39 493.10 450.30 493.12
  A 0.53 0.53 0.0 0 0 449.93 494.03
  Q 578.46 620.99 581.87 624.38
  Q 589.05 631.52 589.36 631.86
  C 594.94 637.97 600.28 642.76 606.88 649.41
  Q 623.26 665.92 638.29 680.58
  Q 641.34 683.56 645.76 686.25
  Q 660.65 695.32 677.11 695.11
  Q 685.46 695.01 691.34 693.70
  C 699.68 691.85 707.55 687.55 714.47 682.56
  Q 717.97 680.04 722.57 674.47
  Q 723.46 673.39 871.43 497.94
  C 897.06 467.55 922.03 438.27 946.02 410.04
  Q 948.11 407.59 956.10 398.08
  Q 989.78 358.02 989.88 357.90
  Q 1001.97 343.30 1008.59 335.62
  C 1031.74 308.71 1058.51 276.34 1072.68 259.77
  C 1074.10 258.12 1075.54 257.06 1076.22 255.72
  Z
  M 720.12 496.47
  Q 720.24 496.35 721.66 494.64
  Q 756.94 452.07 771.55 433.75
  C 776.13 428.00 779.82 423.99 784.04 418.42
  C 791.91 408.00 801.91 396.57 809.13 387.15
  A 3.36 3.31 75.5 0 0 809.57 386.39
  Q 810.48 384.21 810.56 380.77
  C 810.66 376.43 811.12 374.23 809.17 371.03
  Q 805.48 364.97 798.05 365.03
  Q 793.59 365.07 735.03 365.04
  Q 729.99 365.04 727.60 365.90
  C 722.53 367.73 719.19 371.95 719.18 377.75
  Q 719.08 406.84 719.18 496.10
  A 0.54 0.54 0.0 0 0 720.12 496.47
  Z
  M 981.95 405.96
  Q 981.10 406.24 980.55 406.81
  Q 980.03 407.35 936.08 458.59
  Q 920.61 476.62 918.33 479.34
  Q 905.18 495.04 891.91 510.21
  A 4.83 4.76 65.9 0 0 890.73 513.37
  Q 890.88 652.01 890.67 677.94
  Q 890.62 684.19 891.67 686.46
  Q 893.49 690.37 897.56 692.71
  Q 900.15 694.20 907.74 694.16
  Q 930.89 694.06 964.00 694.27
  C 971.89 694.31 979.11 694.40 982.49 686.03
  C 984.01 682.28 983.57 678.57 983.56 673.00
  Q 983.37 528.08 983.47 407.06
  A 1.16 1.16 0.0 0 0 981.95 405.96
  Z
  M 677.93 542.98
  A 1.56 1.56 0.0 0 0 679.72 542.53
  Q 689.93 530.45 697.63 520.11
  Q 698.51 518.93 698.52 516.26
  Q 698.53 457.15 698.53 457.05
  Q 698.82 450.44 697.14 447.19
  Q 694.03 441.20 687.62 439.48
  A 5.75 5.66 51.8 0 0 686.20 439.30
  Q 652.98 439.44 623.92 439.27
  Q 617.50 439.23 614.80 440.44
  C 608.09 443.41 606.57 448.15 606.70 455.56
  Q 606.80 461.90 606.69 490.25
  A 3.48 3.36 -54.0 0 0 606.84 491.32
  Q 607.61 494.01 609.22 495.14
  C 625.60 506.63 636.23 513.73 648.98 522.96
  C 657.33 529.00 665.94 534.45 675.09 541.30
  Q 676.67 542.48 677.93 542.98
  Z
  M 869.92 539.51
  A 1.56 1.56 0.0 0 0 867.27 539.00
  Q 853.88 554.53 852.15 556.64
  Q 841.49 569.65 829.11 583.86
  Q 825.22 588.33 796.85 622.10
  Q 785.67 635.40 780.25 641.25
  Q 778.05 643.63 778.06 644.96
  Q 778.12 652.03 777.94 677.02
  C 777.89 684.18 778.44 689.25 784.52 692.68
  Q 787.59 694.42 796.00 694.18
  Q 801.61 694.02 850.77 694.25
  Q 860.28 694.29 863.50 692.61
  Q 870.08 689.16 870.05 680.48
  Q 869.79 607.88 870.07 540.19
  A 1.10 1.04 37.2 0 0 870.00 539.76
  L 869.92 539.51
  Z"
/>
<path fill="#246dba" d="
  M 1076.22 255.72
  C 1075.54 257.06 1074.10 258.12 1072.68 259.77
  C 1058.51 276.34 1031.74 308.71 1008.59 335.62
  Q 1001.97 343.30 989.88 357.90
  Q 989.78 358.02 956.10 398.08
  Q 948.11 407.59 946.02 410.04
  C 922.03 438.27 897.06 467.55 871.43 497.94
  Q 723.46 673.39 722.57 674.47
  Q 717.97 680.04 714.47 682.56
  C 707.55 687.55 699.68 691.85 691.34 693.70
  Q 685.46 695.01 677.11 695.11
  Q 660.65 695.32 645.76 686.25
  Q 641.34 683.56 638.29 680.58
  Q 623.26 665.92 606.88 649.41
  C 600.28 642.76 594.94 637.97 589.36 631.86
  Q 589.05 631.52 581.87 624.38
  Q 578.46 620.99 449.93 494.03
  A 0.53 0.53 0.0 0 1 450.30 493.12
  Q 548.39 493.10 548.63 493.10
  Q 559.50 492.76 565.75 494.58
  Q 575.90 497.53 582.20 502.33
  Q 591.72 509.59 595.49 512.08
  Q 603.10 517.10 609.00 521.51
  C 616.14 526.85 623.82 531.89 630.52 537.09
  C 641.35 545.49 653.98 553.74 665.95 562.44
  Q 677.02 570.48 683.58 575.52
  A 0.92 0.91 -51.0 0 0 684.84 575.38
  Q 686.76 573.10 693.52 564.79
  Q 720.66 531.42 760.30 483.06
  Q 761.48 481.62 764.57 477.81
  Q 770.41 470.64 776.57 462.90
  Q 780.91 457.46 787.05 450.21
  Q 792.38 443.93 797.53 437.50
  Q 813.48 417.63 890.53 321.55
  C 901.43 307.95 911.91 294.68 921.67 281.68
  Q 928.98 271.97 932.23 269.15
  C 939.94 262.49 949.70 257.81 959.63 255.92
  Q 963.37 255.20 973.90 255.24
  Q 1018.01 255.42 1075.95 255.28
  A 0.30 0.30 0.0 0 1 1076.22 255.72
  Z"
/>
<path fill="#246dba" d="
  M 720.12 496.47
  A 0.54 0.54 0.0 0 1 719.18 496.10
  Q 719.08 406.84 719.18 377.75
  C 719.19 371.95 722.53 367.73 727.60 365.90
  Q 729.99 365.04 735.03 365.04
  Q 793.59 365.07 798.05 365.03
  Q 805.48 364.97 809.17 371.03
  C 811.12 374.23 810.66 376.43 810.56 380.77
  Q 810.48 384.21 809.57 386.39
  A 3.36 3.31 75.5 0 1 809.13 387.15
  C 801.91 396.57 791.91 408.00 784.04 418.42
  C 779.82 423.99 776.13 428.00 771.55 433.75
  Q 756.94 452.07 721.66 494.64
  Q 720.24 496.35 720.12 496.47
  Z"
/>
<path fill="#246dba" d="
  M 981.95 405.96
  A 1.16 1.16 0.0 0 1 983.47 407.06
  Q 983.37 528.08 983.56 673.00
  C 983.57 678.57 984.01 682.28 982.49 686.03
  C 979.11 694.40 971.89 694.31 964.00 694.27
  Q 930.89 694.06 907.74 694.16
  Q 900.15 694.20 897.56 692.71
  Q 893.49 690.37 891.67 686.46
  Q 890.62 684.19 890.67 677.94
  Q 890.88 652.01 890.73 513.37
  A 4.83 4.76 65.9 0 1 891.91 510.21
  Q 905.18 495.04 918.33 479.34
  Q 920.61 476.62 936.08 458.59
  Q 980.03 407.35 980.55 406.81
  Q 981.10 406.24 981.95 405.96
  Z"
/>
<path fill="#246dba" d="
  M 677.93 542.98
  Q 676.67 542.48 675.09 541.30
  C 665.94 534.45 657.33 529.00 648.98 522.96
  C 636.23 513.73 625.60 506.63 609.22 495.14
  Q 607.61 494.01 606.84 491.32
  A 3.48 3.36 -54.0 0 1 606.69 490.25
  Q 606.80 461.90 606.70 455.56
  C 606.57 448.15 608.09 443.41 614.80 440.44
  Q 617.50 439.23 623.92 439.27
  Q 652.98 439.44 686.20 439.30
  A 5.75 5.66 51.8 0 1 687.62 439.48
  Q 694.03 441.20 697.14 447.19
  Q 698.82 450.44 698.53 457.05
  Q 698.53 457.15 698.52 516.26
  Q 698.51 518.93 697.63 520.11
  Q 689.93 530.45 679.72 542.53
  A 1.56 1.56 0.0 0 1 677.93 542.98
  Z"
/>
<path fill="#246dba" d="
  M 869.92 539.51
  L 870.00 539.76
  A 1.10 1.04 37.2 0 1 870.07 540.19
  Q 869.79 607.88 870.05 680.48
  Q 870.08 689.16 863.50 692.61
  Q 860.28 694.29 850.77 694.25
  Q 801.61 694.02 796.00 694.18
  Q 787.59 694.42 784.52 692.68
  C 778.44 689.25 777.89 684.18 777.94 677.02
  Q 778.12 652.03 778.06 644.96
  Q 778.05 643.63 780.25 641.25
  Q 785.67 635.40 796.85 622.10
  Q 825.22 588.33 829.11 583.86
  Q 841.49 569.65 852.15 556.64
  Q 853.88 554.53 867.27 539.00
  A 1.56 1.56 0.0 0 1 869.92 539.51
  Z"
/>
</svg>
