<?xml version="1.0" encoding="UTF-8" standalone="no"?>
<!DOCTYPE svg PUBLIC "-//W3C//DTD SVG 1.1//EN" "http://www.w3.org/Graphics/SVG/1.1/DTD/svg11.dtd">
<svg xmlns="http://www.w3.org/2000/svg" version="1.1" viewBox="0.00 0.00 1536.00 1024.00">
<g stroke-width="2.00" fill="none" stroke-linecap="butt">
<path stroke="#8d8d8d" vector-effect="non-scaling-stroke" d="
  M 883.25 318.51
  Q 887.14 294.29 886.40 268.75
  Q 886.17 260.69 884.62 254.34
  C 882.06 243.91 876.27 232.39 867.83 226.14
  Q 859.31 219.83 848.69 218.89
  A 1.08 1.06 75.3 0 1 847.88 218.41
  C 847.15 217.28 846.30 215.45 845.17 214.11
  Q 839.36 207.20 832.29 202.21
  C 829.91 200.52 828.38 199.20 825.96 197.93
  Q 800.21 184.37 770.74 183.59
  Q 745.58 182.92 721.41 189.47
  Q 717.74 190.47 712.73 192.37
  Q 705.18 195.22 704.19 195.67
  Q 689.61 202.19 678.15 212.24
  Q 666.60 222.37 659.64 236.68
  Q 653.36 249.57 651.37 261.79
  C 649.61 272.65 649.74 286.62 650.43 296.82
  Q 650.90 303.85 652.59 318.60
  A 1.14 1.13 69.8 0 1 652.11 319.65
  C 647.30 322.90 643.57 325.83 640.68 331.41
  C 633.78 344.73 635.54 361.86 640.04 375.75
  Q 644.51 389.55 654.17 400.09
  Q 659.25 405.63 668.98 410.63
  A 1.03 1.01 8.6 0 1 669.52 411.35
  Q 671.94 424.86 676.20 433.82
  Q 681.22 444.35 685.95 451.60
  Q 689.67 457.29 699.57 468.14
  Q 701.37 470.10 710.99 478.78
  Q 716.88 484.10 723.21 487.74
  C 735.06 494.56 747.61 499.57 761.49 500.56
  Q 781.69 501.99 800.79 494.07
  Q 811.92 489.45 818.36 484.86
  Q 836.99 471.58 850.41 452.23
  Q 862.20 435.23 868.12 410.78
  A 1.00 0.97 -4.4 0 1 868.72 410.10
  C 878.86 406.07 886.84 396.59 891.39 387.21
  Q 900.80 367.82 899.67 346.58
  Q 899.33 340.21 895.48 331.35
  C 893.19 326.08 889.10 322.84 883.72 319.53
  A 1.00 1.00 0.0 0 1 883.25 318.51"
/>
<path stroke="#8d8d8d" vector-effect="non-scaling-stroke" d="
  M 829.85 602.13
  L 813.71 766.59
  A 0.77 0.77 0.0 0 1 812.99 767.29
  L 790.19 768.46
  A 0.35 0.35 0.0 0 1 789.82 768.11
  L 789.82 601.53
  A 1.79 1.79 0.0 0 1 790.38 600.23
  L 811.69 580.21
  A 1.16 1.15 -59.0 0 1 812.75 579.94
  Q 828.33 584.01 842.73 590.54
  Q 857.28 597.15 869.07 604.28
  A 1.91 1.87 60.7 0 0 870.02 604.56
  Q 873.24 604.64 873.99 601.75
  Q 883.48 565.03 884.76 527.00
  C 884.90 522.57 885.14 519.31 881.75 515.64
  Q 867.88 500.61 859.43 491.97
  Q 854.81 487.24 853.87 486.61
  C 849.45 483.65 843.31 484.12 840.22 489.02
  Q 839.02 490.93 838.86 495.59
  C 838.74 499.05 837.58 502.86 835.62 506.16
  Q 825.93 522.43 812.80 537.07
  Q 792.76 559.40 768.73 580.03
  A 1.41 1.41 0.0 0 1 766.88 580.02
  Q 751.00 566.02 735.94 550.78
  Q 729.55 544.31 723.81 537.79
  Q 715.74 528.62 712.33 524.00
  Q 708.93 519.38 700.84 507.22
  Q 697.46 502.13 697.11 498.61
  C 696.58 493.17 696.55 486.19 689.96 484.97
  C 684.89 484.03 680.92 486.89 677.61 490.35
  Q 659.16 509.62 653.92 515.66
  Q 651.37 518.60 651.12 520.58
  Q 650.67 524.05 650.99 532.26
  C 651.80 552.93 655.35 574.60 659.59 596.18
  C 660.57 601.21 661.70 606.99 668.29 603.34
  Q 683.07 595.16 689.40 592.16
  Q 705.45 584.55 722.02 579.69
  A 1.28 1.27 58.2 0 1 723.24 579.98
  L 745.35 600.29
  A 1.55 1.51 -69.3 0 1 745.84 601.42
  L 745.84 768.41
  A 0.29 0.29 0.0 0 1 745.53 768.70
  L 722.46 767.24
  A 0.58 0.57 88.8 0 1 721.93 766.72
  L 705.58 602.14
  A 0.38 0.38 0.0 0 0 705.05 601.83
  Q 692.40 606.96 678.84 614.64
  Q 672.17 618.41 665.57 621.84
  Q 660.37 624.54 655.46 621.55
  Q 652.13 619.52 651.14 617.12
  C 647.76 608.91 645.24 599.78 643.26 589.90
  Q 636.99 558.75 635.78 527.77
  A 0.76 0.75 -88.7 0 0 635.10 527.05
  C 634.55 526.99 633.35 527.93 632.41 528.28
  Q 583.11 546.19 539.59 562.88
  Q 538.76 563.20 532.69 565.38
  C 520.37 569.83 510.23 576.26 502.94 587.57
  Q 499.89 592.30 496.09 604.77
  Q 489.31 627.04 488.22 630.95
  Q 471.58 690.49 470.33 694.88
  Q 468.69 700.63 468.93 703.81
  C 469.60 712.44 478.72 718.67 485.86 722.65
  Q 500.21 730.65 516.43 737.74
  Q 581.20 766.06 653.31 779.44
  Q 676.41 783.72 692.36 785.63
  Q 719.70 788.91 755.90 790.17
  Q 768.82 790.62 786.08 789.85
  Q 812.23 788.68 816.26 788.32
  Q 901.26 780.61 978.56 753.77
  Q 983.19 752.16 1005.10 743.76
  C 1016.25 739.48 1024.99 735.04 1037.18 729.42
  Q 1046.45 725.16 1054.62 719.86
  C 1059.91 716.44 1066.05 711.27 1067.10 704.90
  C 1067.69 701.30 1065.56 694.96 1064.39 690.61
  Q 1055.36 657.19 1042.50 613.21
  Q 1040.03 604.74 1038.72 600.78
  Q 1036.18 593.10 1033.70 588.88
  C 1027.23 577.86 1016.90 570.49 1005.07 565.96
  Q 962.06 549.49 900.72 527.35
  A 0.47 0.46 -78.3 0 0 900.10 527.76
  C 898.50 555.75 895.45 581.61 887.82 607.63
  Q 885.87 614.29 884.76 616.98
  A 6.18 5.97 76.3 0 1 883.93 618.40
  Q 880.20 623.16 874.99 623.15
  Q 872.42 623.15 865.46 619.41
  Q 844.58 608.20 837.23 604.86
  Q 831.06 602.05 830.37 601.80
  A 0.39 0.39 0.0 0 0 829.85 602.13"
/>
<path stroke="#8d8d8d" vector-effect="non-scaling-stroke" d="
  M 702.75 281.80
  Q 699.81 284.22 695.87 289.64
  C 690.30 297.30 685.19 306.26 683.63 315.63
  Q 682.23 324.06 682.19 334.63
  Q 682.18 337.90 681.54 339.29
  C 680.58 341.37 677.79 343.41 675.36 342.64
  C 670.16 340.97 665.67 333.81 659.84 338.58
  Q 656.53 341.29 656.18 346.53
  C 655.16 361.63 659.57 377.71 670.49 388.57
  Q 674.71 392.77 679.40 393.54
  Q 682.87 394.12 683.90 395.13
  Q 686.16 397.37 686.64 399.12
  Q 687.55 402.51 689.36 412.12
  Q 689.68 413.81 690.60 416.14
  Q 692.49 420.88 695.23 428.28
  C 698.06 435.90 702.30 441.13 707.89 448.38
  Q 709.91 451.00 712.44 453.31
  Q 712.62 453.47 717.20 458.05
  C 728.79 469.62 747.99 480.81 765.54 481.05
  Q 773.24 481.15 774.49 480.98
  Q 794.60 478.33 810.73 465.85
  Q 824.14 455.46 833.53 442.22
  Q 846.07 424.54 849.88 401.13
  Q 850.50 397.31 851.36 396.13
  C 853.67 392.98 856.95 394.11 859.81 392.68
  Q 866.22 389.47 869.29 385.02
  Q 881.27 367.69 879.74 346.26
  Q 879.48 342.63 877.62 339.88
  C 873.90 334.39 868.35 337.31 864.43 340.44
  C 858.20 345.43 853.29 341.87 853.30 334.49
  C 853.32 324.23 853.38 314.70 849.96 305.04
  Q 848.39 300.60 838.91 282.91
  Q 834.93 275.48 832.76 270.98
  A 0.54 0.53 64.9 0 0 832.06 270.72
  Q 795.50 286.94 755.13 290.10
  Q 740.01 291.29 724.34 287.89
  Q 710.50 284.89 703.60 281.69
  A 0.81 0.78 -51.3 0 0 702.75 281.80"
/>
</g>
<path fill="#fefefe" d="
  M 1536.00 0.00
  L 1536.00 1024.00
  L 0.00 1024.00
  L 0.00 0.00
  L 1536.00 0.00
  Z
  M 883.25 318.51
  Q 887.14 294.29 886.40 268.75
  Q 886.17 260.69 884.62 254.34
  C 882.06 243.91 876.27 232.39 867.83 226.14
  Q 859.31 219.83 848.69 218.89
  A 1.08 1.06 75.3 0 1 847.88 218.41
  C 847.15 217.28 846.30 215.45 845.17 214.11
  Q 839.36 207.20 832.29 202.21
  C 829.91 200.52 828.38 199.20 825.96 197.93
  Q 800.21 184.37 770.74 183.59
  Q 745.58 182.92 721.41 189.47
  Q 717.74 190.47 712.73 192.37
  Q 705.18 195.22 704.19 195.67
  Q 689.61 202.19 678.15 212.24
  Q 666.60 222.37 659.64 236.68
  Q 653.36 249.57 651.37 261.79
  C 649.61 272.65 649.74 286.62 650.43 296.82
  Q 650.90 303.85 652.59 318.60
  A 1.14 1.13 69.8 0 1 652.11 319.65
  C 647.30 322.90 643.57 325.83 640.68 331.41
  C 633.78 344.73 635.54 361.86 640.04 375.75
  Q 644.51 389.55 654.17 400.09
  Q 659.25 405.63 668.98 410.63
  A 1.03 1.01 8.6 0 1 669.52 411.35
  Q 671.94 424.86 676.20 433.82
  Q 681.22 444.35 685.95 451.60
  Q 689.67 457.29 699.57 468.14
  Q 701.37 470.10 710.99 478.78
  Q 716.88 484.10 723.21 487.74
  C 735.06 494.56 747.61 499.57 761.49 500.56
  Q 781.69 501.99 800.79 494.07
  Q 811.92 489.45 818.36 484.86
  Q 836.99 471.58 850.41 452.23
  Q 862.20 435.23 868.12 410.78
  A 1.00 0.97 -4.4 0 1 868.72 410.10
  C 878.86 406.07 886.84 396.59 891.39 387.21
  Q 900.80 367.82 899.67 346.58
  Q 899.33 340.21 895.48 331.35
  C 893.19 326.08 889.10 322.84 883.72 319.53
  A 1.00 1.00 0.0 0 1 883.25 318.51
  Z
  M 829.85 602.13
  L 813.71 766.59
  A 0.77 0.77 0.0 0 1 812.99 767.29
  L 790.19 768.46
  A 0.35 0.35 0.0 0 1 789.82 768.11
  L 789.82 601.53
  A 1.79 1.79 0.0 0 1 790.38 600.23
  L 811.69 580.21
  A 1.16 1.15 -59.0 0 1 812.75 579.94
  Q 828.33 584.01 842.73 590.54
  Q 857.28 597.15 869.07 604.28
  A 1.91 1.87 60.7 0 0 870.02 604.56
  Q 873.24 604.64 873.99 601.75
  Q 883.48 565.03 884.76 527.00
  C 884.90 522.57 885.14 519.31 881.75 515.64
  Q 867.88 500.61 859.43 491.97
  Q 854.81 487.24 853.87 486.61
  C 849.45 483.65 843.31 484.12 840.22 489.02
  Q 839.02 490.93 838.86 495.59
  C 838.74 499.05 837.58 502.86 835.62 506.16
  Q 825.93 522.43 812.80 537.07
  Q 792.76 559.40 768.73 580.03
  A 1.41 1.41 0.0 0 1 766.88 580.02
  Q 751.00 566.02 735.94 550.78
  Q 729.55 544.31 723.81 537.79
  Q 715.74 528.62 712.33 524.00
  Q 708.93 519.38 700.84 507.22
  Q 697.46 502.13 697.11 498.61
  C 696.58 493.17 696.55 486.19 689.96 484.97
  C 684.89 484.03 680.92 486.89 677.61 490.35
  Q 659.16 509.62 653.92 515.66
  Q 651.37 518.60 651.12 520.58
  Q 650.67 524.05 650.99 532.26
  C 651.80 552.93 655.35 574.60 659.59 596.18
  C 660.57 601.21 661.70 606.99 668.29 603.34
  Q 683.07 595.16 689.40 592.16
  Q 705.45 584.55 722.02 579.69
  A 1.28 1.27 58.2 0 1 723.24 579.98
  L 745.35 600.29
  A 1.55 1.51 -69.3 0 1 745.84 601.42
  L 745.84 768.41
  A 0.29 0.29 0.0 0 1 745.53 768.70
  L 722.46 767.24
  A 0.58 0.57 88.8 0 1 721.93 766.72
  L 705.58 602.14
  A 0.38 0.38 0.0 0 0 705.05 601.83
  Q 692.40 606.96 678.84 614.64
  Q 672.17 618.41 665.57 621.84
  Q 660.37 624.54 655.46 621.55
  Q 652.13 619.52 651.14 617.12
  C 647.76 608.91 645.24 599.78 643.26 589.90
  Q 636.99 558.75 635.78 527.77
  A 0.76 0.75 -88.7 0 0 635.10 527.05
  C 634.55 526.99 633.35 527.93 632.41 528.28
  Q 583.11 546.19 539.59 562.88
  Q 538.76 563.20 532.69 565.38
  C 520.37 569.83 510.23 576.26 502.94 587.57
  Q 499.89 592.30 496.09 604.77
  Q 489.31 627.04 488.22 630.95
  Q 471.58 690.49 470.33 694.88
  Q 468.69 700.63 468.93 703.81
  C 469.60 712.44 478.72 718.67 485.86 722.65
  Q 500.21 730.65 516.43 737.74
  Q 581.20 766.06 653.31 779.44
  Q 676.41 783.72 692.36 785.63
  Q 719.70 788.91 755.90 790.17
  Q 768.82 790.62 786.08 789.85
  Q 812.23 788.68 816.26 788.32
  Q 901.26 780.61 978.56 753.77
  Q 983.19 752.16 1005.10 743.76
  C 1016.25 739.48 1024.99 735.04 1037.18 729.42
  Q 1046.45 725.16 1054.62 719.86
  C 1059.91 716.44 1066.05 711.27 1067.10 704.90
  C 1067.69 701.30 1065.56 694.96 1064.39 690.61
  Q 1055.36 657.19 1042.50 613.21
  Q 1040.03 604.74 1038.72 600.78
  Q 1036.18 593.10 1033.70 588.88
  C 1027.23 577.86 1016.90 570.49 1005.07 565.96
  Q 962.06 549.49 900.72 527.35
  A 0.47 0.46 -78.3 0 0 900.10 527.76
  C 898.50 555.75 895.45 581.61 887.82 607.63
  Q 885.87 614.29 884.76 616.98
  A 6.18 5.97 76.3 0 1 883.93 618.40
  Q 880.20 623.16 874.99 623.15
  Q 872.42 623.15 865.46 619.41
  Q 844.58 608.20 837.23 604.86
  Q 831.06 602.05 830.37 601.80
  A 0.39 0.39 0.0 0 0 829.85 602.13
  Z"
/>
<path fill="#1c1c1c" d="
  M 883.72 319.53
  C 889.10 322.84 893.19 326.08 895.48 331.35
  Q 899.33 340.21 899.67 346.58
  Q 900.80 367.82 891.39 387.21
  C 886.84 396.59 878.86 406.07 868.72 410.10
  A 1.00 0.97 -4.4 0 0 868.12 410.78
  Q 862.20 435.23 850.41 452.23
  Q 836.99 471.58 818.36 484.86
  Q 811.92 489.45 800.79 494.07
  Q 781.69 501.99 761.49 500.56
  C 747.61 499.57 735.06 494.56 723.21 487.74
  Q 716.88 484.10 710.99 478.78
  Q 701.37 470.10 699.57 468.14
  Q 689.67 457.29 685.95 451.60
  Q 681.22 444.35 676.20 433.82
  Q 671.94 424.86 669.52 411.35
  A 1.03 1.01 8.6 0 0 668.98 410.63
  Q 659.25 405.63 654.17 400.09
  Q 644.51 389.55 640.04 375.75
  C 635.54 361.86 633.78 344.73 640.68 331.41
  C 643.57 325.83 647.30 322.90 652.11 319.65
  A 1.14 1.13 69.8 0 0 652.59 318.60
  Q 650.90 303.85 650.43 296.82
  C 649.74 286.62 649.61 272.65 651.37 261.79
  Q 653.36 249.57 659.64 236.68
  Q 666.60 222.37 678.15 212.24
  Q 689.61 202.19 704.19 195.67
  Q 705.18 195.22 712.73 192.37
  Q 717.74 190.47 721.41 189.47
  Q 745.58 182.92 770.74 183.59
  Q 800.21 184.37 825.96 197.93
  C 828.38 199.20 829.91 200.52 832.29 202.21
  Q 839.36 207.20 845.17 214.11
  C 846.30 215.45 847.15 217.28 847.88 218.41
  A 1.08 1.06 75.3 0 0 848.69 218.89
  Q 859.31 219.83 867.83 226.14
  C 876.27 232.39 882.06 243.91 884.62 254.34
  Q 886.17 260.69 886.40 268.75
  Q 887.14 294.29 883.25 318.51
  A 1.00 1.00 0.0 0 0 883.72 319.53
  Z
  M 702.75 281.80
  Q 699.81 284.22 695.87 289.64
  C 690.30 297.30 685.19 306.26 683.63 315.63
  Q 682.23 324.06 682.19 334.63
  Q 682.18 337.90 681.54 339.29
  C 680.58 341.37 677.79 343.41 675.36 342.64
  C 670.16 340.97 665.67 333.81 659.84 338.58
  Q 656.53 341.29 656.18 346.53
  C 655.16 361.63 659.57 377.71 670.49 388.57
  Q 674.71 392.77 679.40 393.54
  Q 682.87 394.12 683.90 395.13
  Q 686.16 397.37 686.64 399.12
  Q 687.55 402.51 689.36 412.12
  Q 689.68 413.81 690.60 416.14
  Q 692.49 420.88 695.23 428.28
  C 698.06 435.90 702.30 441.13 707.89 448.38
  Q 709.91 451.00 712.44 453.31
  Q 712.62 453.47 717.20 458.05
  C 728.79 469.62 747.99 480.81 765.54 481.05
  Q 773.24 481.15 774.49 480.98
  Q 794.60 478.33 810.73 465.85
  Q 824.14 455.46 833.53 442.22
  Q 846.07 424.54 849.88 401.13
  Q 850.50 397.31 851.36 396.13
  C 853.67 392.98 856.95 394.11 859.81 392.68
  Q 866.22 389.47 869.29 385.02
  Q 881.27 367.69 879.74 346.26
  Q 879.48 342.63 877.62 339.88
  C 873.90 334.39 868.35 337.31 864.43 340.44
  C 858.20 345.43 853.29 341.87 853.30 334.49
  C 853.32 324.23 853.38 314.70 849.96 305.04
  Q 848.39 300.60 838.91 282.91
  Q 834.93 275.48 832.76 270.98
  A 0.54 0.53 64.9 0 0 832.06 270.72
  Q 795.50 286.94 755.13 290.10
  Q 740.01 291.29 724.34 287.89
  Q 710.50 284.89 703.60 281.69
  A 0.81 0.78 -51.3 0 0 702.75 281.80
  Z"
/>
<path fill="#fefefe" d="
  M 703.60 281.69
  Q 710.50 284.89 724.34 287.89
  Q 740.01 291.29 755.13 290.10
  Q 795.50 286.94 832.06 270.72
  A 0.54 0.53 64.9 0 1 832.76 270.98
  Q 834.93 275.48 838.91 282.91
  Q 848.39 300.60 849.96 305.04
  C 853.38 314.70 853.32 324.23 853.30 334.49
  C 853.29 341.87 858.20 345.43 864.43 340.44
  C 868.35 337.31 873.90 334.39 877.62 339.88
  Q 879.48 342.63 879.74 346.26
  Q 881.27 367.69 869.29 385.02
  Q 866.22 389.47 859.81 392.68
  C 856.95 394.11 853.67 392.98 851.36 396.13
  Q 850.50 397.31 849.88 401.13
  Q 846.07 424.54 833.53 442.22
  Q 824.14 455.46 810.73 465.85
  Q 794.60 478.33 774.49 480.98
  Q 773.24 481.15 765.54 481.05
  C 747.99 480.81 728.79 469.62 717.20 458.05
  Q 712.62 453.47 712.44 453.31
  Q 709.91 451.00 707.89 448.38
  C 702.30 441.13 698.06 435.90 695.23 428.28
  Q 692.49 420.88 690.60 416.14
  Q 689.68 413.81 689.36 412.12
  Q 687.55 402.51 686.64 399.12
  Q 686.16 397.37 683.90 395.13
  Q 682.87 394.12 679.40 393.54
  Q 674.71 392.77 670.49 388.57
  C 659.57 377.71 655.16 361.63 656.18 346.53
  Q 656.53 341.29 659.84 338.58
  C 665.67 333.81 670.16 340.97 675.36 342.64
  C 677.79 343.41 680.58 341.37 681.54 339.29
  Q 682.18 337.90 682.19 334.63
  Q 682.23 324.06 683.63 315.63
  C 685.19 306.26 690.30 297.30 695.87 289.64
  Q 699.81 284.22 702.75 281.80
  A 0.81 0.78 -51.3 0 1 703.60 281.69
  Z"
/>
<path fill="#1c1c1c" d="
  M 830.37 601.80
  Q 831.06 602.05 837.23 604.86
  Q 844.58 608.20 865.46 619.41
  Q 872.42 623.15 874.99 623.15
  Q 880.20 623.16 883.93 618.40
  A 6.18 5.97 76.3 0 0 884.76 616.98
  Q 885.87 614.29 887.82 607.63
  C 895.45 581.61 898.50 555.75 900.10 527.76
  A 0.47 0.46 -78.3 0 1 900.72 527.35
  Q 962.06 549.49 1005.07 565.96
  C 1016.90 570.49 1027.23 577.86 1033.70 588.88
  Q 1036.18 593.10 1038.72 600.78
  Q 1040.03 604.74 1042.50 613.21
  Q 1055.36 657.19 1064.39 690.61
  C 1065.56 694.96 1067.69 701.30 1067.10 704.90
  C 1066.05 711.27 1059.91 716.44 1054.62 719.86
  Q 1046.45 725.16 1037.18 729.42
  C 1024.99 735.04 1016.25 739.48 1005.10 743.76
  Q 983.19 752.16 978.56 753.77
  Q 901.26 780.61 816.26 788.32
  Q 812.23 788.68 786.08 789.85
  Q 768.82 790.62 755.90 790.17
  Q 719.70 788.91 692.36 785.63
  Q 676.41 783.72 653.31 779.44
  Q 581.20 766.06 516.43 737.74
  Q 500.21 730.65 485.86 722.65
  C 478.72 718.67 469.60 712.44 468.93 703.81
  Q 468.69 700.63 470.33 694.88
  Q 471.58 690.49 488.22 630.95
  Q 489.31 627.04 496.09 604.77
  Q 499.89 592.30 502.94 587.57
  C 510.23 576.26 520.37 569.83 532.69 565.38
  Q 538.76 563.20 539.59 562.88
  Q 583.11 546.19 632.41 528.28
  C 633.35 527.93 634.55 526.99 635.10 527.05
  A 0.76 0.75 -88.7 0 1 635.78 527.77
  Q 636.99 558.75 643.26 589.90
  C 645.24 599.78 647.76 608.91 651.14 617.12
  Q 652.13 619.52 655.46 621.55
  Q 660.37 624.54 665.57 621.84
  Q 672.17 618.41 678.84 614.64
  Q 692.40 606.96 705.05 601.83
  A 0.38 0.38 0.0 0 1 705.58 602.14
  L 721.93 766.72
  A 0.58 0.57 88.8 0 0 722.46 767.24
  L 745.53 768.70
  A 0.29 0.29 0.0 0 0 745.84 768.41
  L 745.84 601.42
  A 1.55 1.51 -69.3 0 0 745.35 600.29
  L 723.24 579.98
  A 1.28 1.27 58.2 0 0 722.02 579.69
  Q 705.45 584.55 689.40 592.16
  Q 683.07 595.16 668.29 603.34
  C 661.70 606.99 660.57 601.21 659.59 596.18
  C 655.35 574.60 651.80 552.93 650.99 532.26
  Q 650.67 524.05 651.12 520.58
  Q 651.37 518.60 653.92 515.66
  Q 659.16 509.62 677.61 490.35
  C 680.92 486.89 684.89 484.03 689.96 484.97
  C 696.55 486.19 696.58 493.17 697.11 498.61
  Q 697.46 502.13 700.84 507.22
  Q 708.93 519.38 712.33 524.00
  Q 715.74 528.62 723.81 537.79
  Q 729.55 544.31 735.94 550.78
  Q 751.00 566.02 766.88 580.02
  A 1.41 1.41 0.0 0 0 768.73 580.03
  Q 792.76 559.40 812.80 537.07
  Q 825.93 522.43 835.62 506.16
  C 837.58 502.86 838.74 499.05 838.86 495.59
  Q 839.02 490.93 840.22 489.02
  C 843.31 484.12 849.45 483.65 853.87 486.61
  Q 854.81 487.24 859.43 491.97
  Q 867.88 500.61 881.75 515.64
  C 885.14 519.31 884.90 522.57 884.76 527.00
  Q 883.48 565.03 873.99 601.75
  Q 873.24 604.64 870.02 604.56
  A 1.91 1.87 60.7 0 1 869.07 604.28
  Q 857.28 597.15 842.73 590.54
  Q 828.33 584.01 812.75 579.94
  A 1.16 1.15 -59.0 0 0 811.69 580.21
  L 790.38 600.23
  A 1.79 1.79 0.0 0 0 789.82 601.53
  L 789.82 768.11
  A 0.35 0.35 0.0 0 0 790.19 768.46
  L 812.99 767.29
  A 0.77 0.77 0.0 0 0 813.71 766.59
  L 829.85 602.13
  A 0.39 0.39 0.0 0 1 830.37 601.80
  Z"
/>
</svg>
