<?xml version="1.0" encoding="UTF-8" standalone="no"?>
<!DOCTYPE svg PUBLIC "-//W3C//DTD SVG 1.1//EN" "http://www.w3.org/Graphics/SVG/1.1/DTD/svg11.dtd">
<svg xmlns="http://www.w3.org/2000/svg" version="1.1" viewBox="0.00 0.00 1536.00 1024.00">
<path fill="#252526" d="
  M 881.33 244.49
  Q 883.92 251.25 884.89 258.51
  Q 885.47 262.78 885.79 263.85
  A 2.78 2.65 37.3 0 1 885.90 264.54
  Q 886.11 270.53 885.97 278.91
  Q 885.91 282.76 885.44 284.82
  C 884.86 287.33 885.06 289.60 884.57 292.67
  Q 882.58 305.20 880.93 313.25
  Q 880.22 316.76 882.95 318.29
  C 893.08 323.97 902.00 333.94 903.91 345.76
  Q 906.16 359.63 899.89 372.19
  C 895.27 381.43 888.11 387.81 879.64 393.86
  Q 875.77 396.63 871.82 398.76
  A 3.03 3.03 0.0 0 0 870.32 400.65
  Q 864.65 421.67 854.15 439.39
  Q 836.86 468.59 810.14 487.35
  Q 797.47 496.24 783.17 500.05
  Q 779.75 500.96 777.73 501.04
  C 774.96 501.14 772.98 501.79 770.38 501.70
  Q 759.05 501.31 750.99 498.52
  Q 737.11 493.70 724.65 484.36
  Q 716.72 478.41 711.07 472.94
  Q 695.66 458.03 685.06 439.95
  Q 677.71 427.39 673.67 417.86
  Q 670.40 410.15 668.28 401.53
  A 4.49 4.46 6.6 0 0 665.94 398.60
  Q 657.93 394.57 651.93 389.56
  Q 642.53 381.71 636.97 370.96
  C 635.92 368.93 635.25 365.73 634.44 363.95
  A 3.59 3.33 30.7 0 1 634.16 363.00
  Q 633.16 355.77 633.09 354.99
  Q 632.27 346.02 635.56 338.04
  C 639.29 329.05 645.72 323.48 653.35 317.40
  A 4.04 4.03 -16.0 0 0 654.85 314.70
  Q 655.07 312.83 654.57 310.83
  C 653.95 308.35 654.17 306.86 653.43 304.58
  Q 652.97 303.14 651.88 295.78
  C 651.59 293.84 651.05 292.20 650.99 289.94
  C 650.93 287.03 650.19 284.92 650.10 282.12
  Q 649.79 273.10 650.10 262.90
  A 12.34 12.16 52.3 0 1 650.38 260.59
  Q 650.99 257.86 651.15 255.02
  Q 651.43 249.99 654.59 240.58
  Q 662.20 217.88 679.39 204.40
  Q 682.27 202.13 682.64 201.82
  Q 684.28 200.44 685.96 199.34
  Q 707.86 185.04 734.01 181.02
  Q 738.94 180.26 744.32 179.60
  Q 748.97 179.03 754.69 178.98
  Q 767.98 178.87 776.52 179.18
  Q 777.06 179.20 779.51 179.75
  A 5.74 5.50 49.8 0 0 780.84 179.89
  Q 784.31 179.87 788.38 180.85
  Q 788.98 181.00 790.45 181.06
  Q 791.32 181.09 792.50 181.30
  Q 818.06 185.79 840.28 198.24
  Q 858.54 208.47 870.81 224.91
  Q 874.18 229.43 876.79 234.32
  Q 879.04 238.53 881.33 244.49
  Z
  M 849.14 403.33
  Q 850.71 398.13 851.39 395.47
  C 852.72 390.36 855.04 386.83 859.20 384.45
  Q 866.21 380.44 870.78 376.88
  Q 875.85 372.94 878.50 369.41
  Q 882.55 364.01 883.76 360.05
  Q 888.59 344.26 873.76 337.43
  Q 871.92 336.58 863.04 333.44
  C 854.85 330.54 850.03 324.13 848.69 315.48
  C 848.01 311.12 847.47 307.48 847.16 304.06
  Q 846.23 293.71 844.54 287.18
  C 842.72 280.18 838.07 272.22 830.19 272.57
  Q 824.70 272.82 823.48 273.00
  A 6.85 6.56 30.3 0 0 822.52 273.23
  Q 812.80 276.43 811.01 277.26
  Q 795.14 284.60 778.30 287.12
  Q 772.32 288.02 765.82 288.01
  Q 755.36 288.01 753.26 287.80
  Q 748.57 287.35 739.54 285.70
  Q 732.99 284.50 727.59 282.86
  Q 722.32 281.26 715.80 279.43
  Q 708.59 277.40 701.48 277.94
  A 3.34 3.23 -57.3 0 0 700.51 278.17
  C 693.90 280.89 690.65 289.70 690.11 296.28
  C 689.86 299.19 689.29 301.33 689.13 303.95
  Q 688.64 311.80 687.62 316.95
  Q 685.79 326.18 677.96 331.34
  Q 675.63 332.87 669.67 335.01
  Q 663.68 337.16 661.28 338.47
  Q 656.34 341.18 653.46 346.86
  A 3.05 3.01 -29.4 0 0 653.14 347.98
  Q 652.44 354.85 653.15 357.43
  Q 655.99 367.76 664.37 374.90
  Q 670.86 380.43 676.03 383.05
  C 684.43 387.30 685.83 393.14 688.02 401.23
  Q 688.91 404.52 690.55 408.53
  Q 703.57 440.41 730.24 463.39
  Q 732.95 465.72 738.48 469.37
  C 751.86 478.21 768.04 483.39 783.80 477.76
  Q 795.66 473.52 804.45 466.61
  Q 833.08 444.11 847.01 409.51
  Q 848.06 406.91 849.14 403.33
  Z"
/>
<path fill="#252526" d="
  M 707.82 614.40
  C 708.68 615.49 709.65 618.99 709.86 621.09
  Q 710.33 625.86 711.27 633.24
  Q 712.85 645.55 714.93 664.50
  Q 715.38 668.62 715.65 670.23
  C 716.09 672.77 715.95 674.84 716.38 677.88
  Q 717.67 686.96 719.18 700.98
  Q 720.54 713.62 722.01 727.27
  Q 722.29 729.88 722.71 732.19
  C 723.16 734.63 722.83 736.65 723.40 739.22
  C 724.17 742.72 723.83 746.62 724.76 750.47
  A 5.54 5.27 -53.0 0 1 724.92 751.86
  Q 724.88 755.28 725.64 758.42
  A 10.11 9.97 38.3 0 1 725.93 760.73
  C 725.99 768.13 727.68 775.78 736.23 776.05
  A 3.11 3.07 -54.4 0 0 737.45 775.84
  Q 741.62 774.25 743.54 770.91
  A 3.83 3.82 -30.3 0 0 744.04 769.02
  Q 744.06 687.49 744.03 616.26
  Q 744.02 614.35 742.02 610.98
  Q 731.83 593.85 713.16 588.34
  Q 711.06 587.73 704.89 588.13
  A 1.66 1.63 24.5 0 0 704.01 588.45
  Q 703.98 588.48 703.96 588.49
  A 0.84 0.84 0.0 0 1 703.53 588.72
  Q 697.89 589.96 694.40 591.42
  Q 682.90 596.26 674.94 599.46
  C 668.74 601.95 661.99 602.36 658.21 595.80
  Q 656.77 593.29 655.49 589.53
  Q 652.16 579.66 650.51 571.27
  Q 648.64 561.81 648.35 561.00
  C 647.90 559.80 647.99 557.61 647.60 555.94
  Q 646.27 550.27 645.09 539.01
  Q 643.63 525.20 653.54 515.96
  A 4.08 3.73 87.4 0 0 654.14 515.24
  Q 656.82 511.04 660.09 502.81
  Q 661.95 498.12 665.35 493.35
  C 668.34 489.16 673.56 485.30 678.88 486.08
  C 684.86 486.96 689.03 490.76 692.71 495.53
  C 695.61 499.28 697.69 504.23 700.25 510.48
  Q 704.33 520.45 708.30 526.27
  Q 718.74 541.61 733.05 554.46
  Q 740.58 561.22 748.06 565.92
  Q 752.11 568.47 757.59 570.45
  Q 766.91 573.82 775.78 570.47
  Q 783.58 567.53 792.30 560.57
  Q 806.68 549.09 818.15 534.39
  Q 825.93 524.43 829.56 514.86
  Q 834.39 502.14 837.92 495.94
  A 4.92 4.73 81.8 0 1 838.53 495.09
  C 842.79 490.19 843.77 488.83 849.62 486.22
  A 2.93 2.70 -55.8 0 1 850.65 485.98
  Q 859.07 485.72 864.62 492.20
  Q 870.60 499.19 873.71 509.16
  A 7.87 7.55 23.8 0 0 874.22 510.40
  Q 876.34 514.40 878.93 517.20
  Q 882.34 520.87 883.80 523.44
  Q 888.26 531.27 886.97 540.99
  Q 883.88 564.39 878.02 587.02
  Q 876.78 591.81 874.85 595.30
  Q 871.02 602.25 863.40 601.03
  C 861.77 600.77 860.48 600.00 858.91 599.86
  A 3.08 2.74 -28.3 0 1 858.11 599.67
  Q 850.54 596.65 837.68 591.13
  C 835.36 590.14 832.29 589.21 829.56 588.43
  Q 826.22 587.48 822.24 588.27
  Q 813.78 589.94 806.74 595.24
  Q 798.17 601.69 792.66 610.98
  A 5.92 5.85 -21.5 0 0 792.12 612.20
  L 791.27 614.91
  A 2.23 2.07 55.4 0 0 791.18 615.53
  Q 791.36 724.79 791.21 764.76
  Q 791.17 772.99 798.30 775.72
  A 3.71 3.61 57.9 0 0 799.29 775.96
  Q 805.90 776.70 809.37 770.98
  A 3.35 3.05 -23.9 0 0 809.73 770.16
  Q 811.04 765.70 811.02 762.22
  C 810.98 757.80 812.03 754.37 812.04 749.52
  A 7.41 7.37 52.3 0 1 812.27 747.69
  C 813.30 743.78 812.79 739.58 813.65 735.41
  Q 814.10 733.23 814.11 729.61
  A 5.57 5.48 52.1 0 1 814.26 728.33
  C 815.12 724.67 814.72 720.18 815.65 716.45
  C 816.15 714.46 815.98 712.24 816.29 709.53
  Q 818.08 693.74 820.02 673.34
  Q 820.36 669.71 820.68 668.18
  C 821.16 665.86 820.94 663.75 821.26 661.28
  Q 822.17 654.15 824.06 636.25
  C 824.44 632.71 825.14 629.46 825.08 625.96
  A 5.78 5.76 52.0 0 1 825.28 624.31
  Q 825.86 622.18 826.11 619.55
  C 826.45 615.89 828.27 611.08 832.72 610.90
  Q 837.61 610.71 841.73 612.75
  Q 856.42 620.05 857.88 620.60
  C 861.02 621.77 863.90 623.24 867.18 623.17
  C 877.52 622.96 884.83 606.40 887.49 598.25
  Q 892.28 583.65 895.46 567.70
  Q 899.43 547.73 900.52 541.04
  Q 901.43 535.40 902.40 532.70
  Q 903.17 530.55 905.43 529.57
  Q 906.70 529.01 909.54 530.73
  Q 923.38 539.12 931.42 542.61
  Q 955.22 552.93 966.24 556.64
  Q 975.86 559.89 980.43 561.31
  C 987.51 563.52 995.00 565.95 1003.42 568.14
  Q 1008.54 569.48 1018.35 572.40
  Q 1022.77 573.71 1024.80 575.31
  Q 1028.15 577.95 1029.63 580.59
  Q 1031.02 583.07 1031.67 584.08
  A 6.23 5.54 21.1 0 1 1032.13 584.97
  Q 1040.45 605.24 1042.49 610.99
  Q 1057.58 653.36 1070.86 701.33
  Q 1072.62 707.68 1067.78 712.27
  Q 1064.75 715.14 1062.37 716.60
  Q 1044.55 727.53 1032.05 733.51
  Q 1016.92 740.75 1010.96 743.44
  Q 999.29 748.69 987.11 753.38
  Q 987.04 753.41 981.40 755.67
  Q 977.98 757.05 973.95 758.45
  Q 952.71 765.84 947.39 767.40
  Q 917.48 776.16 905.97 778.90
  Q 902.41 779.75 884.48 783.71
  C 883.12 784.01 881.71 783.97 880.50 784.23
  Q 872.86 785.91 857.90 788.53
  Q 855.31 788.98 854.72 788.98
  C 852.07 788.97 849.88 790.04 847.26 790.00
  C 845.08 789.96 843.56 790.98 841.58 790.93
  Q 839.29 790.87 836.47 791.46
  C 832.38 792.31 829.03 791.64 825.06 792.63
  A 6.07 5.55 34.6 0 1 823.83 792.80
  Q 818.37 792.92 814.95 793.36
  C 808.64 794.18 802.56 793.87 796.43 794.41
  Q 790.32 794.96 786.84 794.98
  Q 767.07 795.09 752.26 794.94
  C 745.85 794.87 739.69 793.84 733.28 793.98
  C 730.21 794.05 726.72 793.39 723.49 793.13
  Q 707.67 791.87 691.55 789.41
  C 688.54 788.95 686.19 789.19 683.76 788.34
  A 4.07 3.98 -32.6 0 0 682.75 788.13
  Q 680.54 787.99 676.24 787.20
  Q 647.40 781.91 627.76 777.01
  Q 610.90 772.80 592.82 767.46
  C 580.90 763.94 571.32 760.43 556.92 755.26
  Q 522.71 742.97 490.41 725.83
  Q 478.99 719.78 471.06 714.46
  Q 467.78 712.25 465.64 707.53
  A 2.78 2.77 37.3 0 1 465.43 705.99
  C 465.85 703.24 465.88 701.63 466.48 699.37
  Q 475.36 665.59 487.51 628.01
  Q 494.95 604.97 502.11 587.84
  Q 503.40 584.74 505.39 581.14
  C 508.24 575.97 511.98 573.66 518.02 571.96
  Q 518.04 571.95 530.11 568.57
  Q 552.33 562.34 574.21 554.21
  Q 588.92 548.75 603.87 541.36
  Q 613.16 536.77 620.42 531.90
  C 622.24 530.68 624.58 529.20 626.65 530.01
  Q 629.35 531.07 629.77 533.27
  Q 632.16 545.80 636.47 566.79
  Q 637.84 573.43 641.94 588.02
  Q 644.71 597.88 648.89 606.87
  C 651.87 613.30 656.44 619.67 662.98 622.76
  C 665.13 623.78 669.16 622.81 672.44 621.78
  Q 674.21 621.23 676.94 619.96
  Q 689.27 614.28 694.50 612.05
  Q 698.61 610.29 703.76 611.06
  A 2.23 2.18 -20.7 0 1 704.81 611.52
  Q 706.81 613.12 707.82 614.40
  Z"
/>
</svg>
