<?xml version="1.0" encoding="UTF-8" standalone="no"?>
<!DOCTYPE svg PUBLIC "-//W3C//DTD SVG 1.1//EN" "http://www.w3.org/Graphics/SVG/1.1/DTD/svg11.dtd">
<svg xmlns="http://www.w3.org/2000/svg" version="1.1" viewBox="0.00 0.00 1536.00 1024.00">
<g stroke-width="2.00" fill="none" stroke-linecap="butt">
<path stroke="#9ab8dd" vector-effect="non-scaling-stroke" d="
  M 1102.02 229.55
  C 1069.07 229.12 1034.21 228.41 998.53 227.87
  Q 990.15 227.74 985.07 229.16
  Q 976.66 231.51 968.43 237.52
  Q 963.74 240.95 956.06 251.41
  Q 953.63 254.73 932.95 280.45
  Q 911.90 306.61 772.20 482.95
  Q 769.21 486.72 766.80 489.23
  A 0.85 0.84 -48.7 0 1 765.66 489.31
  Q 765.06 488.82 758.34 483.38
  Q 739.00 467.74 721.31 453.48
  Q 711.95 445.93 702.72 438.05
  Q 692.54 429.36 677.73 429.23
  Q 662.58 429.09 575.99 429.12
  Q 569.16 429.12 567.74 434.00
  C 566.59 437.95 567.92 441.42 570.87 444.28
  Q 595.83 468.51 630.98 503.68
  C 666.52 539.23 680.15 552.60 715.18 587.57
  C 724.09 596.48 737.15 604.35 749.99 606.98
  Q 781.83 613.48 808.34 596.12
  C 811.20 594.24 813.93 591.58 816.80 589.32
  Q 818.92 587.64 822.36 583.39
  Q 828.86 575.37 837.07 564.55
  Q 842.87 556.91 876.78 514.27
  Q 893.76 492.91 901.56 482.94
  C 906.10 477.13 909.86 472.70 913.80 467.59
  Q 920.76 458.54 922.81 455.98
  Q 949.04 423.24 978.28 386.15
  C 979.68 384.38 981.07 381.89 982.80 380.22
  C 985.50 377.60 987.76 373.90 990.52 370.53
  Q 1000.32 358.57 1010.99 344.96
  Q 1024.94 327.16 1031.35 319.31
  C 1040.75 307.80 1049.63 296.13 1060.19 283.16
  Q 1069.91 271.23 1075.49 263.98
  Q 1079.81 258.39 1102.34 230.22
  A 0.41 0.41 0.0 0 0 1102.02 229.55"
/>
<path stroke="#9ab8dd" vector-effect="non-scaling-stroke" d="
  M 662.45 555.17
  L 625.02 517.22
  A 1.35 0.94 73.7 0 0 624.81 517.05
  Q 608.07 505.99 597.22 496.79
  Q 581.20 483.22 566.50 465.53
  C 563.38 461.77 560.43 456.89 557.06 452.59
  Q 550.58 444.33 545.79 434.73
  A 2.50 2.33 28.9 0 1 545.55 434.00
  L 544.93 430.10
  A 2.34 2.28 -67.0 0 0 544.58 429.20
  C 543.25 427.24 541.74 425.16 541.03 423.57
  Q 531.43 401.95 527.35 387.44
  Q 515.71 346.07 515.06 301.79
  A 0.25 0.25 0.0 0 1 515.31 301.54
  L 576.07 301.54
  A 0.40 0.40 0.0 0 1 576.47 301.92
  Q 577.51 317.97 580.12 335.12
  Q 585.60 371.13 596.06 406.95
  A 0.84 0.82 -7.8 0 0 596.86 407.54
  Q 652.10 407.59 678.24 407.57
  C 690.08 407.56 704.05 410.91 713.15 418.42
  Q 726.30 429.25 739.73 440.04
  Q 753.00 450.70 762.92 459.19
  A 0.43 0.43 0.0 0 0 763.53 459.13
  C 769.56 451.60 773.16 446.82 777.10 441.87
  Q 821.32 386.25 834.81 368.85
  Q 835.35 368.16 841.07 361.09
  Q 859.25 338.61 896.11 292.06
  Q 898.98 288.43 899.13 288.21
  C 901.46 284.80 904.03 282.31 906.86 278.71
  Q 914.07 269.55 920.83 261.74
  A 1.53 1.46 -24.7 0 0 921.19 260.83
  Q 921.72 251.37 922.13 245.75
  C 922.64 238.54 922.60 231.73 914.96 229.41
  A 1.01 0.86 49.7 0 0 914.66 229.36
  L 581.45 229.36
  A 4.73 4.69 -53.4 0 0 580.06 229.57
  C 574.64 231.25 572.50 235.91 573.10 241.90
  Q 573.19 242.86 573.92 266.14
  A 0.37 0.36 -0.8 0 1 573.55 266.51
  Q 529.57 266.36 493.27 266.55
  C 485.54 266.60 479.51 272.07 479.39 279.98
  C 478.76 320.54 482.90 360.18 494.03 398.87
  C 503.66 432.31 520.80 465.76 544.84 491.93
  Q 565.93 514.88 593.90 530.34
  Q 623.67 546.78 656.46 554.54
  Q 659.43 555.24 662.19 555.67
  A 0.30 0.30 0.0 0 0 662.45 555.17"
/>
<path stroke="#9ab8dd" vector-effect="non-scaling-stroke" d="
  M 1054.65 325.75
  A 0.41 0.40 65.9 0 0 1053.91 325.46
  C 1050.25 330.94 1045.33 336.25 1041.57 341.04
  Q 1021.72 366.34 1017.54 371.30
  Q 1017.30 371.59 1011.10 378.83
  A 2.38 2.34 73.6 0 0 1010.64 379.69
  Q 1001.96 409.88 987.34 436.72
  C 985.67 439.79 983.00 443.50 981.07 446.92
  Q 978.62 451.26 976.30 454.52
  Q 963.56 472.39 952.96 482.98
  Q 945.41 490.52 936.32 498.06
  Q 918.98 512.42 899.70 522.29
  C 898.99 522.66 897.37 523.07 896.48 523.43
  A 0.78 0.77 -81.4 0 0 896.12 523.70
  L 871.15 555.34
  A 0.41 0.40 -76.8 0 0 871.55 555.99
  Q 899.46 550.08 925.29 538.29
  C 946.68 528.54 966.94 515.40 983.59 498.76
  Q 993.71 488.66 997.43 483.94
  Q 1008.18 470.34 1011.66 464.68
  Q 1019.49 451.98 1023.53 444.07
  C 1038.05 415.62 1046.72 384.70 1051.77 352.76
  Q 1053.06 344.60 1054.11 330.00
  Q 1054.13 329.70 1054.65 325.75"
/>
<path stroke="#9ab8dd" vector-effect="non-scaling-stroke" d="
  M 726.03 618.93
  A 0.23 0.22 -65.7 0 0 725.67 619.07
  C 719.29 656.77 705.61 693.97 686.21 726.98
  A 0.76 0.74 -74.2 0 1 685.57 727.35
  Q 655.97 727.39 635.55 727.32
  Q 628.15 727.30 625.68 735.02
  A 3.22 3.18 -35.9 0 0 625.53 735.92
  Q 625.19 758.15 623.91 781.52
  Q 623.65 786.27 624.49 787.97
  C 627.42 793.91 630.88 794.11 638.12 794.10
  Q 715.08 794.06 898.50 794.08
  C 900.93 794.09 904.50 794.30 906.64 792.88
  Q 910.36 790.41 911.32 785.92
  A 3.49 3.46 49.9 0 0 911.39 785.05
  Q 909.44 741.09 909.46 739.85
  C 909.56 733.75 907.44 729.03 901.65 727.55
  A 3.04 2.67 -34.6 0 0 900.97 727.47
  L 849.43 727.32
  A 0.70 0.69 -15.0 0 1 848.83 726.98
  Q 838.46 709.46 829.67 688.11
  Q 816.10 655.15 809.43 619.96
  A 0.58 0.57 70.2 0 0 808.59 619.56
  Q 787.71 630.79 763.62 629.90
  Q 747.61 629.31 731.72 622.31
  Q 728.55 620.91 726.03 618.93"
/>
</g>
<path fill="#ffffff" d="
  M 1536.00 0.00
  L 1536.00 1024.00
  L 0.00 1024.00
  L 0.00 0.00
  L 1536.00 0.00
  Z
  M 1102.02 229.55
  C 1069.07 229.12 1034.21 228.41 998.53 227.87
  Q 990.15 227.74 985.07 229.16
  Q 976.66 231.51 968.43 237.52
  Q 963.74 240.95 956.06 251.41
  Q 953.63 254.73 932.95 280.45
  Q 911.90 306.61 772.20 482.95
  Q 769.21 486.72 766.80 489.23
  A 0.85 0.84 -48.7 0 1 765.66 489.31
  Q 765.06 488.82 758.34 483.38
  Q 739.00 467.74 721.31 453.48
  Q 711.95 445.93 702.72 438.05
  Q 692.54 429.36 677.73 429.23
  Q 662.58 429.09 575.99 429.12
  Q 569.16 429.12 567.74 434.00
  C 566.59 437.95 567.92 441.42 570.87 444.28
  Q 595.83 468.51 630.98 503.68
  C 666.52 539.23 680.15 552.60 715.18 587.57
  C 724.09 596.48 737.15 604.35 749.99 606.98
  Q 781.83 613.48 808.34 596.12
  C 811.20 594.24 813.93 591.58 816.80 589.32
  Q 818.92 587.64 822.36 583.39
  Q 828.86 575.37 837.07 564.55
  Q 842.87 556.91 876.78 514.27
  Q 893.76 492.91 901.56 482.94
  C 906.10 477.13 909.86 472.70 913.80 467.59
  Q 920.76 458.54 922.81 455.98
  Q 949.04 423.24 978.28 386.15
  C 979.68 384.38 981.07 381.89 982.80 380.22
  C 985.50 377.60 987.76 373.90 990.52 370.53
  Q 1000.32 358.57 1010.99 344.96
  Q 1024.94 327.16 1031.35 319.31
  C 1040.75 307.80 1049.63 296.13 1060.19 283.16
  Q 1069.91 271.23 1075.49 263.98
  Q 1079.81 258.39 1102.34 230.22
  A 0.41 0.41 0.0 0 0 1102.02 229.55
  Z
  M 662.45 555.17
  L 625.02 517.22
  A 1.35 0.94 73.7 0 0 624.81 517.05
  Q 608.07 505.99 597.22 496.79
  Q 581.20 483.22 566.50 465.53
  C 563.38 461.77 560.43 456.89 557.06 452.59
  Q 550.58 444.33 545.79 434.73
  A 2.50 2.33 28.9 0 1 545.55 434.00
  L 544.93 430.10
  A 2.34 2.28 -67.0 0 0 544.58 429.20
  C 543.25 427.24 541.74 425.16 541.03 423.57
  Q 531.43 401.95 527.35 387.44
  Q 515.71 346.07 515.06 301.79
  A 0.25 0.25 0.0 0 1 515.31 301.54
  L 576.07 301.54
  A 0.40 0.40 0.0 0 1 576.47 301.92
  Q 577.51 317.97 580.12 335.12
  Q 585.60 371.13 596.06 406.95
  A 0.84 0.82 -7.8 0 0 596.86 407.54
  Q 652.10 407.59 678.24 407.57
  C 690.08 407.56 704.05 410.91 713.15 418.42
  Q 726.30 429.25 739.73 440.04
  Q 753.00 450.70 762.92 459.19
  A 0.43 0.43 0.0 0 0 763.53 459.13
  C 769.56 451.60 773.16 446.82 777.10 441.87
  Q 821.32 386.25 834.81 368.85
  Q 835.35 368.16 841.07 361.09
  Q 859.25 338.61 896.11 292.06
  Q 898.98 288.43 899.13 288.21
  C 901.46 284.80 904.03 282.31 906.86 278.71
  Q 914.07 269.55 920.83 261.74
  A 1.53 1.46 -24.7 0 0 921.19 260.83
  Q 921.72 251.37 922.13 245.75
  C 922.64 238.54 922.60 231.73 914.96 229.41
  A 1.01 0.86 49.7 0 0 914.66 229.36
  L 581.45 229.36
  A 4.73 4.69 -53.4 0 0 580.06 229.57
  C 574.64 231.25 572.50 235.91 573.10 241.90
  Q 573.19 242.86 573.92 266.14
  A 0.37 0.36 -0.8 0 1 573.55 266.51
  Q 529.57 266.36 493.27 266.55
  C 485.54 266.60 479.51 272.07 479.39 279.98
  C 478.76 320.54 482.90 360.18 494.03 398.87
  C 503.66 432.31 520.80 465.76 544.84 491.93
  Q 565.93 514.88 593.90 530.34
  Q 623.67 546.78 656.46 554.54
  Q 659.43 555.24 662.19 555.67
  A 0.30 0.30 0.0 0 0 662.45 555.17
  Z
  M 1054.65 325.75
  A 0.41 0.40 65.9 0 0 1053.91 325.46
  C 1050.25 330.94 1045.33 336.25 1041.57 341.04
  Q 1021.72 366.34 1017.54 371.30
  Q 1017.30 371.59 1011.10 378.83
  A 2.38 2.34 73.6 0 0 1010.64 379.69
  Q 1001.96 409.88 987.34 436.72
  C 985.67 439.79 983.00 443.50 981.07 446.92
  Q 978.62 451.26 976.30 454.52
  Q 963.56 472.39 952.96 482.98
  Q 945.41 490.52 936.32 498.06
  Q 918.98 512.42 899.70 522.29
  C 898.99 522.66 897.37 523.07 896.48 523.43
  A 0.78 0.77 -81.4 0 0 896.12 523.70
  L 871.15 555.34
  A 0.41 0.40 -76.8 0 0 871.55 555.99
  Q 899.46 550.08 925.29 538.29
  C 946.68 528.54 966.94 515.40 983.59 498.76
  Q 993.71 488.66 997.43 483.94
  Q 1008.18 470.34 1011.66 464.68
  Q 1019.49 451.98 1023.53 444.07
  C 1038.05 415.62 1046.72 384.70 1051.77 352.76
  Q 1053.06 344.60 1054.11 330.00
  Q 1054.13 329.70 1054.65 325.75
  Z
  M 726.03 618.93
  A 0.23 0.22 -65.7 0 0 725.67 619.07
  C 719.29 656.77 705.61 693.97 686.21 726.98
  A 0.76 0.74 -74.2 0 1 685.57 727.35
  Q 655.97 727.39 635.55 727.32
  Q 628.15 727.30 625.68 735.02
  A 3.22 3.18 -35.9 0 0 625.53 735.92
  Q 625.19 758.15 623.91 781.52
  Q 623.65 786.27 624.49 787.97
  C 627.42 793.91 630.88 794.11 638.12 794.10
  Q 715.08 794.06 898.50 794.08
  C 900.93 794.09 904.50 794.30 906.64 792.88
  Q 910.36 790.41 911.32 785.92
  A 3.49 3.46 49.9 0 0 911.39 785.05
  Q 909.44 741.09 909.46 739.85
  C 909.56 733.75 907.44 729.03 901.65 727.55
  A 3.04 2.67 -34.6 0 0 900.97 727.47
  L 849.43 727.32
  A 0.70 0.69 -15.0 0 1 848.83 726.98
  Q 838.46 709.46 829.67 688.11
  Q 816.10 655.15 809.43 619.96
  A 0.58 0.57 70.2 0 0 808.59 619.56
  Q 787.71 630.79 763.62 629.90
  Q 747.61 629.31 731.72 622.31
  Q 728.55 620.91 726.03 618.93
  Z"
/>
<path fill="#3470ba" d="
  M 1102.02 229.55
  A 0.41 0.41 0.0 0 1 1102.34 230.22
  Q 1079.81 258.39 1075.49 263.98
  Q 1069.91 271.23 1060.19 283.16
  C 1049.63 296.13 1040.75 307.80 1031.35 319.31
  Q 1024.94 327.16 1010.99 344.96
  Q 1000.32 358.57 990.52 370.53
  C 987.76 373.90 985.50 377.60 982.80 380.22
  C 981.07 381.89 979.68 384.38 978.28 386.15
  Q 949.04 423.24 922.81 455.98
  Q 920.76 458.54 913.80 467.59
  C 909.86 472.70 906.10 477.13 901.56 482.94
  Q 893.76 492.91 876.78 514.27
  Q 842.87 556.91 837.07 564.55
  Q 828.86 575.37 822.36 583.39
  Q 818.92 587.64 816.80 589.32
  C 813.93 591.58 811.20 594.24 808.34 596.12
  Q 781.83 613.48 749.99 606.98
  C 737.15 604.35 724.09 596.48 715.18 587.57
  C 680.15 552.60 666.52 539.23 630.98 503.68
  Q 595.83 468.51 570.87 444.28
  C 567.92 441.42 566.59 437.95 567.74 434.00
  Q 569.16 429.12 575.99 429.12
  Q 662.58 429.09 677.73 429.23
  Q 692.54 429.36 702.72 438.05
  Q 711.95 445.93 721.31 453.48
  Q 739.00 467.74 758.34 483.38
  Q 765.06 488.82 765.66 489.31
  A 0.85 0.84 -48.7 0 0 766.80 489.23
  Q 769.21 486.72 772.20 482.95
  Q 911.90 306.61 932.95 280.45
  Q 953.63 254.73 956.06 251.41
  Q 963.74 240.95 968.43 237.52
  Q 976.66 231.51 985.07 229.16
  Q 990.15 227.74 998.53 227.87
  C 1034.21 228.41 1069.07 229.12 1102.02 229.55
  Z"
/>
<path fill="#3470ba" d="
  M 662.45 555.17
  A 0.30 0.30 0.0 0 1 662.19 555.67
  Q 659.43 555.24 656.46 554.54
  Q 623.67 546.78 593.90 530.34
  Q 565.93 514.88 544.84 491.93
  C 520.80 465.76 503.66 432.31 494.03 398.87
  C 482.90 360.18 478.76 320.54 479.39 279.98
  C 479.51 272.07 485.54 266.60 493.27 266.55
  Q 529.57 266.36 573.55 266.51
  A 0.37 0.36 -0.8 0 0 573.92 266.14
  Q 573.19 242.86 573.10 241.90
  C 572.50 235.91 574.64 231.25 580.06 229.57
  A 4.73 4.69 -53.4 0 1 581.45 229.36
  L 914.66 229.36
  A 1.01 0.86 49.7 0 1 914.96 229.41
  C 922.60 231.73 922.64 238.54 922.13 245.75
  Q 921.72 251.37 921.19 260.83
  A 1.53 1.46 -24.7 0 1 920.83 261.74
  Q 914.07 269.55 906.86 278.71
  C 904.03 282.31 901.46 284.80 899.13 288.21
  Q 898.98 288.43 896.11 292.06
  Q 859.25 338.61 841.07 361.09
  Q 835.35 368.16 834.81 368.85
  Q 821.32 386.25 777.10 441.87
  C 773.16 446.82 769.56 451.60 763.53 459.13
  A 0.43 0.43 0.0 0 1 762.92 459.19
  Q 753.00 450.70 739.73 440.04
  Q 726.30 429.25 713.15 418.42
  C 704.05 410.91 690.08 407.56 678.24 407.57
  Q 652.10 407.59 596.86 407.54
  A 0.84 0.82 -7.8 0 1 596.06 406.95
  Q 585.60 371.13 580.12 335.12
  Q 577.51 317.97 576.47 301.92
  A 0.40 0.40 0.0 0 0 576.07 301.54
  L 515.31 301.54
  A 0.25 0.25 0.0 0 0 515.06 301.79
  Q 515.71 346.07 527.35 387.44
  Q 531.43 401.95 541.03 423.57
  C 541.74 425.16 543.25 427.24 544.58 429.20
  A 2.34 2.28 -67.0 0 1 544.93 430.10
  L 545.55 434.00
  A 2.50 2.33 28.9 0 0 545.79 434.73
  Q 550.58 444.33 557.06 452.59
  C 560.43 456.89 563.38 461.77 566.50 465.53
  Q 581.20 483.22 597.22 496.79
  Q 608.07 505.99 624.81 517.05
  A 1.35 0.94 73.7 0 1 625.02 517.22
  L 662.45 555.17
  Z"
/>
<path fill="#3470ba" d="
  M 1054.65 325.75
  Q 1054.13 329.70 1054.11 330.00
  Q 1053.06 344.60 1051.77 352.76
  C 1046.72 384.70 1038.05 415.62 1023.53 444.07
  Q 1019.49 451.98 1011.66 464.68
  Q 1008.18 470.34 997.43 483.94
  Q 993.71 488.66 983.59 498.76
  C 966.94 515.40 946.68 528.54 925.29 538.29
  Q 899.46 550.08 871.55 555.99
  A 0.41 0.40 -76.8 0 1 871.15 555.34
  L 896.12 523.70
  A 0.78 0.77 -81.4 0 1 896.48 523.43
  C 897.37 523.07 898.99 522.66 899.70 522.29
  Q 918.98 512.42 936.32 498.06
  Q 945.41 490.52 952.96 482.98
  Q 963.56 472.39 976.30 454.52
  Q 978.62 451.26 981.07 446.92
  C 983.00 443.50 985.67 439.79 987.34 436.72
  Q 1001.96 409.88 1010.64 379.69
  A 2.38 2.34 73.6 0 1 1011.10 378.83
  Q 1017.30 371.59 1017.54 371.30
  Q 1021.72 366.34 1041.57 341.04
  C 1045.33 336.25 1050.25 330.94 1053.91 325.46
  A 0.41 0.40 65.9 0 1 1054.65 325.75
  Z"
/>
<path fill="#3470ba" d="
  M 726.03 618.93
  Q 728.55 620.91 731.72 622.31
  Q 747.61 629.31 763.62 629.90
  Q 787.71 630.79 808.59 619.56
  A 0.58 0.57 70.2 0 1 809.43 619.96
  Q 816.10 655.15 829.67 688.11
  Q 838.46 709.46 848.83 726.98
  A 0.70 0.69 -15.0 0 0 849.43 727.32
  L 900.97 727.47
  A 3.04 2.67 -34.6 0 1 901.65 727.55
  C 907.44 729.03 909.56 733.75 909.46 739.85
  Q 909.44 741.09 911.39 785.05
  A 3.49 3.46 49.9 0 1 911.32 785.92
  Q 910.36 790.41 906.64 792.88
  C 904.50 794.30 900.93 794.09 898.50 794.08
  Q 715.08 794.06 638.12 794.10
  C 630.88 794.11 627.42 793.91 624.49 787.97
  Q 623.65 786.27 623.91 781.52
  Q 625.19 758.15 625.53 735.92
  A 3.22 3.18 -35.9 0 1 625.68 735.02
  Q 628.15 727.30 635.55 727.32
  Q 655.97 727.39 685.57 727.35
  A 0.76 0.74 -74.2 0 0 686.21 726.98
  C 705.61 693.97 719.29 656.77 725.67 619.07
  A 0.23 0.22 -65.7 0 1 726.03 618.93
  Z"
/>
</svg>
