<?xml version="1.0" encoding="UTF-8" standalone="no"?>
<!DOCTYPE svg PUBLIC "-//W3C//DTD SVG 1.1//EN" "http://www.w3.org/Graphics/SVG/1.1/DTD/svg11.dtd">
<svg xmlns="http://www.w3.org/2000/svg" version="1.1" viewBox="0.00 0.00 1536.00 1024.00">
<g stroke-width="2.00" fill="none" stroke-linecap="butt">
<path stroke="#829cc7" vector-effect="non-scaling-stroke" d="
  M 254.23 404.82
  Q 254.57 415.43 255.49 423.27
  Q 257.56 440.82 264.89 456.10
  C 271.06 468.95 280.36 478.90 291.96 486.52
  Q 306.38 495.99 322.92 500.00
  A 1.46 1.42 -11.3 0 1 323.74 500.53
  Q 337.14 518.37 358.01 525.83
  A 0.83 0.81 -80.8 0 1 358.55 526.59
  Q 358.72 533.01 357.71 536.13
  C 354.93 544.75 346.11 547.54 337.72 548.92
  Q 325.76 550.89 322.36 550.90
  A 0.64 0.63 -86.4 0 0 321.73 551.46
  L 319.71 567.63
  A 0.60 0.60 0.0 0 0 320.31 568.30
  L 428.14 568.30
  A 0.44 0.44 0.0 0 0 428.58 567.80
  L 426.62 551.53
  A 0.70 0.68 89.4 0 0 426.02 550.93
  Q 413.51 549.43 406.83 547.91
  Q 401.67 546.73 398.14 545.09
  C 390.09 541.33 390.40 533.75 390.09 526.22
  A 0.60 0.60 0.0 0 1 390.50 525.64
  C 404.41 520.95 415.55 511.81 424.69 500.84
  A 2.65 2.60 -77.5 0 1 425.98 500.00
  C 452.02 492.62 474.90 477.32 485.31 451.56
  Q 494.64 428.50 494.18 403.82
  A 0.69 0.69 0.0 0 0 493.49 403.14
  L 457.58 403.14
  A 0.58 0.58 0.0 0 1 457.00 402.56
  L 457.00 388.30
  A 0.61 0.61 0.0 0 0 456.39 387.69
  L 291.73 387.69
  A 0.54 0.53 89.0 0 0 291.20 388.25
  L 291.83 403.73
  A 0.54 0.54 0.0 0 1 291.29 404.29
  L 254.74 404.29
  A 0.51 0.51 0.0 0 0 254.23 404.82"
/>
<path stroke="#a6a6a6" vector-effect="non-scaling-stroke" d="
  M 1103.88 511.20
  A 0.38 0.38 0.0 0 0 1104.26 510.82
  L 1104.26 480.39
  A 1.85 1.84 62.2 0 1 1104.58 479.35
  C 1106.44 476.63 1110.25 473.21 1113.79 473.92
  C 1117.81 474.73 1117.90 477.20 1117.89 481.34
  Q 1117.84 499.09 1117.96 510.57
  A 0.59 0.59 0.0 0 0 1118.55 511.16
  L 1128.36 511.16
  A 0.53 0.53 0.0 0 0 1128.89 510.64
  Q 1129.23 492.51 1128.84 476.45
  C 1128.47 461.65 1112.30 462.11 1104.73 470.53
  A 0.24 0.23 66.1 0 1 1104.32 470.37
  L 1104.32 443.76
  A 0.42 0.42 0.0 0 0 1103.90 443.34
  L 1093.83 443.34
  A 0.47 0.46 -90.0 0 0 1093.37 443.81
  L 1093.37 510.57
  A 0.63 0.62 90.0 0 0 1093.99 511.20
  L 1103.88 511.20"
/>
<path stroke="#a6a6a6" vector-effect="non-scaling-stroke" d="
  M 944.06 446.79
  A 0.49 0.49 0.0 0 0 943.57 446.30
  L 933.13 446.30
  A 0.49 0.49 0.0 0 0 932.64 446.79
  L 932.64 510.69
  A 0.49 0.49 0.0 0 0 933.13 511.18
  L 943.57 511.18
  A 0.49 0.49 0.0 0 0 944.06 510.69
  L 944.06 446.79"
/>
<path stroke="#a6a6a6" vector-effect="non-scaling-stroke" d="
  M 1041.5085 446.9196
  A 0.65 0.65 0.0 0 0 1040.8596 446.2685
  L 1031.1396 446.2515
  A 0.65 0.65 0.0 0 0 1030.4885 446.9004
  L 1030.4715 456.6204
  A 0.65 0.65 0.0 0 0 1031.1204 457.2715
  L 1040.8404 457.2885
  A 0.65 0.65 0.0 0 0 1041.4915 456.6396
  L 1041.5085 446.9196"
/>
<path stroke="#829cc7" vector-effect="non-scaling-stroke" d="
  M 533.46 446.67
  Q 531.63 446.67 510.75 446.65
  A 0.40 0.40 0.0 0 0 510.35 447.05
  L 510.35 455.95
  A 0.62 0.61 90.0 0 0 510.96 456.57
  L 527.06 456.57
  A 0.54 0.54 0.0 0 1 527.60 457.11
  L 527.60 510.72
  A 0.41 0.41 0.0 0 0 528.02 511.13
  Q 530.66 511.11 533.43 511.11
  Q 536.20 511.11 538.84 511.14
  A 0.41 0.41 0.0 0 0 539.26 510.73
  L 539.31 457.12
  A 0.54 0.54 0.0 0 1 539.85 456.58
  L 555.95 456.59
  A 0.62 0.61 -89.9 0 0 556.56 455.97
  L 556.57 447.07
  A 0.40 0.40 0.0 0 0 556.17 446.67
  Q 535.30 446.67 533.46 446.67"
/>
<path stroke="#a6a6a6" vector-effect="non-scaling-stroke" d="
  M 1149.63 452.43
  L 1140.19 453.58
  A 0.67 0.65 -3.5 0 0 1139.60 454.23
  L 1139.60 464.78
  A 0.94 0.94 0.0 0 1 1138.66 465.72
  L 1133.99 465.72
  A 1.04 1.04 0.0 0 0 1132.95 466.76
  L 1132.95 472.95
  A 0.95 0.95 0.0 0 0 1133.90 473.90
  L 1138.83 473.90
  A 0.69 0.69 0.0 0 1 1139.52 474.58
  Q 1139.61 483.71 1139.59 499.75
  C 1139.58 505.85 1141.12 510.17 1147.41 511.49
  Q 1154.28 512.92 1161.19 510.56
  A 0.36 0.35 81.0 0 0 1161.43 510.22
  L 1161.43 502.78
  A 0.22 0.21 -8.3 0 0 1161.15 502.58
  C 1156.96 503.88 1150.36 505.02 1150.40 498.26
  Q 1150.54 474.90 1150.53 474.61
  A 0.64 0.63 -0.9 0 1 1151.17 473.96
  L 1161.04 473.98
  A 0.37 0.37 0.0 0 0 1161.41 473.61
  L 1161.41 466.07
  A 0.40 0.40 0.0 0 0 1161.01 465.67
  L 1151.50 465.67
  A 1.13 1.12 -0.0 0 1 1150.37 464.55
  L 1150.37 453.10
  A 0.67 0.66 86.6 0 0 1149.63 452.43"
/>
<path stroke="#829cc7" vector-effect="non-scaling-stroke" d="
  M 910.50 452.47
  L 901.09 453.63
  A 0.67 0.65 -3.5 0 0 900.50 454.28
  L 900.51 464.80
  A 0.94 0.94 0.0 0 1 899.57 465.74
  L 894.91 465.74
  A 1.04 1.04 0.0 0 0 893.88 466.78
  L 893.88 472.95
  A 0.95 0.95 0.0 0 0 894.83 473.90
  L 899.75 473.90
  A 0.69 0.69 0.0 0 1 900.44 474.57
  Q 900.54 483.68 900.53 499.68
  C 900.53 505.76 902.07 510.07 908.34 511.38
  Q 915.19 512.80 922.08 510.44
  A 0.36 0.35 81.0 0 0 922.32 510.10
  L 922.32 502.68
  A 0.22 0.21 -8.3 0 0 922.04 502.48
  C 917.86 503.78 911.28 504.93 911.31 498.18
  Q 911.43 474.88 911.42 474.59
  A 0.64 0.63 -0.9 0 1 912.06 473.94
  L 921.90 473.96
  A 0.37 0.37 0.0 0 0 922.27 473.59
  L 922.26 466.07
  A 0.40 0.40 0.0 0 0 921.86 465.67
  L 912.38 465.68
  A 1.13 1.12 -0.1 0 1 911.25 464.56
  L 911.24 453.14
  A 0.67 0.66 86.5 0 0 910.50 452.47"
/>
<path stroke="#829cc7" vector-effect="non-scaling-stroke" d="
  M 551.29 488.63
  C 551.39 500.95 555.86 512.17 570.16 512.06
  C 584.45 511.94 588.74 500.65 588.64 488.33
  C 588.55 476.00 584.08 464.79 569.78 464.90
  C 555.48 465.01 551.19 476.30 551.29 488.63"
/>
<path stroke="#829cc7" vector-effect="non-scaling-stroke" d="
  M 662.60 475.06
  L 662.60 465.34
  A 0.27 0.26 3.7 0 0 662.36 465.08
  Q 652.33 463.78 647.89 472.42
  A 0.50 0.50 0.0 0 1 646.95 472.26
  L 646.35 467.25
  A 1.75 1.74 86.5 0 0 644.62 465.72
  L 638.59 465.72
  A 1.58 1.58 0.0 0 0 637.01 467.30
  L 637.01 510.57
  A 0.57 0.57 0.0 0 0 637.58 511.14
  L 647.19 511.14
  A 0.76 0.75 90.0 0 0 647.94 510.38
  L 647.94 482.93
  A 3.79 3.72 59.2 0 1 648.36 481.20
  Q 652.32 473.64 662.19 475.40
  A 0.35 0.34 -84.5 0 0 662.60 475.06"
/>
<path stroke="#829cc7" vector-effect="non-scaling-stroke" d="
  M 676.60 471.08
  Q 676.34 470.95 675.47 465.96
  A 0.29 0.28 -4.8 0 0 675.19 465.73
  L 666.85 465.73
  A 0.30 0.30 0.0 0 0 666.55 466.03
  L 666.55 510.87
  A 0.42 0.42 0.0 0 0 666.97 511.29
  L 676.99 511.29
  A 0.52 0.52 0.0 0 0 677.51 510.77
  L 677.51 480.60
  A 2.07 2.06 61.0 0 1 677.82 479.51
  Q 680.81 474.68 685.47 474.02
  C 690.11 473.36 691.02 476.81 691.02 480.94
  Q 691.05 508.46 691.12 510.65
  A 0.65 0.64 -0.9 0 0 691.77 511.27
  L 701.64 511.27
  A 0.44 0.44 0.0 0 0 702.08 510.83
  Q 702.10 486.52 702.14 478.26
  C 702.17 471.39 699.51 465.49 691.86 464.89
  Q 683.36 464.22 677.49 470.90
  A 0.75 0.74 33.1 0 1 676.60 471.08"
/>
<path stroke="#829cc7" vector-effect="non-scaling-stroke" d="
  M 730.08 483.91
  C 719.10 483.78 706.26 486.43 707.09 500.25
  C 707.62 509.08 714.34 513.21 722.49 511.64
  Q 727.28 510.73 730.96 506.43
  A 0.59 0.59 0.0 0 1 731.99 506.74
  L 732.38 509.92
  A 1.42 1.41 86.6 0 0 733.78 511.17
  L 740.26 511.17
  A 1.26 1.26 0.0 0 0 741.52 509.91
  Q 741.41 490.47 741.60 483.34
  Q 741.83 474.97 740.12 471.87
  Q 736.85 465.95 729.57 465.11
  Q 720.34 464.04 710.76 468.05
  A 0.30 0.29 77.4 0 0 710.58 468.34
  L 710.88 475.84
  A 0.23 0.22 73.9 0 0 711.21 476.03
  C 715.97 473.46 730.07 469.21 730.80 478.32
  Q 731.06 481.60 730.79 483.30
  A 0.72 0.71 4.2 0 1 730.08 483.91"
/>
<path stroke="#829cc7" vector-effect="non-scaling-stroke" d="
  M 782.80 471.12
  C 781.39 467.55 778.64 465.42 774.57 464.96
  Q 765.98 464.00 759.84 471.11
  A 0.60 0.59 62.0 0 1 758.80 470.79
  L 758.36 467.23
  A 1.58 1.58 0.0 0 0 756.79 465.83
  L 750.40 465.83
  A 1.27 1.26 90.0 0 0 749.14 467.10
  L 749.14 510.30
  A 0.86 0.86 0.0 0 0 750.00 511.16
  L 759.28 511.16
  A 0.70 0.69 -0.4 0 0 759.98 510.46
  Q 759.86 494.21 759.92 481.50
  C 759.95 474.65 773.07 470.03 773.04 479.03
  Q 772.92 510.06 772.92 510.55
  A 0.62 0.62 0.0 0 0 773.54 511.16
  L 783.26 511.16
  A 0.64 0.64 0.0 0 0 783.90 510.52
  L 783.90 480.59
  A 2.21 2.17 61.9 0 1 784.25 479.40
  C 786.28 476.24 790.29 472.92 794.29 474.54
  Q 796.87 475.59 796.91 479.82
  Q 796.96 484.64 796.87 510.72
  A 0.43 0.42 90.0 0 0 797.29 511.15
  L 807.02 511.15
  A 0.79 0.79 0.0 0 0 807.81 510.35
  Q 807.70 495.01 807.85 478.25
  C 807.90 472.75 806.19 466.25 799.83 465.14
  C 792.81 463.90 788.22 466.40 783.56 471.27
  A 0.46 0.46 0.0 0 1 782.80 471.12"
/>
<path stroke="#829cc7" vector-effect="non-scaling-stroke" d="
  M 825.14 490.93
  L 848.48 490.93
  A 0.56 0.55 2.2 0 0 849.04 490.42
  Q 849.50 484.77 848.01 477.99
  Q 845.52 466.65 835.15 465.08
  C 825.83 463.68 817.86 468.12 815.13 477.13
  Q 812.27 486.60 814.27 496.75
  C 817.65 513.95 833.82 513.89 847.27 509.66
  A 0.29 0.29 0.0 0 0 847.47 509.37
  L 847.14 501.16
  A 0.17 0.17 0.0 0 0 846.90 501.01
  C 842.63 502.93 834.31 505.00 830.04 502.82
  C 825.76 500.63 824.56 495.99 824.61 491.45
  A 0.53 0.53 0.0 0 1 825.14 490.93"
/>
<path stroke="#829cc7" vector-effect="non-scaling-stroke" d="
  M 864.82 471.00
  Q 864.56 470.87 863.70 465.89
  A 0.28 0.28 0.0 0 0 863.42 465.66
  L 855.11 465.65
  A 0.30 0.30 0.0 0 0 854.81 465.95
  L 854.73 510.66
  A 0.42 0.42 0.0 0 0 855.15 511.08
  L 865.14 511.10
  A 0.52 0.52 0.0 0 0 865.66 510.58
  L 865.71 480.50
  A 2.07 2.06 61.1 0 1 866.02 479.41
  Q 869.01 474.60 873.66 473.95
  C 878.29 473.30 879.19 476.74 879.18 480.86
  Q 879.17 508.30 879.23 510.48
  A 0.65 0.64 -0.8 0 0 879.88 511.10
  L 889.72 511.12
  A 0.44 0.44 0.0 0 0 890.16 510.68
  Q 890.22 486.44 890.28 478.20
  C 890.32 471.35 887.68 465.46 880.05 464.85
  Q 871.57 464.17 865.71 470.82
  A 0.75 0.74 33.2 0 1 864.82 471.00"
/>
<path stroke="#a6a6a6" vector-effect="non-scaling-stroke" d="
  M 962.81 471.08
  Q 962.55 470.95 961.68 465.97
  A 0.29 0.28 -4.9 0 0 961.40 465.74
  L 953.07 465.75
  A 0.30 0.30 0.0 0 0 952.77 466.05
  L 952.82 510.83
  A 0.42 0.42 0.0 0 0 953.24 511.25
  L 963.25 511.23
  A 0.52 0.52 0.0 0 0 963.77 510.72
  L 963.73 480.58
  A 2.07 2.06 61.0 0 1 964.04 479.50
  Q 967.02 474.67 971.67 474.00
  C 976.30 473.34 977.22 476.78 977.22 480.91
  Q 977.28 508.39 977.36 510.58
  A 0.65 0.64 -1.0 0 0 978.01 511.20
  L 987.86 511.19
  A 0.44 0.44 0.0 0 0 988.30 510.75
  Q 988.29 486.47 988.32 478.22
  C 988.35 471.36 985.68 465.47 978.04 464.88
  Q 969.55 464.22 963.70 470.90
  A 0.75 0.74 33.0 0 1 962.81 471.08"
/>
<path stroke="#a6a6a6" vector-effect="non-scaling-stroke" d="
  M 1022.27 467.27
  A 1.03 1.03 0.0 0 0 1021.52 466.28
  C 1012.74 463.75 995.81 463.06 993.92 475.72
  C 992.39 485.91 1001.74 489.38 1009.88 493.88
  C 1017.07 497.84 1013.58 504.08 1006.50 503.96
  Q 1000.69 503.85 995.39 501.11
  A 0.23 0.23 0.0 0 0 995.06 501.31
  L 995.08 509.79
  A 0.35 0.35 0.0 0 0 995.34 510.12
  C 1005.24 512.90 1022.34 514.44 1024.49 500.83
  C 1026.11 490.53 1018.09 486.80 1010.34 483.14
  C 1007.18 481.64 1003.19 478.76 1005.39 474.98
  C 1007.79 470.86 1018.24 473.53 1021.54 474.80
  A 0.55 0.54 -79.5 0 0 1022.28 474.29
  L 1022.27 467.27"
/>
<path stroke="#a6a6a6" vector-effect="non-scaling-stroke" d="
  M 1055.00 495.46
  C 1048.57 499.10 1046.36 506.80 1054.11 510.72
  A 0.28 0.28 0.0 0 1 1054.11 511.22
  Q 1051.78 512.42 1051.32 512.67
  C 1044.82 516.19 1045.09 525.21 1051.60 528.66
  C 1059.27 532.73 1071.38 531.75 1078.91 528.64
  Q 1088.66 524.62 1087.11 513.97
  C 1085.65 504.01 1073.04 504.76 1063.37 503.92
  C 1059.91 503.62 1057.06 500.90 1059.98 497.52
  A 1.06 1.04 -65.5 0 1 1060.90 497.17
  C 1069.91 498.31 1079.76 496.93 1082.91 487.58
  Q 1085.43 480.15 1081.79 473.79
  A 0.62 0.62 0.0 0 1 1082.33 472.86
  L 1087.93 472.86
  A 0.62 0.61 0.0 0 0 1088.55 472.25
  L 1088.55 466.29
  A 0.62 0.61 -1.3 0 0 1087.90 465.68
  Q 1084.35 465.83 1077.02 465.85
  Q 1074.01 465.86 1072.52 465.53
  C 1066.27 464.14 1060.75 464.32 1054.84 467.54
  C 1045.55 472.60 1045.89 489.35 1055.01 494.72
  A 0.43 0.43 0.0 0 1 1055.00 495.46"
/>
<path stroke="#a6a6a6" vector-effect="non-scaling-stroke" d="
  M 1194.10 467.25
  A 1.03 1.03 0.0 0 0 1193.36 466.26
  C 1184.57 463.70 1167.61 462.97 1165.69 475.65
  C 1164.14 485.85 1173.49 489.35 1181.63 493.87
  C 1188.83 497.86 1185.32 504.10 1178.23 503.96
  Q 1172.41 503.84 1167.11 501.08
  A 0.23 0.23 0.0 0 0 1166.78 501.28
  L 1166.78 509.77
  A 0.35 0.35 0.0 0 0 1167.04 510.11
  C 1176.94 512.91 1194.07 514.49 1196.25 500.87
  C 1197.90 490.56 1189.87 486.80 1182.12 483.12
  C 1178.96 481.61 1174.97 478.72 1177.18 474.93
  C 1179.59 470.81 1190.05 473.51 1193.36 474.79
  A 0.55 0.54 -79.4 0 0 1194.10 474.28
  L 1194.10 467.25"
/>
<path stroke="#829cc7" vector-effect="non-scaling-stroke" d="
  M 619.39 505.72
  Q 619.64 505.85 620.50 510.81
  A 0.28 0.28 0.0 0 0 620.78 511.04
  L 629.06 511.05
  A 0.30 0.30 0.0 0 0 629.36 510.75
  L 629.43 466.23
  A 0.42 0.42 0.0 0 0 629.02 465.81
  L 619.07 465.79
  A 0.52 0.52 0.0 0 0 618.55 466.31
  L 618.50 496.27
  A 2.06 2.05 61.1 0 1 618.19 497.35
  Q 615.21 502.14 610.58 502.79
  C 605.97 503.44 605.08 500.01 605.08 495.91
  Q 605.10 468.58 605.03 466.40
  A 0.65 0.64 -0.8 0 0 604.39 465.79
  L 594.59 465.77
  A 0.44 0.44 0.0 0 0 594.15 466.21
  Q 594.09 490.35 594.04 498.55
  C 593.99 505.37 596.63 511.24 604.22 511.84
  Q 612.66 512.52 618.50 505.90
  A 0.75 0.73 33.2 0 1 619.39 505.72"
/>
<path stroke="#a6a6a6" vector-effect="non-scaling-stroke" d="
  M 1041.5286 466.3094
  A 0.61 0.61 0.0 0 0 1040.9196 465.6984
  L 1031.3596 465.6817
  A 0.61 0.61 0.0 0 0 1030.7486 466.2906
  L 1030.6714 510.4906
  A 0.61 0.61 0.0 0 0 1031.2804 511.1016
  L 1040.8404 511.1183
  A 0.61 0.61 0.0 0 0 1041.4514 510.5094
  L 1041.5286 466.3094"
/>
<path stroke="#829cc7" vector-effect="non-scaling-stroke" d="
  M 367.90 459.24
  L 342.33 438.07
  A 0.76 0.75 -46.5 0 0 341.33 438.10
  L 326.76 451.77
  A 0.86 0.85 -43.3 0 0 326.72 452.98
  L 368.01 497.00
  A 1.41 1.41 0.0 0 0 370.15 496.90
  C 373.86 492.11 378.68 487.42 381.91 483.48
  Q 384.65 480.15 388.90 475.31
  Q 422.95 436.59 423.81 435.56
  C 429.69 428.55 433.87 424.29 439.35 417.77
  Q 444.98 411.05 452.03 403.78
  Q 453.97 401.79 455.09 399.01
  A 1.21 1.21 0.0 0 0 454.57 397.51
  L 450.28 395.03
  A 1.58 1.56 -49.2 0 0 448.52 395.17
  L 368.98 459.24
  A 0.85 0.85 0.0 0 1 367.90 459.24"
/>
<path stroke="#829cc7" vector-effect="non-scaling-stroke" d="
  M 439.34 477.17
  A 0.30 0.30 0.0 0 0 439.75 477.56
  C 453.37 470.65 464.63 459.81 470.57 445.31
  Q 475.52 433.22 477.27 419.77
  A 0.51 0.51 0.0 0 0 476.76 419.19
  L 455.93 419.19
  A 0.78 0.77 3.8 0 0 455.16 419.86
  C 452.79 439.70 447.61 459.56 439.34 477.17"
/>
<path stroke="#829cc7" vector-effect="non-scaling-stroke" d="
  M 309.15 477.40
  C 300.90 459.97 295.71 440.30 293.30 420.64
  A 0.77 0.77 0.0 0 0 292.54 419.97
  L 271.89 420.03
  A 0.51 0.51 0.0 0 0 271.38 420.61
  Q 273.16 433.94 278.10 445.91
  C 284.03 460.27 295.22 470.98 308.74 477.79
  A 0.30 0.29 0.8 0 0 309.15 477.40"
/>
<path stroke="#829cc7" vector-effect="non-scaling-stroke" d="
  M 562.35 488.32
  C 562.33 493.37 562.49 503.88 569.88 503.91
  C 577.28 503.94 577.51 493.43 577.53 488.38
  C 577.55 483.32 577.40 472.82 570.00 472.79
  C 562.61 472.76 562.37 483.26 562.35 488.32"
/>
<path stroke="#829cc7" vector-effect="non-scaling-stroke" d="
  M 730.17 490.02
  Q 729.21 489.89 725.66 490.17
  C 719.98 490.62 717.09 494.17 718.17 500.18
  Q 718.97 504.65 723.64 504.05
  Q 728.38 503.45 730.80 498.71
  A 1.80 1.70 58.5 0 0 730.98 497.85
  L 730.69 490.60
  A 0.62 0.61 3.5 0 0 730.17 490.02"
/>
<path stroke="#829cc7" vector-effect="non-scaling-stroke" d="
  M 825.13 484.24
  L 838.35 484.24
  A 0.28 0.28 0.0 0 0 838.63 483.96
  L 838.63 481.00
  A 9.02 6.48 90.0 0 0 832.15 471.98
  L 831.33 471.98
  A 9.02 6.48 -90.0 0 0 824.85 481.00
  L 824.85 483.96
  A 0.28 0.28 0.0 0 0 825.13 484.24"
/>
<path stroke="#a6a6a6" vector-effect="non-scaling-stroke" d="
  M 1066.3586 471.5138
  A 9.62 7.15 -88.4 0 0 1058.9428 480.9304
  A 9.62 7.15 -88.4 0 0 1065.8214 490.7462
  A 9.62 7.15 -88.4 0 0 1073.2372 481.3296
  A 9.62 7.15 -88.4 0 0 1066.3586 471.5138"
/>
<path stroke="#a6a6a6" vector-effect="non-scaling-stroke" d="
  M 1076.86 517.81
  C 1077.07 514.82 1074.26 513.79 1071.52 513.43
  Q 1070.30 513.27 1062.06 512.71
  A 2.25 2.22 -55.7 0 0 1060.88 512.94
  C 1055.74 515.48 1055.60 522.72 1061.71 523.59
  C 1066.14 524.23 1076.43 524.20 1076.86 517.81"
/>
</g>
<path fill="#ffffff" d="
  M 1536.00 0.00
  L 1536.00 1024.00
  L 0.00 1024.00
  L 0.00 0.00
  L 1536.00 0.00
  Z
  M 254.23 404.82
  Q 254.57 415.43 255.49 423.27
  Q 257.56 440.82 264.89 456.10
  C 271.06 468.95 280.36 478.90 291.96 486.52
  Q 306.38 495.99 322.92 500.00
  A 1.46 1.42 -11.3 0 1 323.74 500.53
  Q 337.14 518.37 358.01 525.83
  A 0.83 0.81 -80.8 0 1 358.55 526.59
  Q 358.72 533.01 357.71 536.13
  C 354.93 544.75 346.11 547.54 337.72 548.92
  Q 325.76 550.89 322.36 550.90
  A 0.64 0.63 -86.4 0 0 321.73 551.46
  L 319.71 567.63
  A 0.60 0.60 0.0 0 0 320.31 568.30
  L 428.14 568.30
  A 0.44 0.44 0.0 0 0 428.58 567.80
  L 426.62 551.53
  A 0.70 0.68 89.4 0 0 426.02 550.93
  Q 413.51 549.43 406.83 547.91
  Q 401.67 546.73 398.14 545.09
  C 390.09 541.33 390.40 533.75 390.09 526.22
  A 0.60 0.60 0.0 0 1 390.50 525.64
  C 404.41 520.95 415.55 511.81 424.69 500.84
  A 2.65 2.60 -77.5 0 1 425.98 500.00
  C 452.02 492.62 474.90 477.32 485.31 451.56
  Q 494.64 428.50 494.18 403.82
  A 0.69 0.69 0.0 0 0 493.49 403.14
  L 457.58 403.14
  A 0.58 0.58 0.0 0 1 457.00 402.56
  L 457.00 388.30
  A 0.61 0.61 0.0 0 0 456.39 387.69
  L 291.73 387.69
  A 0.54 0.53 89.0 0 0 291.20 388.25
  L 291.83 403.73
  A 0.54 0.54 0.0 0 1 291.29 404.29
  L 254.74 404.29
  A 0.51 0.51 0.0 0 0 254.23 404.82
  Z
  M 1103.88 511.20
  A 0.38 0.38 0.0 0 0 1104.26 510.82
  L 1104.26 480.39
  A 1.85 1.84 62.2 0 1 1104.58 479.35
  C 1106.44 476.63 1110.25 473.21 1113.79 473.92
  C 1117.81 474.73 1117.90 477.20 1117.89 481.34
  Q 1117.84 499.09 1117.96 510.57
  A 0.59 0.59 0.0 0 0 1118.55 511.16
  L 1128.36 511.16
  A 0.53 0.53 0.0 0 0 1128.89 510.64
  Q 1129.23 492.51 1128.84 476.45
  C 1128.47 461.65 1112.30 462.11 1104.73 470.53
  A 0.24 0.23 66.1 0 1 1104.32 470.37
  L 1104.32 443.76
  A 0.42 0.42 0.0 0 0 1103.90 443.34
  L 1093.83 443.34
  A 0.47 0.46 -90.0 0 0 1093.37 443.81
  L 1093.37 510.57
  A 0.63 0.62 90.0 0 0 1093.99 511.20
  L 1103.88 511.20
  Z
  M 944.06 446.79
  A 0.49 0.49 0.0 0 0 943.57 446.30
  L 933.13 446.30
  A 0.49 0.49 0.0 0 0 932.64 446.79
  L 932.64 510.69
  A 0.49 0.49 0.0 0 0 933.13 511.18
  L 943.57 511.18
  A 0.49 0.49 0.0 0 0 944.06 510.69
  L 944.06 446.79
  Z
  M 1041.5085 446.9196
  A 0.65 0.65 0.0 0 0 1040.8596 446.2685
  L 1031.1396 446.2515
  A 0.65 0.65 0.0 0 0 1030.4885 446.9004
  L 1030.4715 456.6204
  A 0.65 0.65 0.0 0 0 1031.1204 457.2715
  L 1040.8404 457.2885
  A 0.65 0.65 0.0 0 0 1041.4915 456.6396
  L 1041.5085 446.9196
  Z
  M 533.46 446.67
  Q 531.63 446.67 510.75 446.65
  A 0.40 0.40 0.0 0 0 510.35 447.05
  L 510.35 455.95
  A 0.62 0.61 90.0 0 0 510.96 456.57
  L 527.06 456.57
  A 0.54 0.54 0.0 0 1 527.60 457.11
  L 527.60 510.72
  A 0.41 0.41 0.0 0 0 528.02 511.13
  Q 530.66 511.11 533.43 511.11
  Q 536.20 511.11 538.84 511.14
  A 0.41 0.41 0.0 0 0 539.26 510.73
  L 539.31 457.12
  A 0.54 0.54 0.0 0 1 539.85 456.58
  L 555.95 456.59
  A 0.62 0.61 -89.9 0 0 556.56 455.97
  L 556.57 447.07
  A 0.40 0.40 0.0 0 0 556.17 446.67
  Q 535.30 446.67 533.46 446.67
  Z
  M 1149.63 452.43
  L 1140.19 453.58
  A 0.67 0.65 -3.5 0 0 1139.60 454.23
  L 1139.60 464.78
  A 0.94 0.94 0.0 0 1 1138.66 465.72
  L 1133.99 465.72
  A 1.04 1.04 0.0 0 0 1132.95 466.76
  L 1132.95 472.95
  A 0.95 0.95 0.0 0 0 1133.90 473.90
  L 1138.83 473.90
  A 0.69 0.69 0.0 0 1 1139.52 474.58
  Q 1139.61 483.71 1139.59 499.75
  C 1139.58 505.85 1141.12 510.17 1147.41 511.49
  Q 1154.28 512.92 1161.19 510.56
  A 0.36 0.35 81.0 0 0 1161.43 510.22
  L 1161.43 502.78
  A 0.22 0.21 -8.3 0 0 1161.15 502.58
  C 1156.96 503.88 1150.36 505.02 1150.40 498.26
  Q 1150.54 474.90 1150.53 474.61
  A 0.64 0.63 -0.9 0 1 1151.17 473.96
  L 1161.04 473.98
  A 0.37 0.37 0.0 0 0 1161.41 473.61
  L 1161.41 466.07
  A 0.40 0.40 0.0 0 0 1161.01 465.67
  L 1151.50 465.67
  A 1.13 1.12 -0.0 0 1 1150.37 464.55
  L 1150.37 453.10
  A 0.67 0.66 86.6 0 0 1149.63 452.43
  Z
  M 910.50 452.47
  L 901.09 453.63
  A 0.67 0.65 -3.5 0 0 900.50 454.28
  L 900.51 464.80
  A 0.94 0.94 0.0 0 1 899.57 465.74
  L 894.91 465.74
  A 1.04 1.04 0.0 0 0 893.88 466.78
  L 893.88 472.95
  A 0.95 0.95 0.0 0 0 894.83 473.90
  L 899.75 473.90
  A 0.69 0.69 0.0 0 1 900.44 474.57
  Q 900.54 483.68 900.53 499.68
  C 900.53 505.76 902.07 510.07 908.34 511.38
  Q 915.19 512.80 922.08 510.44
  A 0.36 0.35 81.0 0 0 922.32 510.10
  L 922.32 502.68
  A 0.22 0.21 -8.3 0 0 922.04 502.48
  C 917.86 503.78 911.28 504.93 911.31 498.18
  Q 911.43 474.88 911.42 474.59
  A 0.64 0.63 -0.9 0 1 912.06 473.94
  L 921.90 473.96
  A 0.37 0.37 0.0 0 0 922.27 473.59
  L 922.26 466.07
  A 0.40 0.40 0.0 0 0 921.86 465.67
  L 912.38 465.68
  A 1.13 1.12 -0.1 0 1 911.25 464.56
  L 911.24 453.14
  A 0.67 0.66 86.5 0 0 910.50 452.47
  Z
  M 551.29 488.63
  C 551.39 500.95 555.86 512.17 570.16 512.06
  C 584.45 511.94 588.74 500.65 588.64 488.33
  C 588.55 476.00 584.08 464.79 569.78 464.90
  C 555.48 465.01 551.19 476.30 551.29 488.63
  Z
  M 662.60 475.06
  L 662.60 465.34
  A 0.27 0.26 3.7 0 0 662.36 465.08
  Q 652.33 463.78 647.89 472.42
  A 0.50 0.50 0.0 0 1 646.95 472.26
  L 646.35 467.25
  A 1.75 1.74 86.5 0 0 644.62 465.72
  L 638.59 465.72
  A 1.58 1.58 0.0 0 0 637.01 467.30
  L 637.01 510.57
  A 0.57 0.57 0.0 0 0 637.58 511.14
  L 647.19 511.14
  A 0.76 0.75 90.0 0 0 647.94 510.38
  L 647.94 482.93
  A 3.79 3.72 59.2 0 1 648.36 481.20
  Q 652.32 473.64 662.19 475.40
  A 0.35 0.34 -84.5 0 0 662.60 475.06
  Z
  M 676.60 471.08
  Q 676.34 470.95 675.47 465.96
  A 0.29 0.28 -4.8 0 0 675.19 465.73
  L 666.85 465.73
  A 0.30 0.30 0.0 0 0 666.55 466.03
  L 666.55 510.87
  A 0.42 0.42 0.0 0 0 666.97 511.29
  L 676.99 511.29
  A 0.52 0.52 0.0 0 0 677.51 510.77
  L 677.51 480.60
  A 2.07 2.06 61.0 0 1 677.82 479.51
  Q 680.81 474.68 685.47 474.02
  C 690.11 473.36 691.02 476.81 691.02 480.94
  Q 691.05 508.46 691.12 510.65
  A 0.65 0.64 -0.9 0 0 691.77 511.27
  L 701.64 511.27
  A 0.44 0.44 0.0 0 0 702.08 510.83
  Q 702.10 486.52 702.14 478.26
  C 702.17 471.39 699.51 465.49 691.86 464.89
  Q 683.36 464.22 677.49 470.90
  A 0.75 0.74 33.1 0 1 676.60 471.08
  Z
  M 730.08 483.91
  C 719.10 483.78 706.26 486.43 707.09 500.25
  C 707.62 509.08 714.34 513.21 722.49 511.64
  Q 727.28 510.73 730.96 506.43
  A 0.59 0.59 0.0 0 1 731.99 506.74
  L 732.38 509.92
  A 1.42 1.41 86.6 0 0 733.78 511.17
  L 740.26 511.17
  A 1.26 1.26 0.0 0 0 741.52 509.91
  Q 741.41 490.47 741.60 483.34
  Q 741.83 474.97 740.12 471.87
  Q 736.85 465.95 729.57 465.11
  Q 720.34 464.04 710.76 468.05
  A 0.30 0.29 77.4 0 0 710.58 468.34
  L 710.88 475.84
  A 0.23 0.22 73.9 0 0 711.21 476.03
  C 715.97 473.46 730.07 469.21 730.80 478.32
  Q 731.06 481.60 730.79 483.30
  A 0.72 0.71 4.2 0 1 730.08 483.91
  Z
  M 782.80 471.12
  C 781.39 467.55 778.64 465.42 774.57 464.96
  Q 765.98 464.00 759.84 471.11
  A 0.60 0.59 62.0 0 1 758.80 470.79
  L 758.36 467.23
  A 1.58 1.58 0.0 0 0 756.79 465.83
  L 750.40 465.83
  A 1.27 1.26 90.0 0 0 749.14 467.10
  L 749.14 510.30
  A 0.86 0.86 0.0 0 0 750.00 511.16
  L 759.28 511.16
  A 0.70 0.69 -0.4 0 0 759.98 510.46
  Q 759.86 494.21 759.92 481.50
  C 759.95 474.65 773.07 470.03 773.04 479.03
  Q 772.92 510.06 772.92 510.55
  A 0.62 0.62 0.0 0 0 773.54 511.16
  L 783.26 511.16
  A 0.64 0.64 0.0 0 0 783.90 510.52
  L 783.90 480.59
  A 2.21 2.17 61.9 0 1 784.25 479.40
  C 786.28 476.24 790.29 472.92 794.29 474.54
  Q 796.87 475.59 796.91 479.82
  Q 796.96 484.64 796.87 510.72
  A 0.43 0.42 90.0 0 0 797.29 511.15
  L 807.02 511.15
  A 0.79 0.79 0.0 0 0 807.81 510.35
  Q 807.70 495.01 807.85 478.25
  C 807.90 472.75 806.19 466.25 799.83 465.14
  C 792.81 463.90 788.22 466.40 783.56 471.27
  A 0.46 0.46 0.0 0 1 782.80 471.12
  Z
  M 825.14 490.93
  L 848.48 490.93
  A 0.56 0.55 2.2 0 0 849.04 490.42
  Q 849.50 484.77 848.01 477.99
  Q 845.52 466.65 835.15 465.08
  C 825.83 463.68 817.86 468.12 815.13 477.13
  Q 812.27 486.60 814.27 496.75
  C 817.65 513.95 833.82 513.89 847.27 509.66
  A 0.29 0.29 0.0 0 0 847.47 509.37
  L 847.14 501.16
  A 0.17 0.17 0.0 0 0 846.90 501.01
  C 842.63 502.93 834.31 505.00 830.04 502.82
  C 825.76 500.63 824.56 495.99 824.61 491.45
  A 0.53 0.53 0.0 0 1 825.14 490.93
  Z
  M 864.82 471.00
  Q 864.56 470.87 863.70 465.89
  A 0.28 0.28 0.0 0 0 863.42 465.66
  L 855.11 465.65
  A 0.30 0.30 0.0 0 0 854.81 465.95
  L 854.73 510.66
  A 0.42 0.42 0.0 0 0 855.15 511.08
  L 865.14 511.10
  A 0.52 0.52 0.0 0 0 865.66 510.58
  L 865.71 480.50
  A 2.07 2.06 61.1 0 1 866.02 479.41
  Q 869.01 474.60 873.66 473.95
  C 878.29 473.30 879.19 476.74 879.18 480.86
  Q 879.17 508.30 879.23 510.48
  A 0.65 0.64 -0.8 0 0 879.88 511.10
  L 889.72 511.12
  A 0.44 0.44 0.0 0 0 890.16 510.68
  Q 890.22 486.44 890.28 478.20
  C 890.32 471.35 887.68 465.46 880.05 464.85
  Q 871.57 464.17 865.71 470.82
  A 0.75 0.74 33.2 0 1 864.82 471.00
  Z
  M 962.81 471.08
  Q 962.55 470.95 961.68 465.97
  A 0.29 0.28 -4.9 0 0 961.40 465.74
  L 953.07 465.75
  A 0.30 0.30 0.0 0 0 952.77 466.05
  L 952.82 510.83
  A 0.42 0.42 0.0 0 0 953.24 511.25
  L 963.25 511.23
  A 0.52 0.52 0.0 0 0 963.77 510.72
  L 963.73 480.58
  A 2.07 2.06 61.0 0 1 964.04 479.50
  Q 967.02 474.67 971.67 474.00
  C 976.30 473.34 977.22 476.78 977.22 480.91
  Q 977.28 508.39 977.36 510.58
  A 0.65 0.64 -1.0 0 0 978.01 511.20
  L 987.86 511.19
  A 0.44 0.44 0.0 0 0 988.30 510.75
  Q 988.29 486.47 988.32 478.22
  C 988.35 471.36 985.68 465.47 978.04 464.88
  Q 969.55 464.22 963.70 470.90
  A 0.75 0.74 33.0 0 1 962.81 471.08
  Z
  M 1022.27 467.27
  A 1.03 1.03 0.0 0 0 1021.52 466.28
  C 1012.74 463.75 995.81 463.06 993.92 475.72
  C 992.39 485.91 1001.74 489.38 1009.88 493.88
  C 1017.07 497.84 1013.58 504.08 1006.50 503.96
  Q 1000.69 503.85 995.39 501.11
  A 0.23 0.23 0.0 0 0 995.06 501.31
  L 995.08 509.79
  A 0.35 0.35 0.0 0 0 995.34 510.12
  C 1005.24 512.90 1022.34 514.44 1024.49 500.83
  C 1026.11 490.53 1018.09 486.80 1010.34 483.14
  C 1007.18 481.64 1003.19 478.76 1005.39 474.98
  C 1007.79 470.86 1018.24 473.53 1021.54 474.80
  A 0.55 0.54 -79.5 0 0 1022.28 474.29
  L 1022.27 467.27
  Z
  M 1055.00 495.46
  C 1048.57 499.10 1046.36 506.80 1054.11 510.72
  A 0.28 0.28 0.0 0 1 1054.11 511.22
  Q 1051.78 512.42 1051.32 512.67
  C 1044.82 516.19 1045.09 525.21 1051.60 528.66
  C 1059.27 532.73 1071.38 531.75 1078.91 528.64
  Q 1088.66 524.62 1087.11 513.97
  C 1085.65 504.01 1073.04 504.76 1063.37 503.92
  C 1059.91 503.62 1057.06 500.90 1059.98 497.52
  A 1.06 1.04 -65.5 0 1 1060.90 497.17
  C 1069.91 498.31 1079.76 496.93 1082.91 487.58
  Q 1085.43 480.15 1081.79 473.79
  A 0.62 0.62 0.0 0 1 1082.33 472.86
  L 1087.93 472.86
  A 0.62 0.61 0.0 0 0 1088.55 472.25
  L 1088.55 466.29
  A 0.62 0.61 -1.3 0 0 1087.90 465.68
  Q 1084.35 465.83 1077.02 465.85
  Q 1074.01 465.86 1072.52 465.53
  C 1066.27 464.14 1060.75 464.32 1054.84 467.54
  C 1045.55 472.60 1045.89 489.35 1055.01 494.72
  A 0.43 0.43 0.0 0 1 1055.00 495.46
  Z
  M 1194.10 467.25
  A 1.03 1.03 0.0 0 0 1193.36 466.26
  C 1184.57 463.70 1167.61 462.97 1165.69 475.65
  C 1164.14 485.85 1173.49 489.35 1181.63 493.87
  C 1188.83 497.86 1185.32 504.10 1178.23 503.96
  Q 1172.41 503.84 1167.11 501.08
  A 0.23 0.23 0.0 0 0 1166.78 501.28
  L 1166.78 509.77
  A 0.35 0.35 0.0 0 0 1167.04 510.11
  C 1176.94 512.91 1194.07 514.49 1196.25 500.87
  C 1197.90 490.56 1189.87 486.80 1182.12 483.12
  C 1178.96 481.61 1174.97 478.72 1177.18 474.93
  C 1179.59 470.81 1190.05 473.51 1193.36 474.79
  A 0.55 0.54 -79.4 0 0 1194.10 474.28
  L 1194.10 467.25
  Z
  M 619.39 505.72
  Q 619.64 505.85 620.50 510.81
  A 0.28 0.28 0.0 0 0 620.78 511.04
  L 629.06 511.05
  A 0.30 0.30 0.0 0 0 629.36 510.75
  L 629.43 466.23
  A 0.42 0.42 0.0 0 0 629.02 465.81
  L 619.07 465.79
  A 0.52 0.52 0.0 0 0 618.55 466.31
  L 618.50 496.27
  A 2.06 2.05 61.1 0 1 618.19 497.35
  Q 615.21 502.14 610.58 502.79
  C 605.97 503.44 605.08 500.01 605.08 495.91
  Q 605.10 468.58 605.03 466.40
  A 0.65 0.64 -0.8 0 0 604.39 465.79
  L 594.59 465.77
  A 0.44 0.44 0.0 0 0 594.15 466.21
  Q 594.09 490.35 594.04 498.55
  C 593.99 505.37 596.63 511.24 604.22 511.84
  Q 612.66 512.52 618.50 505.90
  A 0.75 0.73 33.2 0 1 619.39 505.72
  Z
  M 1041.5286 466.3094
  A 0.61 0.61 0.0 0 0 1040.9196 465.6984
  L 1031.3596 465.6817
  A 0.61 0.61 0.0 0 0 1030.7486 466.2906
  L 1030.6714 510.4906
  A 0.61 0.61 0.0 0 0 1031.2804 511.1016
  L 1040.8404 511.1183
  A 0.61 0.61 0.0 0 0 1041.4514 510.5094
  L 1041.5286 466.3094
  Z"
/>
<path fill="#04398e" d="
  M 254.23 404.82
  A 0.51 0.51 0.0 0 1 254.74 404.29
  L 291.29 404.29
  A 0.54 0.54 0.0 0 0 291.83 403.73
  L 291.20 388.25
  A 0.54 0.53 89.0 0 1 291.73 387.69
  L 456.39 387.69
  A 0.61 0.61 0.0 0 1 457.00 388.30
  L 457.00 402.56
  A 0.58 0.58 0.0 0 0 457.58 403.14
  L 493.49 403.14
  A 0.69 0.69 0.0 0 1 494.18 403.82
  Q 494.64 428.50 485.31 451.56
  C 474.90 477.32 452.02 492.62 425.98 500.00
  A 2.65 2.60 -77.5 0 0 424.69 500.84
  C 415.55 511.81 404.41 520.95 390.50 525.64
  A 0.60 0.60 0.0 0 0 390.09 526.22
  C 390.40 533.75 390.09 541.33 398.14 545.09
  Q 401.67 546.73 406.83 547.91
  Q 413.51 549.43 426.02 550.93
  A 0.70 0.68 89.4 0 1 426.62 551.53
  L 428.58 567.80
  A 0.44 0.44 0.0 0 1 428.14 568.30
  L 320.31 568.30
  A 0.60 0.60 0.0 0 1 319.71 567.63
  L 321.73 551.46
  A 0.64 0.63 -86.4 0 1 322.36 550.90
  Q 325.76 550.89 337.72 548.92
  C 346.11 547.54 354.93 544.75 357.71 536.13
  Q 358.72 533.01 358.55 526.59
  A 0.83 0.81 -80.8 0 0 358.01 525.83
  Q 337.14 518.37 323.74 500.53
  A 1.46 1.42 -11.3 0 0 322.92 500.00
  Q 306.38 495.99 291.96 486.52
  C 280.36 478.90 271.06 468.95 264.89 456.10
  Q 257.56 440.82 255.49 423.27
  Q 254.57 415.43 254.23 404.82
  Z
  M 367.90 459.24
  L 342.33 438.07
  A 0.76 0.75 -46.5 0 0 341.33 438.10
  L 326.76 451.77
  A 0.86 0.85 -43.3 0 0 326.72 452.98
  L 368.01 497.00
  A 1.41 1.41 0.0 0 0 370.15 496.90
  C 373.86 492.11 378.68 487.42 381.91 483.48
  Q 384.65 480.15 388.90 475.31
  Q 422.95 436.59 423.81 435.56
  C 429.69 428.55 433.87 424.29 439.35 417.77
  Q 444.98 411.05 452.03 403.78
  Q 453.97 401.79 455.09 399.01
  A 1.21 1.21 0.0 0 0 454.57 397.51
  L 450.28 395.03
  A 1.58 1.56 -49.2 0 0 448.52 395.17
  L 368.98 459.24
  A 0.85 0.85 0.0 0 1 367.90 459.24
  Z
  M 439.34 477.17
  A 0.30 0.30 0.0 0 0 439.75 477.56
  C 453.37 470.65 464.63 459.81 470.57 445.31
  Q 475.52 433.22 477.27 419.77
  A 0.51 0.51 0.0 0 0 476.76 419.19
  L 455.93 419.19
  A 0.78 0.77 3.8 0 0 455.16 419.86
  C 452.79 439.70 447.61 459.56 439.34 477.17
  Z
  M 309.15 477.40
  C 300.90 459.97 295.71 440.30 293.30 420.64
  A 0.77 0.77 0.0 0 0 292.54 419.97
  L 271.89 420.03
  A 0.51 0.51 0.0 0 0 271.38 420.61
  Q 273.16 433.94 278.10 445.91
  C 284.03 460.27 295.22 470.98 308.74 477.79
  A 0.30 0.29 0.8 0 0 309.15 477.40
  Z"
/>
<path fill="#ffffff" d="
  M 367.90 459.24
  A 0.85 0.85 0.0 0 0 368.98 459.24
  L 448.52 395.17
  A 1.58 1.56 -49.2 0 1 450.28 395.03
  L 454.57 397.51
  A 1.21 1.21 0.0 0 1 455.09 399.01
  Q 453.97 401.79 452.03 403.78
  Q 444.98 411.05 439.35 417.77
  C 433.87 424.29 429.69 428.55 423.81 435.56
  Q 422.95 436.59 388.90 475.31
  Q 384.65 480.15 381.91 483.48
  C 378.68 487.42 373.86 492.11 370.15 496.90
  A 1.41 1.41 0.0 0 1 368.01 497.00
  L 326.72 452.98
  A 0.86 0.85 -43.3 0 1 326.76 451.77
  L 341.33 438.10
  A 0.76 0.75 -46.5 0 1 342.33 438.07
  L 367.90 459.24
  Z"
/>
<path fill="#ffffff" d="
  M 439.34 477.17
  C 447.61 459.56 452.79 439.70 455.16 419.86
  A 0.78 0.77 3.8 0 1 455.93 419.19
  L 476.76 419.19
  A 0.51 0.51 0.0 0 1 477.27 419.77
  Q 475.52 433.22 470.57 445.31
  C 464.63 459.81 453.37 470.65 439.75 477.56
  A 0.30 0.30 0.0 0 1 439.34 477.17
  Z"
/>
<path fill="#ffffff" d="
  M 309.15 477.40
  A 0.30 0.29 0.8 0 1 308.74 477.79
  C 295.22 470.98 284.03 460.27 278.10 445.91
  Q 273.16 433.94 271.38 420.61
  A 0.51 0.51 0.0 0 1 271.89 420.03
  L 292.54 419.97
  A 0.77 0.77 0.0 0 1 293.30 420.64
  C 295.71 440.30 300.90 459.97 309.15 477.40
  Z"
/>
<path fill="#4c4c4c" d="
  M 1103.88 511.20
  L 1093.99 511.20
  A 0.63 0.62 -90.0 0 1 1093.37 510.57
  L 1093.37 443.81
  A 0.47 0.46 -90.0 0 1 1093.83 443.34
  L 1103.90 443.34
  A 0.42 0.42 0.0 0 1 1104.32 443.76
  L 1104.32 470.37
  A 0.24 0.23 66.1 0 0 1104.73 470.53
  C 1112.30 462.11 1128.47 461.65 1128.84 476.45
  Q 1129.23 492.51 1128.89 510.64
  A 0.53 0.53 0.0 0 1 1128.36 511.16
  L 1118.55 511.16
  A 0.59 0.59 0.0 0 1 1117.96 510.57
  Q 1117.84 499.09 1117.89 481.34
  C 1117.90 477.20 1117.81 474.73 1113.79 473.92
  C 1110.25 473.21 1106.44 476.63 1104.58 479.35
  A 1.85 1.84 62.2 0 0 1104.26 480.39
  L 1104.26 510.82
  A 0.38 0.38 0.0 0 1 1103.88 511.20
  Z"
/>
<rect fill="#4c4c4c" x="932.64" y="446.30" width="11.42" height="64.88" rx="0.49"/>
<rect fill="#4c4c4c" x="-5.51" y="-5.51" transform="translate(1035.99,451.77) rotate(0.1)" width="11.02" height="11.02" rx="0.65"/>
<path fill="#04398e" d="
  M 533.43 511.11
  Q 530.66 511.11 528.02 511.13
  A 0.41 0.41 0.0 0 1 527.60 510.72
  L 527.60 457.11
  A 0.54 0.54 0.0 0 0 527.06 456.57
  L 510.96 456.57
  A 0.62 0.61 -90.0 0 1 510.35 455.95
  L 510.35 447.05
  A 0.40 0.40 0.0 0 1 510.75 446.65
  Q 531.63 446.67 533.46 446.67
  Q 535.30 446.67 556.17 446.67
  A 0.40 0.40 0.0 0 1 556.57 447.07
  L 556.56 455.97
  A 0.62 0.61 -89.9 0 1 555.95 456.59
  L 539.85 456.58
  A 0.54 0.54 0.0 0 0 539.31 457.12
  L 539.26 510.73
  A 0.41 0.41 0.0 0 1 538.84 511.14
  Q 536.20 511.11 533.43 511.11
  Z"
/>
<path fill="#4c4c4c" d="
  M 1150.37 453.10
  L 1150.37 464.55
  A 1.13 1.12 0.0 0 0 1151.50 465.67
  L 1161.01 465.67
  A 0.40 0.40 0.0 0 1 1161.41 466.07
  L 1161.41 473.61
  A 0.37 0.37 0.0 0 1 1161.04 473.98
  L 1151.17 473.96
  A 0.64 0.63 -0.9 0 0 1150.53 474.61
  Q 1150.54 474.90 1150.40 498.26
  C 1150.36 505.02 1156.96 503.88 1161.15 502.58
  A 0.22 0.21 -8.3 0 1 1161.43 502.78
  L 1161.43 510.22
  A 0.36 0.35 81.0 0 1 1161.19 510.56
  Q 1154.28 512.92 1147.41 511.49
  C 1141.12 510.17 1139.58 505.85 1139.59 499.75
  Q 1139.61 483.71 1139.52 474.58
  A 0.69 0.69 0.0 0 0 1138.83 473.90
  L 1133.90 473.90
  A 0.95 0.95 0.0 0 1 1132.95 472.95
  L 1132.95 466.76
  A 1.04 1.04 0.0 0 1 1133.99 465.72
  L 1138.66 465.72
  A 0.94 0.94 0.0 0 0 1139.60 464.78
  L 1139.60 454.23
  A 0.67 0.65 -3.5 0 1 1140.19 453.58
  L 1149.63 452.43
  A 0.67 0.66 86.6 0 1 1150.37 453.10
  Z"
/>
<path fill="#04398e" d="
  M 910.50 452.47
  A 0.67 0.66 86.5 0 1 911.24 453.14
  L 911.25 464.56
  A 1.13 1.12 -0.1 0 0 912.38 465.68
  L 921.86 465.67
  A 0.40 0.40 0.0 0 1 922.26 466.07
  L 922.27 473.59
  A 0.37 0.37 0.0 0 1 921.90 473.96
  L 912.06 473.94
  A 0.64 0.63 -0.9 0 0 911.42 474.59
  Q 911.43 474.88 911.31 498.18
  C 911.28 504.93 917.86 503.78 922.04 502.48
  A 0.22 0.21 -8.3 0 1 922.32 502.68
  L 922.32 510.10
  A 0.36 0.35 81.0 0 1 922.08 510.44
  Q 915.19 512.80 908.34 511.38
  C 902.07 510.07 900.53 505.76 900.53 499.68
  Q 900.54 483.68 900.44 474.57
  A 0.69 0.69 0.0 0 0 899.75 473.90
  L 894.83 473.90
  A 0.95 0.95 0.0 0 1 893.88 472.95
  L 893.88 466.78
  A 1.04 1.04 0.0 0 1 894.91 465.74
  L 899.57 465.74
  A 0.94 0.94 0.0 0 0 900.51 464.80
  L 900.50 454.28
  A 0.67 0.65 -3.5 0 1 901.09 453.63
  L 910.50 452.47
  Z"
/>
<path fill="#04398e" d="
  M 569.78 464.90
  C 584.08 464.79 588.55 476.00 588.64 488.33
  C 588.74 500.65 584.45 511.94 570.16 512.06
  C 555.86 512.17 551.39 500.95 551.29 488.63
  C 551.19 476.30 555.48 465.01 569.78 464.90
  Z
  M 562.35 488.32
  C 562.33 493.37 562.49 503.88 569.88 503.91
  C 577.28 503.94 577.51 493.43 577.53 488.38
  C 577.55 483.32 577.40 472.82 570.00 472.79
  C 562.61 472.76 562.37 483.26 562.35 488.32
  Z"
/>
<path fill="#04398e" d="
  M 662.60 475.06
  A 0.35 0.34 -84.5 0 1 662.19 475.40
  Q 652.32 473.64 648.36 481.20
  A 3.79 3.72 59.2 0 0 647.94 482.93
  L 647.94 510.38
  A 0.76 0.75 -90.0 0 1 647.19 511.14
  L 637.58 511.14
  A 0.57 0.57 0.0 0 1 637.01 510.57
  L 637.01 467.30
  A 1.58 1.58 0.0 0 1 638.59 465.72
  L 644.62 465.72
  A 1.75 1.74 86.5 0 1 646.35 467.25
  L 646.95 472.26
  A 0.50 0.50 0.0 0 0 647.89 472.42
  Q 652.33 463.78 662.36 465.08
  A 0.27 0.26 3.7 0 1 662.60 465.34
  L 662.60 475.06
  Z"
/>
<path fill="#04398e" d="
  M 676.60 471.08
  A 0.75 0.74 33.1 0 0 677.49 470.90
  Q 683.36 464.22 691.86 464.89
  C 699.51 465.49 702.17 471.39 702.14 478.26
  Q 702.10 486.52 702.08 510.83
  A 0.44 0.44 0.0 0 1 701.64 511.27
  L 691.77 511.27
  A 0.65 0.64 -0.9 0 1 691.12 510.65
  Q 691.05 508.46 691.02 480.94
  C 691.02 476.81 690.11 473.36 685.47 474.02
  Q 680.81 474.68 677.82 479.51
  A 2.07 2.06 61.0 0 0 677.51 480.60
  L 677.51 510.77
  A 0.52 0.52 0.0 0 1 676.99 511.29
  L 666.97 511.29
  A 0.42 0.42 0.0 0 1 666.55 510.87
  L 666.55 466.03
  A 0.30 0.30 0.0 0 1 666.85 465.73
  L 675.19 465.73
  A 0.29 0.28 -4.8 0 1 675.47 465.96
  Q 676.34 470.95 676.60 471.08
  Z"
/>
<path fill="#04398e" d="
  M 730.08 483.91
  A 0.72 0.71 4.2 0 0 730.79 483.30
  Q 731.06 481.60 730.80 478.32
  C 730.07 469.21 715.97 473.46 711.21 476.03
  A 0.23 0.22 73.9 0 1 710.88 475.84
  L 710.58 468.34
  A 0.30 0.29 77.4 0 1 710.76 468.05
  Q 720.34 464.04 729.57 465.11
  Q 736.85 465.95 740.12 471.87
  Q 741.83 474.97 741.60 483.34
  Q 741.41 490.47 741.52 509.91
  A 1.26 1.26 0.0 0 1 740.26 511.17
  L 733.78 511.17
  A 1.42 1.41 86.6 0 1 732.38 509.92
  L 731.99 506.74
  A 0.59 0.59 0.0 0 0 730.96 506.43
  Q 727.28 510.73 722.49 511.64
  C 714.34 513.21 707.62 509.08 707.09 500.25
  C 706.26 486.43 719.10 483.78 730.08 483.91
  Z
  M 730.17 490.02
  Q 729.21 489.89 725.66 490.17
  C 719.98 490.62 717.09 494.17 718.17 500.18
  Q 718.97 504.65 723.64 504.05
  Q 728.38 503.45 730.80 498.71
  A 1.80 1.70 58.5 0 0 730.98 497.85
  L 730.69 490.60
  A 0.62 0.61 3.5 0 0 730.17 490.02
  Z"
/>
<path fill="#04398e" d="
  M 783.56 471.27
  C 788.22 466.40 792.81 463.90 799.83 465.14
  C 806.19 466.25 807.90 472.75 807.85 478.25
  Q 807.70 495.01 807.81 510.35
  A 0.79 0.79 0.0 0 1 807.02 511.15
  L 797.29 511.15
  A 0.43 0.42 -90.0 0 1 796.87 510.72
  Q 796.96 484.64 796.91 479.82
  Q 796.87 475.59 794.29 474.54
  C 790.29 472.92 786.28 476.24 784.25 479.40
  A 2.21 2.17 61.9 0 0 783.90 480.59
  L 783.90 510.52
  A 0.64 0.64 0.0 0 1 783.26 511.16
  L 773.54 511.16
  A 0.62 0.62 0.0 0 1 772.92 510.55
  Q 772.92 510.06 773.04 479.03
  C 773.07 470.03 759.95 474.65 759.92 481.50
  Q 759.86 494.21 759.98 510.46
  A 0.70 0.69 -0.4 0 1 759.28 511.16
  L 750.00 511.16
  A 0.86 0.86 0.0 0 1 749.14 510.30
  L 749.14 467.10
  A 1.27 1.26 -90.0 0 1 750.40 465.83
  L 756.79 465.83
  A 1.58 1.58 0.0 0 1 758.36 467.23
  L 758.80 470.79
  A 0.60 0.59 62.0 0 0 759.84 471.11
  Q 765.98 464.00 774.57 464.96
  C 778.64 465.42 781.39 467.55 782.80 471.12
  A 0.46 0.46 0.0 0 0 783.56 471.27
  Z"
/>
<path fill="#04398e" d="
  M 824.61 491.45
  C 824.56 495.99 825.76 500.63 830.04 502.82
  C 834.31 505.00 842.63 502.93 846.90 501.01
  A 0.17 0.17 0.0 0 1 847.14 501.16
  L 847.47 509.37
  A 0.29 0.29 0.0 0 1 847.27 509.66
  C 833.82 513.89 817.65 513.95 814.27 496.75
  Q 812.27 486.60 815.13 477.13
  C 817.86 468.12 825.83 463.68 835.15 465.08
  Q 845.52 466.65 848.01 477.99
  Q 849.50 484.77 849.04 490.42
  A 0.56 0.55 2.2 0 1 848.48 490.93
  L 825.14 490.93
  A 0.53 0.53 0.0 0 0 824.61 491.45
  Z
  M 825.13 484.24
  L 838.35 484.24
  A 0.28 0.28 0.0 0 0 838.63 483.96
  L 838.63 481.00
  A 9.02 6.48 90.0 0 0 832.15 471.98
  L 831.33 471.98
  A 9.02 6.48 -90.0 0 0 824.85 481.00
  L 824.85 483.96
  A 0.28 0.28 0.0 0 0 825.13 484.24
  Z"
/>
<path fill="#04398e" d="
  M 864.82 471.00
  A 0.75 0.74 33.2 0 0 865.71 470.82
  Q 871.57 464.17 880.05 464.85
  C 887.68 465.46 890.32 471.35 890.28 478.20
  Q 890.22 486.44 890.16 510.68
  A 0.44 0.44 0.0 0 1 889.72 511.12
  L 879.88 511.10
  A 0.65 0.64 -0.8 0 1 879.23 510.48
  Q 879.17 508.30 879.18 480.86
  C 879.19 476.74 878.29 473.30 873.66 473.95
  Q 869.01 474.60 866.02 479.41
  A 2.07 2.06 61.1 0 0 865.71 480.50
  L 865.66 510.58
  A 0.52 0.52 0.0 0 1 865.14 511.10
  L 855.15 511.08
  A 0.42 0.42 0.0 0 1 854.73 510.66
  L 854.81 465.95
  A 0.30 0.30 0.0 0 1 855.11 465.65
  L 863.42 465.66
  A 0.28 0.28 0.0 0 1 863.70 465.89
  Q 864.56 470.87 864.82 471.00
  Z"
/>
<path fill="#4c4c4c" d="
  M 962.81 471.08
  A 0.75 0.74 33.0 0 0 963.70 470.90
  Q 969.55 464.22 978.04 464.88
  C 985.68 465.47 988.35 471.36 988.32 478.22
  Q 988.29 486.47 988.30 510.75
  A 0.44 0.44 0.0 0 1 987.86 511.19
  L 978.01 511.20
  A 0.65 0.64 -1.0 0 1 977.36 510.58
  Q 977.28 508.39 977.22 480.91
  C 977.22 476.78 976.30 473.34 971.67 474.00
  Q 967.02 474.67 964.04 479.50
  A 2.07 2.06 61.0 0 0 963.73 480.58
  L 963.77 510.72
  A 0.52 0.52 0.0 0 1 963.25 511.23
  L 953.24 511.25
  A 0.42 0.42 0.0 0 1 952.82 510.83
  L 952.77 466.05
  A 0.30 0.30 0.0 0 1 953.07 465.75
  L 961.40 465.74
  A 0.29 0.28 -4.9 0 1 961.68 465.97
  Q 962.55 470.95 962.81 471.08
  Z"
/>
<path fill="#4c4c4c" d="
  M 1022.27 467.27
  L 1022.28 474.29
  A 0.55 0.54 -79.5 0 1 1021.54 474.80
  C 1018.24 473.53 1007.79 470.86 1005.39 474.98
  C 1003.19 478.76 1007.18 481.64 1010.34 483.14
  C 1018.09 486.80 1026.11 490.53 1024.49 500.83
  C 1022.34 514.44 1005.24 512.90 995.34 510.12
  A 0.35 0.35 0.0 0 1 995.08 509.79
  L 995.06 501.31
  A 0.23 0.23 0.0 0 1 995.39 501.11
  Q 1000.69 503.85 1006.50 503.96
  C 1013.58 504.08 1017.07 497.84 1009.88 493.88
  C 1001.74 489.38 992.39 485.91 993.92 475.72
  C 995.81 463.06 1012.74 463.75 1021.52 466.28
  A 1.03 1.03 0.0 0 1 1022.27 467.27
  Z"
/>
<path fill="#4c4c4c" d="
  M 1055.00 495.46
  A 0.43 0.43 0.0 0 0 1055.01 494.72
  C 1045.89 489.35 1045.55 472.60 1054.84 467.54
  C 1060.75 464.32 1066.27 464.14 1072.52 465.53
  Q 1074.01 465.86 1077.02 465.85
  Q 1084.35 465.83 1087.90 465.68
  A 0.62 0.61 -1.3 0 1 1088.55 466.29
  L 1088.55 472.25
  A 0.62 0.61 -0.0 0 1 1087.93 472.86
  L 1082.33 472.86
  A 0.62 0.62 0.0 0 0 1081.79 473.79
  Q 1085.43 480.15 1082.91 487.58
  C 1079.76 496.93 1069.91 498.31 1060.90 497.17
  A 1.06 1.04 -65.5 0 0 1059.98 497.52
  C 1057.06 500.90 1059.91 503.62 1063.37 503.92
  C 1073.04 504.76 1085.65 504.01 1087.11 513.97
  Q 1088.66 524.62 1078.91 528.64
  C 1071.38 531.75 1059.27 532.73 1051.60 528.66
  C 1045.09 525.21 1044.82 516.19 1051.32 512.67
  Q 1051.78 512.42 1054.11 511.22
  A 0.28 0.28 0.0 0 0 1054.11 510.72
  C 1046.36 506.80 1048.57 499.10 1055.00 495.46
  Z
  M 1066.3586 471.5138
  A 9.62 7.15 -88.4 0 0 1058.9428 480.9304
  A 9.62 7.15 -88.4 0 0 1065.8214 490.7462
  A 9.62 7.15 -88.4 0 0 1073.2372 481.3296
  A 9.62 7.15 -88.4 0 0 1066.3586 471.5138
  Z
  M 1076.86 517.81
  C 1077.07 514.82 1074.26 513.79 1071.52 513.43
  Q 1070.30 513.27 1062.06 512.71
  A 2.25 2.22 -55.7 0 0 1060.88 512.94
  C 1055.74 515.48 1055.60 522.72 1061.71 523.59
  C 1066.14 524.23 1076.43 524.20 1076.86 517.81
  Z"
/>
<path fill="#4c4c4c" d="
  M 1193.36 474.79
  C 1190.05 473.51 1179.59 470.81 1177.18 474.93
  C 1174.97 478.72 1178.96 481.61 1182.12 483.12
  C 1189.87 486.80 1197.90 490.56 1196.25 500.87
  C 1194.07 514.49 1176.94 512.91 1167.04 510.11
  A 0.35 0.35 0.0 0 1 1166.78 509.77
  L 1166.78 501.28
  A 0.23 0.23 0.0 0 1 1167.11 501.08
  Q 1172.41 503.84 1178.23 503.96
  C 1185.32 504.10 1188.83 497.86 1181.63 493.87
  C 1173.49 489.35 1164.14 485.85 1165.69 475.65
  C 1167.61 462.97 1184.57 463.70 1193.36 466.26
  A 1.03 1.03 0.0 0 1 1194.10 467.25
  L 1194.10 474.28
  A 0.55 0.54 -79.4 0 1 1193.36 474.79
  Z"
/>
<path fill="#04398e" d="
  M 619.39 505.72
  A 0.75 0.73 33.2 0 0 618.50 505.90
  Q 612.66 512.52 604.22 511.84
  C 596.63 511.24 593.99 505.37 594.04 498.55
  Q 594.09 490.35 594.15 466.21
  A 0.44 0.44 0.0 0 1 594.59 465.77
  L 604.39 465.79
  A 0.65 0.64 -0.8 0 1 605.03 466.40
  Q 605.10 468.58 605.08 495.91
  C 605.08 500.01 605.97 503.44 610.58 502.79
  Q 615.21 502.14 618.19 497.35
  A 2.06 2.05 61.1 0 0 618.50 496.27
  L 618.55 466.31
  A 0.52 0.52 0.0 0 1 619.07 465.79
  L 629.02 465.81
  A 0.42 0.42 0.0 0 1 629.43 466.23
  L 629.36 510.75
  A 0.30 0.30 0.0 0 1 629.06 511.05
  L 620.78 511.04
  A 0.28 0.28 0.0 0 1 620.50 510.81
  Q 619.64 505.85 619.39 505.72
  Z"
/>
<rect fill="#4c4c4c" x="-5.39" y="-22.71" transform="translate(1036.10,488.40) rotate(0.1)" width="10.78" height="45.42" rx="0.61"/>
<ellipse fill="#ffffff" cx="0.00" cy="0.00" transform="translate(1066.09,481.13) rotate(-88.4)" rx="9.62" ry="7.15"/>
<path fill="#ffffff" d="
  M 825.13 484.24
  A 0.28 0.28 0.0 0 1 824.85 483.96
  L 824.85 481.00
  A 9.02 6.48 90.0 0 1 831.33 471.98
  L 832.15 471.98
  A 9.02 6.48 -90.0 0 1 838.63 481.00
  L 838.63 483.96
  A 0.28 0.28 0.0 0 1 838.35 484.24
  L 825.13 484.24
  Z"
/>
<path fill="#ffffff" d="
  M 570.00 472.79
  C 577.40 472.82 577.55 483.32 577.53 488.38
  C 577.51 493.43 577.28 503.94 569.88 503.91
  C 562.49 503.88 562.33 493.37 562.35 488.32
  C 562.37 483.26 562.61 472.76 570.00 472.79
  Z"
/>
<path fill="#ffffff" d="
  M 730.17 490.02
  A 0.62 0.61 3.5 0 1 730.69 490.60
  L 730.98 497.85
  A 1.80 1.70 58.5 0 1 730.80 498.71
  Q 728.38 503.45 723.64 504.05
  Q 718.97 504.65 718.17 500.18
  C 717.09 494.17 719.98 490.62 725.66 490.17
  Q 729.21 489.89 730.17 490.02
  Z"
/>
<path fill="#ffffff" d="
  M 1076.86 517.81
  C 1076.43 524.20 1066.14 524.23 1061.71 523.59
  C 1055.60 522.72 1055.74 515.48 1060.88 512.94
  A 2.25 2.22 -55.7 0 1 1062.06 512.71
  Q 1070.30 513.27 1071.52 513.43
  C 1074.26 513.79 1077.07 514.82 1076.86 517.81
  Z"
/>
</svg>
