<?xml version="1.0" encoding="UTF-8" standalone="no"?>
<!DOCTYPE svg PUBLIC "-//W3C//DTD SVG 1.1//EN" "http://www.w3.org/Graphics/SVG/1.1/DTD/svg11.dtd">
<svg xmlns="http://www.w3.org/2000/svg" version="1.1" viewBox="0.00 0.00 1024.00 1536.00">
<g stroke-width="2.00" fill="none" stroke-linecap="butt">
<path stroke="#a03430" stroke-opacity="0.929" vector-effect="non-scaling-stroke" d="
  M 286.81 523.44
  L 286.84 512.98"
/>
<path stroke="#a03430" stroke-opacity="0.929" vector-effect="non-scaling-stroke" d="
  M 287.09 438.04
  L 287.43 435.27"
/>
</g>
<path fill="#838183" fill-opacity="0.282" d="
  M 119.75 0.00
  L 103.33 0.35
  Q 99.42 0.77 93.25 0.79
  Q 47.40 0.89 2.04 0.87
  A 1.11 1.11 0.0 0 0 0.93 1.98
  Q 0.93 768.97 0.93 1534.98
  Q 0.93 1535.38 1.52 1536.00
  L 0.00 1536.00
  L 0.00 0.00
  L 119.75 0.00
  Z"
/>
<path fill="#4b4841" fill-opacity="0.855" d="
  M 480.25 0.00
  Q 480.59 0.08 480.88 0.00
  Q 481.06 0.00 481.25 0.00
  Q 481.79 0.13 481.88 0.00
  Q 482.07 0.00 482.25 0.00
  Q 482.75 0.15 482.88 0.00
  L 498.25 0.00
  Q 498.81 0.19 498.88 0.00
  L 879.90 0.00
  Q 882.28 0.58 884.78 0.00
  Q 884.89 0.02 884.99 0.00
  Q 907.49 0.18 929.98 0.18
  Q 930.19 0.18 930.26 0.20
  A 0.33 0.07 -2.9 0 1 929.82 0.32
  Q 927.36 0.17 924.95 0.48
  L 103.33 0.35
  L 119.75 0.00
  L 480.25 0.00
  Z"
/>
<path fill="#838183" fill-opacity="0.282" d="
  M 480.88 0.00
  Q 480.59 0.08 480.25 0.00
  L 480.88 0.00
  Z"
/>
<path fill="#838183" fill-opacity="0.282" d="
  M 481.88 0.00
  Q 481.79 0.13 481.25 0.00
  L 481.88 0.00
  Z"
/>
<path fill="#838183" fill-opacity="0.282" d="
  M 482.88 0.00
  Q 482.75 0.15 482.25 0.00
  L 482.88 0.00
  Z"
/>
<path fill="#838183" fill-opacity="0.282" d="
  M 498.88 0.00
  Q 498.81 0.19 498.25 0.00
  L 498.88 0.00
  Z"
/>
<path fill="#838183" fill-opacity="0.282" d="
  M 884.78 0.00
  Q 882.28 0.58 879.90 0.00
  L 884.78 0.00
  Z"
/>
<path fill="#838183" fill-opacity="0.282" d="
  M 1024.00 0.00
  L 1024.00 1536.00
  L 1022.60 1536.00
  Q 1023.23 1535.35 1023.23 1534.99
  Q 1023.25 769.03 1023.25 2.13
  A 1.28 1.28 0.0 0 0 1021.98 0.85
  L 924.95 0.48
  Q 927.36 0.17 929.82 0.32
  A 0.33 0.07 -2.9 0 0 930.26 0.20
  Q 930.19 0.18 929.98 0.18
  Q 907.49 0.18 884.99 0.00
  L 1024.00 0.00
  Z"
/>
<path fill="#e92221" d="
  M 286.81 523.44
  L 286.84 512.98
  L 287.09 438.04
  L 287.43 435.27
  C 289.55 416.27 302.93 401.56 321.03 396.55
  Q 326.53 395.02 334.51 395.02
  Q 510.24 395.09 693.76 395.00
  Q 696.03 395.00 701.16 396.23
  C 721.26 401.06 734.60 417.09 736.31 437.79
  Q 736.66 442.00 736.66 446.72
  Q 736.75 725.97 736.77 1079.11
  Q 736.77 1095.14 736.21 1098.84
  C 733.53 1116.51 721.24 1129.93 704.02 1134.76
  Q 698.94 1136.18 687.35 1136.17
  Q 577.10 1136.10 340.42 1136.20
  Q 324.68 1136.21 319.24 1134.70
  Q 302.22 1130.00 292.89 1114.60
  Q 287.07 1104.99 287.05 1092.25
  Q 286.76 807.85 286.81 523.44
  Z"
/>
<path fill="#4b4841" fill-opacity="0.855" d="
  M 287.43 435.27
  L 287.09 438.04
  Q 286.99 436.63 287.43 435.27
  Z"
/>
<path fill="#4b4841" fill-opacity="0.855" d="
  M 286.81 523.44
  L 286.84 512.98
  L 286.81 523.44
  Z"
/>
<path fill="#838183" fill-opacity="0.282" d="
  M 40.14 1536.00
  L 38.99 1536.00
  Q 39.28 1535.57 40.14 1536.00
  Z"
/>
<path fill="#838183" fill-opacity="0.282" d="
  M 57.36 1536.00
  L 40.27 1536.00
  L 57.36 1536.00
  Z"
/>
<path fill="#838183" fill-opacity="0.282" d="
  M 80.36 1536.00
  L 59.52 1536.00
  L 80.36 1536.00
  Z"
/>
<path fill="#838183" fill-opacity="0.282" d="
  M 86.37 1536.00
  L 84.72 1536.00
  Q 85.27 1535.70 86.37 1536.00
  Z"
/>
<path fill="#838183" fill-opacity="0.282" d="
  M 120.61 1536.00
  L 92.78 1536.00
  L 120.61 1536.00
  Z"
/>
<path fill="#838183" fill-opacity="0.282" d="
  M 128.36 1536.00
  L 122.76 1536.00
  L 128.36 1536.00
  Z"
/>
<path fill="#838183" fill-opacity="0.282" d="
  M 135.13 1536.00
  L 131.73 1536.00
  Q 133.30 1535.66 135.13 1536.00
  Z"
/>
<path fill="#838183" fill-opacity="0.282" d="
  M 145.37 1536.00
  L 139.27 1536.00
  L 145.37 1536.00
  Z"
/>
<path fill="#838183" fill-opacity="0.282" d="
  M 168.61 1536.00
  L 145.80 1536.00
  Q 145.80 1535.96 145.81 1535.92
  A 0.10 0.09 3.2 0 1 145.91 1535.84
  L 168.61 1536.00
  Z"
/>
<path fill="#838183" fill-opacity="0.282" d="
  M 185.36 1536.00
  L 171.78 1536.00
  L 185.36 1536.00
  Z"
/>
<path fill="#838183" fill-opacity="0.282" d="
  M 199.86 1536.00
  L 186.78 1536.00
  L 199.86 1536.00
  Z"
/>
<path fill="#838183" fill-opacity="0.282" d="
  M 208.36 1536.00
  L 203.27 1536.00
  L 208.36 1536.00
  Z"
/>
<path fill="#838183" fill-opacity="0.282" d="
  M 216.61 1536.00
  L 211.77 1536.00
  L 216.61 1536.00
  Z"
/>
<path fill="#838183" fill-opacity="0.282" d="
  M 232.11 1536.00
  L 218.78 1536.00
  L 232.11 1536.00
  Z"
/>
<path fill="#838183" fill-opacity="0.282" d="
  M 248.11 1536.00
  L 236.03 1536.00
  L 248.11 1536.00
  Z"
/>
<path fill="#838183" fill-opacity="0.282" d="
  M 256.37 1536.00
  L 251.76 1536.00
  Q 254.06 1535.57 256.37 1536.00
  Z"
/>
<path fill="#838183" fill-opacity="0.282" d="
  M 264.37 1536.00
  L 258.26 1536.00
  L 264.37 1536.00
  Z"
/>
<path fill="#838183" fill-opacity="0.282" d="
  M 271.87 1536.00
  L 266.76 1536.00
  Q 269.33 1535.56 271.87 1536.00
  Z"
/>
<path fill="#838183" fill-opacity="0.282" d="
  M 776.34 1536.00
  L 281.55 1536.00
  Q 281.55 1535.94 281.56 1535.88
  A 0.14 0.13 -87.6 0 1 281.69 1535.75
  L 776.19 1535.77
  A 0.03 0.02 58.3 0 1 776.21 1535.78
  Q 776.28 1535.89 776.34 1536.00
  Z"
/>
<path fill="#838183" fill-opacity="0.282" d="
  M 784.37 1536.00
  L 778.76 1536.00
  L 784.37 1536.00
  Z"
/>
<path fill="#838183" fill-opacity="0.282" d="
  M 793.11 1536.00
  L 784.77 1536.00
  L 793.11 1536.00
  Z"
/>
<path fill="#838183" fill-opacity="0.282" d="
  M 799.80 1536.00
  L 796.23 1536.00
  Q 798.03 1535.58 799.80 1536.00
  Z"
/>
<path fill="#838183" fill-opacity="0.282" d="
  M 816.12 1536.00
  L 814.25 1536.00
  Q 815.20 1535.81 816.12 1536.00
  Z"
/>
<path fill="#838183" fill-opacity="0.282" d="
  M 839.85 1536.00
  L 834.27 1536.00
  L 839.85 1536.00
  Z"
/>
<path fill="#838183" fill-opacity="0.282" d="
  M 856.10 1536.00
  L 851.52 1536.00
  L 856.10 1536.00
  Z"
/>
<path fill="#838183" fill-opacity="0.282" d="
  M 864.11 1536.00
  L 858.26 1536.00
  L 864.11 1536.00
  Z"
/>
<path fill="#838183" fill-opacity="0.282" d="
  M 878.14 1536.00
  L 875.73 1536.00
  Q 876.89 1535.59 878.14 1536.00
  Z"
/>
<path fill="#838183" fill-opacity="0.282" d="
  M 880.14 1536.00
  L 878.32 1536.00
  Q 879.36 1535.65 880.14 1536.00
  Z"
/>
<path fill="#838183" fill-opacity="0.282" d="
  M 888.11 1536.00
  L 882.77 1536.00
  L 888.11 1536.00
  Z"
/>
<path fill="#838183" fill-opacity="0.282" d="
  M 895.60 1536.00
  L 890.52 1536.00
  L 895.60 1536.00
  Z"
/>
<path fill="#838183" fill-opacity="0.282" d="
  M 937.60 1536.00
  L 899.78 1536.00
  L 937.60 1536.00
  Z"
/>
<path fill="#838183" fill-opacity="0.282" d="
  M 942.38 1536.00
  L 938.73 1536.00
  L 942.38 1536.00
  Z"
/>
<path fill="#838183" fill-opacity="0.282" d="
  M 952.36 1536.00
  L 942.78 1536.00
  L 952.36 1536.00
  Z"
/>
<path fill="#838183" fill-opacity="0.282" d="
  M 969.12 1536.00
  L 955.77 1536.00
  L 969.12 1536.00
  Z"
/>
<path fill="#838183" fill-opacity="0.282" d="
  M 976.15 1536.00
  L 972.72 1536.00
  Q 974.44 1535.57 976.15 1536.00
  Z"
/>
<path fill="#838183" fill-opacity="0.282" d="
  M 993.11 1536.00
  L 978.77 1536.00
  L 993.11 1536.00
  Z"
/>
<path fill="#838183" fill-opacity="0.282" d="
  M 1000.10 1536.00
  L 995.52 1536.00
  L 1000.10 1536.00
  Z"
/>
</svg>
