<?xml version="1.0" encoding="UTF-8" standalone="no"?>
<!DOCTYPE svg PUBLIC "-//W3C//DTD SVG 1.1//EN" "http://www.w3.org/Graphics/SVG/1.1/DTD/svg11.dtd">
<svg xmlns="http://www.w3.org/2000/svg" version="1.1" viewBox="0.00 0.00 1024.00 1024.00">
<g stroke-width="2.00" fill="none" stroke-linecap="butt">
<path stroke="#808080" vector-effect="non-scaling-stroke" d="
  M 540.88 256.63
  A 6.57 6.57 0.0 0 0 534.31 250.06
  L 533.93 250.06
  A 6.57 6.57 0.0 0 0 527.36 256.63
  L 527.36 296.29
  A 6.57 6.57 0.0 0 0 533.93 302.86
  L 534.31 302.86
  A 6.57 6.57 0.0 0 0 540.88 296.29
  L 540.88 256.63"
/>
<path stroke="#808080" vector-effect="non-scaling-stroke" d="
  M 586.4137 269.0055
  A 6.61 6.61 0.0 0 0 583.7430 260.0471
  L 583.4616 259.8949
  A 6.61 6.61 0.0 0 0 574.5032 262.5655
  L 557.4663 294.0745
  A 6.61 6.61 0.0 0 0 560.1370 303.0329
  L 560.4184 303.1851
  A 6.61 6.61 0.0 0 0 569.3768 300.5145
  L 586.4137 269.0055"
/>
<path stroke="#808080" vector-effect="non-scaling-stroke" d="
  M 492.8787 262.7230
  A 6.55 6.55 0.0 0 0 484.0203 260.0147
  L 483.7555 260.1556
  A 6.55 6.55 0.0 0 0 481.0472 269.0139
  L 498.3613 301.5770
  A 6.55 6.55 0.0 0 0 507.2197 304.2853
  L 507.4845 304.1444
  A 6.55 6.55 0.0 0 0 510.1928 295.2861
  L 492.8787 262.7230"
/>
<path stroke="#808080" vector-effect="non-scaling-stroke" d="
  M 516.68 327.19
  Q 493.58 327.03 474.51 327.23
  Q 460.43 327.37 450.24 329.72
  C 403.54 340.50 371.65 384.94 377.62 433.15
  C 381.72 466.27 402.23 493.50 432.38 507.40
  C 468.11 523.87 510.05 516.19 537.40 488.30
  Q 566.10 459.03 565.87 417.18
  C 565.85 412.02 565.10 407.52 564.73 402.44
  A 0.50 0.49 87.8 0 1 565.22 401.90
  Q 650.62 401.84 679.58 401.92
  C 687.66 401.95 693.82 402.77 695.59 394.86
  Q 705.78 349.55 708.50 338.00
  C 710.36 330.11 704.68 327.18 698.00 327.18
  Q 584.46 327.19 536.69 327.17
  A 0.50 0.49 -89.4 0 0 536.20 327.66
  Q 536.13 335.58 535.76 339.47
  C 534.55 351.86 516.52 350.77 517.02 338.25
  Q 517.03 337.94 517.14 327.66
  A 0.47 0.46 90.0 0 0 516.68 327.19"
/>
<path stroke="#808080" vector-effect="non-scaling-stroke" d="
  M 371.17 390.78
  Q 368.92 390.89 366.07 391.81
  C 351.18 396.63 343.20 409.65 345.18 425.10
  C 346.93 438.80 357.73 448.94 371.13 451.40
  A 0.39 0.39 0.0 0 0 371.57 450.91
  Q 364.54 427.53 368.67 404.00
  Q 368.96 402.35 371.62 391.33
  A 0.45 0.44 5.9 0 0 371.17 390.78"
/>
<path stroke="#808080" vector-effect="non-scaling-stroke" d="
  M 765.42 592.81
  L 765.42 562.41
  A 0.29 0.29 0.0 0 0 765.13 562.12
  L 755.82 562.12
  A 0.23 0.23 0.0 0 0 755.59 562.35
  L 755.59 643.79
  A 0.21 0.21 0.0 0 0 755.80 644.00
  L 765.18 644.00
  A 0.26 0.25 0.0 0 0 765.44 643.75
  L 765.44 604.08
  A 4.87 4.85 65.6 0 1 766.63 600.89
  Q 772.07 594.61 779.50 594.73
  C 786.92 594.84 791.97 598.24 792.06 606.04
  Q 792.22 619.92 792.09 643.39
  A 0.62 0.61 90.0 0 0 792.70 644.01
  L 801.40 644.01
  A 0.66 0.66 0.0 0 0 802.06 643.35
  Q 802.00 629.17 802.05 607.49
  Q 802.06 601.60 801.19 599.09
  C 798.48 591.33 791.88 586.90 783.74 586.32
  Q 773.74 585.60 766.17 593.12
  A 0.44 0.44 0.0 0 1 765.42 592.81"
/>
<path stroke="#808080" vector-effect="non-scaling-stroke" d="
  M 157.89 610.26
  C 165.06 608.17 172.35 603.85 174.36 596.21
  Q 176.44 588.33 174.46 581.03
  C 170.96 568.14 159.28 564.93 147.50 564.95
  Q 136.02 564.96 126.61 564.88
  A 0.56 0.55 -89.5 0 0 126.05 565.44
  L 126.05 643.37
  A 0.63 0.63 0.0 0 0 126.68 644.00
  L 135.87 644.00
  A 0.64 0.64 0.0 0 0 136.51 643.36
  L 136.51 612.39
  A 0.59 0.58 0.0 0 1 137.10 611.81
  L 146.30 611.81
  A 2.15 2.14 69.1 0 1 147.90 612.53
  Q 160.60 626.90 166.73 643.07
  A 1.51 1.49 79.5 0 0 168.13 644.04
  L 178.53 644.04
  A 0.62 0.62 0.0 0 0 179.08 643.14
  Q 170.31 625.37 157.75 610.72
  A 0.29 0.29 0.0 0 1 157.89 610.26"
/>
<path stroke="#808080" vector-effect="non-scaling-stroke" d="
  M 535.00 565.13
  A 0.26 0.26 0.0 0 0 534.74 564.87
  L 525.02 564.87
  A 0.26 0.26 0.0 0 0 524.76 565.13
  L 524.76 643.73
  A 0.26 0.26 0.0 0 0 525.02 643.99
  L 534.74 643.99
  A 0.26 0.26 0.0 0 0 535.00 643.73
  L 535.00 565.13"
/>
<path stroke="#808080" vector-effect="non-scaling-stroke" d="
  M 678.2177 570.6433
  A 6.75 6.12 -1.5 0 0 671.3098 564.7021
  A 6.75 6.12 -1.5 0 0 664.7223 570.9967
  A 6.75 6.12 -1.5 0 0 671.6302 576.9379
  A 6.75 6.12 -1.5 0 0 678.2177 570.6433"
/>
<path stroke="#808080" vector-effect="non-scaling-stroke" d="
  M 250.39 644.02
  L 259.16 644.02
  A 0.83 0.83 0.0 0 0 259.99 643.19
  L 259.99 596.58
  A 0.59 0.59 0.0 0 1 260.58 595.99
  L 273.36 595.99
  A 0.67 0.67 0.0 0 0 274.03 595.32
  L 274.03 588.67
  A 0.70 0.70 0.0 0 0 273.33 587.97
  L 260.77 587.97
  A 0.80 0.80 0.0 0 1 259.97 587.21
  C 259.83 584.24 259.33 577.10 261.64 575.08
  C 265.11 572.04 271.26 573.08 274.86 574.94
  A 0.88 0.87 16.8 0 0 276.13 574.26
  L 276.88 567.61
  A 1.24 1.24 0.0 0 0 276.01 566.28
  Q 270.62 564.62 264.77 564.96
  Q 250.52 565.81 249.95 579.74
  Q 249.71 585.77 249.78 587.47
  A 0.51 0.51 0.0 0 1 249.27 588.00
  L 241.38 588.00
  A 0.42 0.42 0.0 0 0 240.96 588.42
  L 240.96 595.52
  A 0.50 0.50 0.0 0 0 241.46 596.02
  L 249.18 596.02
  A 0.57 0.56 0.0 0 1 249.75 596.58
  L 249.75 643.38
  A 0.64 0.64 0.0 0 0 250.39 644.02"
/>
<path stroke="#808080" vector-effect="non-scaling-stroke" d="
  M 821.37 570.00
  A 0.48 0.47 -0.0 0 0 820.89 570.47
  L 820.89 586.82
  A 1.17 1.17 0.0 0 1 819.72 587.99
  L 812.05 587.99
  A 0.35 0.34 -90.0 0 0 811.71 588.34
  L 811.71 595.82
  A 0.19 0.19 0.0 0 0 811.90 596.01
  L 819.46 596.01
  A 0.68 0.67 -90.0 0 1 820.13 596.69
  Q 820.07 619.09 820.05 627.50
  Q 820.00 643.76 835.99 644.69
  Q 841.30 645.00 847.33 641.79
  A 0.97 0.96 66.3 0 0 847.79 640.60
  L 845.66 634.72
  A 0.71 0.70 64.8 0 0 844.64 634.35
  C 838.21 638.21 830.17 637.20 830.11 627.92
  Q 829.91 602.28 830.08 596.60
  A 0.64 0.63 -89.1 0 1 830.71 595.98
  L 847.18 595.98
  A 0.88 0.88 0.0 0 0 848.06 595.10
  L 848.06 588.94
  A 0.94 0.94 0.0 0 0 847.12 588.00
  L 830.73 588.00
  A 0.56 0.56 0.0 0 1 830.17 587.44
  L 830.17 570.20
  A 0.21 0.20 0.0 0 0 829.96 570.00
  L 821.37 570.00"
/>
<path stroke="#808080" vector-effect="non-scaling-stroke" d="
  M 196.39 617.94
  L 231.79 618.08
  A 0.99 0.99 0.0 0 0 232.77 617.23
  C 234.36 606.10 232.79 594.27 222.01 588.70
  C 210.36 582.67 195.75 586.96 189.27 598.25
  Q 186.22 603.57 185.54 611.82
  C 184.26 627.18 189.07 640.89 205.85 644.41
  Q 220.17 647.43 231.60 638.98
  A 1.31 1.30 57.0 0 0 231.96 637.28
  L 229.06 632.22
  A 0.88 0.88 0.0 0 0 227.76 631.95
  Q 221.44 636.77 214.05 637.01
  C 202.36 637.38 195.76 630.21 195.65 618.69
  A 0.74 0.73 89.8 0 1 196.39 617.94"
/>
<path stroke="#808080" vector-effect="non-scaling-stroke" d="
  M 291.96 618.01
  L 327.40 618.01
  A 0.99 0.99 0.0 0 0 328.38 617.16
  C 329.92 606.01 328.31 594.17 317.49 588.64
  C 305.81 582.65 291.20 587.00 284.76 598.33
  Q 281.73 603.66 281.08 611.92
  C 279.86 627.30 284.73 641.01 301.54 644.47
  Q 315.88 647.43 327.29 638.93
  A 1.31 1.30 56.8 0 0 327.64 637.23
  L 324.72 632.17
  A 0.88 0.88 0.0 0 0 323.42 631.91
  Q 317.11 636.76 309.71 637.03
  C 298.01 637.44 291.38 630.29 291.23 618.76
  A 0.74 0.73 89.6 0 1 291.96 618.01"
/>
<path stroke="#808080" vector-effect="non-scaling-stroke" d="
  M 351.17 593.68
  L 350.23 589.10
  A 1.37 1.37 0.0 0 0 348.89 588.00
  L 342.68 588.00
  A 0.73 0.73 0.0 0 0 341.95 588.73
  L 341.95 642.99
  A 1.03 1.03 0.0 0 0 342.98 644.02
  L 351.07 644.02
  A 0.88 0.88 0.0 0 0 351.95 643.14
  Q 351.94 627.18 351.92 610.78
  C 351.92 604.41 352.97 599.91 358.11 596.80
  Q 363.70 593.41 371.52 596.04
  A 0.17 0.17 0.0 0 0 371.74 595.89
  L 372.71 587.27
  A 0.26 0.25 -78.2 0 0 372.53 586.99
  Q 359.18 583.13 351.72 593.79
  A 0.31 0.30 -33.4 0 1 351.17 593.68"
/>
<path stroke="#808080" vector-effect="non-scaling-stroke" d="
  M 388.69 618.09
  L 424.19 617.95
  A 0.99 0.99 0.0 0 0 425.16 617.09
  C 426.66 605.92 425.00 594.07 414.14 588.57
  C 402.42 582.62 387.80 587.04 381.40 598.41
  Q 378.39 603.76 377.77 612.04
  C 376.61 627.45 381.54 641.16 398.40 644.56
  Q 412.77 647.46 424.16 638.90
  A 1.31 1.30 56.6 0 0 424.51 637.20
  L 421.56 632.14
  A 0.88 0.88 0.0 0 0 420.26 631.89
  Q 413.96 636.77 406.55 637.07
  C 394.83 637.53 388.16 630.40 387.96 618.85
  A 0.74 0.73 89.4 0 1 388.69 618.09"
/>
<path stroke="#808080" vector-effect="non-scaling-stroke" d="
  M 446.48 617.99
  L 481.87 618.04
  A 0.99 0.99 0.0 0 0 482.85 617.19
  C 484.40 606.06 482.81 594.24 472.02 588.70
  C 460.36 582.70 445.76 587.02 439.32 598.33
  Q 436.28 603.65 435.62 611.89
  C 434.38 627.25 439.23 640.95 456.01 644.43
  Q 470.32 647.40 481.73 638.93
  A 1.31 1.30 56.9 0 0 482.08 637.23
  L 479.17 632.18
  A 0.88 0.88 0.0 0 0 477.88 631.92
  Q 471.57 636.75 464.18 637.01
  C 452.49 637.40 445.88 630.25 445.75 618.74
  A 0.74 0.73 89.7 0 1 446.48 617.99"
/>
<path stroke="#808080" vector-effect="non-scaling-stroke" d="
  M 648.92 598.59
  L 650.85 593.10
  A 2.11 2.09 -65.1 0 0 649.94 590.59
  Q 640.56 585.01 629.92 586.29
  C 619.81 587.51 613.14 594.24 614.12 604.60
  C 615.17 615.89 625.02 616.84 636.38 620.35
  C 641.84 622.03 645.14 625.25 642.76 631.19
  Q 640.96 635.66 635.27 636.66
  Q 625.54 638.37 616.68 631.90
  A 0.84 0.84 0.0 0 0 615.41 632.24
  L 612.86 638.05
  A 1.39 1.38 -62.0 0 0 613.39 639.77
  Q 622.29 645.46 633.09 645.20
  C 641.81 645.00 651.35 640.06 652.89 631.01
  C 655.78 614.03 641.15 612.29 628.63 608.38
  Q 623.92 606.92 623.62 602.95
  C 622.77 592.19 637.22 594.16 643.07 596.76
  Q 646.68 598.37 647.29 598.96
  A 0.99 0.99 0.0 0 0 648.92 598.59"
/>
<path stroke="#808080" vector-effect="non-scaling-stroke" d="
  M 892.64 598.52
  L 894.55 593.02
  A 2.11 2.10 -65.3 0 0 893.63 590.51
  Q 884.22 584.96 873.57 586.29
  C 863.46 587.55 856.81 594.32 857.83 604.68
  C 858.93 615.98 868.79 616.89 880.18 620.36
  C 885.65 622.02 888.97 625.23 886.61 631.18
  Q 884.83 635.67 879.13 636.69
  Q 869.40 638.44 860.51 632.00
  A 0.85 0.84 -60.3 0 0 859.24 632.35
  L 856.71 638.17
  A 1.39 1.38 -62.3 0 0 857.24 639.89
  Q 866.18 645.55 876.99 645.25
  C 885.72 645.01 895.25 640.03 896.75 630.96
  C 899.57 613.95 884.92 612.27 872.37 608.41
  Q 867.65 606.96 867.33 602.99
  C 866.44 592.22 880.91 594.14 886.78 596.72
  Q 890.40 598.31 891.01 598.90
  A 0.99 0.99 0.0 0 0 892.64 598.52"
/>
<path stroke="#808080" vector-effect="non-scaling-stroke" d="
  M 562.04 593.06
  L 562.04 589.64
  A 1.66 1.66 0.0 0 0 560.38 587.98
  L 554.48 587.98
  A 1.39 1.39 0.0 0 0 553.09 589.37
  L 553.09 643.41
  A 0.61 0.61 0.0 0 0 553.70 644.02
  L 562.37 644.02
  A 0.63 0.63 0.0 0 0 563.00 643.39
  Q 563.04 615.52 562.94 608.50
  Q 562.86 603.45 563.67 602.18
  Q 569.25 593.43 580.03 594.98
  C 587.56 596.07 590.07 601.78 590.05 608.76
  Q 589.98 631.72 589.99 643.20
  A 0.82 0.82 0.0 0 0 590.81 644.02
  L 599.11 644.02
  A 0.83 0.82 90.0 0 0 599.93 643.19
  Q 599.89 618.47 599.97 609.82
  Q 600.03 602.89 598.99 599.59
  C 596.19 590.76 587.98 586.08 578.99 586.29
  Q 569.96 586.51 563.02 593.46
  A 0.57 0.57 0.0 0 1 562.04 593.06"
/>
<path stroke="#808080" vector-effect="non-scaling-stroke" d="
  M 729.35 637.43
  Q 729.64 644.21 728.86 648.94
  C 727.29 658.38 717.72 660.88 709.41 659.53
  Q 702.47 658.40 697.13 655.20
  A 0.82 0.82 0.0 0 0 695.96 655.58
  L 693.36 661.56
  A 0.93 0.93 0.0 0 0 693.78 662.76
  C 708.45 670.47 730.47 670.99 737.71 652.75
  Q 739.42 648.45 739.03 635.60
  Q 739.00 634.58 739.00 588.69
  A 0.68 0.68 0.0 0 0 738.32 588.01
  L 731.31 588.01
  A 0.98 0.98 0.0 0 0 730.34 588.88
  L 729.94 592.44
  A 0.40 0.40 0.0 0 1 729.26 592.67
  C 724.45 587.84 718.55 586.20 711.68 586.81
  C 699.26 587.92 691.53 597.49 690.19 609.50
  C 688.31 626.44 694.09 642.42 713.12 643.17
  C 719.23 643.42 724.77 641.63 728.85 637.25
  A 0.29 0.29 0.0 0 1 729.35 637.43"
/>
<path stroke="#808080" vector-effect="non-scaling-stroke" d="
  M 676.56 588.48
  A 0.49 0.49 0.0 0 0 676.07 587.99
  L 666.51 587.99
  A 0.49 0.49 0.0 0 0 666.02 588.48
  L 666.02 643.52
  A 0.49 0.49 0.0 0 0 666.51 644.01
  L 676.07 644.01
  A 0.49 0.49 0.0 0 0 676.56 643.52
  L 676.56 588.48"
/>
<path stroke="#808080" vector-effect="non-scaling-stroke" d="
  M 470.9098 694.5511
  A 14.72 13.05 -89.3 0 0 457.6810 709.1106
  A 14.72 13.05 -89.3 0 0 470.5502 723.9889
  A 14.72 13.05 -89.3 0 0 483.7790 709.4294
  A 14.72 13.05 -89.3 0 0 470.9098 694.5511"
/>
<path stroke="#808080" vector-effect="non-scaling-stroke" d="
  M 595.0588 694.6101
  A 14.68 13.12 -90.2 0 0 581.9901 709.3358
  A 14.68 13.12 -90.2 0 0 595.1612 723.9699
  A 14.68 13.12 -90.2 0 0 608.2299 709.2442
  A 14.68 13.12 -90.2 0 0 595.0588 694.6101"
/>
<path stroke="#808080" vector-effect="non-scaling-stroke" d="
  M 206.51 695.47
  A 0.42 0.42 0.0 0 0 206.09 695.05
  L 203.05 695.05
  A 0.42 0.42 0.0 0 0 202.63 695.47
  L 202.63 722.77
  A 0.42 0.42 0.0 0 0 203.05 723.19
  L 206.09 723.19
  A 0.42 0.42 0.0 0 0 206.51 722.77
  L 206.51 695.47"
/>
<path stroke="#808080" vector-effect="non-scaling-stroke" d="
  M 233.55 715.25
  Q 226.31 705.50 219.62 695.98
  Q 218.64 694.58 216.55 695.11
  A 0.75 0.75 0.0 0 0 216.00 695.83
  L 216.00 722.99
  A 0.26 0.26 0.0 0 0 216.26 723.25
  L 219.08 723.25
  A 0.29 0.29 0.0 0 0 219.37 722.96
  L 219.37 702.83
  A 0.34 0.33 27.5 0 1 219.98 702.64
  L 234.66 723.21
  A 1.52 1.52 0.0 0 0 237.42 722.33
  L 237.42 695.72
  A 0.69 0.69 0.0 0 0 236.73 695.03
  L 234.78 695.03
  A 0.75 0.75 0.0 0 0 234.03 695.78
  L 234.03 715.09
  A 0.27 0.27 0.0 0 1 233.55 715.25"
/>
<path stroke="#808080" vector-effect="non-scaling-stroke" d="
  M 262.15 696.81
  C 256.62 693.89 247.12 693.72 245.72 701.47
  C 243.63 712.99 260.81 708.30 259.27 716.25
  C 258.23 721.63 250.12 720.47 247.08 718.21
  A 1.04 1.04 0.0 0 0 245.51 718.63
  L 244.90 720.04
  A 1.31 1.30 -63.9 0 0 245.46 721.70
  C 250.20 724.32 257.67 725.09 261.51 720.48
  C 264.82 716.53 263.89 710.10 258.51 708.24
  C 254.67 706.91 247.67 705.70 250.11 700.56
  C 251.71 697.19 258.30 698.85 260.71 700.03
  A 0.75 0.74 -65.4 0 0 261.72 699.65
  L 262.51 697.84
  A 0.80 0.80 0.0 0 0 262.15 696.81"
/>
<path stroke="#808080" vector-effect="non-scaling-stroke" d="
  M 275.65 695.51
  A 0.41 0.41 0.0 0 0 275.24 695.10
  L 272.18 695.10
  A 0.41 0.41 0.0 0 0 271.77 695.51
  L 271.77 722.81
  A 0.41 0.41 0.0 0 0 272.18 723.22
  L 275.24 723.22
  A 0.41 0.41 0.0 0 0 275.65 722.81
  L 275.65 695.51"
/>
<path stroke="#808080" vector-effect="non-scaling-stroke" d="
  M 302.00 712.93
  L 302.00 718.00
  A 1.83 1.82 84.9 0 1 300.50 719.80
  Q 290.05 721.73 288.22 713.29
  C 287.11 708.19 287.87 700.79 293.81 699.23
  Q 297.78 698.19 303.11 699.82
  A 0.77 0.77 0.0 0 0 304.04 699.39
  L 304.82 697.60
  A 0.92 0.92 0.0 0 0 304.29 696.38
  C 296.74 693.70 288.82 694.48 285.16 702.35
  C 282.38 708.31 283.22 718.50 290.04 722.13
  Q 296.62 725.63 305.17 721.72
  A 1.15 1.14 78.3 0 0 305.84 720.69
  L 305.84 709.09
  A 0.72 0.72 0.0 0 0 305.12 708.37
  L 296.37 708.37
  A 0.56 0.56 0.0 0 0 295.81 708.93
  L 295.81 711.41
  A 0.60 0.59 -0.0 0 0 296.41 712.00
  L 301.07 712.00
  A 0.93 0.93 0.0 0 1 302.00 712.93"
/>
<path stroke="#808080" vector-effect="non-scaling-stroke" d="
  M 314.65 709.00
  Q 314.65 722.06 314.66 722.57
  A 0.52 0.51 0.2 0 0 315.18 723.08
  L 317.88 723.08
  A 0.60 0.60 0.0 0 0 318.48 722.48
  L 318.48 711.53
  A 0.65 0.65 0.0 0 1 319.10 710.89
  Q 319.92 710.84 324.82 710.84
  Q 329.72 710.84 330.54 710.89
  A 0.65 0.65 0.0 0 1 331.16 711.53
  L 331.16 722.48
  A 0.60 0.60 0.0 0 0 331.76 723.08
  L 334.46 723.08
  A 0.52 0.51 -0.2 0 0 334.97 722.57
  Q 334.99 722.06 334.99 709.00
  Q 334.99 695.94 334.98 695.43
  A 0.52 0.51 0.2 0 0 334.46 694.92
  L 331.76 694.92
  A 0.60 0.60 0.0 0 0 331.16 695.52
  L 331.16 706.47
  A 0.65 0.65 0.0 0 1 330.54 707.11
  Q 329.72 707.15 324.82 707.15
  Q 319.92 707.15 319.10 707.11
  A 0.65 0.65 0.0 0 1 318.48 706.46
  L 318.49 695.51
  A 0.60 0.60 0.0 0 0 317.89 694.91
  L 315.19 694.91
  A 0.52 0.51 -0.2 0 0 314.67 695.43
  Q 314.66 695.93 314.65 709.00"
/>
<path stroke="#808080" vector-effect="non-scaling-stroke" d="
  M 352.99 723.25
  Q 353.68 723.24 354.39 723.21
  A 0.57 0.57 0.0 0 0 354.94 722.64
  L 354.83 699.43
  A 0.53 0.52 89.7 0 1 355.35 698.89
  L 362.90 698.86
  A 0.70 0.70 0.0 0 0 363.60 698.15
  L 363.59 695.80
  A 0.77 0.76 89.3 0 0 362.81 695.03
  Q 358.13 695.11 352.93 695.10
  Q 347.73 695.13 343.05 695.07
  A 0.77 0.76 -89.5 0 0 342.27 695.84
  L 342.27 698.19
  A 0.70 0.70 0.0 0 0 342.97 698.90
  L 350.52 698.90
  A 0.53 0.52 -89.9 0 1 351.04 699.44
  L 351.02 722.65
  A 0.57 0.57 0.0 0 0 351.57 723.22
  Q 352.29 723.25 352.99 723.25"
/>
<path stroke="#808080" vector-effect="non-scaling-stroke" d="
  M 398.27 708.47
  Q 402.18 705.94 401.70 701.89
  C 400.75 693.88 390.01 695.01 383.93 695.08
  A 0.50 0.50 0.0 0 0 383.44 695.58
  L 383.44 722.57
  A 0.59 0.59 0.0 0 0 384.03 723.16
  Q 392.74 723.15 395.01 722.99
  C 402.46 722.45 405.78 712.87 398.29 708.97
  A 0.29 0.29 0.0 0 1 398.27 708.47"
/>
<path stroke="#808080" vector-effect="non-scaling-stroke" d="
  M 427.03 720.02
  L 414.54 719.98
  A 0.29 0.29 0.0 0 1 414.25 719.69
  L 414.29 710.69
  A 0.36 0.35 -0.5 0 1 414.65 710.33
  L 425.39 710.43
  A 0.48 0.48 0.0 0 0 425.88 709.96
  L 425.88 707.40
  A 0.46 0.46 0.0 0 0 425.41 706.94
  L 414.63 706.94
  A 0.36 0.36 0.0 0 1 414.27 706.58
  L 414.30 699.15
  A 0.32 0.32 0.0 0 1 414.62 698.83
  L 426.26 698.95
  A 0.54 0.53 -89.2 0 0 426.80 698.41
  L 426.81 695.70
  A 0.60 0.59 -89.7 0 0 426.23 695.10
  L 410.82 695.06
  A 0.34 0.34 0.0 0 0 410.48 695.39
  L 410.42 722.64
  A 0.49 0.49 0.0 0 0 410.91 723.13
  L 426.98 723.15
  A 0.42 0.41 -0.4 0 0 427.39 722.74
  L 427.42 720.43
  A 0.40 0.40 0.0 0 0 427.03 720.02"
/>
<path stroke="#808080" vector-effect="non-scaling-stroke" d="
  M 438.49 723.17
  A 0.51 0.51 0.0 0 0 439.00 722.66
  L 439.00 711.49
  A 0.51 0.51 0.0 0 1 439.51 710.98
  L 450.51 710.98
  A 0.51 0.51 0.0 0 0 451.02 710.47
  L 451.02 707.79
  A 0.51 0.51 0.0 0 0 450.51 707.28
  L 439.50 707.28
  A 0.51 0.51 0.0 0 1 438.99 706.77
  L 438.99 699.38
  A 0.51 0.51 0.0 0 1 439.50 698.87
  L 451.39 698.87
  A 0.51 0.51 0.0 0 0 451.90 698.36
  L 451.90 695.63
  A 0.51 0.51 0.0 0 0 451.39 695.12
  L 435.58 695.12
  A 0.51 0.51 0.0 0 0 435.07 695.63
  L 435.07 722.66
  A 0.51 0.51 0.0 0 0 435.58 723.17
  L 438.49 723.17"
/>
<path stroke="#808080" vector-effect="non-scaling-stroke" d="
  M 511.94 722.95
  Q 508.58 716.34 504.07 711.33
  A 0.49 0.49 0.0 0 1 504.29 710.53
  C 512.46 708.18 511.77 697.30 503.59 695.60
  Q 499.55 694.75 492.24 695.10
  A 0.63 0.63 0.0 0 0 491.64 695.73
  L 491.64 722.73
  A 0.46 0.45 -0.0 0 0 492.10 723.18
  L 495.09 723.18
  A 0.40 0.40 0.0 0 0 495.49 722.78
  L 495.49 711.93
  A 0.65 0.64 86.5 0 1 496.05 711.29
  C 500.74 710.67 504.20 716.97 507.40 722.89
  A 0.51 0.50 -13.4 0 0 507.85 723.16
  L 511.81 723.16
  A 0.15 0.14 -13.6 0 0 511.94 722.95"
/>
<path stroke="#808080" vector-effect="non-scaling-stroke" d="
  M 535.34 719.98
  L 522.87 719.97
  A 0.29 0.29 0.0 0 1 522.59 719.68
  L 522.61 710.69
  A 0.36 0.35 -0.6 0 1 522.97 710.34
  L 533.69 710.42
  A 0.48 0.48 0.0 0 0 534.17 709.94
  L 534.17 707.39
  A 0.46 0.46 0.0 0 0 533.70 706.93
  L 522.94 706.96
  A 0.36 0.36 0.0 0 1 522.58 706.60
  L 522.59 699.18
  A 0.32 0.32 0.0 0 1 522.91 698.86
  L 534.53 698.95
  A 0.54 0.53 -89.3 0 0 535.07 698.41
  L 535.07 695.71
  A 0.60 0.59 -89.8 0 0 534.49 695.11
  L 519.11 695.10
  A 0.34 0.34 0.0 0 0 518.77 695.44
  L 518.77 722.63
  A 0.49 0.49 0.0 0 0 519.27 723.12
  L 535.30 723.10
  A 0.42 0.41 -0.6 0 0 535.71 722.69
  L 535.74 720.38
  A 0.40 0.40 0.0 0 0 535.34 719.98"
/>
<path stroke="#808080" vector-effect="non-scaling-stroke" d="
  M 565.95 723.18
  Q 567.30 723.19 567.36 723.18
  A 0.77 0.77 0.0 0 0 567.88 722.45
  L 568.02 713.01
  A 6.96 6.95 -28.1 0 1 569.14 709.33
  L 577.75 695.98
  A 0.54 0.54 0.0 0 0 577.29 695.15
  L 575.15 695.15
  A 2.17 2.15 15.7 0 0 573.31 696.17
  Q 570.11 701.33 566.62 706.97
  Q 566.42 707.30 566.10 707.29
  Q 565.77 707.29 565.58 706.96
  Q 562.19 701.26 559.08 696.04
  A 2.17 2.15 -14.7 0 0 557.26 694.99
  L 555.12 694.95
  A 0.54 0.54 0.0 0 0 554.64 695.77
  L 563.01 709.28
  A 6.96 6.95 29.2 0 1 564.07 712.97
  L 564.04 722.42
  A 0.77 0.77 0.0 0 0 564.55 723.15
  Q 564.60 723.17 565.95 723.18"
/>
<path stroke="#808080" vector-effect="non-scaling-stroke" d="
  M 626.31 723.75
  C 632.78 723.73 636.71 719.78 636.81 713.24
  Q 636.95 702.88 636.82 695.62
  A 0.61 0.61 0.0 0 0 636.21 695.02
  L 633.52 695.02
  A 0.62 0.62 0.0 0 0 632.90 695.65
  Q 633.13 704.43 632.92 713.47
  C 632.82 717.70 630.56 720.12 626.31 720.13
  C 622.05 720.14 619.78 717.73 619.67 713.49
  Q 619.42 704.46 619.62 695.68
  A 0.62 0.62 0.0 0 0 619.00 695.05
  L 616.31 695.06
  A 0.61 0.61 0.0 0 0 615.70 695.66
  Q 615.60 702.92 615.78 713.28
  C 615.90 719.82 619.85 723.76 626.31 723.75"
/>
<path stroke="#808080" vector-effect="non-scaling-stroke" d="
  M 668.22 716.12
  Q 668.50 716.12 673.01 716.17
  A 0.88 0.88 0.0 0 1 673.83 716.75
  L 675.93 722.56
  A 0.98 0.98 0.0 0 0 676.85 723.21
  L 679.43 723.21
  A 0.50 0.50 0.0 0 0 679.90 722.55
  L 670.24 695.85
  A 1.17 1.17 0.0 0 0 669.59 695.18
  Q 668.99 694.94 668.23 694.94
  Q 667.47 694.94 666.87 695.17
  A 1.17 1.17 0.0 0 0 666.22 695.85
  L 656.53 722.54
  A 0.50 0.50 0.0 0 0 657.00 723.20
  L 659.58 723.20
  A 0.98 0.98 0.0 0 0 660.50 722.55
  L 662.61 716.74
  A 0.88 0.88 0.0 0 1 663.43 716.16
  Q 667.93 716.12 668.22 716.12"
/>
<path stroke="#808080" vector-effect="non-scaling-stroke" d="
  M 684.71 709.78
  Q 684.82 714.20 686.19 717.04
  C 689.62 724.10 697.91 725.51 704.62 721.99
  A 0.98 0.98 0.0 0 0 705.08 720.79
  L 704.49 719.14
  A 0.80 0.80 0.0 0 0 703.38 718.70
  Q 702.19 719.30 700.77 719.62
  C 692.85 721.44 688.99 717.33 688.81 709.68
  C 688.62 702.03 692.28 697.73 700.27 699.17
  Q 701.71 699.42 702.93 699.97
  A 0.80 0.80 0.0 0 0 704.02 699.47
  L 704.53 697.80
  A 0.98 0.98 0.0 0 0 704.01 696.62
  C 697.14 693.43 688.92 695.24 685.84 702.46
  Q 684.61 705.35 684.71 709.78"
/>
<path stroke="#808080" vector-effect="non-scaling-stroke" d="
  M 730.66 718.26
  C 725.92 720.90 718.83 721.27 716.21 715.62
  C 713.32 709.39 714.88 698.48 724.26 698.99
  Q 727.07 699.15 728.70 699.76
  A 1.31 1.31 0.0 0 0 730.26 699.24
  L 730.84 698.35
  A 1.22 1.21 -61.0 0 0 730.34 696.60
  C 720.56 691.85 711.05 698.01 710.90 708.76
  C 710.82 714.51 712.50 720.18 717.87 722.56
  Q 723.97 725.26 730.85 721.85
  A 0.23 0.22 78.2 0 0 730.98 721.64
  L 730.98 718.44
  A 0.22 0.21 -15.0 0 0 730.66 718.26"
/>
<path stroke="#808080" vector-effect="non-scaling-stroke" d="
  M 755.56 723.18
  A 0.35 0.35 0.0 0 0 755.91 722.83
  L 755.91 720.38
  A 0.35 0.35 0.0 0 0 755.56 720.03
  L 743.09 720.03
  A 0.35 0.35 0.0 0 1 742.74 719.68
  L 742.74 710.75
  A 0.35 0.35 0.0 0 1 743.09 710.40
  L 753.97 710.40
  A 0.35 0.35 0.0 0 0 754.32 710.05
  L 754.32 707.31
  A 0.35 0.35 0.0 0 0 753.97 706.96
  L 743.04 706.96
  A 0.35 0.35 0.0 0 1 742.69 706.61
  L 742.69 699.25
  A 0.35 0.35 0.0 0 1 743.04 698.90
  L 754.84 698.90
  A 0.35 0.35 0.0 0 0 755.19 698.55
  L 755.19 695.45
  A 0.35 0.35 0.0 0 0 754.84 695.10
  L 739.23 695.10
  A 0.35 0.35 0.0 0 0 738.88 695.45
  L 738.88 722.83
  A 0.35 0.35 0.0 0 0 739.23 723.18
  L 755.56 723.18"
/>
<path stroke="#808080" vector-effect="non-scaling-stroke" d="
  M 763.53 695.87
  L 763.53 722.78
  A 0.41 0.41 0.0 0 0 763.94 723.19
  L 766.94 723.19
  A 0.47 0.47 0.0 0 0 767.41 722.72
  L 767.41 712.55
  A 0.60 0.60 0.0 0 1 768.02 711.95
  Q 768.77 711.96 771.74 712.00
  C 776.98 712.09 782.07 709.26 782.09 703.44
  C 782.13 694.24 770.35 694.87 764.30 695.08
  A 0.79 0.79 0.0 0 0 763.53 695.87"
/>
<path stroke="#808080" vector-effect="non-scaling-stroke" d="
  M 797.13 723.12
  Q 797.82 723.12 798.53 723.09
  A 0.57 0.56 -1.2 0 0 799.08 722.53
  L 799.08 699.43
  A 0.53 0.52 90.0 0 1 799.60 698.90
  L 807.11 698.90
  A 0.70 0.70 0.0 0 0 807.81 698.20
  L 807.81 695.86
  A 0.77 0.76 89.5 0 0 807.04 695.09
  Q 802.38 695.15 797.21 695.12
  Q 792.03 695.12 787.37 695.04
  A 0.77 0.76 -89.2 0 0 786.60 695.80
  L 786.59 698.14
  A 0.70 0.70 0.0 0 0 787.28 698.85
  L 794.79 698.89
  A 0.53 0.52 -89.7 0 1 795.31 699.42
  L 795.19 722.52
  A 0.57 0.56 1.5 0 0 795.73 723.08
  Q 796.44 723.12 797.13 723.12"
/>
<path stroke="#808080" vector-effect="non-scaling-stroke" d="
  M 522.73 421.56
  A 51.70 51.70 0.0 0 0 471.03 369.86
  A 51.70 51.70 0.0 0 0 419.33 421.56
  A 51.70 51.70 0.0 0 0 471.03 473.26
  A 51.70 51.70 0.0 0 0 522.73 421.56"
/>
<path stroke="#808080" vector-effect="non-scaling-stroke" d="
  M 136.49 573.97
  L 136.55 602.97
  A 0.25 0.25 0.0 0 0 136.80 603.22
  L 150.36 603.20
  A 14.69 13.86 -0.1 0 0 165.02 589.32
  L 165.02 587.54
  A 14.69 13.86 -0.1 0 0 150.30 573.70
  L 136.74 573.72
  A 0.25 0.25 0.0 0 0 136.49 573.97"
/>
<path stroke="#808080" vector-effect="non-scaling-stroke" d="
  M 196.30 610.27
  L 223.78 610.23
  A 0.28 0.28 0.0 0 0 224.06 609.95
  L 224.06 609.52
  A 15.45 14.02 89.9 0 0 210.02 594.09
  A 15.45 14.02 89.9 0 0 196.02 609.56
  L 196.02 609.99
  A 0.28 0.28 0.0 0 0 196.30 610.27"
/>
<path stroke="#808080" vector-effect="non-scaling-stroke" d="
  M 291.92 610.28
  L 319.22 610.18
  A 0.30 0.30 0.0 0 0 319.52 609.88
  L 319.52 609.43
  A 15.45 13.95 89.8 0 0 305.51 594.03
  A 15.45 13.95 89.8 0 0 291.62 609.53
  L 291.62 609.98
  A 0.30 0.30 0.0 0 0 291.92 610.28"
/>
<path stroke="#808080" vector-effect="non-scaling-stroke" d="
  M 388.69 610.31
  L 416.01 610.17
  A 0.29 0.29 0.0 0 0 416.30 609.88
  L 416.30 609.44
  A 15.47 13.88 89.7 0 0 402.34 594.04
  L 402.20 594.04
  A 15.47 13.88 89.7 0 0 388.40 609.58
  L 388.40 610.02
  A 0.29 0.29 0.0 0 0 388.69 610.31"
/>
<path stroke="#808080" vector-effect="non-scaling-stroke" d="
  M 446.40 610.27
  L 473.88 610.23
  A 0.22 0.22 0.0 0 0 474.10 610.01
  L 474.10 609.68
  A 15.63 13.94 89.9 0 0 460.14 594.07
  L 460.10 594.07
  A 15.63 13.94 89.9 0 0 446.18 609.72
  L 446.18 610.05
  A 0.22 0.22 0.0 0 0 446.40 610.27"
/>
<path stroke="#808080" vector-effect="non-scaling-stroke" d="
  M 699.92 614.88
  C 699.82 626.68 705.67 636.46 718.77 634.91
  C 722.83 634.43 728.93 630.83 728.98 625.75
  Q 729.04 620.31 729.08 615.11
  Q 729.12 609.90 729.15 604.47
  C 729.18 599.38 723.13 595.69 719.08 595.14
  C 706.01 593.39 700.01 603.07 699.92 614.88"
/>
<path stroke="#808080" vector-effect="non-scaling-stroke" d="
  M 470.7000 698.0000
  A 11.22 8.93 -90.0 0 0 461.7700 709.2200
  A 11.22 8.93 -90.0 0 0 470.7000 720.4400
  A 11.22 8.93 -90.0 0 0 479.6300 709.2200
  A 11.22 8.93 -90.0 0 0 470.7000 698.0000"
/>
<path stroke="#808080" vector-effect="non-scaling-stroke" d="
  M 594.8850 698.0121
  A 11.20 8.98 -91.1 0 0 586.1217 709.3824
  A 11.20 8.98 -91.1 0 0 595.3150 720.4079
  A 11.20 8.98 -91.1 0 0 604.0783 709.0376
  A 11.20 8.98 -91.1 0 0 594.8850 698.0121"
/>
<path stroke="#808080" vector-effect="non-scaling-stroke" d="
  M 387.29 699.05
  L 387.21 706.64
  A 0.34 0.34 0.0 0 0 387.55 706.99
  L 392.78 707.04
  A 4.97 3.98 0.6 0 0 397.79 703.12
  L 397.79 702.80
  A 4.97 3.98 0.6 0 0 392.86 698.76
  L 387.63 698.71
  A 0.34 0.34 0.0 0 0 387.29 699.05"
/>
<path stroke="#808080" vector-effect="non-scaling-stroke" d="
  M 387.25 711.06
  L 387.25 719.50
  A 0.46 0.46 0.0 0 0 387.71 719.96
  L 392.73 719.96
  A 5.66 4.50 0.0 0 0 398.39 715.46
  L 398.39 715.10
  A 5.66 4.50 0.0 0 0 392.73 710.60
  L 387.71 710.60
  A 0.46 0.46 0.0 0 0 387.25 711.06"
/>
<path stroke="#808080" vector-effect="non-scaling-stroke" d="
  M 495.50 699.16
  L 495.42 707.42
  A 0.56 0.56 0.0 0 0 495.98 707.99
  L 500.61 708.03
  A 5.45 4.46 0.5 0 0 506.10 703.62
  L 506.10 703.16
  A 5.45 4.46 0.5 0 0 500.69 698.65
  L 496.06 698.61
  A 0.56 0.56 0.0 0 0 495.50 699.16"
/>
<path stroke="#808080" vector-effect="non-scaling-stroke" d="
  M 663.64 712.70
  A 0.33 0.33 0.0 0 0 663.95 713.15
  L 672.30 713.16
  A 0.33 0.33 0.0 0 0 672.61 712.72
  L 668.45 701.00
  A 0.33 0.33 0.0 0 0 667.83 700.99
  L 663.64 712.70"
/>
<path stroke="#808080" vector-effect="non-scaling-stroke" d="
  M 767.38 699.24
  L 767.34 707.88
  A 0.52 0.52 0.0 0 0 767.85 708.40
  L 772.77 708.43
  A 5.32 4.63 0.3 0 0 778.12 703.83
  L 778.12 703.41
  A 5.32 4.63 0.3 0 0 772.83 698.75
  L 767.91 698.72
  A 0.52 0.52 0.0 0 0 767.38 699.24"
/>
</g>
<path fill="#ffffff" d="
  M 1024.00 0.00
  L 1024.00 1024.00
  L 0.00 1024.00
  L 0.00 0.00
  L 1024.00 0.00
  Z
  M 540.88 256.63
  A 6.57 6.57 0.0 0 0 534.31 250.06
  L 533.93 250.06
  A 6.57 6.57 0.0 0 0 527.36 256.63
  L 527.36 296.29
  A 6.57 6.57 0.0 0 0 533.93 302.86
  L 534.31 302.86
  A 6.57 6.57 0.0 0 0 540.88 296.29
  L 540.88 256.63
  Z
  M 586.4137 269.0055
  A 6.61 6.61 0.0 0 0 583.7430 260.0471
  L 583.4616 259.8949
  A 6.61 6.61 0.0 0 0 574.5032 262.5655
  L 557.4663 294.0745
  A 6.61 6.61 0.0 0 0 560.1370 303.0329
  L 560.4184 303.1851
  A 6.61 6.61 0.0 0 0 569.3768 300.5145
  L 586.4137 269.0055
  Z
  M 492.8787 262.7230
  A 6.55 6.55 0.0 0 0 484.0203 260.0147
  L 483.7555 260.1556
  A 6.55 6.55 0.0 0 0 481.0472 269.0139
  L 498.3613 301.5770
  A 6.55 6.55 0.0 0 0 507.2197 304.2853
  L 507.4845 304.1444
  A 6.55 6.55 0.0 0 0 510.1928 295.2861
  L 492.8787 262.7230
  Z
  M 516.68 327.19
  Q 493.58 327.03 474.51 327.23
  Q 460.43 327.37 450.24 329.72
  C 403.54 340.50 371.65 384.94 377.62 433.15
  C 381.72 466.27 402.23 493.50 432.38 507.40
  C 468.11 523.87 510.05 516.19 537.40 488.30
  Q 566.10 459.03 565.87 417.18
  C 565.85 412.02 565.10 407.52 564.73 402.44
  A 0.50 0.49 87.8 0 1 565.22 401.90
  Q 650.62 401.84 679.58 401.92
  C 687.66 401.95 693.82 402.77 695.59 394.86
  Q 705.78 349.55 708.50 338.00
  C 710.36 330.11 704.68 327.18 698.00 327.18
  Q 584.46 327.19 536.69 327.17
  A 0.50 0.49 -89.4 0 0 536.20 327.66
  Q 536.13 335.58 535.76 339.47
  C 534.55 351.86 516.52 350.77 517.02 338.25
  Q 517.03 337.94 517.14 327.66
  A 0.47 0.46 90.0 0 0 516.68 327.19
  Z
  M 371.17 390.78
  Q 368.92 390.89 366.07 391.81
  C 351.18 396.63 343.20 409.65 345.18 425.10
  C 346.93 438.80 357.73 448.94 371.13 451.40
  A 0.39 0.39 0.0 0 0 371.57 450.91
  Q 364.54 427.53 368.67 404.00
  Q 368.96 402.35 371.62 391.33
  A 0.45 0.44 5.9 0 0 371.17 390.78
  Z
  M 765.42 592.81
  L 765.42 562.41
  A 0.29 0.29 0.0 0 0 765.13 562.12
  L 755.82 562.12
  A 0.23 0.23 0.0 0 0 755.59 562.35
  L 755.59 643.79
  A 0.21 0.21 0.0 0 0 755.80 644.00
  L 765.18 644.00
  A 0.26 0.25 0.0 0 0 765.44 643.75
  L 765.44 604.08
  A 4.87 4.85 65.6 0 1 766.63 600.89
  Q 772.07 594.61 779.50 594.73
  C 786.92 594.84 791.97 598.24 792.06 606.04
  Q 792.22 619.92 792.09 643.39
  A 0.62 0.61 90.0 0 0 792.70 644.01
  L 801.40 644.01
  A 0.66 0.66 0.0 0 0 802.06 643.35
  Q 802.00 629.17 802.05 607.49
  Q 802.06 601.60 801.19 599.09
  C 798.48 591.33 791.88 586.90 783.74 586.32
  Q 773.74 585.60 766.17 593.12
  A 0.44 0.44 0.0 0 1 765.42 592.81
  Z
  M 157.89 610.26
  C 165.06 608.17 172.35 603.85 174.36 596.21
  Q 176.44 588.33 174.46 581.03
  C 170.96 568.14 159.28 564.93 147.50 564.95
  Q 136.02 564.96 126.61 564.88
  A 0.56 0.55 -89.5 0 0 126.05 565.44
  L 126.05 643.37
  A 0.63 0.63 0.0 0 0 126.68 644.00
  L 135.87 644.00
  A 0.64 0.64 0.0 0 0 136.51 643.36
  L 136.51 612.39
  A 0.59 0.58 0.0 0 1 137.10 611.81
  L 146.30 611.81
  A 2.15 2.14 69.1 0 1 147.90 612.53
  Q 160.60 626.90 166.73 643.07
  A 1.51 1.49 79.5 0 0 168.13 644.04
  L 178.53 644.04
  A 0.62 0.62 0.0 0 0 179.08 643.14
  Q 170.31 625.37 157.75 610.72
  A 0.29 0.29 0.0 0 1 157.89 610.26
  Z
  M 535.00 565.13
  A 0.26 0.26 0.0 0 0 534.74 564.87
  L 525.02 564.87
  A 0.26 0.26 0.0 0 0 524.76 565.13
  L 524.76 643.73
  A 0.26 0.26 0.0 0 0 525.02 643.99
  L 534.74 643.99
  A 0.26 0.26 0.0 0 0 535.00 643.73
  L 535.00 565.13
  Z
  M 678.2177 570.6433
  A 6.75 6.12 -1.5 0 0 671.3098 564.7021
  A 6.75 6.12 -1.5 0 0 664.7223 570.9967
  A 6.75 6.12 -1.5 0 0 671.6302 576.9379
  A 6.75 6.12 -1.5 0 0 678.2177 570.6433
  Z
  M 250.39 644.02
  L 259.16 644.02
  A 0.83 0.83 0.0 0 0 259.99 643.19
  L 259.99 596.58
  A 0.59 0.59 0.0 0 1 260.58 595.99
  L 273.36 595.99
  A 0.67 0.67 0.0 0 0 274.03 595.32
  L 274.03 588.67
  A 0.70 0.70 0.0 0 0 273.33 587.97
  L 260.77 587.97
  A 0.80 0.80 0.0 0 1 259.97 587.21
  C 259.83 584.24 259.33 577.10 261.64 575.08
  C 265.11 572.04 271.26 573.08 274.86 574.94
  A 0.88 0.87 16.8 0 0 276.13 574.26
  L 276.88 567.61
  A 1.24 1.24 0.0 0 0 276.01 566.28
  Q 270.62 564.62 264.77 564.96
  Q 250.52 565.81 249.95 579.74
  Q 249.71 585.77 249.78 587.47
  A 0.51 0.51 0.0 0 1 249.27 588.00
  L 241.38 588.00
  A 0.42 0.42 0.0 0 0 240.96 588.42
  L 240.96 595.52
  A 0.50 0.50 0.0 0 0 241.46 596.02
  L 249.18 596.02
  A 0.57 0.56 0.0 0 1 249.75 596.58
  L 249.75 643.38
  A 0.64 0.64 0.0 0 0 250.39 644.02
  Z
  M 821.37 570.00
  A 0.48 0.47 -0.0 0 0 820.89 570.47
  L 820.89 586.82
  A 1.17 1.17 0.0 0 1 819.72 587.99
  L 812.05 587.99
  A 0.35 0.34 -90.0 0 0 811.71 588.34
  L 811.71 595.82
  A 0.19 0.19 0.0 0 0 811.90 596.01
  L 819.46 596.01
  A 0.68 0.67 -90.0 0 1 820.13 596.69
  Q 820.07 619.09 820.05 627.50
  Q 820.00 643.76 835.99 644.69
  Q 841.30 645.00 847.33 641.79
  A 0.97 0.96 66.3 0 0 847.79 640.60
  L 845.66 634.72
  A 0.71 0.70 64.8 0 0 844.64 634.35
  C 838.21 638.21 830.17 637.20 830.11 627.92
  Q 829.91 602.28 830.08 596.60
  A 0.64 0.63 -89.1 0 1 830.71 595.98
  L 847.18 595.98
  A 0.88 0.88 0.0 0 0 848.06 595.10
  L 848.06 588.94
  A 0.94 0.94 0.0 0 0 847.12 588.00
  L 830.73 588.00
  A 0.56 0.56 0.0 0 1 830.17 587.44
  L 830.17 570.20
  A 0.21 0.20 0.0 0 0 829.96 570.00
  L 821.37 570.00
  Z
  M 196.39 617.94
  L 231.79 618.08
  A 0.99 0.99 0.0 0 0 232.77 617.23
  C 234.36 606.10 232.79 594.27 222.01 588.70
  C 210.36 582.67 195.75 586.96 189.27 598.25
  Q 186.22 603.57 185.54 611.82
  C 184.26 627.18 189.07 640.89 205.85 644.41
  Q 220.17 647.43 231.60 638.98
  A 1.31 1.30 57.0 0 0 231.96 637.28
  L 229.06 632.22
  A 0.88 0.88 0.0 0 0 227.76 631.95
  Q 221.44 636.77 214.05 637.01
  C 202.36 637.38 195.76 630.21 195.65 618.69
  A 0.74 0.73 89.8 0 1 196.39 617.94
  Z
  M 291.96 618.01
  L 327.40 618.01
  A 0.99 0.99 0.0 0 0 328.38 617.16
  C 329.92 606.01 328.31 594.17 317.49 588.64
  C 305.81 582.65 291.20 587.00 284.76 598.33
  Q 281.73 603.66 281.08 611.92
  C 279.86 627.30 284.73 641.01 301.54 644.47
  Q 315.88 647.43 327.29 638.93
  A 1.31 1.30 56.8 0 0 327.64 637.23
  L 324.72 632.17
  A 0.88 0.88 0.0 0 0 323.42 631.91
  Q 317.11 636.76 309.71 637.03
  C 298.01 637.44 291.38 630.29 291.23 618.76
  A 0.74 0.73 89.6 0 1 291.96 618.01
  Z
  M 351.17 593.68
  L 350.23 589.10
  A 1.37 1.37 0.0 0 0 348.89 588.00
  L 342.68 588.00
  A 0.73 0.73 0.0 0 0 341.95 588.73
  L 341.95 642.99
  A 1.03 1.03 0.0 0 0 342.98 644.02
  L 351.07 644.02
  A 0.88 0.88 0.0 0 0 351.95 643.14
  Q 351.94 627.18 351.92 610.78
  C 351.92 604.41 352.97 599.91 358.11 596.80
  Q 363.70 593.41 371.52 596.04
  A 0.17 0.17 0.0 0 0 371.74 595.89
  L 372.71 587.27
  A 0.26 0.25 -78.2 0 0 372.53 586.99
  Q 359.18 583.13 351.72 593.79
  A 0.31 0.30 -33.4 0 1 351.17 593.68
  Z
  M 388.69 618.09
  L 424.19 617.95
  A 0.99 0.99 0.0 0 0 425.16 617.09
  C 426.66 605.92 425.00 594.07 414.14 588.57
  C 402.42 582.62 387.80 587.04 381.40 598.41
  Q 378.39 603.76 377.77 612.04
  C 376.61 627.45 381.54 641.16 398.40 644.56
  Q 412.77 647.46 424.16 638.90
  A 1.31 1.30 56.6 0 0 424.51 637.20
  L 421.56 632.14
  A 0.88 0.88 0.0 0 0 420.26 631.89
  Q 413.96 636.77 406.55 637.07
  C 394.83 637.53 388.16 630.40 387.96 618.85
  A 0.74 0.73 89.4 0 1 388.69 618.09
  Z
  M 446.48 617.99
  L 481.87 618.04
  A 0.99 0.99 0.0 0 0 482.85 617.19
  C 484.40 606.06 482.81 594.24 472.02 588.70
  C 460.36 582.70 445.76 587.02 439.32 598.33
  Q 436.28 603.65 435.62 611.89
  C 434.38 627.25 439.23 640.95 456.01 644.43
  Q 470.32 647.40 481.73 638.93
  A 1.31 1.30 56.9 0 0 482.08 637.23
  L 479.17 632.18
  A 0.88 0.88 0.0 0 0 477.88 631.92
  Q 471.57 636.75 464.18 637.01
  C 452.49 637.40 445.88 630.25 445.75 618.74
  A 0.74 0.73 89.7 0 1 446.48 617.99
  Z
  M 648.92 598.59
  L 650.85 593.10
  A 2.11 2.09 -65.1 0 0 649.94 590.59
  Q 640.56 585.01 629.92 586.29
  C 619.81 587.51 613.14 594.24 614.12 604.60
  C 615.17 615.89 625.02 616.84 636.38 620.35
  C 641.84 622.03 645.14 625.25 642.76 631.19
  Q 640.96 635.66 635.27 636.66
  Q 625.54 638.37 616.68 631.90
  A 0.84 0.84 0.0 0 0 615.41 632.24
  L 612.86 638.05
  A 1.39 1.38 -62.0 0 0 613.39 639.77
  Q 622.29 645.46 633.09 645.20
  C 641.81 645.00 651.35 640.06 652.89 631.01
  C 655.78 614.03 641.15 612.29 628.63 608.38
  Q 623.92 606.92 623.62 602.95
  C 622.77 592.19 637.22 594.16 643.07 596.76
  Q 646.68 598.37 647.29 598.96
  A 0.99 0.99 0.0 0 0 648.92 598.59
  Z
  M 892.64 598.52
  L 894.55 593.02
  A 2.11 2.10 -65.3 0 0 893.63 590.51
  Q 884.22 584.96 873.57 586.29
  C 863.46 587.55 856.81 594.32 857.83 604.68
  C 858.93 615.98 868.79 616.89 880.18 620.36
  C 885.65 622.02 888.97 625.23 886.61 631.18
  Q 884.83 635.67 879.13 636.69
  Q 869.40 638.44 860.51 632.00
  A 0.85 0.84 -60.3 0 0 859.24 632.35
  L 856.71 638.17
  A 1.39 1.38 -62.3 0 0 857.24 639.89
  Q 866.18 645.55 876.99 645.25
  C 885.72 645.01 895.25 640.03 896.75 630.96
  C 899.57 613.95 884.92 612.27 872.37 608.41
  Q 867.65 606.96 867.33 602.99
  C 866.44 592.22 880.91 594.14 886.78 596.72
  Q 890.40 598.31 891.01 598.90
  A 0.99 0.99 0.0 0 0 892.64 598.52
  Z
  M 562.04 593.06
  L 562.04 589.64
  A 1.66 1.66 0.0 0 0 560.38 587.98
  L 554.48 587.98
  A 1.39 1.39 0.0 0 0 553.09 589.37
  L 553.09 643.41
  A 0.61 0.61 0.0 0 0 553.70 644.02
  L 562.37 644.02
  A 0.63 0.63 0.0 0 0 563.00 643.39
  Q 563.04 615.52 562.94 608.50
  Q 562.86 603.45 563.67 602.18
  Q 569.25 593.43 580.03 594.98
  C 587.56 596.07 590.07 601.78 590.05 608.76
  Q 589.98 631.72 589.99 643.20
  A 0.82 0.82 0.0 0 0 590.81 644.02
  L 599.11 644.02
  A 0.83 0.82 90.0 0 0 599.93 643.19
  Q 599.89 618.47 599.97 609.82
  Q 600.03 602.89 598.99 599.59
  C 596.19 590.76 587.98 586.08 578.99 586.29
  Q 569.96 586.51 563.02 593.46
  A 0.57 0.57 0.0 0 1 562.04 593.06
  Z
  M 729.35 637.43
  Q 729.64 644.21 728.86 648.94
  C 727.29 658.38 717.72 660.88 709.41 659.53
  Q 702.47 658.40 697.13 655.20
  A 0.82 0.82 0.0 0 0 695.96 655.58
  L 693.36 661.56
  A 0.93 0.93 0.0 0 0 693.78 662.76
  C 708.45 670.47 730.47 670.99 737.71 652.75
  Q 739.42 648.45 739.03 635.60
  Q 739.00 634.58 739.00 588.69
  A 0.68 0.68 0.0 0 0 738.32 588.01
  L 731.31 588.01
  A 0.98 0.98 0.0 0 0 730.34 588.88
  L 729.94 592.44
  A 0.40 0.40 0.0 0 1 729.26 592.67
  C 724.45 587.84 718.55 586.20 711.68 586.81
  C 699.26 587.92 691.53 597.49 690.19 609.50
  C 688.31 626.44 694.09 642.42 713.12 643.17
  C 719.23 643.42 724.77 641.63 728.85 637.25
  A 0.29 0.29 0.0 0 1 729.35 637.43
  Z
  M 676.56 588.48
  A 0.49 0.49 0.0 0 0 676.07 587.99
  L 666.51 587.99
  A 0.49 0.49 0.0 0 0 666.02 588.48
  L 666.02 643.52
  A 0.49 0.49 0.0 0 0 666.51 644.01
  L 676.07 644.01
  A 0.49 0.49 0.0 0 0 676.56 643.52
  L 676.56 588.48
  Z
  M 470.9098 694.5511
  A 14.72 13.05 -89.3 0 0 457.6810 709.1106
  A 14.72 13.05 -89.3 0 0 470.5502 723.9889
  A 14.72 13.05 -89.3 0 0 483.7790 709.4294
  A 14.72 13.05 -89.3 0 0 470.9098 694.5511
  Z
  M 595.0588 694.6101
  A 14.68 13.12 -90.2 0 0 581.9901 709.3358
  A 14.68 13.12 -90.2 0 0 595.1612 723.9699
  A 14.68 13.12 -90.2 0 0 608.2299 709.2442
  A 14.68 13.12 -90.2 0 0 595.0588 694.6101
  Z
  M 206.51 695.47
  A 0.42 0.42 0.0 0 0 206.09 695.05
  L 203.05 695.05
  A 0.42 0.42 0.0 0 0 202.63 695.47
  L 202.63 722.77
  A 0.42 0.42 0.0 0 0 203.05 723.19
  L 206.09 723.19
  A 0.42 0.42 0.0 0 0 206.51 722.77
  L 206.51 695.47
  Z
  M 233.55 715.25
  Q 226.31 705.50 219.62 695.98
  Q 218.64 694.58 216.55 695.11
  A 0.75 0.75 0.0 0 0 216.00 695.83
  L 216.00 722.99
  A 0.26 0.26 0.0 0 0 216.26 723.25
  L 219.08 723.25
  A 0.29 0.29 0.0 0 0 219.37 722.96
  L 219.37 702.83
  A 0.34 0.33 27.5 0 1 219.98 702.64
  L 234.66 723.21
  A 1.52 1.52 0.0 0 0 237.42 722.33
  L 237.42 695.72
  A 0.69 0.69 0.0 0 0 236.73 695.03
  L 234.78 695.03
  A 0.75 0.75 0.0 0 0 234.03 695.78
  L 234.03 715.09
  A 0.27 0.27 0.0 0 1 233.55 715.25
  Z
  M 262.15 696.81
  C 256.62 693.89 247.12 693.72 245.72 701.47
  C 243.63 712.99 260.81 708.30 259.27 716.25
  C 258.23 721.63 250.12 720.47 247.08 718.21
  A 1.04 1.04 0.0 0 0 245.51 718.63
  L 244.90 720.04
  A 1.31 1.30 -63.9 0 0 245.46 721.70
  C 250.20 724.32 257.67 725.09 261.51 720.48
  C 264.82 716.53 263.89 710.10 258.51 708.24
  C 254.67 706.91 247.67 705.70 250.11 700.56
  C 251.71 697.19 258.30 698.85 260.71 700.03
  A 0.75 0.74 -65.4 0 0 261.72 699.65
  L 262.51 697.84
  A 0.80 0.80 0.0 0 0 262.15 696.81
  Z
  M 275.65 695.51
  A 0.41 0.41 0.0 0 0 275.24 695.10
  L 272.18 695.10
  A 0.41 0.41 0.0 0 0 271.77 695.51
  L 271.77 722.81
  A 0.41 0.41 0.0 0 0 272.18 723.22
  L 275.24 723.22
  A 0.41 0.41 0.0 0 0 275.65 722.81
  L 275.65 695.51
  Z
  M 302.00 712.93
  L 302.00 718.00
  A 1.83 1.82 84.9 0 1 300.50 719.80
  Q 290.05 721.73 288.22 713.29
  C 287.11 708.19 287.87 700.79 293.81 699.23
  Q 297.78 698.19 303.11 699.82
  A 0.77 0.77 0.0 0 0 304.04 699.39
  L 304.82 697.60
  A 0.92 0.92 0.0 0 0 304.29 696.38
  C 296.74 693.70 288.82 694.48 285.16 702.35
  C 282.38 708.31 283.22 718.50 290.04 722.13
  Q 296.62 725.63 305.17 721.72
  A 1.15 1.14 78.3 0 0 305.84 720.69
  L 305.84 709.09
  A 0.72 0.72 0.0 0 0 305.12 708.37
  L 296.37 708.37
  A 0.56 0.56 0.0 0 0 295.81 708.93
  L 295.81 711.41
  A 0.60 0.59 -0.0 0 0 296.41 712.00
  L 301.07 712.00
  A 0.93 0.93 0.0 0 1 302.00 712.93
  Z
  M 314.65 709.00
  Q 314.65 722.06 314.66 722.57
  A 0.52 0.51 0.2 0 0 315.18 723.08
  L 317.88 723.08
  A 0.60 0.60 0.0 0 0 318.48 722.48
  L 318.48 711.53
  A 0.65 0.65 0.0 0 1 319.10 710.89
  Q 319.92 710.84 324.82 710.84
  Q 329.72 710.84 330.54 710.89
  A 0.65 0.65 0.0 0 1 331.16 711.53
  L 331.16 722.48
  A 0.60 0.60 0.0 0 0 331.76 723.08
  L 334.46 723.08
  A 0.52 0.51 -0.2 0 0 334.97 722.57
  Q 334.99 722.06 334.99 709.00
  Q 334.99 695.94 334.98 695.43
  A 0.52 0.51 0.2 0 0 334.46 694.92
  L 331.76 694.92
  A 0.60 0.60 0.0 0 0 331.16 695.52
  L 331.16 706.47
  A 0.65 0.65 0.0 0 1 330.54 707.11
  Q 329.72 707.15 324.82 707.15
  Q 319.92 707.15 319.10 707.11
  A 0.65 0.65 0.0 0 1 318.48 706.46
  L 318.49 695.51
  A 0.60 0.60 0.0 0 0 317.89 694.91
  L 315.19 694.91
  A 0.52 0.51 -0.2 0 0 314.67 695.43
  Q 314.66 695.93 314.65 709.00
  Z
  M 352.99 723.25
  Q 353.68 723.24 354.39 723.21
  A 0.57 0.57 0.0 0 0 354.94 722.64
  L 354.83 699.43
  A 0.53 0.52 89.7 0 1 355.35 698.89
  L 362.90 698.86
  A 0.70 0.70 0.0 0 0 363.60 698.15
  L 363.59 695.80
  A 0.77 0.76 89.3 0 0 362.81 695.03
  Q 358.13 695.11 352.93 695.10
  Q 347.73 695.13 343.05 695.07
  A 0.77 0.76 -89.5 0 0 342.27 695.84
  L 342.27 698.19
  A 0.70 0.70 0.0 0 0 342.97 698.90
  L 350.52 698.90
  A 0.53 0.52 -89.9 0 1 351.04 699.44
  L 351.02 722.65
  A 0.57 0.57 0.0 0 0 351.57 723.22
  Q 352.29 723.25 352.99 723.25
  Z
  M 398.27 708.47
  Q 402.18 705.94 401.70 701.89
  C 400.75 693.88 390.01 695.01 383.93 695.08
  A 0.50 0.50 0.0 0 0 383.44 695.58
  L 383.44 722.57
  A 0.59 0.59 0.0 0 0 384.03 723.16
  Q 392.74 723.15 395.01 722.99
  C 402.46 722.45 405.78 712.87 398.29 708.97
  A 0.29 0.29 0.0 0 1 398.27 708.47
  Z
  M 427.03 720.02
  L 414.54 719.98
  A 0.29 0.29 0.0 0 1 414.25 719.69
  L 414.29 710.69
  A 0.36 0.35 -0.5 0 1 414.65 710.33
  L 425.39 710.43
  A 0.48 0.48 0.0 0 0 425.88 709.96
  L 425.88 707.40
  A 0.46 0.46 0.0 0 0 425.41 706.94
  L 414.63 706.94
  A 0.36 0.36 0.0 0 1 414.27 706.58
  L 414.30 699.15
  A 0.32 0.32 0.0 0 1 414.62 698.83
  L 426.26 698.95
  A 0.54 0.53 -89.2 0 0 426.80 698.41
  L 426.81 695.70
  A 0.60 0.59 -89.7 0 0 426.23 695.10
  L 410.82 695.06
  A 0.34 0.34 0.0 0 0 410.48 695.39
  L 410.42 722.64
  A 0.49 0.49 0.0 0 0 410.91 723.13
  L 426.98 723.15
  A 0.42 0.41 -0.4 0 0 427.39 722.74
  L 427.42 720.43
  A 0.40 0.40 0.0 0 0 427.03 720.02
  Z
  M 438.49 723.17
  A 0.51 0.51 0.0 0 0 439.00 722.66
  L 439.00 711.49
  A 0.51 0.51 0.0 0 1 439.51 710.98
  L 450.51 710.98
  A 0.51 0.51 0.0 0 0 451.02 710.47
  L 451.02 707.79
  A 0.51 0.51 0.0 0 0 450.51 707.28
  L 439.50 707.28
  A 0.51 0.51 0.0 0 1 438.99 706.77
  L 438.99 699.38
  A 0.51 0.51 0.0 0 1 439.50 698.87
  L 451.39 698.87
  A 0.51 0.51 0.0 0 0 451.90 698.36
  L 451.90 695.63
  A 0.51 0.51 0.0 0 0 451.39 695.12
  L 435.58 695.12
  A 0.51 0.51 0.0 0 0 435.07 695.63
  L 435.07 722.66
  A 0.51 0.51 0.0 0 0 435.58 723.17
  L 438.49 723.17
  Z
  M 511.94 722.95
  Q 508.58 716.34 504.07 711.33
  A 0.49 0.49 0.0 0 1 504.29 710.53
  C 512.46 708.18 511.77 697.30 503.59 695.60
  Q 499.55 694.75 492.24 695.10
  A 0.63 0.63 0.0 0 0 491.64 695.73
  L 491.64 722.73
  A 0.46 0.45 -0.0 0 0 492.10 723.18
  L 495.09 723.18
  A 0.40 0.40 0.0 0 0 495.49 722.78
  L 495.49 711.93
  A 0.65 0.64 86.5 0 1 496.05 711.29
  C 500.74 710.67 504.20 716.97 507.40 722.89
  A 0.51 0.50 -13.4 0 0 507.85 723.16
  L 511.81 723.16
  A 0.15 0.14 -13.6 0 0 511.94 722.95
  Z
  M 535.34 719.98
  L 522.87 719.97
  A 0.29 0.29 0.0 0 1 522.59 719.68
  L 522.61 710.69
  A 0.36 0.35 -0.6 0 1 522.97 710.34
  L 533.69 710.42
  A 0.48 0.48 0.0 0 0 534.17 709.94
  L 534.17 707.39
  A 0.46 0.46 0.0 0 0 533.70 706.93
  L 522.94 706.96
  A 0.36 0.36 0.0 0 1 522.58 706.60
  L 522.59 699.18
  A 0.32 0.32 0.0 0 1 522.91 698.86
  L 534.53 698.95
  A 0.54 0.53 -89.3 0 0 535.07 698.41
  L 535.07 695.71
  A 0.60 0.59 -89.8 0 0 534.49 695.11
  L 519.11 695.10
  A 0.34 0.34 0.0 0 0 518.77 695.44
  L 518.77 722.63
  A 0.49 0.49 0.0 0 0 519.27 723.12
  L 535.30 723.10
  A 0.42 0.41 -0.6 0 0 535.71 722.69
  L 535.74 720.38
  A 0.40 0.40 0.0 0 0 535.34 719.98
  Z
  M 565.95 723.18
  Q 567.30 723.19 567.36 723.18
  A 0.77 0.77 0.0 0 0 567.88 722.45
  L 568.02 713.01
  A 6.96 6.95 -28.1 0 1 569.14 709.33
  L 577.75 695.98
  A 0.54 0.54 0.0 0 0 577.29 695.15
  L 575.15 695.15
  A 2.17 2.15 15.7 0 0 573.31 696.17
  Q 570.11 701.33 566.62 706.97
  Q 566.42 707.30 566.10 707.29
  Q 565.77 707.29 565.58 706.96
  Q 562.19 701.26 559.08 696.04
  A 2.17 2.15 -14.7 0 0 557.26 694.99
  L 555.12 694.95
  A 0.54 0.54 0.0 0 0 554.64 695.77
  L 563.01 709.28
  A 6.96 6.95 29.2 0 1 564.07 712.97
  L 564.04 722.42
  A 0.77 0.77 0.0 0 0 564.55 723.15
  Q 564.60 723.17 565.95 723.18
  Z
  M 626.31 723.75
  C 632.78 723.73 636.71 719.78 636.81 713.24
  Q 636.95 702.88 636.82 695.62
  A 0.61 0.61 0.0 0 0 636.21 695.02
  L 633.52 695.02
  A 0.62 0.62 0.0 0 0 632.90 695.65
  Q 633.13 704.43 632.92 713.47
  C 632.82 717.70 630.56 720.12 626.31 720.13
  C 622.05 720.14 619.78 717.73 619.67 713.49
  Q 619.42 704.46 619.62 695.68
  A 0.62 0.62 0.0 0 0 619.00 695.05
  L 616.31 695.06
  A 0.61 0.61 0.0 0 0 615.70 695.66
  Q 615.60 702.92 615.78 713.28
  C 615.90 719.82 619.85 723.76 626.31 723.75
  Z
  M 668.22 716.12
  Q 668.50 716.12 673.01 716.17
  A 0.88 0.88 0.0 0 1 673.83 716.75
  L 675.93 722.56
  A 0.98 0.98 0.0 0 0 676.85 723.21
  L 679.43 723.21
  A 0.50 0.50 0.0 0 0 679.90 722.55
  L 670.24 695.85
  A 1.17 1.17 0.0 0 0 669.59 695.18
  Q 668.99 694.94 668.23 694.94
  Q 667.47 694.94 666.87 695.17
  A 1.17 1.17 0.0 0 0 666.22 695.85
  L 656.53 722.54
  A 0.50 0.50 0.0 0 0 657.00 723.20
  L 659.58 723.20
  A 0.98 0.98 0.0 0 0 660.50 722.55
  L 662.61 716.74
  A 0.88 0.88 0.0 0 1 663.43 716.16
  Q 667.93 716.12 668.22 716.12
  Z
  M 684.71 709.78
  Q 684.82 714.20 686.19 717.04
  C 689.62 724.10 697.91 725.51 704.62 721.99
  A 0.98 0.98 0.0 0 0 705.08 720.79
  L 704.49 719.14
  A 0.80 0.80 0.0 0 0 703.38 718.70
  Q 702.19 719.30 700.77 719.62
  C 692.85 721.44 688.99 717.33 688.81 709.68
  C 688.62 702.03 692.28 697.73 700.27 699.17
  Q 701.71 699.42 702.93 699.97
  A 0.80 0.80 0.0 0 0 704.02 699.47
  L 704.53 697.80
  A 0.98 0.98 0.0 0 0 704.01 696.62
  C 697.14 693.43 688.92 695.24 685.84 702.46
  Q 684.61 705.35 684.71 709.78
  Z
  M 730.66 718.26
  C 725.92 720.90 718.83 721.27 716.21 715.62
  C 713.32 709.39 714.88 698.48 724.26 698.99
  Q 727.07 699.15 728.70 699.76
  A 1.31 1.31 0.0 0 0 730.26 699.24
  L 730.84 698.35
  A 1.22 1.21 -61.0 0 0 730.34 696.60
  C 720.56 691.85 711.05 698.01 710.90 708.76
  C 710.82 714.51 712.50 720.18 717.87 722.56
  Q 723.97 725.26 730.85 721.85
  A 0.23 0.22 78.2 0 0 730.98 721.64
  L 730.98 718.44
  A 0.22 0.21 -15.0 0 0 730.66 718.26
  Z
  M 755.56 723.18
  A 0.35 0.35 0.0 0 0 755.91 722.83
  L 755.91 720.38
  A 0.35 0.35 0.0 0 0 755.56 720.03
  L 743.09 720.03
  A 0.35 0.35 0.0 0 1 742.74 719.68
  L 742.74 710.75
  A 0.35 0.35 0.0 0 1 743.09 710.40
  L 753.97 710.40
  A 0.35 0.35 0.0 0 0 754.32 710.05
  L 754.32 707.31
  A 0.35 0.35 0.0 0 0 753.97 706.96
  L 743.04 706.96
  A 0.35 0.35 0.0 0 1 742.69 706.61
  L 742.69 699.25
  A 0.35 0.35 0.0 0 1 743.04 698.90
  L 754.84 698.90
  A 0.35 0.35 0.0 0 0 755.19 698.55
  L 755.19 695.45
  A 0.35 0.35 0.0 0 0 754.84 695.10
  L 739.23 695.10
  A 0.35 0.35 0.0 0 0 738.88 695.45
  L 738.88 722.83
  A 0.35 0.35 0.0 0 0 739.23 723.18
  L 755.56 723.18
  Z
  M 763.53 695.87
  L 763.53 722.78
  A 0.41 0.41 0.0 0 0 763.94 723.19
  L 766.94 723.19
  A 0.47 0.47 0.0 0 0 767.41 722.72
  L 767.41 712.55
  A 0.60 0.60 0.0 0 1 768.02 711.95
  Q 768.77 711.96 771.74 712.00
  C 776.98 712.09 782.07 709.26 782.09 703.44
  C 782.13 694.24 770.35 694.87 764.30 695.08
  A 0.79 0.79 0.0 0 0 763.53 695.87
  Z
  M 797.13 723.12
  Q 797.82 723.12 798.53 723.09
  A 0.57 0.56 -1.2 0 0 799.08 722.53
  L 799.08 699.43
  A 0.53 0.52 90.0 0 1 799.60 698.90
  L 807.11 698.90
  A 0.70 0.70 0.0 0 0 807.81 698.20
  L 807.81 695.86
  A 0.77 0.76 89.5 0 0 807.04 695.09
  Q 802.38 695.15 797.21 695.12
  Q 792.03 695.12 787.37 695.04
  A 0.77 0.76 -89.2 0 0 786.60 695.80
  L 786.59 698.14
  A 0.70 0.70 0.0 0 0 787.28 698.85
  L 794.79 698.89
  A 0.53 0.52 -89.7 0 1 795.31 699.42
  L 795.19 722.52
  A 0.57 0.56 1.5 0 0 795.73 723.08
  Q 796.44 723.12 797.13 723.12
  Z"
/>
<rect fill="#000000" x="527.36" y="250.06" width="13.52" height="52.80" rx="6.57"/>
<rect fill="#000000" x="-6.77" y="-24.52" transform="translate(571.94,281.54) rotate(28.4)" width="13.54" height="49.04" rx="6.61"/>
<rect fill="#000000" x="-6.70" y="-24.99" transform="translate(495.62,282.15) rotate(-28.0)" width="13.40" height="49.98" rx="6.55"/>
<path fill="#000000" d="
  M 517.14 327.66
  Q 517.03 337.94 517.02 338.25
  C 516.52 350.77 534.55 351.86 535.76 339.47
  Q 536.13 335.58 536.20 327.66
  A 0.50 0.49 -89.4 0 1 536.69 327.17
  Q 584.46 327.19 698.00 327.18
  C 704.68 327.18 710.36 330.11 708.50 338.00
  Q 705.78 349.55 695.59 394.86
  C 693.82 402.77 687.66 401.95 679.58 401.92
  Q 650.62 401.84 565.22 401.90
  A 0.50 0.49 87.8 0 0 564.73 402.44
  C 565.10 407.52 565.85 412.02 565.87 417.18
  Q 566.10 459.03 537.40 488.30
  C 510.05 516.19 468.11 523.87 432.38 507.40
  C 402.23 493.50 381.72 466.27 377.62 433.15
  C 371.65 384.94 403.54 340.50 450.24 329.72
  Q 460.43 327.37 474.51 327.23
  Q 493.58 327.03 516.68 327.19
  A 0.47 0.46 90.0 0 1 517.14 327.66
  Z
  M 522.73 421.56
  A 51.70 51.70 0.0 0 0 471.03 369.86
  A 51.70 51.70 0.0 0 0 419.33 421.56
  A 51.70 51.70 0.0 0 0 471.03 473.26
  A 51.70 51.70 0.0 0 0 522.73 421.56
  Z"
/>
<circle fill="#ffffff" cx="471.03" cy="421.56" r="51.70"/>
<path fill="#000000" d="
  M 371.62 391.33
  Q 368.96 402.35 368.67 404.00
  Q 364.54 427.53 371.57 450.91
  A 0.39 0.39 0.0 0 1 371.13 451.40
  C 357.73 448.94 346.93 438.80 345.18 425.10
  C 343.20 409.65 351.18 396.63 366.07 391.81
  Q 368.92 390.89 371.17 390.78
  A 0.45 0.44 5.9 0 1 371.62 391.33
  Z"
/>
<path fill="#000000" d="
  M 765.42 592.81
  A 0.44 0.44 0.0 0 0 766.17 593.12
  Q 773.74 585.60 783.74 586.32
  C 791.88 586.90 798.48 591.33 801.19 599.09
  Q 802.06 601.60 802.05 607.49
  Q 802.00 629.17 802.06 643.35
  A 0.66 0.66 0.0 0 1 801.40 644.01
  L 792.70 644.01
  A 0.62 0.61 90.0 0 1 792.09 643.39
  Q 792.22 619.92 792.06 606.04
  C 791.97 598.24 786.92 594.84 779.50 594.73
  Q 772.07 594.61 766.63 600.89
  A 4.87 4.85 65.6 0 0 765.44 604.08
  L 765.44 643.75
  A 0.26 0.25 0.0 0 1 765.18 644.00
  L 755.80 644.00
  A 0.21 0.21 0.0 0 1 755.59 643.79
  L 755.59 562.35
  A 0.23 0.23 0.0 0 1 755.82 562.12
  L 765.13 562.12
  A 0.29 0.29 0.0 0 1 765.42 562.41
  L 765.42 592.81
  Z"
/>
<path fill="#000000" d="
  M 157.89 610.26
  A 0.29 0.29 0.0 0 0 157.75 610.72
  Q 170.31 625.37 179.08 643.14
  A 0.62 0.62 0.0 0 1 178.53 644.04
  L 168.13 644.04
  A 1.51 1.49 79.5 0 1 166.73 643.07
  Q 160.60 626.90 147.90 612.53
  A 2.15 2.14 69.1 0 0 146.30 611.81
  L 137.10 611.81
  A 0.59 0.58 -0.0 0 0 136.51 612.39
  L 136.51 643.36
  A 0.64 0.64 0.0 0 1 135.87 644.00
  L 126.68 644.00
  A 0.63 0.63 0.0 0 1 126.05 643.37
  L 126.05 565.44
  A 0.56 0.55 -89.5 0 1 126.61 564.88
  Q 136.02 564.96 147.50 564.95
  C 159.28 564.93 170.96 568.14 174.46 581.03
  Q 176.44 588.33 174.36 596.21
  C 172.35 603.85 165.06 608.17 157.89 610.26
  Z
  M 136.49 573.97
  L 136.55 602.97
  A 0.25 0.25 0.0 0 0 136.80 603.22
  L 150.36 603.20
  A 14.69 13.86 -0.1 0 0 165.02 589.32
  L 165.02 587.54
  A 14.69 13.86 -0.1 0 0 150.30 573.70
  L 136.74 573.72
  A 0.25 0.25 0.0 0 0 136.49 573.97
  Z"
/>
<rect fill="#000000" x="524.76" y="564.87" width="10.24" height="79.12" rx="0.26"/>
<ellipse fill="#000000" cx="0.00" cy="0.00" transform="translate(671.47,570.82) rotate(-1.5)" rx="6.75" ry="6.12"/>
<path fill="#000000" d="
  M 249.75 643.38
  L 249.75 596.58
  A 0.57 0.56 0.0 0 0 249.18 596.02
  L 241.46 596.02
  A 0.50 0.50 0.0 0 1 240.96 595.52
  L 240.96 588.42
  A 0.42 0.42 0.0 0 1 241.38 588.00
  L 249.27 588.00
  A 0.51 0.51 0.0 0 0 249.78 587.47
  Q 249.71 585.77 249.95 579.74
  Q 250.52 565.81 264.77 564.96
  Q 270.62 564.62 276.01 566.28
  A 1.24 1.24 0.0 0 1 276.88 567.61
  L 276.13 574.26
  A 0.88 0.87 16.8 0 1 274.86 574.94
  C 271.26 573.08 265.11 572.04 261.64 575.08
  C 259.33 577.10 259.83 584.24 259.97 587.21
  A 0.80 0.80 0.0 0 0 260.77 587.97
  L 273.33 587.97
  A 0.70 0.70 0.0 0 1 274.03 588.67
  L 274.03 595.32
  A 0.67 0.67 0.0 0 1 273.36 595.99
  L 260.58 595.99
  A 0.59 0.59 0.0 0 0 259.99 596.58
  L 259.99 643.19
  A 0.83 0.83 0.0 0 1 259.16 644.02
  L 250.39 644.02
  A 0.64 0.64 0.0 0 1 249.75 643.38
  Z"
/>
<path fill="#000000" d="
  M 830.17 570.20
  L 830.17 587.44
  A 0.56 0.56 0.0 0 0 830.73 588.00
  L 847.12 588.00
  A 0.94 0.94 0.0 0 1 848.06 588.94
  L 848.06 595.10
  A 0.88 0.88 0.0 0 1 847.18 595.98
  L 830.71 595.98
  A 0.64 0.63 -89.1 0 0 830.08 596.60
  Q 829.91 602.28 830.11 627.92
  C 830.17 637.20 838.21 638.21 844.64 634.35
  A 0.71 0.70 64.8 0 1 845.66 634.72
  L 847.79 640.60
  A 0.97 0.96 66.3 0 1 847.33 641.79
  Q 841.30 645.00 835.99 644.69
  Q 820.00 643.76 820.05 627.50
  Q 820.07 619.09 820.13 596.69
  A 0.68 0.67 90.0 0 0 819.46 596.01
  L 811.90 596.01
  A 0.19 0.19 0.0 0 1 811.71 595.82
  L 811.71 588.34
  A 0.35 0.34 90.0 0 1 812.05 587.99
  L 819.72 587.99
  A 1.17 1.17 0.0 0 0 820.89 586.82
  L 820.89 570.47
  A 0.48 0.47 0.0 0 1 821.37 570.00
  L 829.96 570.00
  A 0.21 0.20 -0.0 0 1 830.17 570.20
  Z"
/>
<path fill="#ffffff" d="
  M 136.49 573.97
  A 0.25 0.25 0.0 0 1 136.74 573.72
  L 150.30 573.70
  A 14.69 13.86 -0.1 0 1 165.02 587.54
  L 165.02 589.32
  A 14.69 13.86 -0.1 0 1 150.36 603.20
  L 136.80 603.22
  A 0.25 0.25 0.0 0 1 136.55 602.97
  L 136.49 573.97
  Z"
/>
<path fill="#000000" d="
  M 196.39 617.94
  A 0.74 0.73 89.8 0 0 195.65 618.69
  C 195.76 630.21 202.36 637.38 214.05 637.01
  Q 221.44 636.77 227.76 631.95
  A 0.88 0.88 0.0 0 1 229.06 632.22
  L 231.96 637.28
  A 1.31 1.30 57.0 0 1 231.60 638.98
  Q 220.17 647.43 205.85 644.41
  C 189.07 640.89 184.26 627.18 185.54 611.82
  Q 186.22 603.57 189.27 598.25
  C 195.75 586.96 210.36 582.67 222.01 588.70
  C 232.79 594.27 234.36 606.10 232.77 617.23
  A 0.99 0.99 0.0 0 1 231.79 618.08
  L 196.39 617.94
  Z
  M 196.30 610.27
  L 223.78 610.23
  A 0.28 0.28 0.0 0 0 224.06 609.95
  L 224.06 609.52
  A 15.45 14.02 89.9 0 0 210.02 594.09
  A 15.45 14.02 89.9 0 0 196.02 609.56
  L 196.02 609.99
  A 0.28 0.28 0.0 0 0 196.30 610.27
  Z"
/>
<path fill="#000000" d="
  M 291.23 618.76
  C 291.38 630.29 298.01 637.44 309.71 637.03
  Q 317.11 636.76 323.42 631.91
  A 0.88 0.88 0.0 0 1 324.72 632.17
  L 327.64 637.23
  A 1.31 1.30 56.8 0 1 327.29 638.93
  Q 315.88 647.43 301.54 644.47
  C 284.73 641.01 279.86 627.30 281.08 611.92
  Q 281.73 603.66 284.76 598.33
  C 291.20 587.00 305.81 582.65 317.49 588.64
  C 328.31 594.17 329.92 606.01 328.38 617.16
  A 0.99 0.99 0.0 0 1 327.40 618.01
  L 291.96 618.01
  A 0.74 0.73 89.6 0 0 291.23 618.76
  Z
  M 291.92 610.28
  L 319.22 610.18
  A 0.30 0.30 0.0 0 0 319.52 609.88
  L 319.52 609.43
  A 15.45 13.95 89.8 0 0 305.51 594.03
  A 15.45 13.95 89.8 0 0 291.62 609.53
  L 291.62 609.98
  A 0.30 0.30 0.0 0 0 291.92 610.28
  Z"
/>
<path fill="#000000" d="
  M 351.17 593.68
  A 0.31 0.30 -33.4 0 0 351.72 593.79
  Q 359.18 583.13 372.53 586.99
  A 0.26 0.25 -78.2 0 1 372.71 587.27
  L 371.74 595.89
  A 0.17 0.17 0.0 0 1 371.52 596.04
  Q 363.70 593.41 358.11 596.80
  C 352.97 599.91 351.92 604.41 351.92 610.78
  Q 351.94 627.18 351.95 643.14
  A 0.88 0.88 0.0 0 1 351.07 644.02
  L 342.98 644.02
  A 1.03 1.03 0.0 0 1 341.95 642.99
  L 341.95 588.73
  A 0.73 0.73 0.0 0 1 342.68 588.00
  L 348.89 588.00
  A 1.37 1.37 0.0 0 1 350.23 589.10
  L 351.17 593.68
  Z"
/>
<path fill="#000000" d="
  M 388.69 618.09
  A 0.74 0.73 89.4 0 0 387.96 618.85
  C 388.16 630.40 394.83 637.53 406.55 637.07
  Q 413.96 636.77 420.26 631.89
  A 0.88 0.88 0.0 0 1 421.56 632.14
  L 424.51 637.20
  A 1.31 1.30 56.6 0 1 424.16 638.90
  Q 412.77 647.46 398.40 644.56
  C 381.54 641.16 376.61 627.45 377.77 612.04
  Q 378.39 603.76 381.40 598.41
  C 387.80 587.04 402.42 582.62 414.14 588.57
  C 425.00 594.07 426.66 605.92 425.16 617.09
  A 0.99 0.99 0.0 0 1 424.19 617.95
  L 388.69 618.09
  Z
  M 388.69 610.31
  L 416.01 610.17
  A 0.29 0.29 0.0 0 0 416.30 609.88
  L 416.30 609.44
  A 15.47 13.88 89.7 0 0 402.34 594.04
  L 402.20 594.04
  A 15.47 13.88 89.7 0 0 388.40 609.58
  L 388.40 610.02
  A 0.29 0.29 0.0 0 0 388.69 610.31
  Z"
/>
<path fill="#000000" d="
  M 446.48 617.99
  A 0.74 0.73 89.7 0 0 445.75 618.74
  C 445.88 630.25 452.49 637.40 464.18 637.01
  Q 471.57 636.75 477.88 631.92
  A 0.88 0.88 0.0 0 1 479.17 632.18
  L 482.08 637.23
  A 1.31 1.30 56.9 0 1 481.73 638.93
  Q 470.32 647.40 456.01 644.43
  C 439.23 640.95 434.38 627.25 435.62 611.89
  Q 436.28 603.65 439.32 598.33
  C 445.76 587.02 460.36 582.70 472.02 588.70
  C 482.81 594.24 484.40 606.06 482.85 617.19
  A 0.99 0.99 0.0 0 1 481.87 618.04
  L 446.48 617.99
  Z
  M 446.40 610.27
  L 473.88 610.23
  A 0.22 0.22 0.0 0 0 474.10 610.01
  L 474.10 609.68
  A 15.63 13.94 89.9 0 0 460.14 594.07
  L 460.10 594.07
  A 15.63 13.94 89.9 0 0 446.18 609.72
  L 446.18 610.05
  A 0.22 0.22 0.0 0 0 446.40 610.27
  Z"
/>
<path fill="#000000" d="
  M 648.92 598.59
  A 0.99 0.99 0.0 0 1 647.29 598.96
  Q 646.68 598.37 643.07 596.76
  C 637.22 594.16 622.77 592.19 623.62 602.95
  Q 623.92 606.92 628.63 608.38
  C 641.15 612.29 655.78 614.03 652.89 631.01
  C 651.35 640.06 641.81 645.00 633.09 645.20
  Q 622.29 645.46 613.39 639.77
  A 1.39 1.38 -62.0 0 1 612.86 638.05
  L 615.41 632.24
  A 0.84 0.84 0.0 0 1 616.68 631.90
  Q 625.54 638.37 635.27 636.66
  Q 640.96 635.66 642.76 631.19
  C 645.14 625.25 641.84 622.03 636.38 620.35
  C 625.02 616.84 615.17 615.89 614.12 604.60
  C 613.14 594.24 619.81 587.51 629.92 586.29
  Q 640.56 585.01 649.94 590.59
  A 2.11 2.09 -65.1 0 1 650.85 593.10
  L 648.92 598.59
  Z"
/>
<path fill="#000000" d="
  M 892.64 598.52
  A 0.99 0.99 0.0 0 1 891.01 598.90
  Q 890.40 598.31 886.78 596.72
  C 880.91 594.14 866.44 592.22 867.33 602.99
  Q 867.65 606.96 872.37 608.41
  C 884.92 612.27 899.57 613.95 896.75 630.96
  C 895.25 640.03 885.72 645.01 876.99 645.25
  Q 866.18 645.55 857.24 639.89
  A 1.39 1.38 -62.3 0 1 856.71 638.17
  L 859.24 632.35
  A 0.85 0.84 -60.3 0 1 860.51 632.00
  Q 869.40 638.44 879.13 636.69
  Q 884.83 635.67 886.61 631.18
  C 888.97 625.23 885.65 622.02 880.18 620.36
  C 868.79 616.89 858.93 615.98 857.83 604.68
  C 856.81 594.32 863.46 587.55 873.57 586.29
  Q 884.22 584.96 893.63 590.51
  A 2.11 2.10 -65.3 0 1 894.55 593.02
  L 892.64 598.52
  Z"
/>
<path fill="#000000" d="
  M 562.04 593.06
  A 0.57 0.57 0.0 0 0 563.02 593.46
  Q 569.96 586.51 578.99 586.29
  C 587.98 586.08 596.19 590.76 598.99 599.59
  Q 600.03 602.89 599.97 609.82
  Q 599.89 618.47 599.93 643.19
  A 0.83 0.82 90.0 0 1 599.11 644.02
  L 590.81 644.02
  A 0.82 0.82 0.0 0 1 589.99 643.20
  Q 589.98 631.72 590.05 608.76
  C 590.07 601.78 587.56 596.07 580.03 594.98
  Q 569.25 593.43 563.67 602.18
  Q 562.86 603.45 562.94 608.50
  Q 563.04 615.52 563.00 643.39
  A 0.63 0.63 0.0 0 1 562.37 644.02
  L 553.70 644.02
  A 0.61 0.61 0.0 0 1 553.09 643.41
  L 553.09 589.37
  A 1.39 1.39 0.0 0 1 554.48 587.98
  L 560.38 587.98
  A 1.66 1.66 0.0 0 1 562.04 589.64
  L 562.04 593.06
  Z"
/>
<path fill="#000000" d="
  M 729.35 637.43
  A 0.29 0.29 0.0 0 0 728.85 637.25
  C 724.77 641.63 719.23 643.42 713.12 643.17
  C 694.09 642.42 688.31 626.44 690.19 609.50
  C 691.53 597.49 699.26 587.92 711.68 586.81
  C 718.55 586.20 724.45 587.84 729.26 592.67
  A 0.40 0.40 0.0 0 0 729.94 592.44
  L 730.34 588.88
  A 0.98 0.98 0.0 0 1 731.31 588.01
  L 738.32 588.01
  A 0.68 0.68 0.0 0 1 739.00 588.69
  Q 739.00 634.58 739.03 635.60
  Q 739.42 648.45 737.71 652.75
  C 730.47 670.99 708.45 670.47 693.78 662.76
  A 0.93 0.93 0.0 0 1 693.36 661.56
  L 695.96 655.58
  A 0.82 0.82 0.0 0 1 697.13 655.20
  Q 702.47 658.40 709.41 659.53
  C 717.72 660.88 727.29 658.38 728.86 648.94
  Q 729.64 644.21 729.35 637.43
  Z
  M 699.92 614.88
  C 699.82 626.68 705.67 636.46 718.77 634.91
  C 722.83 634.43 728.93 630.83 728.98 625.75
  Q 729.04 620.31 729.08 615.11
  Q 729.12 609.90 729.15 604.47
  C 729.18 599.38 723.13 595.69 719.08 595.14
  C 706.01 593.39 700.01 603.07 699.92 614.88
  Z"
/>
<rect fill="#000000" x="666.02" y="587.99" width="10.54" height="56.02" rx="0.49"/>
<path fill="#ffffff" d="
  M 196.30 610.27
  A 0.28 0.28 0.0 0 1 196.02 609.99
  L 196.02 609.56
  A 15.45 14.02 89.9 0 1 210.02 594.09
  A 15.45 14.02 89.9 0 1 224.06 609.52
  L 224.06 609.95
  A 0.28 0.28 0.0 0 1 223.78 610.23
  L 196.30 610.27
  Z"
/>
<path fill="#ffffff" d="
  M 291.92 610.28
  A 0.30 0.30 0.0 0 1 291.62 609.98
  L 291.62 609.53
  A 15.45 13.95 89.8 0 1 305.51 594.03
  A 15.45 13.95 89.8 0 1 319.52 609.43
  L 319.52 609.88
  A 0.30 0.30 0.0 0 1 319.22 610.18
  L 291.92 610.28
  Z"
/>
<path fill="#ffffff" d="
  M 388.69 610.31
  A 0.29 0.29 0.0 0 1 388.40 610.02
  L 388.40 609.58
  A 15.47 13.88 89.7 0 1 402.20 594.04
  L 402.34 594.04
  A 15.47 13.88 89.7 0 1 416.30 609.44
  L 416.30 609.88
  A 0.29 0.29 0.0 0 1 416.01 610.17
  L 388.69 610.31
  Z"
/>
<path fill="#ffffff" d="
  M 446.40 610.27
  A 0.22 0.22 0.0 0 1 446.18 610.05
  L 446.18 609.72
  A 15.63 13.94 89.9 0 1 460.10 594.07
  L 460.14 594.07
  A 15.63 13.94 89.9 0 1 474.10 609.68
  L 474.10 610.01
  A 0.22 0.22 0.0 0 1 473.88 610.23
  L 446.40 610.27
  Z"
/>
<path fill="#ffffff" d="
  M 729.08 615.11
  Q 729.04 620.31 728.98 625.75
  C 728.93 630.83 722.83 634.43 718.77 634.91
  C 705.67 636.46 699.82 626.68 699.92 614.88
  C 700.01 603.07 706.01 593.39 719.08 595.14
  C 723.13 595.69 729.18 599.38 729.15 604.47
  Q 729.12 609.90 729.08 615.11
  Z"
/>
<path fill="#000000" d="
  M 470.9098 694.5511
  A 14.72 13.05 -89.3 0 1 483.7790 709.4294
  A 14.72 13.05 -89.3 0 1 470.5502 723.9889
  A 14.72 13.05 -89.3 0 1 457.6810 709.1106
  A 14.72 13.05 -89.3 0 1 470.9098 694.5511
  Z
  M 470.7000 698.0000
  A 11.22 8.93 -90.0 0 0 461.7700 709.2200
  A 11.22 8.93 -90.0 0 0 470.7000 720.4400
  A 11.22 8.93 -90.0 0 0 479.6300 709.2200
  A 11.22 8.93 -90.0 0 0 470.7000 698.0000
  Z"
/>
<path fill="#000000" d="
  M 595.0588 694.6101
  A 14.68 13.12 -90.2 0 1 608.2299 709.2442
  A 14.68 13.12 -90.2 0 1 595.1612 723.9699
  A 14.68 13.12 -90.2 0 1 581.9901 709.3358
  A 14.68 13.12 -90.2 0 1 595.0588 694.6101
  Z
  M 594.8850 698.0121
  A 11.20 8.98 -91.1 0 0 586.1217 709.3824
  A 11.20 8.98 -91.1 0 0 595.3150 720.4079
  A 11.20 8.98 -91.1 0 0 604.0783 709.0376
  A 11.20 8.98 -91.1 0 0 594.8850 698.0121
  Z"
/>
<rect fill="#000000" x="202.63" y="695.05" width="3.88" height="28.14" rx="0.42"/>
<path fill="#000000" d="
  M 233.55 715.25
  A 0.27 0.27 0.0 0 0 234.03 715.09
  L 234.03 695.78
  A 0.75 0.75 0.0 0 1 234.78 695.03
  L 236.73 695.03
  A 0.69 0.69 0.0 0 1 237.42 695.72
  L 237.42 722.33
  A 1.52 1.52 0.0 0 1 234.66 723.21
  L 219.98 702.64
  A 0.34 0.33 27.5 0 0 219.37 702.83
  L 219.37 722.96
  A 0.29 0.29 0.0 0 1 219.08 723.25
  L 216.26 723.25
  A 0.26 0.26 0.0 0 1 216.00 722.99
  L 216.00 695.83
  A 0.75 0.75 0.0 0 1 216.55 695.11
  Q 218.64 694.58 219.62 695.98
  Q 226.31 705.50 233.55 715.25
  Z"
/>
<path fill="#000000" d="
  M 262.15 696.81
  A 0.80 0.80 0.0 0 1 262.51 697.84
  L 261.72 699.65
  A 0.75 0.74 -65.4 0 1 260.71 700.03
  C 258.30 698.85 251.71 697.19 250.11 700.56
  C 247.67 705.70 254.67 706.91 258.51 708.24
  C 263.89 710.10 264.82 716.53 261.51 720.48
  C 257.67 725.09 250.20 724.32 245.46 721.70
  A 1.31 1.30 -63.9 0 1 244.90 720.04
  L 245.51 718.63
  A 1.04 1.04 0.0 0 1 247.08 718.21
  C 250.12 720.47 258.23 721.63 259.27 716.25
  C 260.81 708.30 243.63 712.99 245.72 701.47
  C 247.12 693.72 256.62 693.89 262.15 696.81
  Z"
/>
<rect fill="#000000" x="271.77" y="695.10" width="3.88" height="28.12" rx="0.41"/>
<path fill="#000000" d="
  M 301.07 712.00
  L 296.41 712.00
  A 0.60 0.59 -0.0 0 1 295.81 711.41
  L 295.81 708.93
  A 0.56 0.56 0.0 0 1 296.37 708.37
  L 305.12 708.37
  A 0.72 0.72 0.0 0 1 305.84 709.09
  L 305.84 720.69
  A 1.15 1.14 78.3 0 1 305.17 721.72
  Q 296.62 725.63 290.04 722.13
  C 283.22 718.50 282.38 708.31 285.16 702.35
  C 288.82 694.48 296.74 693.70 304.29 696.38
  A 0.92 0.92 0.0 0 1 304.82 697.60
  L 304.04 699.39
  A 0.77 0.77 0.0 0 1 303.11 699.82
  Q 297.78 698.19 293.81 699.23
  C 287.87 700.79 287.11 708.19 288.22 713.29
  Q 290.05 721.73 300.50 719.80
  A 1.83 1.82 84.9 0 0 302.00 718.00
  L 302.00 712.93
  A 0.93 0.93 0.0 0 0 301.07 712.00
  Z"
/>
<path fill="#000000" d="
  M 324.82 707.15
  Q 329.72 707.15 330.54 707.11
  A 0.65 0.65 0.0 0 0 331.16 706.47
  L 331.16 695.52
  A 0.60 0.60 0.0 0 1 331.76 694.92
  L 334.46 694.92
  A 0.52 0.51 0.2 0 1 334.98 695.43
  Q 334.99 695.94 334.99 709.00
  Q 334.99 722.06 334.97 722.57
  A 0.52 0.51 -0.2 0 1 334.46 723.08
  L 331.76 723.08
  A 0.60 0.60 0.0 0 1 331.16 722.48
  L 331.16 711.53
  A 0.65 0.65 0.0 0 0 330.54 710.89
  Q 329.72 710.84 324.82 710.84
  Q 319.92 710.84 319.10 710.89
  A 0.65 0.65 0.0 0 0 318.48 711.53
  L 318.48 722.48
  A 0.60 0.60 0.0 0 1 317.88 723.08
  L 315.18 723.08
  A 0.52 0.51 0.2 0 1 314.66 722.57
  Q 314.65 722.06 314.65 709.00
  Q 314.66 695.93 314.67 695.43
  A 0.52 0.51 -0.2 0 1 315.19 694.91
  L 317.89 694.91
  A 0.60 0.60 0.0 0 1 318.49 695.51
  L 318.48 706.46
  A 0.65 0.65 0.0 0 0 319.10 707.11
  Q 319.92 707.15 324.82 707.15
  Z"
/>
<path fill="#000000" d="
  M 352.99 723.25
  Q 352.29 723.25 351.57 723.22
  A 0.57 0.57 0.0 0 1 351.02 722.65
  L 351.04 699.44
  A 0.53 0.52 -89.9 0 0 350.52 698.90
  L 342.97 698.90
  A 0.70 0.70 0.0 0 1 342.27 698.19
  L 342.27 695.84
  A 0.77 0.76 -89.5 0 1 343.05 695.07
  Q 347.73 695.13 352.93 695.10
  Q 358.13 695.11 362.81 695.03
  A 0.77 0.76 89.3 0 1 363.59 695.80
  L 363.60 698.15
  A 0.70 0.70 0.0 0 1 362.90 698.86
  L 355.35 698.89
  A 0.53 0.52 89.7 0 0 354.83 699.43
  L 354.94 722.64
  A 0.57 0.57 0.0 0 1 354.39 723.21
  Q 353.68 723.24 352.99 723.25
  Z"
/>
<path fill="#000000" d="
  M 398.27 708.47
  A 0.29 0.29 0.0 0 0 398.29 708.97
  C 405.78 712.87 402.46 722.45 395.01 722.99
  Q 392.74 723.15 384.03 723.16
  A 0.59 0.59 0.0 0 1 383.44 722.57
  L 383.44 695.58
  A 0.50 0.50 0.0 0 1 383.93 695.08
  C 390.01 695.01 400.75 693.88 401.70 701.89
  Q 402.18 705.94 398.27 708.47
  Z
  M 387.29 699.05
  L 387.21 706.64
  A 0.34 0.34 0.0 0 0 387.55 706.99
  L 392.78 707.04
  A 4.97 3.98 0.6 0 0 397.79 703.12
  L 397.79 702.80
  A 4.97 3.98 0.6 0 0 392.86 698.76
  L 387.63 698.71
  A 0.34 0.34 0.0 0 0 387.29 699.05
  Z
  M 387.25 711.06
  L 387.25 719.50
  A 0.46 0.46 0.0 0 0 387.71 719.96
  L 392.73 719.96
  A 5.66 4.50 0.0 0 0 398.39 715.46
  L 398.39 715.10
  A 5.66 4.50 0.0 0 0 392.73 710.60
  L 387.71 710.60
  A 0.46 0.46 0.0 0 0 387.25 711.06
  Z"
/>
<path fill="#000000" d="
  M 427.03 720.02
  A 0.40 0.40 0.0 0 1 427.42 720.43
  L 427.39 722.74
  A 0.42 0.41 -0.4 0 1 426.98 723.15
  L 410.91 723.13
  A 0.49 0.49 0.0 0 1 410.42 722.64
  L 410.48 695.39
  A 0.34 0.34 0.0 0 1 410.82 695.06
  L 426.23 695.10
  A 0.60 0.59 -89.7 0 1 426.81 695.70
  L 426.80 698.41
  A 0.54 0.53 -89.2 0 1 426.26 698.95
  L 414.62 698.83
  A 0.32 0.32 0.0 0 0 414.30 699.15
  L 414.27 706.58
  A 0.36 0.36 0.0 0 0 414.63 706.94
  L 425.41 706.94
  A 0.46 0.46 0.0 0 1 425.88 707.40
  L 425.88 709.96
  A 0.48 0.48 0.0 0 1 425.39 710.43
  L 414.65 710.33
  A 0.36 0.35 -0.5 0 0 414.29 710.69
  L 414.25 719.69
  A 0.29 0.29 0.0 0 0 414.54 719.98
  L 427.03 720.02
  Z"
/>
<path fill="#000000" d="
  M 438.49 723.17
  L 435.58 723.17
  A 0.51 0.51 0.0 0 1 435.07 722.66
  L 435.07 695.63
  A 0.51 0.51 0.0 0 1 435.58 695.12
  L 451.39 695.12
  A 0.51 0.51 0.0 0 1 451.90 695.63
  L 451.90 698.36
  A 0.51 0.51 0.0 0 1 451.39 698.87
  L 439.50 698.87
  A 0.51 0.51 0.0 0 0 438.99 699.38
  L 438.99 706.77
  A 0.51 0.51 0.0 0 0 439.50 707.28
  L 450.51 707.28
  A 0.51 0.51 0.0 0 1 451.02 707.79
  L 451.02 710.47
  A 0.51 0.51 0.0 0 1 450.51 710.98
  L 439.51 710.98
  A 0.51 0.51 0.0 0 0 439.00 711.49
  L 439.00 722.66
  A 0.51 0.51 0.0 0 1 438.49 723.17
  Z"
/>
<path fill="#000000" d="
  M 511.94 722.95
  A 0.15 0.14 -13.6 0 1 511.81 723.16
  L 507.85 723.16
  A 0.51 0.50 -13.4 0 1 507.40 722.89
  C 504.20 716.97 500.74 710.67 496.05 711.29
  A 0.65 0.64 86.5 0 0 495.49 711.93
  L 495.49 722.78
  A 0.40 0.40 0.0 0 1 495.09 723.18
  L 492.10 723.18
  A 0.46 0.45 -0.0 0 1 491.64 722.73
  L 491.64 695.73
  A 0.63 0.63 0.0 0 1 492.24 695.10
  Q 499.55 694.75 503.59 695.60
  C 511.77 697.30 512.46 708.18 504.29 710.53
  A 0.49 0.49 0.0 0 0 504.07 711.33
  Q 508.58 716.34 511.94 722.95
  Z
  M 495.50 699.16
  L 495.42 707.42
  A 0.56 0.56 0.0 0 0 495.98 707.99
  L 500.61 708.03
  A 5.45 4.46 0.5 0 0 506.10 703.62
  L 506.10 703.16
  A 5.45 4.46 0.5 0 0 500.69 698.65
  L 496.06 698.61
  A 0.56 0.56 0.0 0 0 495.50 699.16
  Z"
/>
<path fill="#000000" d="
  M 535.34 719.98
  A 0.40 0.40 0.0 0 1 535.74 720.38
  L 535.71 722.69
  A 0.42 0.41 -0.6 0 1 535.30 723.10
  L 519.27 723.12
  A 0.49 0.49 0.0 0 1 518.77 722.63
  L 518.77 695.44
  A 0.34 0.34 0.0 0 1 519.11 695.10
  L 534.49 695.11
  A 0.60 0.59 -89.8 0 1 535.07 695.71
  L 535.07 698.41
  A 0.54 0.53 -89.3 0 1 534.53 698.95
  L 522.91 698.86
  A 0.32 0.32 0.0 0 0 522.59 699.18
  L 522.58 706.60
  A 0.36 0.36 0.0 0 0 522.94 706.96
  L 533.70 706.93
  A 0.46 0.46 0.0 0 1 534.17 707.39
  L 534.17 709.94
  A 0.48 0.48 0.0 0 1 533.69 710.42
  L 522.97 710.34
  A 0.36 0.35 -0.6 0 0 522.61 710.69
  L 522.59 719.68
  A 0.29 0.29 0.0 0 0 522.87 719.97
  L 535.34 719.98
  Z"
/>
<path fill="#000000" d="
  M 566.10 707.29
  Q 566.42 707.30 566.62 706.97
  Q 570.11 701.33 573.31 696.17
  A 2.17 2.15 15.7 0 1 575.15 695.15
  L 577.29 695.15
  A 0.54 0.54 0.0 0 1 577.75 695.98
  L 569.14 709.33
  A 6.96 6.95 -28.1 0 0 568.02 713.01
  L 567.88 722.45
  A 0.77 0.77 0.0 0 1 567.36 723.18
  Q 567.30 723.19 565.95 723.18
  Q 564.60 723.17 564.55 723.15
  A 0.77 0.77 0.0 0 1 564.04 722.42
  L 564.07 712.97
  A 6.96 6.95 29.2 0 0 563.01 709.28
  L 554.64 695.77
  A 0.54 0.54 0.0 0 1 555.12 694.95
  L 557.26 694.99
  A 2.17 2.15 -14.7 0 1 559.08 696.04
  Q 562.19 701.26 565.58 706.96
  Q 565.77 707.29 566.10 707.29
  Z"
/>
<path fill="#000000" d="
  M 626.31 720.13
  C 630.56 720.12 632.82 717.70 632.92 713.47
  Q 633.13 704.43 632.90 695.65
  A 0.62 0.62 0.0 0 1 633.52 695.02
  L 636.21 695.02
  A 0.61 0.61 0.0 0 1 636.82 695.62
  Q 636.95 702.88 636.81 713.24
  C 636.71 719.78 632.78 723.73 626.31 723.75
  C 619.85 723.76 615.90 719.82 615.78 713.28
  Q 615.60 702.92 615.70 695.66
  A 0.61 0.61 0.0 0 1 616.31 695.06
  L 619.00 695.05
  A 0.62 0.62 0.0 0 1 619.62 695.68
  Q 619.42 704.46 619.67 713.49
  C 619.78 717.73 622.05 720.14 626.31 720.13
  Z"
/>
<path fill="#000000" d="
  M 668.23 694.94
  Q 668.99 694.94 669.59 695.18
  A 1.17 1.17 0.0 0 1 670.24 695.85
  L 679.90 722.55
  A 0.50 0.50 0.0 0 1 679.43 723.21
  L 676.85 723.21
  A 0.98 0.98 0.0 0 1 675.93 722.56
  L 673.83 716.75
  A 0.88 0.88 0.0 0 0 673.01 716.17
  Q 668.50 716.12 668.22 716.12
  Q 667.93 716.12 663.43 716.16
  A 0.88 0.88 0.0 0 0 662.61 716.74
  L 660.50 722.55
  A 0.98 0.98 0.0 0 1 659.58 723.20
  L 657.00 723.20
  A 0.50 0.50 0.0 0 1 656.53 722.54
  L 666.22 695.85
  A 1.17 1.17 0.0 0 1 666.87 695.17
  Q 667.47 694.94 668.23 694.94
  Z
  M 663.64 712.70
  A 0.33 0.33 0.0 0 0 663.95 713.15
  L 672.30 713.16
  A 0.33 0.33 0.0 0 0 672.61 712.72
  L 668.45 701.00
  A 0.33 0.33 0.0 0 0 667.83 700.99
  L 663.64 712.70
  Z"
/>
<path fill="#000000" d="
  M 688.81 709.68
  C 688.99 717.33 692.85 721.44 700.77 719.62
  Q 702.19 719.30 703.38 718.70
  A 0.80 0.80 0.0 0 1 704.49 719.14
  L 705.08 720.79
  A 0.98 0.98 0.0 0 1 704.62 721.99
  C 697.91 725.51 689.62 724.10 686.19 717.04
  Q 684.82 714.20 684.71 709.78
  Q 684.61 705.35 685.84 702.46
  C 688.92 695.24 697.14 693.43 704.01 696.62
  A 0.98 0.98 0.0 0 1 704.53 697.80
  L 704.02 699.47
  A 0.80 0.80 0.0 0 1 702.93 699.97
  Q 701.71 699.42 700.27 699.17
  C 692.28 697.73 688.62 702.03 688.81 709.68
  Z"
/>
<path fill="#000000" d="
  M 730.66 718.26
  A 0.22 0.21 -15.0 0 1 730.98 718.44
  L 730.98 721.64
  A 0.23 0.22 78.2 0 1 730.85 721.85
  Q 723.97 725.26 717.87 722.56
  C 712.50 720.18 710.82 714.51 710.90 708.76
  C 711.05 698.01 720.56 691.85 730.34 696.60
  A 1.22 1.21 -61.0 0 1 730.84 698.35
  L 730.26 699.24
  A 1.31 1.31 0.0 0 1 728.70 699.76
  Q 727.07 699.15 724.26 698.99
  C 714.88 698.48 713.32 709.39 716.21 715.62
  C 718.83 721.27 725.92 720.90 730.66 718.26
  Z"
/>
<path fill="#000000" d="
  M 755.56 723.18
  L 739.23 723.18
  A 0.35 0.35 0.0 0 1 738.88 722.83
  L 738.88 695.45
  A 0.35 0.35 0.0 0 1 739.23 695.10
  L 754.84 695.10
  A 0.35 0.35 0.0 0 1 755.19 695.45
  L 755.19 698.55
  A 0.35 0.35 0.0 0 1 754.84 698.90
  L 743.04 698.90
  A 0.35 0.35 0.0 0 0 742.69 699.25
  L 742.69 706.61
  A 0.35 0.35 0.0 0 0 743.04 706.96
  L 753.97 706.96
  A 0.35 0.35 0.0 0 1 754.32 707.31
  L 754.32 710.05
  A 0.35 0.35 0.0 0 1 753.97 710.40
  L 743.09 710.40
  A 0.35 0.35 0.0 0 0 742.74 710.75
  L 742.74 719.68
  A 0.35 0.35 0.0 0 0 743.09 720.03
  L 755.56 720.03
  A 0.35 0.35 0.0 0 1 755.91 720.38
  L 755.91 722.83
  A 0.35 0.35 0.0 0 1 755.56 723.18
  Z"
/>
<path fill="#000000" d="
  M 764.30 695.08
  C 770.35 694.87 782.13 694.24 782.09 703.44
  C 782.07 709.26 776.98 712.09 771.74 712.00
  Q 768.77 711.96 768.02 711.95
  A 0.60 0.60 0.0 0 0 767.41 712.55
  L 767.41 722.72
  A 0.47 0.47 0.0 0 1 766.94 723.19
  L 763.94 723.19
  A 0.41 0.41 0.0 0 1 763.53 722.78
  L 763.53 695.87
  A 0.79 0.79 0.0 0 1 764.30 695.08
  Z
  M 767.38 699.24
  L 767.34 707.88
  A 0.52 0.52 0.0 0 0 767.85 708.40
  L 772.77 708.43
  A 5.32 4.63 0.3 0 0 778.12 703.83
  L 778.12 703.41
  A 5.32 4.63 0.3 0 0 772.83 698.75
  L 767.91 698.72
  A 0.52 0.52 0.0 0 0 767.38 699.24
  Z"
/>
<path fill="#000000" d="
  M 797.21 695.12
  Q 802.38 695.15 807.04 695.09
  A 0.77 0.76 89.5 0 1 807.81 695.86
  L 807.81 698.20
  A 0.70 0.70 0.0 0 1 807.11 698.90
  L 799.60 698.90
  A 0.53 0.52 90.0 0 0 799.08 699.43
  L 799.08 722.53
  A 0.57 0.56 -1.2 0 1 798.53 723.09
  Q 797.82 723.12 797.13 723.12
  Q 796.44 723.12 795.73 723.08
  A 0.57 0.56 1.5 0 1 795.19 722.52
  L 795.31 699.42
  A 0.53 0.52 -89.7 0 0 794.79 698.89
  L 787.28 698.85
  A 0.70 0.70 0.0 0 1 786.59 698.14
  L 786.60 695.80
  A 0.77 0.76 -89.2 0 1 787.37 695.04
  Q 792.03 695.12 797.21 695.12
  Z"
/>
<ellipse fill="#ffffff" cx="0.00" cy="0.00" transform="translate(470.70,709.22) rotate(-90.0)" rx="11.22" ry="8.93"/>
<ellipse fill="#ffffff" cx="0.00" cy="0.00" transform="translate(595.10,709.21) rotate(-91.1)" rx="11.20" ry="8.98"/>
<path fill="#ffffff" d="
  M 495.50 699.16
  A 0.56 0.56 0.0 0 1 496.06 698.61
  L 500.69 698.65
  A 5.45 4.46 0.5 0 1 506.10 703.16
  L 506.10 703.62
  A 5.45 4.46 0.5 0 1 500.61 708.03
  L 495.98 707.99
  A 0.56 0.56 0.0 0 1 495.42 707.42
  L 495.50 699.16
  Z"
/>
<path fill="#ffffff" d="
  M 387.29 699.05
  A 0.34 0.34 0.0 0 1 387.63 698.71
  L 392.86 698.76
  A 4.97 3.98 0.6 0 1 397.79 702.80
  L 397.79 703.12
  A 4.97 3.98 0.6 0 1 392.78 707.04
  L 387.55 706.99
  A 0.34 0.34 0.0 0 1 387.21 706.64
  L 387.29 699.05
  Z"
/>
<path fill="#ffffff" d="
  M 767.38 699.24
  A 0.52 0.52 0.0 0 1 767.91 698.72
  L 772.83 698.75
  A 5.32 4.63 0.3 0 1 778.12 703.41
  L 778.12 703.83
  A 5.32 4.63 0.3 0 1 772.77 708.43
  L 767.85 708.40
  A 0.52 0.52 0.0 0 1 767.34 707.88
  L 767.38 699.24
  Z"
/>
<path fill="#ffffff" d="
  M 663.64 712.70
  L 667.83 700.99
  A 0.33 0.33 0.0 0 1 668.45 701.00
  L 672.61 712.72
  A 0.33 0.33 0.0 0 1 672.30 713.16
  L 663.95 713.15
  A 0.33 0.33 0.0 0 1 663.64 712.70
  Z"
/>
<path fill="#ffffff" d="
  M 387.25 711.06
  A 0.46 0.46 0.0 0 1 387.71 710.60
  L 392.73 710.60
  A 5.66 4.50 -0.0 0 1 398.39 715.10
  L 398.39 715.46
  A 5.66 4.50 0.0 0 1 392.73 719.96
  L 387.71 719.96
  A 0.46 0.46 0.0 0 1 387.25 719.50
  L 387.25 711.06
  Z"
/>
</svg>
