<?xml version="1.0" encoding="UTF-8" standalone="no"?>
<!DOCTYPE svg PUBLIC "-//W3C//DTD SVG 1.1//EN" "http://www.w3.org/Graphics/SVG/1.1/DTD/svg11.dtd">
<svg xmlns="http://www.w3.org/2000/svg" version="1.1" viewBox="0.00 0.00 1536.00 1024.00">
<g stroke-width="2.00" fill="none" stroke-linecap="butt">
<path stroke="#bbbcbb" vector-effect="non-scaling-stroke" d="
  M 792.32 682.73
  Q 791.91 674.29 792.67 665.97
  Q 793.12 661.01 793.20 659.17
  Q 793.38 655.31 793.82 652.38
  C 794.40 648.49 793.76 644.05 794.49 640.22
  Q 794.91 638.07 795.04 633.40
  Q 795.09 631.38 795.71 626.58
  Q 796.80 618.24 797.19 614.82
  Q 797.51 611.95 800.04 605.00
  Q 802.18 599.12 805.19 596.25
  Q 809.69 591.95 814.40 590.70
  Q 823.77 588.21 832.47 589.73
  C 840.03 591.06 848.53 595.73 855.39 599.24
  Q 858.45 600.82 864.26 601.38
  Q 871.40 602.07 875.85 597.29
  Q 879.36 593.53 880.52 589.99
  C 882.54 583.85 884.68 576.85 885.98 570.82
  Q 887.02 565.98 889.35 553.75
  Q 891.33 543.30 890.24 526.07
  Q 889.97 521.67 888.48 517.37
  Q 883.96 504.28 876.24 494.53
  Q 872.98 490.41 867.70 486.88
  C 857.34 479.94 846.69 484.02 840.17 493.66
  Q 835.63 500.38 831.86 508.21
  Q 827.88 516.46 826.40 519.18
  Q 819.42 532.07 811.43 543.69
  Q 802.20 557.09 790.83 565.28
  Q 783.88 570.28 772.78 572.18
  Q 769.41 572.76 765.69 572.34
  C 758.38 571.51 752.38 570.50 746.13 567.09
  C 736.12 561.62 728.57 553.70 721.57 544.35
  Q 711.68 531.11 703.97 517.77
  Q 701.25 513.06 697.84 506.24
  Q 694.16 498.86 689.52 492.81
  C 686.57 488.96 683.32 486.13 679.52 484.57
  C 674.50 482.51 669.63 483.79 664.71 486.29
  A 3.96 3.87 10.7 0 0 663.90 486.83
  Q 658.97 490.97 658.29 491.75
  Q 647.96 503.45 643.28 518.28
  Q 641.66 523.41 640.88 532.66
  C 640.62 535.67 641.30 538.76 641.42 542.00
  Q 641.56 545.84 642.36 548.94
  Q 642.56 549.74 645.86 570.00
  Q 647.70 581.25 652.73 593.90
  A 4.21 3.93 18.6 0 0 653.20 594.77
  Q 657.49 600.72 665.00 601.03
  Q 670.95 601.27 675.34 599.10
  Q 678.66 597.45 684.86 594.15
  Q 690.31 591.26 695.01 590.20
  Q 702.49 588.52 711.73 589.58
  Q 724.87 591.09 730.15 602.83
  Q 734.27 612.00 734.88 615.57
  C 736.06 622.58 737.82 631.92 737.90 639.70
  C 737.98 646.35 739.42 652.59 739.69 659.19
  C 739.91 664.70 740.81 668.98 741.07 674.20
  Q 741.41 680.86 741.81 684.98
  A 8.50 8.39 -44.7 0 1 741.79 686.62
  Q 741.37 690.10 742.48 693.73
  A 4.72 4.53 36.7 0 1 742.68 694.93
  Q 742.82 698.56 743.21 701.16
  C 744.03 706.62 743.68 712.30 744.52 717.08
  C 745.12 720.52 744.88 724.23 745.34 728.78
  C 746.03 735.60 745.90 743.22 746.61 750.62
  C 747.05 755.21 748.18 761.02 743.07 762.36"
/>
<path stroke="#767876" stroke-opacity="0.996" vector-effect="non-scaling-stroke" d="
  M 743.07 762.36
  Q 741.24 762.42 740.52 761.98"
/>
<path stroke="#bbbcbb" vector-effect="non-scaling-stroke" d="
  M 792.06 684.23
  Q 792.21 683.66 792.13 683.35
  A 0.26 0.26 0.0 0 0 791.62 683.40
  L 791.20 693.50
  A 0.56 0.26 70.1 0 1 791.19 693.61
  Q 789.51 701.68 790.34 709.97"
/>
<path stroke="#bbbcbb" vector-effect="non-scaling-stroke" d="
  M 790.15 711.72
  Q 789.57 711.91 789.55 712.25
  Q 789.15 722.54 788.25 731.31
  C 787.78 735.87 787.95 739.59 787.51 744.09
  C 787.20 747.29 787.65 750.71 787.80 753.83
  A 3.64 3.39 50.1 0 1 787.76 754.58
  C 786.31 764.73 800.87 765.12 803.31 756.83
  A 4.04 3.97 -37.4 0 0 803.47 755.71
  Q 803.45 751.07 804.74 746.36
  A 5.30 5.19 -38.1 0 0 804.92 745.00
  Q 804.91 742.77 805.41 739.80
  Q 805.83 737.30 805.94 734.13
  Q 806.27 724.43 807.44 713.83
  Q 808.95 700.03 809.39 693.60
  Q 809.47 692.35 811.42 671.11
  Q 812.04 664.42 812.19 663.29
  Q 812.87 658.19 812.87 653.26
  C 812.87 648.63 813.76 644.08 813.72 639.21
  Q 813.67 631.57 813.86 618.71
  A 4.26 3.90 56.5 0 1 814.04 617.57
  C 815.72 612.04 817.94 606.95 824.76 607.99
  Q 828.54 608.57 835.45 611.08
  Q 845.71 614.79 850.06 615.88
  Q 861.64 618.75 873.22 617.87
  A 4.07 3.86 31.5 0 0 874.30 617.64
  C 881.40 615.02 885.16 609.79 887.29 603.32
  C 890.13 594.68 892.37 586.21 893.63 576.91
  Q 895.12 565.86 895.99 561.95
  Q 896.68 558.87 897.19 553.51
  Q 897.46 550.68 898.56 545.12
  Q 899.17 542.07 900.20 533.88
  C 900.49 531.60 901.19 527.31 903.27 526.10
  A 1.77 1.69 29.1 0 1 904.19 525.86
  Q 906.96 525.92 908.97 526.73
  Q 919.50 531.01 929.38 535.53
  Q 933.97 537.62 935.30 538.12
  C 940.86 540.22 944.64 542.05 950.34 543.98
  Q 953.40 545.01 961.57 548.10
  Q 974.51 552.99 990.69 559.08
  C 998.87 562.15 1006.74 565.85 1014.92 569.03
  Q 1018.32 570.35 1021.54 572.20
  Q 1027.23 575.47 1027.85 575.94
  C 1032.57 579.56 1036.51 583.85 1039.28 589.37
  Q 1043.07 596.94 1044.91 602.57
  Q 1049.61 616.99 1054.78 634.27
  Q 1056.71 640.73 1063.55 660.84
  C 1068.31 674.85 1074.37 689.74 1079.22 702.29
  Q 1080.32 705.15 1079.61 706.74
  Q 1078.66 708.86 1076.00 710.73
  C 1071.21 714.08 1066.70 717.21 1062.03 719.53
  C 1056.12 722.46 1051.25 725.77 1045.68 728.41
  Q 1034.19 733.83 1020.85 739.93
  C 1018.28 741.11 1015.60 742.92 1013.07 744.07
  Q 996.13 751.72 980.87 758.10
  Q 955.03 768.91 928.78 776.30
  Q 923.88 777.68 908.18 781.71
  C 900.85 783.59 892.50 784.75 886.21 786.29
  Q 879.04 788.05 869.68 789.31
  Q 857.61 790.95 851.44 792.03
  A 6.01 5.63 39.3 0 1 850.12 792.12
  C 847.33 792.00 844.40 792.99 840.82 793.21
  C 831.77 793.77 821.15 795.70 815.72 795.91
  Q 808.76 796.17 807.56 796.36
  Q 804.45 796.86 799.42 796.91
  Q 786.71 797.02 781.79 797.28
  Q 772.31 797.77 764.19 797.36
  Q 759.17 797.11 740.85 796.91
  Q 738.80 796.89 732.80 796.43
  Q 732.19 796.38 724.75 795.91
  Q 714.80 795.29 706.91 794.37
  Q 703.95 794.03 689.09 792.52
  Q 677.63 791.35 670.07 789.87
  Q 658.03 787.51 636.25 782.96
  C 622.22 780.03 603.77 773.83 585.94 767.54
  Q 579.56 765.29 574.04 762.86
  Q 559.37 756.41 544.43 750.57
  Q 539.93 748.82 533.28 745.64
  Q 527.75 743.01 522.15 740.59
  Q 521.48 740.29 490.93 725.77
  Q 487.10 723.95 484.40 722.46
  C 479.02 719.49 475.20 717.73 470.82 714.76
  C 466.08 711.55 460.06 708.54 461.18 703.28
  Q 461.82 700.29 462.23 699.27
  Q 470.37 679.09 476.79 657.81
  C 477.58 655.20 478.92 652.15 479.74 649.18
  Q 485.76 627.57 492.16 607.63
  C 495.41 597.52 498.63 587.36 506.32 579.64
  Q 509.95 575.99 516.58 572.53
  Q 523.52 568.92 527.94 567.18
  C 535.98 564.02 541.96 561.21 551.26 557.60
  Q 578.25 547.09 578.75 546.90
  Q 591.73 541.96 601.52 537.55
  Q 613.86 532.00 623.73 526.98
  Q 625.65 526.00 627.70 525.65
  A 2.70 2.70 0.0 0 1 630.81 527.79
  L 633.42 541.06
  A 1.69 1.60 43.4 0 1 633.45 541.60
  Q 633.17 544.40 633.97 548.25
  A 9.85 9.30 40.0 0 1 634.18 550.04
  Q 634.26 552.77 634.38 553.63
  Q 634.45 554.11 640.02 584.01
  C 641.45 591.65 643.64 599.18 646.67 605.86
  Q 650.30 613.88 655.72 616.26
  Q 661.99 619.02 670.31 617.88
  Q 687.54 615.50 703.99 608.30
  A 6.24 6.08 28.2 0 1 705.49 607.87
  Q 713.10 606.69 716.88 612.02
  Q 718.73 614.63 719.22 622.02
  Q 719.75 630.06 720.24 641.25
  A 6.34 6.23 -54.5 0 0 720.47 642.70
  Q 721.21 645.45 721.20 646.27
  Q 721.14 652.72 721.41 653.76
  Q 721.86 655.46 722.29 663.74
  Q 722.74 672.34 725.75 693.14
  A 0.15 0.14 -87.6 0 0 725.86 693.27
  Q 725.92 693.28 725.97 693.29"
/>
<path stroke="#bbbcbb" vector-effect="non-scaling-stroke" d="
  M 726.00 694.29
  Q 725.89 694.75 726.18 695.04"
/>
<path stroke="#bbbcbb" vector-effect="non-scaling-stroke" d="
  M 726.34 695.47
  Q 725.95 701.72 727.28 707.43"
/>
<path stroke="#bbbcbb" vector-effect="non-scaling-stroke" d="
  M 727.48 707.56
  Q 727.12 710.18 727.87 712.59"
/>
<path stroke="#bbbcbb" vector-effect="non-scaling-stroke" d="
  M 728.31 713.52
  Q 728.19 718.24 729.08 727.00
  Q 731.06 746.61 731.96 754.46
  Q 732.57 759.85 737.29 761.96
  Q 739.77 763.07 743.07 762.36"
/>
<path stroke="#bbbcbb" vector-effect="non-scaling-stroke" d="
  M 790.58 182.45
  Q 790.55 182.41 790.41 182.38
  Q 781.49 180.94 771.74 180.22
  Q 734.25 177.47 700.56 192.17
  Q 697.26 193.61 694.59 195.15
  C 689.39 198.15 685.21 200.05 680.19 203.67
  C 668.72 211.94 660.13 219.50 652.97 229.49
  Q 648.92 235.13 647.36 242.81
  Q 645.65 251.21 645.80 257.21
  Q 645.93 262.24 646.67 271.66
  Q 647.80 286.03 651.05 301.34
  C 651.70 304.43 651.49 307.24 652.33 309.99
  A 1.62 1.61 -26.7 0 1 651.74 311.77
  C 647.13 315.15 642.63 317.95 639.03 321.76
  Q 625.38 336.19 627.10 356.98
  Q 629.31 383.82 653.08 395.19
  A 2.81 1.95 55.1 0 0 653.54 395.36
  L 659.95 397.20
  A 1.18 1.18 0.0 0 1 660.80 398.26
  Q 660.97 399.66 664.33 411.44
  Q 674.80 448.16 700.73 475.09
  Q 708.65 483.32 714.36 487.27
  Q 722.78 493.11 723.69 493.68
  Q 730.46 497.94 740.40 501.88
  Q 746.11 504.15 753.39 504.70
  Q 764.70 505.56 776.52 504.58
  Q 783.13 504.03 787.90 502.58
  C 799.97 498.92 811.08 491.89 820.55 483.54
  C 826.02 478.71 828.89 476.55 832.61 471.96
  Q 835.89 467.92 837.27 466.39
  C 840.96 462.30 843.72 457.38 846.52 453.68
  Q 849.28 450.03 851.24 446.64
  Q 860.72 430.20 865.67 413.45
  Q 870.15 398.29 870.38 397.85
  A 3.09 3.02 -8.3 0 1 870.93 397.13
  C 872.10 396.00 873.71 396.24 875.36 395.65
  Q 884.97 392.22 891.59 384.62
  Q 895.50 380.14 896.53 378.52
  C 900.42 372.43 902.89 364.21 902.99 356.57
  C 903.07 350.37 903.17 344.80 901.70 340.04
  Q 897.49 326.43 886.58 317.89
  C 883.61 315.55 880.19 313.89 876.88 311.89
  A 2.34 2.33 -69.4 0 1 875.79 309.47
  Q 877.24 301.41 878.80 294.68
  Q 879.90 289.95 881.33 280.47
  C 881.95 276.43 882.20 271.85 882.58 267.23
  Q 883.48 256.27 882.33 246.80
  C 881.57 240.59 879.69 235.87 876.25 231.00
  Q 870.99 223.57 863.82 217.18
  Q 856.08 210.30 851.11 207.14
  C 847.26 204.69 844.29 202.63 840.78 200.56
  Q 826.57 192.21 809.39 186.84
  Q 798.66 183.49 790.82 182.65
  A 0.38 0.10 54.0 0 1 790.58 182.45"
/>
<path stroke="#bbbcbb" vector-effect="non-scaling-stroke" d="
  M 688.24 338.86
  Q 676.57 342.30 667.49 335.86
  Q 664.12 333.46 663.32 332.84
  A 1.70 1.67 -37.6 0 0 661.60 332.63
  Q 657.67 334.36 655.05 337.57
  Q 647.09 347.37 649.70 358.77
  Q 651.65 367.36 658.69 372.73
  Q 664.96 377.52 674.45 378.29
  C 681.59 378.87 682.33 387.71 683.58 392.91
  Q 691.85 427.39 715.02 454.23
  Q 725.31 466.16 738.63 473.92
  Q 744.04 477.07 752.45 479.70
  Q 756.58 480.99 762.26 480.96
  Q 771.16 480.90 772.21 480.78
  Q 779.13 480.00 787.67 476.37
  Q 793.64 473.83 801.14 467.62
  Q 811.10 459.38 819.37 448.89
  Q 836.84 426.76 844.11 403.02
  C 845.82 397.43 847.31 389.67 848.59 385.34
  Q 850.37 379.32 856.15 378.45
  C 861.21 377.68 866.61 376.10 870.70 373.14
  Q 881.02 365.66 881.25 352.76
  C 881.31 349.55 879.92 344.76 878.66 342.07
  Q 876.78 338.05 873.05 334.80
  C 870.88 332.91 869.19 331.16 866.63 332.53
  A 2.99 2.86 -78.3 0 0 866.02 332.95
  Q 860.51 337.86 855.84 339.17
  Q 847.84 341.42 840.77 337.74
  Q 835.05 334.76 836.31 328.29
  Q 836.70 326.31 840.99 313.88
  Q 843.29 307.22 843.76 298.68
  Q 844.04 293.54 842.73 287.60
  C 841.64 282.64 838.01 268.64 831.74 270.25
  Q 829.24 270.89 824.53 273.24
  Q 821.75 274.63 817.61 276.97
  Q 808.78 281.97 801.03 284.45
  C 796.52 285.90 791.71 287.80 787.69 288.20
  C 783.53 288.61 776.67 289.88 771.40 289.86
  Q 771.31 289.86 757.66 289.83
  Q 750.27 289.81 745.38 289.09
  Q 737.62 287.95 733.30 286.67
  C 725.53 284.36 717.70 280.90 710.35 276.55
  C 706.37 274.20 702.67 271.91 698.86 271.40
  A 1.31 1.29 -58.0 0 0 697.94 271.62
  Q 696.06 272.93 694.29 275.80
  C 688.55 285.10 688.29 297.24 689.08 308.27
  Q 689.55 314.86 692.47 321.04
  Q 694.51 325.35 694.63 326.40
  C 695.46 333.35 694.30 335.34 688.69 338.66
  A 1.87 1.78 19.7 0 1 688.24 338.86"
/>
</g>
<path fill="#767876" fill-opacity="0.996" d="
  M 651.50 310.33
  Q 651.15 305.51 650.07 299.99
  Q 649.40 296.62 646.95 283.72
  C 646.09 279.23 645.73 274.01 645.32 269.50
  Q 643.87 253.79 647.14 239.90
  Q 647.70 237.51 649.47 233.85
  Q 650.77 231.16 652.90 228.33
  Q 665.72 211.26 684.17 199.90
  Q 687.27 197.99 698.40 192.17
  Q 700.50 191.08 710.46 187.30
  Q 717.58 184.60 722.84 183.43
  Q 729.22 182.01 736.00 181.03
  C 743.91 179.88 747.69 179.16 754.29 179.07
  Q 768.18 178.88 772.21 179.15
  Q 778.22 179.54 790.61 181.42
  C 805.46 183.66 820.46 188.92 833.96 195.56
  Q 837.89 197.49 849.14 204.49
  Q 855.42 208.40 861.99 214.29
  C 869.07 220.63 874.54 226.15 878.88 233.40
  Q 881.83 238.35 882.98 244.43
  C 884.75 253.86 884.47 263.52 883.32 272.51
  Q 880.95 291.10 876.84 309.35
  A 2.01 2.00 16.8 0 0 878.09 311.67
  C 884.21 313.99 889.62 318.61 894.21 324.02
  Q 901.85 333.03 903.85 344.76
  Q 905.38 353.68 903.56 363.37
  Q 900.34 380.54 886.11 391.09
  Q 880.19 395.48 872.69 397.34
  A 2.69 2.69 0.0 0 0 870.73 399.30
  Q 865.81 419.05 858.15 435.72
  Q 853.37 446.13 846.47 455.90
  Q 838.64 467.00 832.04 474.28
  Q 822.42 484.88 808.13 494.31
  C 798.74 500.49 787.83 504.63 776.75 505.84
  Q 764.60 507.16 753.23 505.76
  C 746.67 504.94 740.27 503.36 734.19 500.60
  Q 722.04 495.08 711.75 486.75
  Q 710.20 485.50 705.22 481.13
  C 700.83 477.29 697.88 473.76 694.53 470.04
  C 691.05 466.18 689.09 463.24 685.83 458.91
  Q 684.09 456.60 681.55 452.55
  Q 669.04 432.55 662.43 409.11
  Q 661.10 404.38 659.89 399.36
  A 2.54 2.54 0.0 0 0 657.87 397.46
  C 654.17 396.81 650.24 395.34 647.06 393.21
  Q 629.00 381.11 626.33 359.23
  Q 623.34 334.66 641.55 318.04
  Q 642.75 316.95 651.03 311.31
  A 1.08 1.07 70.9 0 0 651.50 310.33
  Z
  M 790.58 182.45
  Q 790.55 182.41 790.41 182.38
  Q 781.49 180.94 771.74 180.22
  Q 734.25 177.47 700.56 192.17
  Q 697.26 193.61 694.59 195.15
  C 689.39 198.15 685.21 200.05 680.19 203.67
  C 668.72 211.94 660.13 219.50 652.97 229.49
  Q 648.92 235.13 647.36 242.81
  Q 645.65 251.21 645.80 257.21
  Q 645.93 262.24 646.67 271.66
  Q 647.80 286.03 651.05 301.34
  C 651.70 304.43 651.49 307.24 652.33 309.99
  A 1.62 1.61 -26.7 0 1 651.74 311.77
  C 647.13 315.15 642.63 317.95 639.03 321.76
  Q 625.38 336.19 627.10 356.98
  Q 629.31 383.82 653.08 395.19
  A 2.81 1.95 55.1 0 0 653.54 395.36
  L 659.95 397.20
  A 1.18 1.18 0.0 0 1 660.80 398.26
  Q 660.97 399.66 664.33 411.44
  Q 674.80 448.16 700.73 475.09
  Q 708.65 483.32 714.36 487.27
  Q 722.78 493.11 723.69 493.68
  Q 730.46 497.94 740.40 501.88
  Q 746.11 504.15 753.39 504.70
  Q 764.70 505.56 776.52 504.58
  Q 783.13 504.03 787.90 502.58
  C 799.97 498.92 811.08 491.89 820.55 483.54
  C 826.02 478.71 828.89 476.55 832.61 471.96
  Q 835.89 467.92 837.27 466.39
  C 840.96 462.30 843.72 457.38 846.52 453.68
  Q 849.28 450.03 851.24 446.64
  Q 860.72 430.20 865.67 413.45
  Q 870.15 398.29 870.38 397.85
  A 3.09 3.02 -8.3 0 1 870.93 397.13
  C 872.10 396.00 873.71 396.24 875.36 395.65
  Q 884.97 392.22 891.59 384.62
  Q 895.50 380.14 896.53 378.52
  C 900.42 372.43 902.89 364.21 902.99 356.57
  C 903.07 350.37 903.17 344.80 901.70 340.04
  Q 897.49 326.43 886.58 317.89
  C 883.61 315.55 880.19 313.89 876.88 311.89
  A 2.34 2.33 -69.4 0 1 875.79 309.47
  Q 877.24 301.41 878.80 294.68
  Q 879.90 289.95 881.33 280.47
  C 881.95 276.43 882.20 271.85 882.58 267.23
  Q 883.48 256.27 882.33 246.80
  C 881.57 240.59 879.69 235.87 876.25 231.00
  Q 870.99 223.57 863.82 217.18
  Q 856.08 210.30 851.11 207.14
  C 847.26 204.69 844.29 202.63 840.78 200.56
  Q 826.57 192.21 809.39 186.84
  Q 798.66 183.49 790.82 182.65
  A 0.38 0.10 54.0 0 1 790.58 182.45
  Z"
/>
<path fill="#ffffff" d="
  M 790.82 182.65
  Q 798.66 183.49 809.39 186.84
  Q 826.57 192.21 840.78 200.56
  C 844.29 202.63 847.26 204.69 851.11 207.14
  Q 856.08 210.30 863.82 217.18
  Q 870.99 223.57 876.25 231.00
  C 879.69 235.87 881.57 240.59 882.33 246.80
  Q 883.48 256.27 882.58 267.23
  C 882.20 271.85 881.95 276.43 881.33 280.47
  Q 879.90 289.95 878.80 294.68
  Q 877.24 301.41 875.79 309.47
  A 2.34 2.33 -69.4 0 0 876.88 311.89
  C 880.19 313.89 883.61 315.55 886.58 317.89
  Q 897.49 326.43 901.70 340.04
  C 903.17 344.80 903.07 350.37 902.99 356.57
  C 902.89 364.21 900.42 372.43 896.53 378.52
  Q 895.50 380.14 891.59 384.62
  Q 884.97 392.22 875.36 395.65
  C 873.71 396.24 872.10 396.00 870.93 397.13
  A 3.09 3.02 -8.3 0 0 870.38 397.85
  Q 870.15 398.29 865.67 413.45
  Q 860.72 430.20 851.24 446.64
  Q 849.28 450.03 846.52 453.68
  C 843.72 457.38 840.96 462.30 837.27 466.39
  Q 835.89 467.92 832.61 471.96
  C 828.89 476.55 826.02 478.71 820.55 483.54
  C 811.08 491.89 799.97 498.92 787.90 502.58
  Q 783.13 504.03 776.52 504.58
  Q 764.70 505.56 753.39 504.70
  Q 746.11 504.15 740.40 501.88
  Q 730.46 497.94 723.69 493.68
  Q 722.78 493.11 714.36 487.27
  Q 708.65 483.32 700.73 475.09
  Q 674.80 448.16 664.33 411.44
  Q 660.97 399.66 660.80 398.26
  A 1.18 1.18 0.0 0 0 659.95 397.20
  L 653.54 395.36
  A 2.81 1.95 55.1 0 1 653.08 395.19
  Q 629.31 383.82 627.10 356.98
  Q 625.38 336.19 639.03 321.76
  C 642.63 317.95 647.13 315.15 651.74 311.77
  A 1.62 1.61 -26.7 0 0 652.33 309.99
  C 651.49 307.24 651.70 304.43 651.05 301.34
  Q 647.80 286.03 646.67 271.66
  Q 645.93 262.24 645.80 257.21
  Q 645.65 251.21 647.36 242.81
  Q 648.92 235.13 652.97 229.49
  C 660.13 219.50 668.72 211.94 680.19 203.67
  C 685.21 200.05 689.39 198.15 694.59 195.15
  Q 697.26 193.61 700.56 192.17
  Q 734.25 177.47 771.74 180.22
  Q 781.49 180.94 790.41 182.38
  Q 790.55 182.41 790.58 182.45
  A 0.38 0.10 54.0 0 0 790.82 182.65
  Z
  M 688.24 338.86
  Q 676.57 342.30 667.49 335.86
  Q 664.12 333.46 663.32 332.84
  A 1.70 1.67 -37.6 0 0 661.60 332.63
  Q 657.67 334.36 655.05 337.57
  Q 647.09 347.37 649.70 358.77
  Q 651.65 367.36 658.69 372.73
  Q 664.96 377.52 674.45 378.29
  C 681.59 378.87 682.33 387.71 683.58 392.91
  Q 691.85 427.39 715.02 454.23
  Q 725.31 466.16 738.63 473.92
  Q 744.04 477.07 752.45 479.70
  Q 756.58 480.99 762.26 480.96
  Q 771.16 480.90 772.21 480.78
  Q 779.13 480.00 787.67 476.37
  Q 793.64 473.83 801.14 467.62
  Q 811.10 459.38 819.37 448.89
  Q 836.84 426.76 844.11 403.02
  C 845.82 397.43 847.31 389.67 848.59 385.34
  Q 850.37 379.32 856.15 378.45
  C 861.21 377.68 866.61 376.10 870.70 373.14
  Q 881.02 365.66 881.25 352.76
  C 881.31 349.55 879.92 344.76 878.66 342.07
  Q 876.78 338.05 873.05 334.80
  C 870.88 332.91 869.19 331.16 866.63 332.53
  A 2.99 2.86 -78.3 0 0 866.02 332.95
  Q 860.51 337.86 855.84 339.17
  Q 847.84 341.42 840.77 337.74
  Q 835.05 334.76 836.31 328.29
  Q 836.70 326.31 840.99 313.88
  Q 843.29 307.22 843.76 298.68
  Q 844.04 293.54 842.73 287.60
  C 841.64 282.64 838.01 268.64 831.74 270.25
  Q 829.24 270.89 824.53 273.24
  Q 821.75 274.63 817.61 276.97
  Q 808.78 281.97 801.03 284.45
  C 796.52 285.90 791.71 287.80 787.69 288.20
  C 783.53 288.61 776.67 289.88 771.40 289.86
  Q 771.31 289.86 757.66 289.83
  Q 750.27 289.81 745.38 289.09
  Q 737.62 287.95 733.30 286.67
  C 725.53 284.36 717.70 280.90 710.35 276.55
  C 706.37 274.20 702.67 271.91 698.86 271.40
  A 1.31 1.29 -58.0 0 0 697.94 271.62
  Q 696.06 272.93 694.29 275.80
  C 688.55 285.10 688.29 297.24 689.08 308.27
  Q 689.55 314.86 692.47 321.04
  Q 694.51 325.35 694.63 326.40
  C 695.46 333.35 694.30 335.34 688.69 338.66
  A 1.87 1.78 19.7 0 1 688.24 338.86
  Z"
/>
<path fill="#767876" fill-opacity="0.996" d="
  M 688.69 338.66
  C 694.30 335.34 695.46 333.35 694.63 326.40
  Q 694.51 325.35 692.47 321.04
  Q 689.55 314.86 689.08 308.27
  C 688.29 297.24 688.55 285.10 694.29 275.80
  Q 696.06 272.93 697.94 271.62
  A 1.31 1.29 -58.0 0 1 698.86 271.40
  C 702.67 271.91 706.37 274.20 710.35 276.55
  C 717.70 280.90 725.53 284.36 733.30 286.67
  Q 737.62 287.95 745.38 289.09
  Q 750.27 289.81 757.66 289.83
  Q 771.31 289.86 771.40 289.86
  C 776.67 289.88 783.53 288.61 787.69 288.20
  C 791.71 287.80 796.52 285.90 801.03 284.45
  Q 808.78 281.97 817.61 276.97
  Q 821.75 274.63 824.53 273.24
  Q 829.24 270.89 831.74 270.25
  C 838.01 268.64 841.64 282.64 842.73 287.60
  Q 844.04 293.54 843.76 298.68
  Q 843.29 307.22 840.99 313.88
  Q 836.70 326.31 836.31 328.29
  Q 835.05 334.76 840.77 337.74
  Q 847.84 341.42 855.84 339.17
  Q 860.51 337.86 866.02 332.95
  A 2.99 2.86 -78.3 0 1 866.63 332.53
  C 869.19 331.16 870.88 332.91 873.05 334.80
  Q 876.78 338.05 878.66 342.07
  C 879.92 344.76 881.31 349.55 881.25 352.76
  Q 881.02 365.66 870.70 373.14
  C 866.61 376.10 861.21 377.68 856.15 378.45
  Q 850.37 379.32 848.59 385.34
  C 847.31 389.67 845.82 397.43 844.11 403.02
  Q 836.84 426.76 819.37 448.89
  Q 811.10 459.38 801.14 467.62
  Q 793.64 473.83 787.67 476.37
  Q 779.13 480.00 772.21 480.78
  Q 771.16 480.90 762.26 480.96
  Q 756.58 480.99 752.45 479.70
  Q 744.04 477.07 738.63 473.92
  Q 725.31 466.16 715.02 454.23
  Q 691.85 427.39 683.58 392.91
  C 682.33 387.71 681.59 378.87 674.45 378.29
  Q 664.96 377.52 658.69 372.73
  Q 651.65 367.36 649.70 358.77
  Q 647.09 347.37 655.05 337.57
  Q 657.67 334.36 661.60 332.63
  A 1.70 1.67 -37.6 0 1 663.32 332.84
  Q 664.12 333.46 667.49 335.86
  Q 676.57 342.30 688.24 338.86
  A 1.87 1.78 19.7 0 0 688.69 338.66
  Z
  M 662.28 333.51
  Q 659.23 334.60 657.19 336.77
  Q 647.18 347.37 651.10 360.27
  C 654.04 369.97 663.79 376.96 673.97 377.12
  Q 675.54 377.14 678.92 378.68
  A 1.70 1.68 -89.7 0 1 679.78 379.56
  C 680.43 381.12 681.99 382.27 682.67 384.12
  Q 683.38 386.05 683.43 386.36
  Q 689.47 420.65 712.62 449.67
  Q 723.84 463.74 737.23 471.97
  Q 741.57 474.64 745.41 476.15
  Q 751.70 478.63 753.99 479.07
  Q 779.02 483.87 798.46 468.72
  C 806.84 462.19 813.73 454.92 820.18 446.44
  Q 824.08 441.31 824.91 440.19
  Q 829.18 434.43 835.42 422.43
  Q 839.82 413.96 844.73 397.30
  C 846.89 390.00 846.25 378.74 856.02 377.52
  Q 866.20 376.24 873.33 370.01
  A 5.90 5.64 88.7 0 0 874.19 369.07
  Q 874.24 369.00 876.78 364.76
  Q 880.74 358.15 879.97 350.50
  C 879.76 348.43 878.98 346.78 878.39 344.70
  C 876.98 339.75 873.06 335.57 868.60 333.17
  A 1.10 1.09 -47.8 0 0 867.47 333.23
  Q 865.59 334.50 862.93 336.74
  C 857.91 340.95 850.30 342.18 844.53 340.58
  C 838.73 338.98 834.16 335.36 835.20 328.89
  Q 835.95 324.27 839.69 315.20
  Q 841.33 311.21 842.89 300.35
  C 843.21 298.10 843.08 294.66 842.72 293.00
  C 842.10 290.14 842.21 287.51 841.66 285.36
  Q 840.06 279.15 836.53 273.97
  C 834.81 271.45 832.35 270.94 829.83 272.13
  C 827.17 273.39 822.72 275.19 819.86 276.86
  Q 809.70 282.78 802.08 285.27
  Q 789.10 289.52 784.35 289.76
  Q 782.51 289.85 776.62 290.78
  Q 770.69 291.72 763.06 291.55
  C 754.54 291.35 746.24 290.97 738.08 288.72
  C 735.74 288.08 731.60 287.58 728.78 286.48
  Q 716.25 281.61 702.85 273.73
  Q 698.63 271.25 696.27 274.43
  C 692.87 279.02 690.70 287.20 690.14 292.55
  Q 689.78 295.98 689.90 306.20
  C 689.95 310.33 691.45 315.97 693.06 319.50
  Q 695.68 325.26 695.96 328.46
  C 696.78 337.81 688.38 341.64 680.25 341.30
  Q 673.54 341.01 667.64 337.18
  Q 664.27 334.98 663.21 333.75
  A 0.87 0.86 -30.1 0 0 662.28 333.51
  Z"
/>
<path fill="#767876" fill-opacity="0.996" d="
  M 792.32 682.73
  Q 791.91 674.29 792.67 665.97
  Q 793.12 661.01 793.20 659.17
  Q 793.38 655.31 793.82 652.38
  C 794.40 648.49 793.76 644.05 794.49 640.22
  Q 794.91 638.07 795.04 633.40
  Q 795.09 631.38 795.71 626.58
  Q 796.80 618.24 797.19 614.82
  Q 797.51 611.95 800.04 605.00
  Q 802.18 599.12 805.19 596.25
  Q 809.69 591.95 814.40 590.70
  Q 823.77 588.21 832.47 589.73
  C 840.03 591.06 848.53 595.73 855.39 599.24
  Q 858.45 600.82 864.26 601.38
  Q 871.40 602.07 875.85 597.29
  Q 879.36 593.53 880.52 589.99
  C 882.54 583.85 884.68 576.85 885.98 570.82
  Q 887.02 565.98 889.35 553.75
  Q 891.33 543.30 890.24 526.07
  Q 889.97 521.67 888.48 517.37
  Q 883.96 504.28 876.24 494.53
  Q 872.98 490.41 867.70 486.88
  C 857.34 479.94 846.69 484.02 840.17 493.66
  Q 835.63 500.38 831.86 508.21
  Q 827.88 516.46 826.40 519.18
  Q 819.42 532.07 811.43 543.69
  Q 802.20 557.09 790.83 565.28
  Q 783.88 570.28 772.78 572.18
  Q 769.41 572.76 765.69 572.34
  C 758.38 571.51 752.38 570.50 746.13 567.09
  C 736.12 561.62 728.57 553.70 721.57 544.35
  Q 711.68 531.11 703.97 517.77
  Q 701.25 513.06 697.84 506.24
  Q 694.16 498.86 689.52 492.81
  C 686.57 488.96 683.32 486.13 679.52 484.57
  C 674.50 482.51 669.63 483.79 664.71 486.29
  A 3.96 3.87 10.7 0 0 663.90 486.83
  Q 658.97 490.97 658.29 491.75
  Q 647.96 503.45 643.28 518.28
  Q 641.66 523.41 640.88 532.66
  C 640.62 535.67 641.30 538.76 641.42 542.00
  Q 641.56 545.84 642.36 548.94
  Q 642.56 549.74 645.86 570.00
  Q 647.70 581.25 652.73 593.90
  A 4.21 3.93 18.6 0 0 653.20 594.77
  Q 657.49 600.72 665.00 601.03
  Q 670.95 601.27 675.34 599.10
  Q 678.66 597.45 684.86 594.15
  Q 690.31 591.26 695.01 590.20
  Q 702.49 588.52 711.73 589.58
  Q 724.87 591.09 730.15 602.83
  Q 734.27 612.00 734.88 615.57
  C 736.06 622.58 737.82 631.92 737.90 639.70
  C 737.98 646.35 739.42 652.59 739.69 659.19
  C 739.91 664.70 740.81 668.98 741.07 674.20
  Q 741.41 680.86 741.81 684.98
  A 8.50 8.39 -44.7 0 1 741.79 686.62
  Q 741.37 690.10 742.48 693.73
  A 4.72 4.53 36.7 0 1 742.68 694.93
  Q 742.82 698.56 743.21 701.16
  C 744.03 706.62 743.68 712.30 744.52 717.08
  C 745.12 720.52 744.88 724.23 745.34 728.78
  C 746.03 735.60 745.90 743.22 746.61 750.62
  C 747.05 755.21 748.18 761.02 743.07 762.36
  Q 741.24 762.42 740.52 761.98
  C 744.86 762.43 746.28 759.36 746.16 755.59
  C 746.09 753.17 746.20 751.40 746.06 749.80
  Q 745.22 739.89 745.02 734.25
  C 744.87 730.10 744.04 726.72 744.11 722.59
  Q 744.14 720.63 743.83 717.92
  Q 742.76 708.39 742.10 696.77
  Q 741.87 692.74 741.43 690.01
  C 740.93 686.95 741.27 683.83 740.65 681.01
  Q 740.04 678.28 740.06 674.18
  Q 740.06 672.83 739.55 667.36
  Q 738.36 654.78 738.08 649.73
  C 737.85 645.55 736.96 641.90 737.02 638.01
  C 737.06 635.43 736.24 632.71 735.91 629.51
  Q 734.98 620.29 732.64 611.52
  C 731.81 608.43 730.09 604.74 728.86 602.13
  C 723.03 589.80 708.15 588.92 696.46 591.00
  C 689.81 592.18 684.50 595.52 677.73 599.22
  C 673.49 601.54 667.92 603.36 663.03 602.06
  Q 657.10 600.48 653.53 596.93
  A 6.09 5.74 -84.2 0 1 652.60 595.72
  Q 649.51 590.45 647.60 581.87
  Q 641.94 556.42 640.11 534.77
  Q 639.88 532.04 640.71 525.53
  Q 641.39 520.25 642.66 516.50
  Q 648.73 498.59 661.15 487.42
  Q 665.01 483.95 672.38 482.23
  A 3.95 3.74 -46.6 0 1 673.64 482.16
  Q 681.74 483.01 686.61 487.86
  Q 693.06 494.27 698.15 504.48
  Q 709.21 526.67 722.58 543.93
  Q 731.05 554.86 739.34 561.43
  Q 746.72 567.30 755.11 569.57
  Q 758.81 570.58 764.80 571.14
  Q 769.80 571.61 774.55 570.79
  Q 786.83 568.66 796.50 559.57
  Q 805.72 550.89 811.11 542.61
  Q 821.81 526.15 825.39 518.89
  Q 831.52 506.41 836.08 498.06
  Q 838.66 493.34 842.21 489.30
  Q 850.64 479.72 862.75 483.11
  Q 865.99 484.02 870.94 487.80
  Q 875.71 491.45 880.87 499.15
  Q 887.62 509.21 890.82 521.40
  C 892.48 527.70 892.13 536.38 891.78 542.04
  A 4.80 4.70 -34.3 0 1 891.53 543.29
  C 890.85 545.26 890.99 547.14 890.64 549.16
  Q 887.15 569.29 883.93 582.97
  Q 882.62 588.55 879.67 594.16
  Q 875.85 601.45 866.01 602.74
  Q 864.85 602.89 859.64 601.61
  C 854.32 600.32 848.07 596.95 843.69 594.77
  Q 837.75 591.82 833.56 590.95
  Q 824.41 589.05 815.38 591.38
  C 805.45 593.94 800.24 604.11 798.57 613.86
  Q 796.39 626.59 796.07 632.79
  Q 795.64 641.01 795.19 642.82
  A 2.72 0.20 -87.5 0 0 795.01 644.38
  L 792.32 682.73
  Z"
/>
<path fill="#ffffff" d="
  M 792.32 682.73
  L 792.06 684.23
  Q 792.21 683.66 792.13 683.35
  A 0.26 0.26 0.0 0 0 791.62 683.40
  L 791.20 693.50
  A 0.56 0.26 70.1 0 1 791.19 693.61
  Q 789.51 701.68 790.34 709.97
  L 790.15 711.72
  Q 789.57 711.91 789.55 712.25
  Q 789.15 722.54 788.25 731.31
  C 787.78 735.87 787.95 739.59 787.51 744.09
  C 787.20 747.29 787.65 750.71 787.80 753.83
  A 3.64 3.39 50.1 0 1 787.76 754.58
  C 786.31 764.73 800.87 765.12 803.31 756.83
  A 4.04 3.97 -37.4 0 0 803.47 755.71
  Q 803.45 751.07 804.74 746.36
  A 5.30 5.19 -38.1 0 0 804.92 745.00
  Q 804.91 742.77 805.41 739.80
  Q 805.83 737.30 805.94 734.13
  Q 806.27 724.43 807.44 713.83
  Q 808.95 700.03 809.39 693.60
  Q 809.47 692.35 811.42 671.11
  Q 812.04 664.42 812.19 663.29
  Q 812.87 658.19 812.87 653.26
  C 812.87 648.63 813.76 644.08 813.72 639.21
  Q 813.67 631.57 813.86 618.71
  A 4.26 3.90 56.5 0 1 814.04 617.57
  C 815.72 612.04 817.94 606.95 824.76 607.99
  Q 828.54 608.57 835.45 611.08
  Q 845.71 614.79 850.06 615.88
  Q 861.64 618.75 873.22 617.87
  A 4.07 3.86 31.5 0 0 874.30 617.64
  C 881.40 615.02 885.16 609.79 887.29 603.32
  C 890.13 594.68 892.37 586.21 893.63 576.91
  Q 895.12 565.86 895.99 561.95
  Q 896.68 558.87 897.19 553.51
  Q 897.46 550.68 898.56 545.12
  Q 899.17 542.07 900.20 533.88
  C 900.49 531.60 901.19 527.31 903.27 526.10
  A 1.77 1.69 29.1 0 1 904.19 525.86
  Q 906.96 525.92 908.97 526.73
  Q 919.50 531.01 929.38 535.53
  Q 933.97 537.62 935.30 538.12
  C 940.86 540.22 944.64 542.05 950.34 543.98
  Q 953.40 545.01 961.57 548.10
  Q 974.51 552.99 990.69 559.08
  C 998.87 562.15 1006.74 565.85 1014.92 569.03
  Q 1018.32 570.35 1021.54 572.20
  Q 1027.23 575.47 1027.85 575.94
  C 1032.57 579.56 1036.51 583.85 1039.28 589.37
  Q 1043.07 596.94 1044.91 602.57
  Q 1049.61 616.99 1054.78 634.27
  Q 1056.71 640.73 1063.55 660.84
  C 1068.31 674.85 1074.37 689.74 1079.22 702.29
  Q 1080.32 705.15 1079.61 706.74
  Q 1078.66 708.86 1076.00 710.73
  C 1071.21 714.08 1066.70 717.21 1062.03 719.53
  C 1056.12 722.46 1051.25 725.77 1045.68 728.41
  Q 1034.19 733.83 1020.85 739.93
  C 1018.28 741.11 1015.60 742.92 1013.07 744.07
  Q 996.13 751.72 980.87 758.10
  Q 955.03 768.91 928.78 776.30
  Q 923.88 777.68 908.18 781.71
  C 900.85 783.59 892.50 784.75 886.21 786.29
  Q 879.04 788.05 869.68 789.31
  Q 857.61 790.95 851.44 792.03
  A 6.01 5.63 39.3 0 1 850.12 792.12
  C 847.33 792.00 844.40 792.99 840.82 793.21
  C 831.77 793.77 821.15 795.70 815.72 795.91
  Q 808.76 796.17 807.56 796.36
  Q 804.45 796.86 799.42 796.91
  Q 786.71 797.02 781.79 797.28
  Q 772.31 797.77 764.19 797.36
  Q 759.17 797.11 740.85 796.91
  Q 738.80 796.89 732.80 796.43
  Q 732.19 796.38 724.75 795.91
  Q 714.80 795.29 706.91 794.37
  Q 703.95 794.03 689.09 792.52
  Q 677.63 791.35 670.07 789.87
  Q 658.03 787.51 636.25 782.96
  C 622.22 780.03 603.77 773.83 585.94 767.54
  Q 579.56 765.29 574.04 762.86
  Q 559.37 756.41 544.43 750.57
  Q 539.93 748.82 533.28 745.64
  Q 527.75 743.01 522.15 740.59
  Q 521.48 740.29 490.93 725.77
  Q 487.10 723.95 484.40 722.46
  C 479.02 719.49 475.20 717.73 470.82 714.76
  C 466.08 711.55 460.06 708.54 461.18 703.28
  Q 461.82 700.29 462.23 699.27
  Q 470.37 679.09 476.79 657.81
  C 477.58 655.20 478.92 652.15 479.74 649.18
  Q 485.76 627.57 492.16 607.63
  C 495.41 597.52 498.63 587.36 506.32 579.64
  Q 509.95 575.99 516.58 572.53
  Q 523.52 568.92 527.94 567.18
  C 535.98 564.02 541.96 561.21 551.26 557.60
  Q 578.25 547.09 578.75 546.90
  Q 591.73 541.96 601.52 537.55
  Q 613.86 532.00 623.73 526.98
  Q 625.65 526.00 627.70 525.65
  A 2.70 2.70 0.0 0 1 630.81 527.79
  L 633.42 541.06
  A 1.69 1.60 43.4 0 1 633.45 541.60
  Q 633.17 544.40 633.97 548.25
  A 9.85 9.30 40.0 0 1 634.18 550.04
  Q 634.26 552.77 634.38 553.63
  Q 634.45 554.11 640.02 584.01
  C 641.45 591.65 643.64 599.18 646.67 605.86
  Q 650.30 613.88 655.72 616.26
  Q 661.99 619.02 670.31 617.88
  Q 687.54 615.50 703.99 608.30
  A 6.24 6.08 28.2 0 1 705.49 607.87
  Q 713.10 606.69 716.88 612.02
  Q 718.73 614.63 719.22 622.02
  Q 719.75 630.06 720.24 641.25
  A 6.34 6.23 -54.5 0 0 720.47 642.70
  Q 721.21 645.45 721.20 646.27
  Q 721.14 652.72 721.41 653.76
  Q 721.86 655.46 722.29 663.74
  Q 722.74 672.34 725.75 693.14
  A 0.15 0.14 -87.6 0 0 725.86 693.27
  Q 725.92 693.28 725.97 693.29
  L 726.00 694.29
  Q 725.89 694.75 726.18 695.04
  Q 726.21 695.72 726.34 695.47
  Q 725.95 701.72 727.28 707.43
  Q 727.38 707.50 727.48 707.56
  Q 727.12 710.18 727.87 712.59
  Q 728.16 712.60 728.31 713.52
  Q 728.19 718.24 729.08 727.00
  Q 731.06 746.61 731.96 754.46
  Q 732.57 759.85 737.29 761.96
  Q 739.77 763.07 743.07 762.36
  C 748.18 761.02 747.05 755.21 746.61 750.62
  C 745.90 743.22 746.03 735.60 745.34 728.78
  C 744.88 724.23 745.12 720.52 744.52 717.08
  C 743.68 712.30 744.03 706.62 743.21 701.16
  Q 742.82 698.56 742.68 694.93
  A 4.72 4.53 36.7 0 0 742.48 693.73
  Q 741.37 690.10 741.79 686.62
  A 8.50 8.39 -44.7 0 0 741.81 684.98
  Q 741.41 680.86 741.07 674.20
  C 740.81 668.98 739.91 664.70 739.69 659.19
  C 739.42 652.59 737.98 646.35 737.90 639.70
  C 737.82 631.92 736.06 622.58 734.88 615.57
  Q 734.27 612.00 730.15 602.83
  Q 724.87 591.09 711.73 589.58
  Q 702.49 588.52 695.01 590.20
  Q 690.31 591.26 684.86 594.15
  Q 678.66 597.45 675.34 599.10
  Q 670.95 601.27 665.00 601.03
  Q 657.49 600.72 653.20 594.77
  A 4.21 3.93 18.6 0 1 652.73 593.90
  Q 647.70 581.25 645.86 570.00
  Q 642.56 549.74 642.36 548.94
  Q 641.56 545.84 641.42 542.00
  C 641.30 538.76 640.62 535.67 640.88 532.66
  Q 641.66 523.41 643.28 518.28
  Q 647.96 503.45 658.29 491.75
  Q 658.97 490.97 663.90 486.83
  A 3.96 3.87 10.7 0 1 664.71 486.29
  C 669.63 483.79 674.50 482.51 679.52 484.57
  C 683.32 486.13 686.57 488.96 689.52 492.81
  Q 694.16 498.86 697.84 506.24
  Q 701.25 513.06 703.97 517.77
  Q 711.68 531.11 721.57 544.35
  C 728.57 553.70 736.12 561.62 746.13 567.09
  C 752.38 570.50 758.38 571.51 765.69 572.34
  Q 769.41 572.76 772.78 572.18
  Q 783.88 570.28 790.83 565.28
  Q 802.20 557.09 811.43 543.69
  Q 819.42 532.07 826.40 519.18
  Q 827.88 516.46 831.86 508.21
  Q 835.63 500.38 840.17 493.66
  C 846.69 484.02 857.34 479.94 867.70 486.88
  Q 872.98 490.41 876.24 494.53
  Q 883.96 504.28 888.48 517.37
  Q 889.97 521.67 890.24 526.07
  Q 891.33 543.30 889.35 553.75
  Q 887.02 565.98 885.98 570.82
  C 884.68 576.85 882.54 583.85 880.52 589.99
  Q 879.36 593.53 875.85 597.29
  Q 871.40 602.07 864.26 601.38
  Q 858.45 600.82 855.39 599.24
  C 848.53 595.73 840.03 591.06 832.47 589.73
  Q 823.77 588.21 814.40 590.70
  Q 809.69 591.95 805.19 596.25
  Q 802.18 599.12 800.04 605.00
  Q 797.51 611.95 797.19 614.82
  Q 796.80 618.24 795.71 626.58
  Q 795.09 631.38 795.04 633.40
  Q 794.91 638.07 794.49 640.22
  C 793.76 644.05 794.40 648.49 793.82 652.38
  Q 793.38 655.31 793.20 659.17
  Q 793.12 661.01 792.67 665.97
  Q 791.91 674.29 792.32 682.73
  Z"
/>
<path fill="#767876" fill-opacity="0.996" d="
  M 725.97 693.29
  Q 725.92 693.28 725.86 693.27
  A 0.15 0.14 -87.6 0 1 725.75 693.14
  Q 722.74 672.34 722.29 663.74
  Q 721.86 655.46 721.41 653.76
  Q 721.14 652.72 721.20 646.27
  Q 721.21 645.45 720.47 642.70
  A 6.34 6.23 -54.5 0 1 720.24 641.25
  Q 719.75 630.06 719.22 622.02
  Q 718.73 614.63 716.88 612.02
  Q 713.10 606.69 705.49 607.87
  A 6.24 6.08 28.2 0 0 703.99 608.30
  Q 687.54 615.50 670.31 617.88
  Q 661.99 619.02 655.72 616.26
  Q 650.30 613.88 646.67 605.86
  C 643.64 599.18 641.45 591.65 640.02 584.01
  Q 634.45 554.11 634.38 553.63
  Q 634.26 552.77 634.18 550.04
  A 9.85 9.30 40.0 0 0 633.97 548.25
  Q 633.17 544.40 633.45 541.60
  A 1.69 1.60 43.4 0 0 633.42 541.06
  L 630.81 527.79
  A 2.70 2.70 0.0 0 0 627.70 525.65
  Q 625.65 526.00 623.73 526.98
  Q 613.86 532.00 601.52 537.55
  Q 591.73 541.96 578.75 546.90
  Q 578.25 547.09 551.26 557.60
  C 541.96 561.21 535.98 564.02 527.94 567.18
  Q 523.52 568.92 516.58 572.53
  Q 509.95 575.99 506.32 579.64
  C 498.63 587.36 495.41 597.52 492.16 607.63
  Q 485.76 627.57 479.74 649.18
  C 478.92 652.15 477.58 655.20 476.79 657.81
  Q 470.37 679.09 462.23 699.27
  Q 461.82 700.29 461.18 703.28
  C 460.06 708.54 466.08 711.55 470.82 714.76
  C 475.20 717.73 479.02 719.49 484.40 722.46
  Q 487.10 723.95 490.93 725.77
  Q 521.48 740.29 522.15 740.59
  Q 527.75 743.01 533.28 745.64
  Q 539.93 748.82 544.43 750.57
  Q 559.37 756.41 574.04 762.86
  Q 579.56 765.29 585.94 767.54
  C 603.77 773.83 622.22 780.03 636.25 782.96
  Q 658.03 787.51 670.07 789.87
  Q 677.63 791.35 689.09 792.52
  Q 703.95 794.03 706.91 794.37
  Q 714.80 795.29 724.75 795.91
  Q 732.19 796.38 732.80 796.43
  Q 738.80 796.89 740.85 796.91
  Q 759.17 797.11 764.19 797.36
  Q 772.31 797.77 781.79 797.28
  Q 786.71 797.02 799.42 796.91
  Q 804.45 796.86 807.56 796.36
  Q 808.76 796.17 815.72 795.91
  C 821.15 795.70 831.77 793.77 840.82 793.21
  C 844.40 792.99 847.33 792.00 850.12 792.12
  A 6.01 5.63 39.3 0 0 851.44 792.03
  Q 857.61 790.95 869.68 789.31
  Q 879.04 788.05 886.21 786.29
  C 892.50 784.75 900.85 783.59 908.18 781.71
  Q 923.88 777.68 928.78 776.30
  Q 955.03 768.91 980.87 758.10
  Q 996.13 751.72 1013.07 744.07
  C 1015.60 742.92 1018.28 741.11 1020.85 739.93
  Q 1034.19 733.83 1045.68 728.41
  C 1051.25 725.77 1056.12 722.46 1062.03 719.53
  C 1066.70 717.21 1071.21 714.08 1076.00 710.73
  Q 1078.66 708.86 1079.61 706.74
  Q 1080.32 705.15 1079.22 702.29
  C 1074.37 689.74 1068.31 674.85 1063.55 660.84
  Q 1056.71 640.73 1054.78 634.27
  Q 1049.61 616.99 1044.91 602.57
  Q 1043.07 596.94 1039.28 589.37
  C 1036.51 583.85 1032.57 579.56 1027.85 575.94
  Q 1027.23 575.47 1021.54 572.20
  Q 1018.32 570.35 1014.92 569.03
  C 1006.74 565.85 998.87 562.15 990.69 559.08
  Q 974.51 552.99 961.57 548.10
  Q 953.40 545.01 950.34 543.98
  C 944.64 542.05 940.86 540.22 935.30 538.12
  Q 933.97 537.62 929.38 535.53
  Q 919.50 531.01 908.97 526.73
  Q 906.96 525.92 904.19 525.86
  A 1.77 1.69 29.1 0 0 903.27 526.10
  C 901.19 527.31 900.49 531.60 900.20 533.88
  Q 899.17 542.07 898.56 545.12
  Q 897.46 550.68 897.19 553.51
  Q 896.68 558.87 895.99 561.95
  Q 895.12 565.86 893.63 576.91
  C 892.37 586.21 890.13 594.68 887.29 603.32
  C 885.16 609.79 881.40 615.02 874.30 617.64
  A 4.07 3.86 31.5 0 1 873.22 617.87
  Q 861.64 618.75 850.06 615.88
  Q 845.71 614.79 835.45 611.08
  Q 828.54 608.57 824.76 607.99
  C 817.94 606.95 815.72 612.04 814.04 617.57
  A 4.26 3.90 56.5 0 0 813.86 618.71
  Q 813.67 631.57 813.72 639.21
  C 813.76 644.08 812.87 648.63 812.87 653.26
  Q 812.87 658.19 812.19 663.29
  Q 812.04 664.42 811.42 671.11
  Q 809.47 692.35 809.39 693.60
  Q 808.95 700.03 807.44 713.83
  Q 806.27 724.43 805.94 734.13
  Q 805.83 737.30 805.41 739.80
  Q 804.91 742.77 804.92 745.00
  A 5.30 5.19 -38.1 0 1 804.74 746.36
  Q 803.45 751.07 803.47 755.71
  A 4.04 3.97 -37.4 0 1 803.31 756.83
  C 800.87 765.12 786.31 764.73 787.76 754.58
  A 3.64 3.39 50.1 0 0 787.80 753.83
  C 787.65 750.71 787.20 747.29 787.51 744.09
  C 787.95 739.59 787.78 735.87 788.25 731.31
  Q 789.15 722.54 789.55 712.25
  Q 789.57 711.91 790.15 711.72
  Q 789.69 734.41 788.50 744.02
  Q 787.61 751.30 788.18 755.66
  Q 788.97 761.68 794.99 761.92
  Q 799.56 762.10 802.53 757.23
  A 2.13 2.10 63.1 0 0 802.82 756.32
  Q 803.84 744.15 805.57 727.57
  Q 807.64 707.69 809.08 690.75
  C 809.43 686.63 810.14 683.61 810.12 679.75
  C 810.08 675.00 811.06 670.62 811.08 666.05
  C 811.11 661.65 811.99 658.31 811.99 653.84
  C 812.00 649.34 813.03 643.03 813.07 637.75
  Q 813.16 625.84 813.04 619.47
  C 812.93 613.73 816.51 607.78 822.17 606.93
  Q 825.40 606.44 833.45 609.37
  Q 836.17 610.36 845.80 613.37
  Q 851.25 615.07 854.04 615.59
  C 859.84 616.66 863.85 617.21 870.18 617.13
  C 876.14 617.06 880.81 614.13 883.53 609.03
  C 884.83 606.61 886.45 602.91 887.50 599.51
  C 891.83 585.58 893.78 570.56 896.06 556.74
  Q 897.04 550.77 897.51 546.21
  C 898.10 540.46 898.77 536.64 899.16 532.89
  Q 899.56 529.10 901.10 526.61
  Q 903.00 523.56 906.79 524.67
  Q 910.40 525.73 913.40 527.59
  A 6.26 5.98 70.3 0 0 914.38 528.08
  Q 920.80 530.59 922.30 531.27
  Q 930.64 535.06 938.56 538.16
  Q 954.57 544.43 975.26 551.99
  Q 992.87 558.43 1010.28 565.95
  C 1020.77 570.49 1031.13 574.33 1037.65 584.33
  Q 1040.89 589.30 1043.84 596.64
  Q 1046.65 603.60 1054.48 629.85
  Q 1056.25 635.82 1058.05 640.87
  C 1059.87 646.03 1061.09 650.53 1062.81 655.57
  Q 1070.59 678.29 1079.90 701.16
  Q 1081.54 705.18 1079.90 708.45
  A 2.52 2.51 -8.6 0 1 1079.33 709.22
  Q 1073.64 714.45 1066.53 718.29
  C 1057.04 723.42 1050.06 727.59 1042.14 731.12
  C 1036.64 733.57 1028.78 737.99 1021.93 740.71
  C 1018.00 742.27 1014.54 744.64 1010.46 746.48
  Q 1000.56 750.93 998.63 751.87
  Q 997.94 752.21 980.27 759.56
  Q 970.52 763.62 961.74 766.78
  Q 923.49 780.57 882.69 788.18
  Q 877.46 789.15 868.24 790.51
  Q 856.01 792.32 853.73 792.63
  Q 837.73 794.83 809.40 797.15
  Q 798.09 798.07 790.60 798.11
  C 782.25 798.15 773.71 798.67 765.47 798.43
  Q 755.16 798.13 747.85 798.06
  C 736.61 797.96 725.64 796.86 711.51 795.78
  Q 709.36 795.62 706.90 795.17
  C 704.79 794.79 702.79 795.11 700.69 794.78
  Q 696.62 794.14 684.59 792.77
  Q 676.03 791.79 669.53 790.55
  Q 662.50 789.21 659.52 788.74
  C 649.71 787.19 638.10 784.52 630.28 782.63
  Q 613.22 778.50 587.63 769.35
  Q 574.07 764.51 545.79 752.41
  Q 544.69 751.94 543.41 751.40
  Q 532.05 746.55 492.65 728.08
  Q 476.34 720.44 463.32 710.78
  Q 460.20 708.46 459.87 705.14
  Q 459.62 702.69 461.43 698.54
  C 462.67 695.70 464.10 692.45 465.49 688.55
  Q 475.80 659.66 480.46 643.74
  Q 487.95 618.09 493.20 601.43
  Q 494.55 597.13 497.50 590.72
  Q 501.85 581.27 508.92 575.89
  Q 512.78 572.96 520.09 569.65
  Q 520.19 569.60 536.25 562.61
  Q 543.06 559.65 552.58 555.98
  Q 569.03 549.64 581.40 544.93
  Q 600.13 537.80 623.01 526.04
  Q 626.04 524.48 629.04 524.62
  A 2.68 2.68 0.0 0 1 631.52 526.69
  Q 633.40 534.88 633.95 543.01
  Q 634.30 548.31 634.66 548.82
  A 1.72 1.64 -61.6 0 1 634.94 549.85
  Q 634.78 552.70 635.66 555.24
  A 4.94 4.84 36.0 0 1 635.93 556.84
  C 635.92 559.25 636.65 561.68 637.10 564.20
  Q 639.21 576.12 641.09 585.31
  Q 641.98 589.69 643.39 593.99
  C 645.42 600.21 646.41 603.65 649.25 608.70
  C 652.03 613.63 657.45 617.42 663.26 617.10
  C 664.86 617.01 666.86 617.27 668.62 617.00
  Q 678.21 615.53 680.50 615.04
  Q 690.90 612.77 700.62 608.52
  A 5.68 5.08 24.2 0 1 701.60 608.21
  Q 703.30 607.86 706.02 607.14
  Q 707.82 606.67 711.92 607.13
  A 3.15 3.01 60.3 0 1 712.99 607.45
  Q 716.73 609.41 718.70 613.18
  Q 719.99 615.63 720.22 621.07
  Q 720.88 636.56 720.89 637.49
  C 720.98 641.83 721.99 646.06 721.94 650.42
  C 721.89 654.22 722.95 658.48 722.98 662.56
  C 723.00 666.38 723.92 669.32 723.96 673.24
  C 724.00 676.51 725.10 680.17 724.98 683.99
  A 3.68 3.53 -51.9 0 0 725.08 684.99
  Q 726.05 689.09 725.97 693.29
  Z"
/>
<path fill="#767876" fill-opacity="0.996" d="
  M 792.06 684.23
  L 790.34 709.97
  Q 789.51 701.68 791.19 693.61
  A 0.56 0.26 70.1 0 0 791.20 693.50
  L 791.62 683.40
  A 0.26 0.26 0.0 0 1 792.13 683.35
  Q 792.21 683.66 792.06 684.23
  Z"
/>
<path fill="#767876" fill-opacity="0.996" d="
  M 726.18 695.04
  Q 725.89 694.75 726.00 694.29
  Q 726.18 694.62 726.18 695.04
  Z"
/>
<path fill="#767876" fill-opacity="0.996" d="
  M 727.28 707.43
  Q 725.95 701.72 726.34 695.47
  L 727.28 707.43
  Z"
/>
<path fill="#767876" fill-opacity="0.996" d="
  M 727.87 712.59
  Q 727.12 710.18 727.48 707.56
  Q 728.24 709.95 727.87 712.59
  Z"
/>
<path fill="#767876" fill-opacity="0.996" d="
  M 740.52 761.98
  Q 741.24 762.42 743.07 762.36
  Q 739.77 763.07 737.29 761.96
  Q 732.57 759.85 731.96 754.46
  Q 731.06 746.61 729.08 727.00
  Q 728.19 718.24 728.31 713.52
  Q 729.78 725.52 731.04 737.49
  Q 732.70 753.25 733.18 755.80
  Q 733.39 756.94 734.33 758.74
  A 2.20 2.20 0.0 0 0 734.97 759.51
  Q 737.38 761.33 740.52 761.98
  Z"
/>
</svg>
