<?xml version="1.0" encoding="UTF-8" standalone="no"?>
<!DOCTYPE svg PUBLIC "-//W3C//DTD SVG 1.1//EN" "http://www.w3.org/Graphics/SVG/1.1/DTD/svg11.dtd">
<svg xmlns="http://www.w3.org/2000/svg" version="1.1" viewBox="0.00 0.00 1536.00 1024.00">
<g stroke-width="2.00" fill="none" stroke-linecap="butt">
<path stroke="#8e8e8e" vector-effect="non-scaling-stroke" d="
  M 852.98 468.05
  A 0.43 0.43 0.0 0 1 853.40 467.54
  Q 921.58 467.35 1025.68 467.44
  C 1032.70 467.45 1037.41 468.16 1041.87 463.35
  Q 1044.40 460.61 1045.25 455.45
  Q 1045.50 453.89 1049.79 439.32
  Q 1051.30 434.19 1054.12 423.18
  C 1059.27 403.13 1064.63 384.14 1069.41 365.42
  Q 1070.61 360.72 1070.04 358.02
  Q 1068.44 350.39 1060.32 348.42
  A 4.93 4.69 50.5 0 0 1059.17 348.28
  Q 949.03 348.27 820.76 348.25
  Q 815.84 348.25 812.72 352.40
  Q 811.22 354.39 810.67 359.87
  Q 810.27 363.98 809.51 367.69
  A 4.55 4.53 -24.9 0 1 809.01 369.05
  C 804.08 377.97 795.87 382.60 785.92 378.31
  Q 780.55 376.00 776.96 369.23
  A 4.13 4.11 26.4 0 1 776.53 367.96
  Q 775.75 363.26 775.41 358.62
  C 775.02 353.22 773.21 349.70 768.11 348.43
  A 3.50 3.24 -35.9 0 0 767.29 348.33
  Q 742.79 348.30 729.40 348.19
  Q 706.40 348.01 693.67 349.78
  C 667.78 353.39 642.07 362.14 620.18 376.40
  Q 604.97 386.31 592.10 398.60
  Q 569.67 420.03 557.50 449.01
  C 543.09 483.29 542.06 521.29 555.07 556.29
  Q 570.45 597.70 605.75 624.47
  Q 635.59 647.09 672.39 653.79
  Q 706.36 659.96 739.79 651.06
  C 785.11 638.98 823.40 606.69 842.58 563.91
  Q 855.96 534.07 856.42 501.08
  C 856.58 490.25 855.04 478.89 852.98 468.05"
/>
<path stroke="#8e8e8e" vector-effect="non-scaling-stroke" d="
  M 538.91 449.64
  C 513.80 448.03 491.10 462.79 480.54 485.42
  C 475.44 496.34 474.36 508.72 476.48 520.00
  Q 480.59 541.82 497.84 555.86
  Q 516.91 571.37 541.56 569.30
  A 0.25 0.25 0.0 0 0 541.77 568.94
  Q 536.86 558.62 533.95 547.37
  A 0.75 0.73 -5.2 0 0 533.27 546.82
  Q 526.04 546.49 521.22 544.30
  C 505.04 536.92 495.53 520.54 498.42 502.75
  Q 499.97 493.20 506.52 485.30
  Q 516.14 473.69 531.63 472.55
  A 0.59 0.59 0.0 0 0 532.15 472.14
  L 539.07 449.88
  A 0.18 0.18 0.0 0 0 538.91 449.64"
/>
<path stroke="#8e8e8e" vector-effect="non-scaling-stroke" d="
  M 783.7180 503.3100
  A 83.08 82.11 -0.4 0 0 700.0668 421.7820
  A 83.08 82.11 -0.4 0 0 617.5620 504.4700
  A 83.08 82.11 -0.4 0 0 701.2132 585.9980
  A 83.08 82.11 -0.4 0 0 783.7180 503.3100"
/>
</g>
<path fill="#ffffff" d="
  M 1536.00 0.00
  L 1536.00 1024.00
  L 0.00 1024.00
  L 0.00 0.00
  L 1536.00 0.00
  Z
  M 852.98 468.05
  A 0.43 0.43 0.0 0 1 853.40 467.54
  Q 921.58 467.35 1025.68 467.44
  C 1032.70 467.45 1037.41 468.16 1041.87 463.35
  Q 1044.40 460.61 1045.25 455.45
  Q 1045.50 453.89 1049.79 439.32
  Q 1051.30 434.19 1054.12 423.18
  C 1059.27 403.13 1064.63 384.14 1069.41 365.42
  Q 1070.61 360.72 1070.04 358.02
  Q 1068.44 350.39 1060.32 348.42
  A 4.93 4.69 50.5 0 0 1059.17 348.28
  Q 949.03 348.27 820.76 348.25
  Q 815.84 348.25 812.72 352.40
  Q 811.22 354.39 810.67 359.87
  Q 810.27 363.98 809.51 367.69
  A 4.55 4.53 -24.9 0 1 809.01 369.05
  C 804.08 377.97 795.87 382.60 785.92 378.31
  Q 780.55 376.00 776.96 369.23
  A 4.13 4.11 26.4 0 1 776.53 367.96
  Q 775.75 363.26 775.41 358.62
  C 775.02 353.22 773.21 349.70 768.11 348.43
  A 3.50 3.24 -35.9 0 0 767.29 348.33
  Q 742.79 348.30 729.40 348.19
  Q 706.40 348.01 693.67 349.78
  C 667.78 353.39 642.07 362.14 620.18 376.40
  Q 604.97 386.31 592.10 398.60
  Q 569.67 420.03 557.50 449.01
  C 543.09 483.29 542.06 521.29 555.07 556.29
  Q 570.45 597.70 605.75 624.47
  Q 635.59 647.09 672.39 653.79
  Q 706.36 659.96 739.79 651.06
  C 785.11 638.98 823.40 606.69 842.58 563.91
  Q 855.96 534.07 856.42 501.08
  C 856.58 490.25 855.04 478.89 852.98 468.05
  Z
  M 538.91 449.64
  C 513.80 448.03 491.10 462.79 480.54 485.42
  C 475.44 496.34 474.36 508.72 476.48 520.00
  Q 480.59 541.82 497.84 555.86
  Q 516.91 571.37 541.56 569.30
  A 0.25 0.25 0.0 0 0 541.77 568.94
  Q 536.86 558.62 533.95 547.37
  A 0.75 0.73 -5.2 0 0 533.27 546.82
  Q 526.04 546.49 521.22 544.30
  C 505.04 536.92 495.53 520.54 498.42 502.75
  Q 499.97 493.20 506.52 485.30
  Q 516.14 473.69 531.63 472.55
  A 0.59 0.59 0.0 0 0 532.15 472.14
  L 539.07 449.88
  A 0.18 0.18 0.0 0 0 538.91 449.64
  Z"
/>
<path fill="#1d1d1d" d="
  M 852.98 468.05
  C 855.04 478.89 856.58 490.25 856.42 501.08
  Q 855.96 534.07 842.58 563.91
  C 823.40 606.69 785.11 638.98 739.79 651.06
  Q 706.36 659.96 672.39 653.79
  Q 635.59 647.09 605.75 624.47
  Q 570.45 597.70 555.07 556.29
  C 542.06 521.29 543.09 483.29 557.50 449.01
  Q 569.67 420.03 592.10 398.60
  Q 604.97 386.31 620.18 376.40
  C 642.07 362.14 667.78 353.39 693.67 349.78
  Q 706.40 348.01 729.40 348.19
  Q 742.79 348.30 767.29 348.33
  A 3.50 3.24 -35.9 0 1 768.11 348.43
  C 773.21 349.70 775.02 353.22 775.41 358.62
  Q 775.75 363.26 776.53 367.96
  A 4.13 4.11 26.4 0 0 776.96 369.23
  Q 780.55 376.00 785.92 378.31
  C 795.87 382.60 804.08 377.97 809.01 369.05
  A 4.55 4.53 -24.9 0 0 809.51 367.69
  Q 810.27 363.98 810.67 359.87
  Q 811.22 354.39 812.72 352.40
  Q 815.84 348.25 820.76 348.25
  Q 949.03 348.27 1059.17 348.28
  A 4.93 4.69 50.5 0 1 1060.32 348.42
  Q 1068.44 350.39 1070.04 358.02
  Q 1070.61 360.72 1069.41 365.42
  C 1064.63 384.14 1059.27 403.13 1054.12 423.18
  Q 1051.30 434.19 1049.79 439.32
  Q 1045.50 453.89 1045.25 455.45
  Q 1044.40 460.61 1041.87 463.35
  C 1037.41 468.16 1032.70 467.45 1025.68 467.44
  Q 921.58 467.35 853.40 467.54
  A 0.43 0.43 0.0 0 0 852.98 468.05
  Z
  M 783.7180 503.3100
  A 83.08 82.11 -0.4 0 0 700.0668 421.7820
  A 83.08 82.11 -0.4 0 0 617.5620 504.4700
  A 83.08 82.11 -0.4 0 0 701.2132 585.9980
  A 83.08 82.11 -0.4 0 0 783.7180 503.3100
  Z"
/>
<ellipse fill="#ffffff" cx="0.00" cy="0.00" transform="translate(700.64,503.89) rotate(-0.4)" rx="83.08" ry="82.11"/>
<path fill="#1d1d1d" d="
  M 538.91 449.64
  A 0.18 0.18 0.0 0 1 539.07 449.88
  L 532.15 472.14
  A 0.59 0.59 0.0 0 1 531.63 472.55
  Q 516.14 473.69 506.52 485.30
  Q 499.97 493.20 498.42 502.75
  C 495.53 520.54 505.04 536.92 521.22 544.30
  Q 526.04 546.49 533.27 546.82
  A 0.75 0.73 -5.2 0 1 533.95 547.37
  Q 536.86 558.62 541.77 568.94
  A 0.25 0.25 0.0 0 1 541.56 569.30
  Q 516.91 571.37 497.84 555.86
  Q 480.59 541.82 476.48 520.00
  C 474.36 508.72 475.44 496.34 480.54 485.42
  C 491.10 462.79 513.80 448.03 538.91 449.64
  Z"
/>
</svg>
